<?xml version="1.0" encoding="utf-8" ?>
<svg baseProfile="full" height="512" version="1.1" viewBox="0,0,512,512" width="512" xmlns="http://www.w3.org/2000/svg" xmlns:ev="http://www.w3.org/2001/xml-events" xmlns:xlink="http://www.w3.org/1999/xlink"><defs><style type="text/css"><![CDATA[
	.background { fill: white; }
	.line { stroke: firebrick; stroke-width: .1mm; }
	.blacksquare { fill: indigo; }
	.whitesquare { fill: white; }
]]></style></defs>
<path d="M 380.53540 361.99688 L 381.10474 361.30849 
L 379.87846 361.29319 
L 379.92225 362.77705 
" fill="none" stroke="rgb(0, 0, 0)" stroke-width="0.44657" stroke-opacity="0.298" id = "4" /><path d="M 212.75342 318.70486 L 214.06730 319.95926 
L 222.16953 324.44144 
L 231.84842 328.64826 
L 242.05286 331.92193 
L 258.47631 336.45000 
L 273.58588 340.13670 
L 296.00937 344.97072 
L 374.00981 359.71754 
" fill="none" stroke="rgb(0, 0, 0)" stroke-width="0.29181" stroke-opacity="0.195" id = "7" /><path d="M 390.82743 364.59746 L 388.90041 364.33740 
L 386.88580 365.27055 
L 386.57923 366.49435 
" fill="none" stroke="rgb(0, 0, 0)" stroke-width="0.50200" stroke-opacity="0.335" id = "8" /><path d="M 226.89949 102.35188 L 226.50532 96.70709 
L 225.97977 95.55978 
L 225.49802 95.89632 
L 225.49802 96.37055 
L 225.89218 96.52352 
" fill="none" stroke="rgb(0, 0, 0)" stroke-width="0.29423" stroke-opacity="0.196" id = "12" /><path d="M 391.65955 250.35549 L 390.21428 249.59062 
L 391.30918 249.26937 
" fill="none" stroke="rgb(0, 0, 0)" stroke-width="0.49734" stroke-opacity="0.332" id = "21" /><path d="M 207.93588 240.48859 L 209.64391 240.18264 
L 213.71693 237.52087 
L 217.04542 237.35259 
" fill="none" stroke="rgb(0, 0, 0)" stroke-width="0.52589" stroke-opacity="0.351" id = "28" /><path d="M 389.95151 261.01787 L 389.82012 259.88586 
L 389.16318 260.58954 
" fill="none" stroke="rgb(0, 0, 0)" stroke-width="0.42494" stroke-opacity="0.283" id = "31" /><path d="M 289.08962 304.95238 L 288.52028 304.56994 
L 288.87064 305.68666 
" fill="none" stroke="rgb(0, 0, 0)" stroke-width="0.46751" stroke-opacity="0.312" id = "34" /><path d="M 275.95086 300.05717 L 275.77568 299.27700 
L 278.05306 296.21749 
" fill="none" stroke="rgb(0, 0, 0)" stroke-width="0.66429" stroke-opacity="0.443" id = "38" /><path d="M 266.09679 442.11005 L 265.92161 443.50212 
L 266.27197 445.53669 
L 267.36687 447.09704 
L 269.16250 447.90781 
L 272.49099 447.55597 
L 277.70270 444.74122 
" fill="none" stroke="rgb(0, 0, 0)" stroke-width="0.68110" stroke-opacity="0.454" id = "41" /><path d="M 365.77619 363.03711 L 366.60831 362.22634 
L 366.65211 361.50736 
" fill="none" stroke="rgb(0, 0, 0)" stroke-width="0.65034" stroke-opacity="0.434" id = "43" /><path d="M 365.77619 363.03711 L 366.60831 362.22634 
L 366.65211 361.50736 
" fill="none" stroke="rgb(0, 0, 0)" stroke-width="0.65034" stroke-opacity="0.434" id = "44" /><path d="M 365.77619 363.03711 L 366.60831 362.22634 
L 366.65211 361.50736 
" fill="none" stroke="rgb(0, 0, 0)" stroke-width="0.65034" stroke-opacity="0.434" id = "45" /><path d="M 275.64429 432.77855 L 274.41801 433.03861 
L 274.11143 432.50320 
L 274.11143 434.69074 
L 274.59319 435.83806 
L 276.65159 437.88793 
L 276.82678 438.59162 
L 278.88518 438.59162 
" fill="none" stroke="rgb(0, 0, 0)" stroke-width="0.64981" stroke-opacity="0.433" id = "46" /><path d="M 274.24282 435.82276 L 273.89246 435.34854 
L 273.89246 436.43466 
L 274.33041 438.01031 
L 276.08225 440.42732 
L 277.79029 440.39672 
L 278.71000 438.59162 
" fill="none" stroke="rgb(0, 0, 0)" stroke-width="0.68927" stroke-opacity="0.460" id = "47" /><path d="M 368.57912 357.71357 L 366.78349 353.50675 
L 366.08276 352.95604 
L 365.68860 353.39966 
" fill="none" stroke="rgb(0, 0, 0)" stroke-width="0.64426" stroke-opacity="0.430" id = "50" /><path d="M 377.95144 350.84498 L 377.68867 351.16622 
L 379.65948 353.70561 
L 380.22883 355.06710 
L 380.44781 358.00422 
L 379.70328 360.46712 
L 377.16311 364.49037 
" fill="none" stroke="rgb(0, 0, 0)" stroke-width="0.55861" stroke-opacity="0.372" id = "52" /><path d="M 111.45358 267.47343 L 110.92803 266.06606 
L 112.41708 264.53631 
L 114.60688 263.38899 
L 114.25651 261.90513 
" fill="none" stroke="rgb(0, 0, 0)" stroke-width="0.72489" stroke-opacity="0.483" id = "58" /><path d="M 108.08129 255.08243 L 110.05211 255.38838 
L 111.45358 256.62748 
L 112.28570 258.61616 
L 112.89884 261.88983 
L 112.76745 256.84165 
L 112.63606 258.27962 
L 114.34410 263.32780 
L 113.16161 258.98330 
L 112.41708 257.62182 
L 110.40247 257.62182 
L 106.76742 259.85526 
" fill="none" stroke="rgb(0, 0, 0)" stroke-width="0.79199" stroke-opacity="0.528" id = "59" /><path d="M 110.44627 388.06387 L 109.48276 386.35055 
L 109.57035 387.89560 
L 111.14700 389.59362 
L 113.86235 390.57266 
L 117.14704 390.75624 
L 118.32953 389.93017 
" fill="none" stroke="rgb(0, 0, 0)" stroke-width="0.71791" stroke-opacity="0.479" id = "60" /><path d="M 111.40978 387.42137 L 111.36598 388.93583 
L 112.11051 390.15963 
L 113.77476 391.07748 
L 115.30761 391.39873 
L 118.94267 391.03159 
L 121.04487 390.17493 
L 123.58503 388.44631 
" fill="none" stroke="rgb(0, 0, 0)" stroke-width="0.61642" stroke-opacity="0.411" id = "61" /><path d="M 119.03026 379.37487 L 116.53390 378.67119 
L 116.53390 379.78791 
" fill="none" stroke="rgb(0, 0, 0)" stroke-width="0.59979" stroke-opacity="0.400" id = "64" /><path d="M 119.03026 379.37487 L 116.53390 378.67119 
L 116.53390 379.78791 
" fill="none" stroke="rgb(0, 0, 0)" stroke-width="0.59979" stroke-opacity="0.400" id = "65" /><path d="M 216.60746 328.25052 L 218.44688 326.13946 
L 220.94325 324.71679 
L 223.22063 324.45674 
L 226.06737 325.17572 
" fill="none" stroke="rgb(0, 0, 0)" stroke-width="0.67381" stroke-opacity="0.449" id = "67" /><path d="M 223.74618 324.65560 L 221.68778 323.61537 
L 217.00162 322.22330 
" fill="none" stroke="rgb(0, 0, 0)" stroke-width="0.14544" stroke-opacity="0.097" id = "68" /><path d="M 216.43227 333.54347 L 215.60015 333.49758 
L 224.75349 330.83581 
L 227.73161 330.74402 
L 229.87761 331.55479 
" fill="none" stroke="rgb(0, 0, 0)" stroke-width="0.65768" stroke-opacity="0.438" id = "71" /><path d="M 356.88563 357.16286 L 359.25060 356.81101 
L 365.73239 358.52434 
" fill="none" stroke="rgb(0, 0, 0)" stroke-width="0.76003" stroke-opacity="0.507" id = "74" /><path d="M 278.84139 440.70267 L 277.48372 440.10607 
L 276.03845 438.53042 
L 274.41801 435.83806 
L 274.15523 433.17629 
L 274.54939 428.03632 
" fill="none" stroke="rgb(0, 0, 0)" stroke-width="0.93597" stroke-opacity="0.624" id = "75" /><path d="M 267.23548 447.18883 L 269.03111 447.77013 
L 271.22091 447.80073 
" fill="none" stroke="rgb(0, 0, 0)" stroke-width="0.90564" stroke-opacity="0.604" id = "78" /><path d="M 267.23548 447.18883 L 269.03111 447.77013 
L 271.22091 447.80073 
" fill="none" stroke="rgb(0, 0, 0)" stroke-width="0.90564" stroke-opacity="0.604" id = "79" /><path d="M 268.72454 294.81012 L 268.11140 293.69340 
L 269.16250 291.45996 
L 275.55670 284.79024 
" fill="none" stroke="rgb(0, 0, 0)" stroke-width="0.94361" stroke-opacity="0.629" id = "82" /><path d="M 106.67983 254.62351 L 107.64334 253.56798 
L 110.57766 251.96174 
L 113.29300 252.97137 
" fill="none" stroke="rgb(0, 0, 0)" stroke-width="0.83968" stroke-opacity="0.560" id = "83" /><path d="M 284.35967 302.64246 L 283.65893 302.59656 
L 283.35236 302.97900 
L 283.08959 304.76881 
L 284.00930 305.51839 
L 284.88522 305.50309 
L 285.06040 305.05947 
L 284.49106 304.73822 
" fill="none" stroke="rgb(0, 0, 0)" stroke-width="0.87555" stroke-opacity="0.584" id = "87" /><path d="M 284.35967 302.64246 L 283.65893 302.59656 
L 283.35236 302.97900 
L 283.08959 304.76881 
L 284.00930 305.51839 
L 284.88522 305.50309 
L 285.06040 305.05947 
L 284.49106 304.73822 
" fill="none" stroke="rgb(0, 0, 0)" stroke-width="0.87555" stroke-opacity="0.584" id = "88" /><path d="M 286.11150 287.13076 L 286.28669 285.37154 
L 285.84873 285.95285 
L 283.79032 295.11607 
" fill="none" stroke="rgb(0, 0, 0)" stroke-width="0.57357" stroke-opacity="0.382" id = "89" /><path d="M 379.39670 251.88525 L 380.53540 255.54136 
L 380.62299 258.61616 
L 380.00985 262.53233 
L 377.77626 269.23265 
L 380.22883 263.15953 
L 380.57919 259.82467 
L 378.65217 255.20481 
L 377.64487 254.31755 
" fill="none" stroke="rgb(0, 0, 0)" stroke-width="0.89857" stroke-opacity="0.599" id = "95" /><path d="M 120.16895 243.41042 L 117.76018 243.34923 
L 114.56308 244.23648 
" fill="none" stroke="rgb(0, 0, 0)" stroke-width="0.51672" stroke-opacity="0.344" id = "96" /><path d="M 376.59377 254.62351 L 375.76165 253.24673 
L 380.18503 255.67904 
L 381.32372 255.92380 
L 381.76168 257.14760 
L 382.37482 257.49944 
L 382.46242 256.70397 
L 381.63029 256.04618 
L 378.82736 254.89886 
L 377.33830 254.73059 
" fill="none" stroke="rgb(0, 0, 0)" stroke-width="1.03609" stroke-opacity="0.691" id = "103" /><path d="M 115.96455 258.61616 L 115.52659 258.50908 
L 115.48280 257.79009 
L 117.01565 256.81105 
" fill="none" stroke="rgb(0, 0, 0)" stroke-width="0.72199" stroke-opacity="0.481" id = "104" /><path d="M 115.13243 260.86490 L 112.15431 262.19578 
L 121.61422 259.25866 
L 127.96462 257.79009 
L 120.65071 258.43259 
L 117.05945 257.91247 
L 122.49013 258.08075 
L 133.65808 257.02522 
L 128.22739 256.88754 
L 112.98643 259.62580 
L 143.42456 255.43427 
" fill="none" stroke="rgb(0, 0, 0)" stroke-width="0.79155" stroke-opacity="0.528" id = "106" /><path d="M 281.77571 296.98237 L 281.95090 297.28832 
L 282.82681 297.28832 
L 284.14069 296.43166 
L 283.92171 295.89624 
L 283.00200 295.83505 
L 280.59322 297.65546 
L 278.88518 300.01128 
L 278.14065 302.27532 
L 278.09686 300.94443 
L 278.66620 299.73592 
L 283.96551 296.44696 
" fill="none" stroke="rgb(0, 0, 0)" stroke-width="0.89028" stroke-opacity="0.594" id = "107" /><path d="M 281.25016 287.13076 L 281.95090 286.01404 
L 278.57861 287.54379 
L 273.84866 290.51151 
L 271.65887 293.32626 
L 269.60046 298.08379 
L 272.44719 292.20954 
L 276.12604 287.95683 
L 278.18445 287.23784 
L 282.56404 287.08487 
" fill="none" stroke="rgb(0, 0, 0)" stroke-width="0.93017" stroke-opacity="0.620" id = "108" /><path d="M 284.09689 296.46225 L 282.78302 294.94780 
L 281.90710 295.02429 
L 280.41804 296.03392 
L 277.65890 299.21581 
L 276.38882 301.81639 
L 276.16984 303.13198 
" fill="none" stroke="rgb(0, 0, 0)" stroke-width="0.91856" stroke-opacity="0.612" id = "109" /><path d="M 375.27989 227.31741 L 378.69597 227.92931 
L 379.65948 228.31175 
L 379.44050 228.51062 
L 381.19233 228.70949 
" fill="none" stroke="rgb(0, 0, 0)" stroke-width="0.51693" stroke-opacity="0.345" id = "115" /><path d="M 375.27989 227.31741 L 378.69597 227.92931 
L 379.65948 228.31175 
L 379.44050 228.51062 
L 381.19233 228.70949 
" fill="none" stroke="rgb(0, 0, 0)" stroke-width="0.51693" stroke-opacity="0.345" id = "116" /><path d="M 385.39674 216.65503 L 385.04637 217.41991 
L 385.79090 217.34342 
L 388.63763 215.40064 
" fill="none" stroke="rgb(0, 0, 0)" stroke-width="0.54719" stroke-opacity="0.365" id = "117" /><path d="M 401.68880 73.92907 L 401.86399 74.55627 
L 401.77639 76.40727 
" fill="none" stroke="rgb(0, 0, 0)" stroke-width="0.35463" stroke-opacity="0.236" id = "121" /><path d="M 389.90771 73.51603 L 392.27269 73.16419 
L 393.63036 73.53133 
L 397.13403 75.56590 
L 398.84207 77.72286 
" fill="none" stroke="rgb(0, 0, 0)" stroke-width="0.68930" stroke-opacity="0.460" id = "139" /><path d="M 224.70969 232.02905 L 224.66590 232.96220 
L 224.92867 232.73274 
L 225.41043 227.94461 
L 225.71700 217.78705 
L 225.89218 216.83860 
L 226.24255 216.89979 
L 226.19875 214.13094 
L 225.14765 223.63071 
L 224.75349 232.57976 
" fill="none" stroke="rgb(0, 0, 0)" stroke-width="0.71502" stroke-opacity="0.477" id = "143" /><path d="M 218.27170 211.89750 L 218.27170 220.78537 
L 216.87023 233.34464 
" fill="none" stroke="rgb(0, 0, 0)" stroke-width="0.81137" stroke-opacity="0.541" id = "144" /><path d="M 374.27259 234.07892 L 374.22879 244.92487 
L 373.30908 253.78214 
L 375.32369 237.81152 
" fill="none" stroke="rgb(0, 0, 0)" stroke-width="1.00985" stroke-opacity="0.673" id = "149" /><path d="M 374.27259 234.07892 L 374.22879 244.92487 
L 373.30908 253.78214 
L 375.32369 237.81152 
" fill="none" stroke="rgb(0, 0, 0)" stroke-width="1.00985" stroke-opacity="0.673" id = "150" /><path d="M 375.80544 227.45509 L 375.67406 227.80693 
L 381.45511 231.49364 
L 382.72519 231.15709 
L 383.90768 229.22960 
" fill="none" stroke="rgb(0, 0, 0)" stroke-width="0.85227" stroke-opacity="0.568" id = "151" /><path d="M 380.18503 231.46304 L 377.07552 229.16841 
L 378.38940 229.90270 
" fill="none" stroke="rgb(0, 0, 0)" stroke-width="0.90975" stroke-opacity="0.607" id = "152" /><path d="M 380.18503 231.46304 L 377.07552 229.16841 
L 378.38940 229.90270 
" fill="none" stroke="rgb(0, 0, 0)" stroke-width="0.90975" stroke-opacity="0.607" id = "153" /><path d="M 398.40411 79.00785 L 396.95885 76.39197 
L 397.61579 78.59481 
L 395.42599 75.93304 
L 393.27999 74.70924 
L 397.22162 77.01917 
L 398.14134 78.51833 
" fill="none" stroke="rgb(0, 0, 0)" stroke-width="1.06365" stroke-opacity="0.709" id = "159" /><path d="M 378.43320 230.57579 L 376.76895 229.58145 
L 375.45508 229.79561 
L 375.06091 230.17805 
L 375.63026 230.08627 
L 384.34564 227.62336 
L 386.36025 226.33837 
L 385.13396 226.04772 
L 377.20691 229.76502 
L 377.11932 230.16275 
L 378.12662 231.09590 
L 380.53540 231.75370 
L 382.85658 231.47834 
L 386.22886 229.53555 
L 387.84931 227.51628 
L 386.66682 227.34801 
L 384.56462 227.94461 
L 380.84197 230.10156 
L 383.03176 228.98484 
L 387.01719 225.95593 
L 385.96608 227.60807 
L 384.12666 229.33669 
L 385.22155 224.22731 
L 386.00988 214.80403 
L 388.28727 167.06044 
" fill="none" stroke="rgb(0, 0, 0)" stroke-width="1.12500" stroke-opacity="0.750" id = "160" /><path d="M 108.43166 247.29599 L 106.54844 248.38211 
L 105.40975 250.29430 
L 105.23456 252.69602 
L 106.06668 254.17988 
L 104.79660 254.10339 
L 104.13967 253.50679 
L 104.00828 252.35947 
L 104.62142 251.05918 
L 107.33676 248.09146 
L 109.74554 246.79117 
L 108.08129 247.60194 
L 105.58493 250.09544 
L 104.09587 251.97703 
L 103.35134 253.73625 
L 103.43893 255.02124 
L 103.87689 255.58725 
L 105.97909 255.92380 
" fill="none" stroke="rgb(0, 0, 0)" stroke-width="0.98097" stroke-opacity="0.654" id = "163" /><path d="M 212.66583 233.29875 L 212.70963 233.71178 
L 214.72424 233.43642 
L 217.83374 233.65059 
" fill="none" stroke="rgb(0, 0, 0)" stroke-width="0.74060" stroke-opacity="0.494" id = "167" /><path d="M 280.15526 285.72339 L 282.43265 286.97778 
L 283.70273 288.20159 
L 283.43995 287.36022 
L 282.21367 285.92225 
L 279.84869 284.53018 
L 279.84869 285.40214 
L 284.71003 289.54777 
L 284.79763 288.82879 
L 283.87791 288.03331 
L 277.48372 284.91262 
" fill="none" stroke="rgb(0, 0, 0)" stroke-width="1.06944" stroke-opacity="0.713" id = "172" /><path d="M 278.14065 282.35793 L 279.76110 283.07691 
L 282.95820 283.44405 
L 287.68815 286.97778 
L 279.01657 279.97151 
L 277.26474 279.54318 
" fill="none" stroke="rgb(0, 0, 0)" stroke-width="1.06622" stroke-opacity="0.711" id = "174" /><path d="M 315.06057 288.32397 L 330.04700 272.54054 
L 327.36721 275.84118 
L 332.84170 270.31877 
L 326.09713 277.17207 
L 316.06788 288.67581 
" fill="none" stroke="rgb(0, 0, 0)" stroke-width="0.49027" stroke-opacity="0.327" id = "179" /><path d="M 315.06057 288.32397 L 330.04700 272.54054 
L 327.36721 275.84118 
L 332.84170 270.31877 
L 326.09713 277.17207 
L 316.06788 288.67581 
" fill="none" stroke="rgb(0, 0, 0)" stroke-width="0.49027" stroke-opacity="0.327" id = "180" /><path d="M 315.06057 288.32397 L 330.04700 272.54054 
L 327.36721 275.84118 
L 332.84170 270.31877 
L 326.09713 277.17207 
L 316.06788 288.67581 
" fill="none" stroke="rgb(0, 0, 0)" stroke-width="0.49027" stroke-opacity="0.327" id = "181" /><path d="M 315.06057 288.32397 L 330.04700 272.54054 
L 327.36721 275.84118 
L 332.84170 270.31877 
L 326.09713 277.17207 
L 316.06788 288.67581 
" fill="none" stroke="rgb(0, 0, 0)" stroke-width="0.49027" stroke-opacity="0.327" id = "182" /><path d="M 116.05214 258.15724 L 113.20541 259.42693 
L 119.33683 258.78443 
L 130.63617 255.17422 
" fill="none" stroke="rgb(0, 0, 0)" stroke-width="0.84733" stroke-opacity="0.565" id = "188" /><path d="M 118.24194 253.84333 L 116.70908 253.12435 
L 117.89157 253.18554 
L 118.24194 254.83767 
L 116.13973 258.92211 
" fill="none" stroke="rgb(0, 0, 0)" stroke-width="0.77361" stroke-opacity="0.516" id = "189" /><path d="M 120.25655 253.59857 L 118.28573 257.19349 
L 119.03026 256.94873 
L 122.44634 253.98101 
L 119.73100 257.56063 
L 124.72372 253.98101 
L 121.78940 256.52040 
L 121.48283 257.34647 
L 122.66532 257.07111 
L 126.82593 254.68470 
L 125.20548 256.13796 
L 125.24927 256.65808 
L 126.25658 256.74986 
L 130.72376 255.54136 
L 132.47559 257.14760 
" fill="none" stroke="rgb(0, 0, 0)" stroke-width="0.90722" stroke-opacity="0.605" id = "190" /><path d="M 218.75346 219.71454 L 218.44688 217.78705 
L 220.06733 217.94003 
" fill="none" stroke="rgb(0, 0, 0)" stroke-width="0.79604" stroke-opacity="0.531" id = "191" /><path d="M 218.75346 219.71454 L 218.44688 217.78705 
L 220.06733 217.94003 
" fill="none" stroke="rgb(0, 0, 0)" stroke-width="0.79604" stroke-opacity="0.531" id = "192" /><path d="M 220.37390 213.36606 L 221.07464 212.05048 
L 219.45419 213.91678 
L 218.35929 216.01254 
L 219.71696 215.44653 
L 223.35202 212.27994 
L 220.28631 216.70093 
L 224.40312 213.56493 
L 221.38121 217.28223 
L 221.03084 218.30717 
L 221.81917 218.18479 
L 224.84108 215.73718 
L 223.08925 218.47544 
L 222.73888 219.65335 
L 223.35202 219.54627 
L 226.06737 217.25164 
L 226.72430 217.12926 
L 226.46153 221.71852 
" fill="none" stroke="rgb(0, 0, 0)" stroke-width="0.83256" stroke-opacity="0.555" id = "193" /><path d="M 374.05361 237.18432 L 380.22883 239.96847 
L 381.45511 241.11579 
L 381.84927 242.41608 
" fill="none" stroke="rgb(0, 0, 0)" stroke-width="0.73294" stroke-opacity="0.489" id = "194" /><path d="M 378.73977 231.95256 L 378.43320 231.58542 
L 376.54997 232.73274 
L 375.45508 234.61433 
L 376.41859 234.67552 
L 377.42589 234.09422 
L 380.66678 230.97352 
L 378.08283 233.32934 
L 376.33099 235.94522 
L 377.42589 235.47100 
L 381.45511 231.90667 
L 377.51348 236.67950 
L 377.51348 236.95486 
L 378.12662 236.78658 
L 382.24344 233.68119 
L 379.00254 237.67384 
L 379.00254 238.02568 
L 379.61568 238.04098 
L 381.80548 236.23587 
L 382.76899 235.88403 
L 382.76899 236.90896 
L 381.06095 240.01436 
" fill="none" stroke="rgb(0, 0, 0)" stroke-width="0.89635" stroke-opacity="0.598" id = "195" /><path d="M 269.68805 66.78512 L 271.08952 66.87691 
L 272.05303 68.02422 
L 275.20633 67.74886 
" fill="none" stroke="rgb(0, 0, 0)" stroke-width="0.71934" stroke-opacity="0.480" id = "203" /><path d="M 389.82012 70.36474 L 390.95881 69.56927 
L 392.71065 69.78344 
L 398.05374 72.33812 
" fill="none" stroke="rgb(0, 0, 0)" stroke-width="0.71839" stroke-opacity="0.479" id = "206" /><path d="M 268.59315 448.87156 L 272.18442 448.87156 
L 276.12604 448.03019 
L 279.76110 446.14860 
L 283.79032 442.58427 
" fill="none" stroke="rgb(0, 0, 0)" stroke-width="0.95189" stroke-opacity="0.635" id = "207" /><path d="M 378.69597 362.19574 L 378.25801 360.66599 
L 378.52079 358.83029 
L 378.25801 357.39232 
L 377.16311 355.49543 
" fill="none" stroke="rgb(0, 0, 0)" stroke-width="0.75743" stroke-opacity="0.505" id = "212" /><path d="M 378.69597 362.19574 L 378.25801 360.66599 
L 378.52079 358.83029 
L 378.25801 357.39232 
L 377.16311 355.49543 
" fill="none" stroke="rgb(0, 0, 0)" stroke-width="0.75743" stroke-opacity="0.505" id = "213" /><path d="M 219.97974 334.33894 L 217.65856 334.99673 
L 217.26440 335.31798 
L 217.87754 335.21090 
L 223.78998 332.57972 
L 226.72430 331.78425 
L 229.79001 331.43241 
L 231.93601 331.75366 
" fill="none" stroke="rgb(0, 0, 0)" stroke-width="0.72618" stroke-opacity="0.484" id = "217" /><path d="M 228.34475 332.15139 L 222.25713 333.22222 
L 215.16219 335.44036 
L 221.51260 333.40579 
L 225.49802 332.56443 
L 230.49075 332.07491 
L 232.94332 332.33496 
" fill="none" stroke="rgb(0, 0, 0)" stroke-width="0.76815" stroke-opacity="0.512" id = "218" /><path d="M 216.69505 331.14176 L 215.90672 330.98878 
L 219.36660 329.35195 
L 226.11116 327.47035 
L 231.62944 326.96553 
L 233.68785 327.86808 
" fill="none" stroke="rgb(0, 0, 0)" stroke-width="0.68319" stroke-opacity="0.455" id = "219" /><path d="M 215.42497 331.00408 L 217.74615 329.19897 
L 222.08194 327.53154 
L 226.28635 326.46071 
L 231.71703 325.80292 
L 234.16960 325.84881 
L 235.52727 326.41482 
" fill="none" stroke="rgb(0, 0, 0)" stroke-width="0.74045" stroke-opacity="0.494" id = "220" /><path d="M 212.84101 329.76498 L 216.69505 327.50094 
L 222.08194 325.71113 
L 228.08198 325.03804 
L 232.02360 325.05334 
L 235.48348 325.66524 
" fill="none" stroke="rgb(0, 0, 0)" stroke-width="0.88282" stroke-opacity="0.589" id = "221" /><path d="M 214.24248 330.04033 L 217.08921 328.49528 
L 219.45419 327.74570 
L 225.62941 326.49131 
L 232.98711 325.55816 
" fill="none" stroke="rgb(0, 0, 0)" stroke-width="0.66892" stroke-opacity="0.446" id = "223" /><path d="M 370.68133 353.78210 L 372.25798 353.69032 
L 373.87842 354.40930 
L 376.02442 355.67900 
L 378.65217 358.05011 
L 379.48430 359.30451 
L 379.52809 361.01783 
L 377.90764 362.14985 
" fill="none" stroke="rgb(0, 0, 0)" stroke-width="0.77550" stroke-opacity="0.517" id = "228" /><path d="M 365.81998 357.71357 L 366.91488 357.23934 
L 367.65941 357.49940 
L 368.49153 358.12660 
L 368.66672 359.19743 
L 367.44043 360.40593 
L 364.63750 362.11926 
" fill="none" stroke="rgb(0, 0, 0)" stroke-width="0.90128" stroke-opacity="0.601" id = "232" /><path d="M 368.14117 359.74814 L 368.00978 361.00254 
L 367.48423 361.47676 
L 361.00244 364.76573 
" fill="none" stroke="rgb(0, 0, 0)" stroke-width="0.77549" stroke-opacity="0.517" id = "233" /><path d="M 122.97189 261.06377 L 124.02299 258.52438 
L 124.37336 261.01787 
L 126.12519 258.70795 
L 127.43907 260.74252 
L 128.35878 260.97198 
L 129.32229 259.77877 
L 130.06682 257.71361 
L 130.50478 259.30455 
L 131.68727 257.26998 
L 132.38800 258.66205 
L 133.22012 258.70795 
L 136.32963 256.99462 
L 127.65805 257.94307 
L 121.96458 258.98330 
L 121.70181 259.22806 
L 123.23466 259.21276 
L 132.60698 257.11700 
L 136.54861 256.68867 
L 135.23473 256.42861 
L 132.34421 256.59689 
L 133.00114 257.31587 
L 139.96469 258.44789 
L 141.54134 258.32551 
" fill="none" stroke="rgb(0, 0, 0)" stroke-width="0.87244" stroke-opacity="0.582" id = "236" /></svg>