<?xml version="1.0" encoding="utf-8" ?>
<svg baseProfile="full" height="512" version="1.1" viewBox="0,0,512,512" width="512" xmlns="http://www.w3.org/2000/svg" xmlns:ev="http://www.w3.org/2001/xml-events" xmlns:xlink="http://www.w3.org/1999/xlink"><defs><style type="text/css"><![CDATA[
	.background { fill: white; }
	.line { stroke: firebrick; stroke-width: .1mm; }
	.blacksquare { fill: indigo; }
	.whitesquare { fill: white; }
]]></style></defs>
<path d="M 105.45354 386.04460 L 98.49000 387.72732 L 107.33676 384.33127 L 116.75288 379.89499 L 130.89894 372.07795 L 176.05248 348.45856 L 196.50515 337.07720 L 217.52717 326.33833 L 228.12577 321.39723 L 233.16230 319.65331 L 236.53458 318.93433 " fill="none" stroke="rgb(0, 0, 0)" stroke-width="0.33354" stroke-opacity="0.222" id = "1" /><path d="M 103.96448 385.26442 L 103.13236 385.31031 L 110.40247 389.70071 L 118.28573 393.70866 L 184.06713 417.23626 L 206.18404 426.10883 L 227.38124 435.60860 L 249.06020 443.15028 L 255.36680 446.50044 L 266.92891 448.44323 L 270.87054 449.63643 L 272.75376 450.38601 " fill="none" stroke="rgb(0, 0, 0)" stroke-width="0.36266" stroke-opacity="0.242" id = "2" /><path d="M 282.25747 444.97069 L 274.24282 448.32084 L 279.84869 444.61884 L 304.54956 424.65556 L 339.63572 393.83784 L 339.89283 394.18288 L 364.24333 373.65360 L 384.34564 358.55493 L 379.13393 361.59914 " fill="none" stroke="rgb(0, 0, 0)" stroke-width="0.43296" stroke-opacity="0.289" id = "3" /><path d="M 217.48338 323.12585 L 224.40312 325.80292 L 249.76093 331.41711 L 291.41080 339.75427 L 325.35260 345.96506 L 352.41845 351.62515 L 379.00254 358.09601 L 395.51358 363.29717 " fill="none" stroke="rgb(0, 0, 0)" stroke-width="0.31363" stroke-opacity="0.209" id = "6" /><path d="M 108.30027 388.44631 L 108.21268 390.15963 L 108.51925 389.85368 L 108.82582 380.43040 L 104.71210 267.74618 L 104.23267 228.43243 L 103.75323 218.36428 L 103.75323 188.63925 L 104.13967 189.01239 L 105.54113 109.38874 L 105.40975 99.61362 L 104.31485 88.87476 L 107.11778 77.47809 " fill="none" stroke="rgb(0, 0, 0)" stroke-width="0.39587" stroke-opacity="0.264" id = "9" /><path d="M 276.78298 457.95829 L 276.52021 458.61608 L 276.52021 456.85687 L 277.52751 445.35312 L 277.96547 433.06921 L 278.62241 400.08773 L 278.74736 364.59224 L 279.22679 354.52409 L 279.22679 291.23854 L 279.54212 291.30699 L 279.22679 259.59577 L 278.74736 249.52761 L 278.97278 221.04542 L 277.96547 150.43202 L 277.96547 106.23745 " fill="none" stroke="rgb(0, 0, 0)" stroke-width="0.43203" stroke-opacity="0.288" id = "10" /><path d="M 224.18414 327.11851 L 223.57100 328.17404 L 221.90676 291.81180 L 221.33741 248.76455 L 222.34472 207.50711 L 225.05053 143.57227 L 225.10386 150.79916 L 225.80459 137.50561 " fill="none" stroke="rgb(0, 0, 0)" stroke-width="0.32739" stroke-opacity="0.218" id = "11" /><path d="M 381.23613 366.34138 L 381.19233 364.53627 L 383.33833 343.30329 L 387.14857 296.43166 L 397.87856 139.28012 L 398.44791 123.09533 L 398.05374 107.07882 L 399.36762 99.30767 L 398.79827 100.24082 " fill="none" stroke="rgb(0, 0, 0)" stroke-width="0.45463" stroke-opacity="0.303" id = "13" /><path d="M 114.51929 285.52452 L 115.65798 285.06559 " fill="none" stroke="rgb(0, 0, 0)" stroke-width="0.12380" stroke-opacity="0.083" id = "14" /><path d="M 108.21268 274.52559 L 111.89153 276.56017 L 117.40981 278.88539 L 128.40258 282.29674 L 146.44648 286.38118 L 182.22770 292.66847 L 203.90666 297.18124 L 216.47607 300.48550 L 231.84842 305.22774 L 249.45436 310.07706 " fill="none" stroke="rgb(0, 0, 0)" stroke-width="0.34916" stroke-opacity="0.233" id = "15" /><path d="M 282.12608 312.18812 L 283.08959 312.09633 " fill="none" stroke="rgb(0, 0, 0)" stroke-width="0.36187" stroke-opacity="0.241" id = "16" /><path d="M 286.89983 313.19775 L 280.24286 315.49238 L 302.22838 302.82603 L 321.54236 290.20556 L 343.26511 276.83552 L 378.21422 257.92777 L 379.92225 256.73456 L 380.22883 255.44957 L 392.27269 248.09146 " fill="none" stroke="rgb(0, 0, 0)" stroke-width="0.26861" stroke-opacity="0.179" id = "17" /><path d="M 106.98640 249.33056 L 101.33673 248.16795 L 109.92072 250.64615 L 135.23473 257.25468 L 265.22087 284.98910 L 267.01650 285.44803 L 266.92891 285.95285 L 267.80483 286.25880 L 274.24282 286.44237 L 272.53478 285.64690 L 275.51290 286.05993 " fill="none" stroke="rgb(0, 0, 0)" stroke-width="0.37890" stroke-opacity="0.253" id = "18" /><path d="M 277.13335 288.69111 L 277.08955 288.32397 L 277.79029 288.06391 L 300.34516 280.59871 L 385.44053 246.83706 L 391.09020 244.86368 L 387.06098 246.50052 L 388.72522 246.25576 " fill="none" stroke="rgb(0, 0, 0)" stroke-width="0.33118" stroke-opacity="0.221" id = "19" /><path d="M 281.42534 290.11378 L 300.34516 283.36757 L 325.08983 273.73012 L 350.92939 264.58220 L 379.44050 255.17422 L 390.30188 251.94644 " fill="none" stroke="rgb(0, 0, 0)" stroke-width="0.30513" stroke-opacity="0.203" id = "20" /><path d="M 284.09689 308.24135 L 290.05313 305.01357 L 307.17732 298.61921 L 358.68126 277.23326 L 385.04637 267.18278 L 385.83470 266.76975 L 383.99527 267.01451 " fill="none" stroke="rgb(0, 0, 0)" stroke-width="0.36920" stroke-opacity="0.246" id = "22" /><path d="M 284.00930 307.38469 L 292.02395 305.50309 L 306.69556 300.73026 L 358.06812 281.19532 L 381.98066 272.56751 L 389.25077 270.30347 L 387.93690 270.34937 " fill="none" stroke="rgb(0, 0, 0)" stroke-width="0.43696" stroke-opacity="0.291" id = "23" /><path d="M 384.52082 263.83262 L 384.52082 261.15555 " fill="none" stroke="rgb(0, 0, 0)" stroke-width="0.61567" stroke-opacity="0.410" id = "24" /><path d="M 384.52082 263.83262 L 384.52082 261.15555 " fill="none" stroke="rgb(0, 0, 0)" stroke-width="0.61567" stroke-opacity="0.410" id = "25" /><path d="M 105.76011 275.58112 L 113.03023 274.37262 L 123.49744 270.93067 L 193.35185 245.18493 L 213.27897 238.54580 " fill="none" stroke="rgb(0, 0, 0)" stroke-width="0.32605" stroke-opacity="0.217" id = "26" /><path d="M 100.54840 248.94812 L 119.51202 248.39741 L 162.73854 243.44101 L 194.31536 240.48859 L 206.75339 238.94354 L 206.44682 239.69312 " fill="none" stroke="rgb(0, 0, 0)" stroke-width="0.30108" stroke-opacity="0.201" id = "27" /><path d="M 225.14765 235.44040 L 221.55639 233.77297 L 229.43965 236.06760 L 245.81930 239.12711 L 290.92905 244.05291 L 357.54257 252.89488 L 402.03917 257.22409 L 405.14868 257.74420 L 405.41145 258.06545 L 404.14137 258.09605 " fill="none" stroke="rgb(0, 0, 0)" stroke-width="0.41193" stroke-opacity="0.275" id = "29" /><path d="M 224.84108 235.86873 L 222.65129 235.86873 L 229.48344 237.61265 L 249.84852 241.37584 L 303.98022 248.19854 L 352.54984 254.85297 L 386.18506 258.43259 L 391.44057 259.48812 L 392.53547 260.13062 " fill="none" stroke="rgb(0, 0, 0)" stroke-width="0.30390" stroke-opacity="0.203" id = "30" /><path d="M 277.48372 287.77326 L 276.08225 287.62028 L 274.06764 288.20159 L 284.09689 284.02536 L 316.37445 272.56751 L 355.83453 259.85526 L 384.34564 251.68638 L 384.69600 251.48751 L 382.94417 251.27335 L 387.67412 252.16060 L 387.45514 251.56400 L 388.59384 252.34417 L 390.56465 252.35947 L 391.70334 251.96174 " fill="none" stroke="rgb(0, 0, 0)" stroke-width="0.54357" stroke-opacity="0.362" id = "32" /><path d="M 287.46917 284.89732 L 288.30130 290.54211 L 288.82685 302.68835 " fill="none" stroke="rgb(0, 0, 0)" stroke-width="0.53052" stroke-opacity="0.354" id = "33" /><path d="M 265.74642 442.06415 L 265.13328 440.93214 L 265.92161 445.99562 L 264.08218 401.89284 L 263.81941 357.28524 L 265.13328 302.78013 L 265.61504 291.76591 L 266.44716 286.07523 " fill="none" stroke="rgb(0, 0, 0)" stroke-width="0.40394" stroke-opacity="0.269" id = "35" /><path d="M 269.42528 292.43900 L 273.58588 290.60330 " fill="none" stroke="rgb(0, 0, 0)" stroke-width="0.40050" stroke-opacity="0.267" id = "36" /><path d="M 274.41801 430.54511 L 273.54209 437.15365 L 273.58588 425.06860 L 272.44719 389.59362 L 272.22821 367.59577 L 273.27931 324.36495 L 274.54939 300.36312 L 275.03115 295.65148 L 275.16254 297.51778 " fill="none" stroke="rgb(0, 0, 0)" stroke-width="0.44485" stroke-opacity="0.297" id = "37" /><path d="M 272.35960 291.76591 L 278.05306 291.99537 " fill="none" stroke="rgb(0, 0, 0)" stroke-width="0.59199" stroke-opacity="0.395" id = "39" /><path d="M 264.21357 443.59391 L 263.90700 443.11968 L 263.68802 440.30494 L 266.18438 369.06434 L 267.54205 347.69368 L 272.18442 295.88095 " fill="none" stroke="rgb(0, 0, 0)" stroke-width="0.53667" stroke-opacity="0.358" id = "40" /><path d="M 271.43989 439.21881 L 275.46911 436.93948 L 305.55687 413.68723 L 322.94383 398.97101 L 337.00230 387.81911 L 356.66665 371.46605 L 367.00247 363.46544 " fill="none" stroke="rgb(0, 0, 0)" stroke-width="0.39487" stroke-opacity="0.263" id = "42" /><path d="M 275.73188 435.11908 L 274.33041 435.99103 L 277.52751 433.35986 L 304.94373 411.62207 L 350.75421 372.15444 L 371.29447 355.66370 " fill="none" stroke="rgb(0, 0, 0)" stroke-width="0.56727" stroke-opacity="0.378" id = "48" /><path d="M 277.17715 447.20413 L 278.05306 446.98996 L 280.46184 445.07777 L 288.78305 437.50549 L 324.77321 406.78261 L 348.74501 386.64630 L 360.73090 377.05758 L 366.00470 372.26322 L 366.38933 372.75104 L 383.99527 358.37136 " fill="none" stroke="rgb(0, 0, 0)" stroke-width="0.57199" stroke-opacity="0.381" id = "51" /><path d="M 111.45358 383.22985 L 110.44627 384.92788 L 109.00101 390.92451 L 108.30027 372.47569 L 105.58493 328.61766 L 104.84040 306.35976 L 104.75281 282.25085 L 105.58493 266.81564 L 105.54113 268.59015 L 105.10317 269.40092 L 104.84040 256.67337 L 107.55574 253.39970 L 108.21268 253.33851 " fill="none" stroke="rgb(0, 0, 0)" stroke-width="0.58657" stroke-opacity="0.391" id = "53" /><path d="M 116.35871 376.28477 L 114.91345 382.35789 L 114.47549 386.38114 L 114.56308 374.78561 L 110.92803 311.94335 L 110.09590 291.88829 L 109.78933 259.19747 L 110.00831 255.90850 L 110.13970 255.26600 L 110.35868 255.49546 " fill="none" stroke="rgb(0, 0, 0)" stroke-width="0.51212" stroke-opacity="0.341" id = "54" /><path d="M 111.97913 266.90742 L 114.30031 263.17483 " fill="none" stroke="rgb(0, 0, 0)" stroke-width="0.59144" stroke-opacity="0.394" id = "55" /><path d="M 111.97913 266.90742 L 114.30031 263.17483 " fill="none" stroke="rgb(0, 0, 0)" stroke-width="0.59144" stroke-opacity="0.394" id = "56" /><path d="M 116.05214 383.48991 L 116.27112 372.96521 L 111.58496 309.96997 L 110.84043 290.45032 L 110.44627 263.28191 " fill="none" stroke="rgb(0, 0, 0)" stroke-width="0.72179" stroke-opacity="0.481" id = "57" /><path d="M 123.05948 386.01400 L 118.46091 388.36982 L 116.88426 388.78285 L 115.96455 388.56869 L 113.03023 389.48654 L 118.76749 387.72732 L 128.31499 383.03098 L 167.16192 360.92605 L 215.20599 334.21656 L 218.35929 332.19729 L 217.87754 332.13610 " fill="none" stroke="rgb(0, 0, 0)" stroke-width="0.63066" stroke-opacity="0.420" id = "62" /><path d="M 113.59957 392.53075 L 115.65798 391.09278 L 131.03033 381.89896 L 168.25682 361.00254 L 210.65122 338.08684 L 214.46146 335.47096 " fill="none" stroke="rgb(0, 0, 0)" stroke-width="0.52322" stroke-opacity="0.349" id = "63" /><path d="M 119.03026 379.37487 L 118.85508 380.17034 L 118.28573 380.33862 L 120.51932 379.91029 L 126.95731 377.21792 L 197.99421 338.82112 L 213.62934 331.08057 L 217.35199 328.77064 L 218.00893 328.03636 L 216.82644 328.17404 " fill="none" stroke="rgb(0, 0, 0)" stroke-width="0.61733" stroke-opacity="0.412" id = "66" /><path d="M 220.02354 322.52925 L 221.51260 322.39157 L 234.78274 325.86411 L 291.71737 335.97578 L 352.11188 348.91749 L 366.17035 351.02855 L 370.28716 351.13563 " fill="none" stroke="rgb(0, 0, 0)" stroke-width="0.50235" stroke-opacity="0.335" id = "69" /><path d="M 223.35202 319.83688 L 223.65859 319.86748 L 231.58565 322.48335 L 241.61490 324.71679 L 310.63719 336.71006 L 331.30884 341.06985 L 371.90761 350.89087 L 373.48426 350.99795 " fill="none" stroke="rgb(0, 0, 0)" stroke-width="0.52191" stroke-opacity="0.348" id = "70" /><path d="M 227.77540 330.66753 L 229.39585 330.49926 L 246.43245 333.16103 L 302.71014 343.96109 L 338.14100 351.38039 L 368.57912 359.19743 L 370.81271 359.56457 " fill="none" stroke="rgb(0, 0, 0)" stroke-width="0.72141" stroke-opacity="0.481" id = "72" /><path d="M 227.03087 329.82617 L 296.71010 343.45627 L 326.27231 350.04950 L 348.91478 355.98495 L 350.71041 356.15322 " fill="none" stroke="rgb(0, 0, 0)" stroke-width="0.82269" stroke-opacity="0.548" id = "73" /><path d="M 272.75376 431.69243 L 272.44719 433.51283 L 272.84135 382.54146 L 273.93625 349.85064 L 275.73188 320.73944 L 278.31584 300.73026 " fill="none" stroke="rgb(0, 0, 0)" stroke-width="0.71609" stroke-opacity="0.477" id = "76" /><path d="M 270.91434 424.05896 L 270.65156 435.47092 L 271.92164 420.24988 L 272.84135 358.49374 L 274.06764 327.82219 L 275.95086 304.92179 L 275.95086 304.35578 " fill="none" stroke="rgb(0, 0, 0)" stroke-width="0.78187" stroke-opacity="0.521" id = "77" /><path d="M 264.12598 435.82276 L 263.60043 436.98537 L 263.38145 436.06752 L 263.38145 426.79722 L 264.95810 366.89209 L 266.97271 334.44602 L 270.16981 299.96539 " fill="none" stroke="rgb(0, 0, 0)" stroke-width="0.83147" stroke-opacity="0.554" id = "80" /><path d="M 263.38145 438.57632 L 263.29385 436.08282 L 264.25736 430.91225 L 264.65153 423.55414 L 264.69532 354.66936 L 265.92161 319.76039 L 267.06030 295.86565 L 267.41067 295.74327 " fill="none" stroke="rgb(0, 0, 0)" stroke-width="0.87818" stroke-opacity="0.585" id = "81" /><path d="M 111.32219 251.31924 L 120.08136 253.15494 L 160.89911 259.50342 L 198.38838 266.24963 L 222.12574 270.94597 L 294.56411 286.48826 L 297.23565 287.34492 L 296.09696 287.45201 " fill="none" stroke="rgb(0, 0, 0)" stroke-width="0.69595" stroke-opacity="0.464" id = "84" /><path d="M 114.12512 248.01497 L 127.57046 251.21216 L 200.84095 264.07738 L 250.46063 273.97885 L 244.54922 273.01114 L 273.32311 280.33866 L 283.52755 283.70411 L 286.28669 285.23387 " fill="none" stroke="rgb(0, 0, 0)" stroke-width="0.65702" stroke-opacity="0.438" id = "85" /><path d="M 286.15530 286.70243 L 285.58595 287.42141 L 285.41077 287.06957 L 284.88522 303.08608 " fill="none" stroke="rgb(0, 0, 0)" stroke-width="0.79824" stroke-opacity="0.532" id = "86" /><path d="M 283.13338 301.15860 L 283.08959 303.52971 L 283.35236 302.73424 L 284.66624 288.99706 " fill="none" stroke="rgb(0, 0, 0)" stroke-width="0.77002" stroke-opacity="0.513" id = "90" /><path d="M 286.63705 285.95285 L 286.98742 284.98910 L 287.33779 292.48490 " fill="none" stroke="rgb(0, 0, 0)" stroke-width="0.81953" stroke-opacity="0.546" id = "91" /><path d="M 286.63705 285.95285 L 286.98742 284.98910 L 287.33779 292.48490 " fill="none" stroke="rgb(0, 0, 0)" stroke-width="0.81953" stroke-opacity="0.546" id = "92" /><path d="M 284.92901 305.90083 L 285.27938 305.45720 L 300.12618 300.53140 L 348.73960 280.43044 L 373.39667 270.94597 L 375.41128 270.07401 " fill="none" stroke="rgb(0, 0, 0)" stroke-width="0.62145" stroke-opacity="0.414" id = "93" /><path d="M 380.75438 263.58786 L 380.66678 266.17314 L 381.71789 256.07677 L 381.71789 252.89488 L 381.36752 251.99233 " fill="none" stroke="rgb(0, 0, 0)" stroke-width="0.65078" stroke-opacity="0.434" id = "94" /><path d="M 110.05211 246.69938 L 116.79667 246.66879 L 122.70911 246.14867 L 182.70946 237.12313 L 196.76381 234.66510 L 192.43214 235.66986 L 204.51980 233.98714 L 212.22787 233.31404 L 215.11840 233.29875 L 212.57824 233.66589 " fill="none" stroke="rgb(0, 0, 0)" stroke-width="0.56331" stroke-opacity="0.376" id = "97" /><path d="M 113.29300 244.58833 L 111.67256 243.77756 L 107.64334 243.53280 L 121.17626 243.42571 L 172.94298 238.13277 L 191.38104 237.33730 L 199.92123 237.39849 L 204.69498 238.02568 L 203.29351 237.56676 " fill="none" stroke="rgb(0, 0, 0)" stroke-width="0.69522" stroke-opacity="0.463" id = "98" /><path d="M 209.11836 232.07494 L 206.88478 232.21262 L 229.52724 235.80754 L 304.02401 243.39512 L 376.85654 250.03425 L 393.71795 252.45126 " fill="none" stroke="rgb(0, 0, 0)" stroke-width="0.49595" stroke-opacity="0.331" id = "100" /><path d="M 218.14031 232.82452 L 217.17680 233.29875 L 227.77540 235.47100 L 280.02388 242.11013 L 347.73229 251.74757 L 372.03900 255.57195 L 387.84931 259.13628 " fill="none" stroke="rgb(0, 0, 0)" stroke-width="0.68703" stroke-opacity="0.458" id = "101" /><path d="M 213.97971 232.83982 L 211.35195 232.47268 L 215.68774 234.20130 L 220.41770 235.39451 L 228.25716 236.69480 L 245.99449 238.59169 L 293.77578 242.70673 L 324.25770 246.07219 L 356.00971 250.73793 L 376.06822 254.31755 L 377.90764 254.86827 L 376.50618 255.02124 " fill="none" stroke="rgb(0, 0, 0)" stroke-width="0.65713" stroke-opacity="0.438" id = "102" /><path d="M 112.41708 262.48644 L 113.86235 261.15555 L 130.63617 255.81671 L 128.31499 256.10737 " fill="none" stroke="rgb(0, 0, 0)" stroke-width="0.61728" stroke-opacity="0.412" id = "105" /><path d="M 213.27897 205.15129 L 213.93591 215.15588 L 213.67313 215.55361 L 213.41036 215.17117 L 213.41036 212.40232 L 215.24979 123.24831 L 218.27170 68.97267 L 218.44688 53.98109 L 218.14031 51.47229 L 217.48338 52.20657 " fill="none" stroke="rgb(0, 0, 0)" stroke-width="0.42089" stroke-opacity="0.281" id = "110" /><path d="M 382.94417 235.21094 L 382.94417 234.33898 L 383.90768 223.01881 L 386.79821 165.95901 L 390.08290 126.24662 L 393.36759 98.14506 L 396.95885 72.68997 L 397.30921 64.71995 " fill="none" stroke="rgb(0, 0, 0)" stroke-width="0.51823" stroke-opacity="0.345" id = "111" /><path d="M 395.68877 70.08939 L 394.19971 70.11998 L 395.95154 70.13528 " fill="none" stroke="rgb(0, 0, 0)" stroke-width="0.79825" stroke-opacity="0.532" id = "112" /><path d="M 216.03811 213.01422 L 217.00162 212.96833 L 226.85569 214.39100 L 259.87778 217.84824 L 278.35963 220.29585 L 319.17738 226.58313 L 391.65955 238.51521 L 401.82019 240.48859 " fill="none" stroke="rgb(0, 0, 0)" stroke-width="0.55679" stroke-opacity="0.371" id = "113" /><path d="M 220.41770 208.82270 L 219.58558 208.96038 L 218.53448 208.21080 L 214.89942 207.55300 L 219.93594 209.37341 L 227.99438 211.23971 L 238.50539 212.80006 L 314.62261 220.86185 L 354.52065 225.98653 L 368.57912 227.37860 " fill="none" stroke="rgb(0, 0, 0)" stroke-width="0.50361" stroke-opacity="0.336" id = "114" /><path d="M 389.42596 218.81199 L 386.27266 226.47605 L 387.32376 222.86583 L 387.76172 219.24032 L 392.71065 148.74929 L 398.97346 89.97618 L 399.19244 85.64698 " fill="none" stroke="rgb(0, 0, 0)" stroke-width="0.78998" stroke-opacity="0.527" id = "118" /><path d="M 217.87754 66.54036 L 218.31550 66.31090 L 257.03105 68.63612 L 371.55724 72.41461 L 389.33837 73.47014 L 404.40415 74.87751 " fill="none" stroke="rgb(0, 0, 0)" stroke-width="0.33465" stroke-opacity="0.223" id = "119" /><path d="M 218.27170 68.13130 L 220.50529 68.13130 L 227.55643 69.26332 L 244.24265 70.64010 L 355.13379 73.02651 L 393.54277 74.67865 L 403.65962 75.50471 L 407.60124 76.39197 " fill="none" stroke="rgb(0, 0, 0)" stroke-width="0.48597" stroke-opacity="0.324" id = "120" /><path d="M 214.81183 212.15756 L 214.50526 205.85498 L 214.46146 167.41228 L 215.29358 127.51632 L 217.74615 97.76262 L 219.45419 84.97389 L 221.64398 72.62878 L 221.42500 75.22936 L 221.68778 73.85258 L 222.65129 63.34318 " fill="none" stroke="rgb(0, 0, 0)" stroke-width="0.56608" stroke-opacity="0.377" id = "122" /><path d="M 215.33738 213.85558 L 215.29358 213.39666 L 215.55636 193.67814 L 215.29358 124.31914 L 216.21330 98.90994 L 218.62207 73.37836 L 218.84105 67.10637 L 219.49799 65.30126 " fill="none" stroke="rgb(0, 0, 0)" stroke-width="0.72546" stroke-opacity="0.484" id = "123" /><path d="M 267.45446 208.01193 L 267.89242 207.32354 L 268.98732 203.11672 L 270.30119 187.37556 L 271.13332 158.53971 L 271.92164 98.81815 " fill="none" stroke="rgb(0, 0, 0)" stroke-width="0.38123" stroke-opacity="0.254" id = "124" /><path d="M 333.45484 213.68731 L 334.19937 208.56264 L 334.41835 203.63683 L 336.03879 149.33060 L 338.49136 96.99774 " fill="none" stroke="rgb(0, 0, 0)" stroke-width="0.49551" stroke-opacity="0.330" id = "125" /><path d="M 217.00162 210.53602 L 216.03811 210.03120 L 217.57097 210.03120 L 272.18442 212.27994 " fill="none" stroke="rgb(0, 0, 0)" stroke-width="0.60324" stroke-opacity="0.402" id = "126" /><path d="M 219.49799 212.86125 L 217.61476 212.47881 L 224.35933 212.50940 L 268.89973 213.68731 " fill="none" stroke="rgb(0, 0, 0)" stroke-width="0.57374" stroke-opacity="0.382" id = "127" /><path d="M 263.86320 211.53036 L 260.79749 210.36775 L 271.48368 212.55529 L 314.22845 217.66467 L 343.52789 221.90209 " fill="none" stroke="rgb(0, 0, 0)" stroke-width="0.62413" stroke-opacity="0.416" id = "128" /><path d="M 255.89235 209.51109 L 254.27191 209.31222 L 256.28652 210.09239 L 262.81210 211.22441 L 304.89993 215.23236 L 341.46948 219.95930 " fill="none" stroke="rgb(0, 0, 0)" stroke-width="0.63387" stroke-opacity="0.423" id = "129" /><path d="M 325.04603 215.41593 L 330.21394 217.80235 L 340.19940 221.33608 L 381.67409 234.23190 " fill="none" stroke="rgb(0, 0, 0)" stroke-width="0.61772" stroke-opacity="0.412" id = "130" /><path d="M 309.14813 215.07939 L 309.80507 215.43123 L 324.43289 219.65335 L 373.52806 230.46870 " fill="none" stroke="rgb(0, 0, 0)" stroke-width="0.46146" stroke-opacity="0.308" id = "131" /><path d="M 223.48341 69.20213 L 218.92864 67.84065 L 292.94366 66.99929 " fill="none" stroke="rgb(0, 0, 0)" stroke-width="0.65270" stroke-opacity="0.435" id = "132" /><path d="M 218.40309 69.23273 L 212.75342 69.59987 L 217.70235 69.90582 L 249.14779 67.36643 L 282.73922 65.95905 " fill="none" stroke="rgb(0, 0, 0)" stroke-width="0.55043" stroke-opacity="0.367" id = "133" /><path d="M 280.59322 65.85197 L 278.92898 65.24007 L 270.87054 64.44460 L 272.44719 65.04120 L 276.65159 65.54602 L 284.62244 65.71429 L 344.75417 64.87293 " fill="none" stroke="rgb(0, 0, 0)" stroke-width="0.58005" stroke-opacity="0.387" id = "134" /><path d="M 275.51290 66.63215 L 267.19169 66.60155 L 275.46911 67.24405 L 323.42558 66.55566 L 342.69577 67.19815 " fill="none" stroke="rgb(0, 0, 0)" stroke-width="0.59368" stroke-opacity="0.396" id = "135" /><path d="M 340.85634 67.94773 L 339.98042 67.21345 L 337.79063 66.96869 L 333.14827 66.84631 L 353.51335 68.51374 L 412.85675 72.70527 " fill="none" stroke="rgb(0, 0, 0)" stroke-width="0.52548" stroke-opacity="0.350" id = "136" /><path d="M 330.12635 67.59589 L 322.15550 66.81572 L 328.90007 67.10637 L 403.04647 74.02085 " fill="none" stroke="rgb(0, 0, 0)" stroke-width="0.54344" stroke-opacity="0.362" id = "137" /><path d="M 330.87088 65.40834 L 330.21394 65.48483 L 330.60811 65.95905 L 337.17749 67.48881 L 379.00254 72.76646 L 390.60845 74.47978 L 400.90048 76.57554 " fill="none" stroke="rgb(0, 0, 0)" stroke-width="0.63940" stroke-opacity="0.426" id = "138" /><path d="M 220.89945 213.77910 L 220.76807 212.76946 L 220.46149 214.40630 L 219.89215 229.74972 " fill="none" stroke="rgb(0, 0, 0)" stroke-width="0.61542" stroke-opacity="0.410" id = "140" /><path d="M 219.67317 229.24490 L 219.14762 223.81428 " fill="none" stroke="rgb(0, 0, 0)" stroke-width="0.14731" stroke-opacity="0.098" id = "141" /><path d="M 225.10386 219.63805 L 224.97247 215.27826 L 224.66590 215.46183 L 224.49071 233.22226 " fill="none" stroke="rgb(0, 0, 0)" stroke-width="0.48286" stroke-opacity="0.322" id = "142" /><path d="M 374.97332 233.97184 L 374.88573 232.33500 L 374.88573 235.99111 L 372.43316 251.79346 L 371.99520 257.23938 " fill="none" stroke="rgb(0, 0, 0)" stroke-width="0.72011" stroke-opacity="0.480" id = "145" /><path d="M 382.94417 232.97750 L 383.03176 236.57242 L 381.89307 257.75950 " fill="none" stroke="rgb(0, 0, 0)" stroke-width="0.69835" stroke-opacity="0.466" id = "146" /><path d="M 382.19964 256.36742 L 380.31642 257.75950 " fill="none" stroke="rgb(0, 0, 0)" stroke-width="0.93035" stroke-opacity="0.620" id = "147" /><path d="M 382.19964 256.36742 L 380.31642 257.75950 " fill="none" stroke="rgb(0, 0, 0)" stroke-width="0.93035" stroke-opacity="0.620" id = "148" /><path d="M 379.79087 220.38763 L 379.70328 219.59216 L 379.96605 188.32401 L 381.23613 145.52151 L 382.33103 126.27722 L 384.56462 98.12976 L 387.98069 61.93580 " fill="none" stroke="rgb(0, 0, 0)" stroke-width="0.54086" stroke-opacity="0.361" id = "154" /><path d="M 381.76168 212.27994 L 382.28723 204.87593 L 384.87119 144.40479 L 390.56465 71.90979 " fill="none" stroke="rgb(0, 0, 0)" stroke-width="0.59466" stroke-opacity="0.396" id = "155" /><path d="M 377.33830 223.49303 L 378.21422 218.41425 L 378.73977 212.00458 L 383.33833 129.00018 L 386.05368 95.36091 L 387.63033 80.62939 " fill="none" stroke="rgb(0, 0, 0)" stroke-width="0.65174" stroke-opacity="0.434" id = "156" /><path d="M 386.14127 226.00182 L 385.96608 224.04374 L 387.01719 214.60516 L 393.67416 129.19905 L 400.76909 66.44857 " fill="none" stroke="rgb(0, 0, 0)" stroke-width="0.96244" stroke-opacity="0.642" id = "157" /><path d="M 386.05368 225.35933 L 385.83470 224.80862 L 387.10478 219.66865 L 388.02449 210.76548 L 390.82743 157.80543 L 393.36759 126.27722 L 397.39681 83.64300 " fill="none" stroke="rgb(0, 0, 0)" stroke-width="0.87833" stroke-opacity="0.586" id = "158" /><path d="M 394.81285 78.61011 L 393.27999 77.44750 " fill="none" stroke="rgb(0, 0, 0)" stroke-width="0.79013" stroke-opacity="0.527" id = "161" /><path d="M 394.81285 78.61011 L 393.27999 77.44750 " fill="none" stroke="rgb(0, 0, 0)" stroke-width="0.79013" stroke-opacity="0.527" id = "162" /><path d="M 112.41708 248.35152 L 113.29300 248.30563 L 126.51935 251.73227 L 173.24955 260.10002 L 196.46136 264.67398 L 220.54909 269.90574 L 259.83398 279.16075 " fill="none" stroke="rgb(0, 0, 0)" stroke-width="0.89641" stroke-opacity="0.598" id = "164" /><path d="M 105.67252 249.17758 L 107.29297 250.03425 L 111.54117 251.18156 L 145.92092 257.60652 L 258.30113 279.87973 " fill="none" stroke="rgb(0, 0, 0)" stroke-width="0.72957" stroke-opacity="0.486" id = "165" /><path d="M 115.13243 246.66879 L 107.24917 247.54075 L 111.14700 247.46426 L 116.84047 246.69938 L 154.37353 239.83079 L 173.99408 236.71010 L 196.32997 233.81886 L 209.73151 232.87042 " fill="none" stroke="rgb(0, 0, 0)" stroke-width="0.79734" stroke-opacity="0.532" id = "166" /><path d="M 237.49809 238.36223 L 228.08198 235.39451 L 212.18408 233.75767 L 211.26436 233.52821 L 214.06730 233.52821 L 230.84112 235.19564 L 279.41073 238.77526 L 314.97298 242.92089 L 358.81265 249.91187 " fill="none" stroke="rgb(0, 0, 0)" stroke-width="0.69966" stroke-opacity="0.466" id = "168" /><path d="M 216.16950 212.98363 L 216.03811 211.34679 L 215.11840 210.03120 L 216.47607 211.97399 L 218.57827 213.22839 L 218.79725 212.90714 L 218.40309 212.20345 L 216.21330 210.76548 L 215.73154 211.56096 L 216.08191 212.01988 L 220.76807 212.46351 L 248.57844 212.06577 L 269.55666 212.26464 " fill="none" stroke="rgb(0, 0, 0)" stroke-width="1.08159" stroke-opacity="0.721" id = "169" /><path d="M 109.65795 250.61555 L 111.10321 250.64615 L 120.51932 253.07845 L 128.97192 254.79178 L 210.65122 270.28818 L 275.46911 284.46899 L 293.25023 288.69111 " fill="none" stroke="rgb(0, 0, 0)" stroke-width="0.68299" stroke-opacity="0.455" id = "170" /><path d="M 132.86976 256.90284 L 169.92106 264.45982 L 210.69502 271.83323 L 264.30116 282.26614 L 277.35233 284.95851 L 279.67351 285.57041 L 279.84869 285.78458 L 278.79759 285.78458 " fill="none" stroke="rgb(0, 0, 0)" stroke-width="0.72406" stroke-opacity="0.483" id = "171" /><path d="M 116.66528 250.53906 L 147.23480 255.14362 L 164.44658 258.27962 L 226.00940 270.14336 L 262.44653 277.81434 L 271.07638 279.25264 L 271.17711 279.69616 L 306.56417 287.51320 " fill="none" stroke="rgb(0, 0, 0)" stroke-width="0.73852" stroke-opacity="0.492" id = "173" /><path d="M 281.86330 279.89503 L 295.17725 275.93297 L 363.10464 253.29262 " fill="none" stroke="rgb(0, 0, 0)" stroke-width="0.72405" stroke-opacity="0.483" id = "175" /><path d="M 289.26481 289.77723 L 289.61517 289.50188 L 292.28672 288.23218 L 334.76871 272.35334 L 348.74501 266.78731 L 372.71680 258.15746 L 380.38778 255.76028 " fill="none" stroke="rgb(0, 0, 0)" stroke-width="0.68595" stroke-opacity="0.457" id = "176" /><path d="M 287.42538 307.46118 L 293.95096 305.16655 L 305.25030 300.56199 L 334.84136 287.40306 L 328.37452 290.66449 L 377.95144 270.86948 L 386.71061 266.89213 " fill="none" stroke="rgb(0, 0, 0)" stroke-width="0.93109" stroke-opacity="0.621" id = "177" /><path d="M 321.76134 275.61172 L 316.59343 281.30240 L 303.49846 298.48153 " fill="none" stroke="rgb(0, 0, 0)" stroke-width="0.41051" stroke-opacity="0.274" id = "178" /><path d="M 344.84176 277.98284 L 357.45497 265.16350 L 346.11184 277.30974 L 343.17752 281.34829 " fill="none" stroke="rgb(0, 0, 0)" stroke-width="0.74455" stroke-opacity="0.496" id = "183" /><path d="M 344.84176 277.98284 L 357.45497 265.16350 L 346.11184 277.30974 L 343.17752 281.34829 " fill="none" stroke="rgb(0, 0, 0)" stroke-width="0.74455" stroke-opacity="0.496" id = "184" /><path d="M 344.84176 277.98284 L 357.45497 265.16350 L 346.11184 277.30974 L 343.17752 281.34829 " fill="none" stroke="rgb(0, 0, 0)" stroke-width="0.74455" stroke-opacity="0.496" id = "185" /><path d="M 344.84176 277.98284 L 357.45497 265.16350 L 346.11184 277.30974 L 343.17752 281.34829 " fill="none" stroke="rgb(0, 0, 0)" stroke-width="0.74455" stroke-opacity="0.496" id = "186" /><path d="M 344.84176 277.98284 L 357.45497 265.16350 L 346.11184 277.30974 L 343.17752 281.34829 " fill="none" stroke="rgb(0, 0, 0)" stroke-width="0.74455" stroke-opacity="0.496" id = "187" /><path d="M 216.43227 211.40798 L 219.45419 211.72923 L 229.70242 211.60685 L 267.14789 209.54168 " fill="none" stroke="rgb(0, 0, 0)" stroke-width="0.83431" stroke-opacity="0.556" id = "196" /><path d="M 242.97257 212.63178 L 262.37414 210.47483 L 262.89969 210.15358 " fill="none" stroke="rgb(0, 0, 0)" stroke-width="0.87746" stroke-opacity="0.585" id = "197" /><path d="M 242.97257 212.63178 L 262.37414 210.47483 L 262.89969 210.15358 " fill="none" stroke="rgb(0, 0, 0)" stroke-width="0.87746" stroke-opacity="0.585" id = "198" /><path d="M 267.19169 211.27030 L 285.45456 213.61082 L 337.35267 219.08734 " fill="none" stroke="rgb(0, 0, 0)" stroke-width="0.76446" stroke-opacity="0.510" id = "199" /><path d="M 332.62272 217.00688 L 331.26504 216.08902 L 331.70300 216.10432 L 350.53523 222.31512 L 384.30184 231.24888 " fill="none" stroke="rgb(0, 0, 0)" stroke-width="0.88452" stroke-opacity="0.590" id = "200" /><path d="M 330.56431 218.41425 L 329.07525 217.61878 L 329.46941 217.58818 L 354.95861 224.41088 L 368.36015 228.34235 L 379.57189 232.15143 " fill="none" stroke="rgb(0, 0, 0)" stroke-width="0.78743" stroke-opacity="0.525" id = "201" /><path d="M 219.89215 67.56529 L 217.39578 68.26898 L 273.62968 68.48315 " fill="none" stroke="rgb(0, 0, 0)" stroke-width="0.72136" stroke-opacity="0.481" id = "202" /><path d="M 286.94362 67.64178 L 273.14793 67.48881 L 277.83408 68.17720 L 284.14069 68.43725 L 350.44763 68.71261 " fill="none" stroke="rgb(0, 0, 0)" stroke-width="0.80628" stroke-opacity="0.538" id = "204" /><path d="M 338.18479 68.28428 L 340.72495 68.08541 L 358.37469 68.88088 L 393.10481 69.40100 " fill="none" stroke="rgb(0, 0, 0)" stroke-width="0.92906" stroke-opacity="0.619" id = "205" /><path d="M 278.53482 446.74520 L 278.05306 446.60752 L 282.52024 443.18087 L 304.98752 423.84480 L 334.36193 397.19389 L 341.55347 391.44066 L 355.93655 378.01645 L 363.60752 371.78378 L 377.99060 358.35958 " fill="none" stroke="rgb(0, 0, 0)" stroke-width="0.88374" stroke-opacity="0.589" id = "208" /><path d="M 284.00930 441.16160 L 279.76110 444.74122 L 278.57861 445.16955 L 283.39616 442.09475 L 286.72464 439.40238 L 302.09699 426.24651 L 328.12926 402.94712 L 381.34665 359.79788 " fill="none" stroke="rgb(0, 0, 0)" stroke-width="0.89080" stroke-opacity="0.594" id = "209" /><path d="M 282.16987 442.53838 L 303.98022 425.45104 L 328.12926 403.90599 L 339.15629 394.31727 L 344.90952 390.00235 L 350.18331 385.20799 L 350.49143 385.49388 L 376.50618 364.13853 L 384.78360 357.95833 " fill="none" stroke="rgb(0, 0, 0)" stroke-width="0.83156" stroke-opacity="0.554" id = "210" /><path d="M 382.15584 359.35040 L 380.66678 360.97194 " fill="none" stroke="rgb(0, 0, 0)" stroke-width="0.25812" stroke-opacity="0.172" id = "211" /><path d="M 120.08136 390.29731 L 113.86235 391.91885 L 123.05948 387.42137 L 136.06685 379.94088 L 146.22750 373.94425 L 158.40893 366.03055 L 165.60047 362.19506 L 188.13396 348.29142 L 203.95535 339.66157 L 219.29730 331.99060 " fill="none" stroke="rgb(0, 0, 0)" stroke-width="0.90486" stroke-opacity="0.603" id = "214" /><path d="M 117.84777 389.04291 L 119.03026 388.20155 L 162.21299 365.68358 L 174.23032 358.83901 L 187.65452 352.12691 L 207.79083 341.09988 L 208.06726 341.36051 L 226.37394 331.57009 " fill="none" stroke="rgb(0, 0, 0)" stroke-width="0.88685" stroke-opacity="0.591" id = "215" /><path d="M 119.90618 388.20155 L 124.81132 386.31995 L 138.21285 379.23719 L 173.38094 358.84559 L 199.78984 344.35882 L 218.70966 334.50721 " fill="none" stroke="rgb(0, 0, 0)" stroke-width="0.75311" stroke-opacity="0.502" id = "216" /><path d="M 122.97189 377.41679 L 118.19814 381.27177 L 117.62879 381.28706 L 118.15434 380.82814 L 123.01569 379.19130 L 129.27849 376.17769 L 193.00148 340.99337 L 212.92861 330.62164 L 216.43227 328.38820 " fill="none" stroke="rgb(0, 0, 0)" stroke-width="0.83376" stroke-opacity="0.556" id = "222" /><path d="M 229.39585 325.91000 L 232.63675 325.97119 L 248.31567 329.03070 L 261.80480 331.20295 " fill="none" stroke="rgb(0, 0, 0)" stroke-width="0.74001" stroke-opacity="0.493" id = "224" /><path d="M 232.24258 325.94060 L 229.30826 325.29810 L 231.45426 325.16042 L 263.55663 331.01938 L 264.43255 332.07491 " fill="none" stroke="rgb(0, 0, 0)" stroke-width="0.78802" stroke-opacity="0.525" id = "225" /><path d="M 274.85596 332.88567 L 275.33772 332.88567 L 289.04583 336.02167 L 339.01691 345.35316 L 356.44767 349.31522 L 372.30177 353.55264 " fill="none" stroke="rgb(0, 0, 0)" stroke-width="0.72536" stroke-opacity="0.484" id = "226" /><path d="M 282.65163 333.78823 L 271.13332 331.95253 L 268.81213 331.21824 L 273.06033 331.69247 L 287.42538 335.30268 L 339.49867 346.48518 L 366.21415 352.78776 L 380.27262 356.52036 " fill="none" stroke="rgb(0, 0, 0)" stroke-width="0.72791" stroke-opacity="0.485" id = "227" /><path d="M 338.14100 353.67502 L 339.49867 353.81270 L 361.39660 360.02350 L 362.57909 360.48242 " fill="none" stroke="rgb(0, 0, 0)" stroke-width="0.90395" stroke-opacity="0.603" id = "229" /><path d="M 338.14100 353.67502 L 339.49867 353.81270 L 361.39660 360.02350 L 362.57909 360.48242 " fill="none" stroke="rgb(0, 0, 0)" stroke-width="0.90395" stroke-opacity="0.603" id = "230" /><path d="M 338.14100 353.67502 L 339.49867 353.81270 L 361.39660 360.02350 L 362.57909 360.48242 " fill="none" stroke="rgb(0, 0, 0)" stroke-width="0.90395" stroke-opacity="0.603" id = "231" /><path d="M 118.81128 263.87851 L 117.62879 263.26661 L 113.94994 263.60316 L 123.32226 262.25697 L 141.54134 258.40200 L 140.57783 258.06545 " fill="none" stroke="rgb(0, 0, 0)" stroke-width="0.71721" stroke-opacity="0.478" id = "234" /><path d="M 116.92806 262.48644 L 113.42439 263.77143 L 130.67996 259.68699 L 138.12526 258.41729 L 142.02309 258.26432 L 140.31505 258.26432 " fill="none" stroke="rgb(0, 0, 0)" stroke-width="0.70633" stroke-opacity="0.471" id = "235" /><path d="M 275.73188 437.50549 L 277.43992 437.87263 L 278.44723 437.23013 L 280.28665 434.27771 L 280.19906 433.86468 L 279.71731 433.86468 L 279.01657 434.29301 L 276.91437 437.04656 L 277.43992 437.16894 L 283.17718 433.34456 L 303.80503 416.50198 L 320.62265 401.83165 L 367.79080 365.34704 L 373.17769 360.19177 L 373.57185 359.48808 " fill="none" stroke="rgb(0, 0, 0)" stroke-width="0.74573" stroke-opacity="0.497" id = "237" /><path d="M 368.09737 359.94701 L 363.93676 364.91871 L 341.51328 384.72901 " fill="none" stroke="rgb(0, 0, 0)" stroke-width="0.82823" stroke-opacity="0.552" id = "238" /></svg>