<?xml version="1.0" encoding="utf-8" ?>
<svg baseProfile="full" height="512" version="1.1" viewBox="0,0,512,512" width="512" xmlns="http://www.w3.org/2000/svg" xmlns:ev="http://www.w3.org/2001/xml-events" xmlns:xlink="http://www.w3.org/1999/xlink"><defs><style type="text/css"><![CDATA[
	.background { fill: white; }
	.line { stroke: firebrick; stroke-width: .1mm; }
	.blacksquare { fill: indigo; }
	.whitesquare { fill: white; }
]]></style></defs>
<path d="M 305.29267 450.21476 L 306.33718 450.19818 
L 305.95736 449.71725 
L 308.42622 451.14345 
" fill="none" stroke="rgb(0, 0, 0)" stroke-width="0.65550" stroke-opacity="0.437" id = "11" /><path d="M 368.96076 394.49355 L 365.44738 395.32274 
L 365.16251 394.31113 
L 365.54234 394.16188 
" fill="none" stroke="rgb(0, 0, 0)" stroke-width="0.49878" stroke-opacity="0.333" id = "13" /><path d="M 223.06065 66.63394 L 223.39299 65.14141 
L 225.14968 67.11487 
" fill="none" stroke="rgb(0, 0, 0)" stroke-width="0.70576" stroke-opacity="0.471" id = "19" /><path d="M 279.08477 170.48103 L 287.91569 175.07471 
L 291.57150 175.92048 
L 295.36975 176.21899 
L 296.69913 177.19742 
" fill="none" stroke="rgb(0, 0, 0)" stroke-width="0.69225" stroke-opacity="0.462" id = "24" /><path d="M 361.83905 279.61831 L 361.12688 279.12080 
L 362.69365 279.48564 
" fill="none" stroke="rgb(0, 0, 0)" stroke-width="0.55774" stroke-opacity="0.372" id = "26" /><path d="M 362.55122 283.06772 L 363.88060 279.46906 
L 364.59277 279.36956 
L 365.87468 280.41433 
" fill="none" stroke="rgb(0, 0, 0)" stroke-width="0.62118" stroke-opacity="0.414" id = "30" /><path d="M 174.63302 269.15400 L 174.77545 270.64653 
L 175.34519 271.55864 
L 175.39267 269.63493 
" fill="none" stroke="rgb(0, 0, 0)" stroke-width="0.61876" stroke-opacity="0.413" id = "31" /><path d="M 174.63302 269.15400 L 174.77545 270.64653 
L 175.34519 271.55864 
L 175.39267 269.63493 
" fill="none" stroke="rgb(0, 0, 0)" stroke-width="0.61876" stroke-opacity="0.413" id = "32" /><path d="M 248.60385 229.70140 L 237.20911 225.80423 
L 230.37227 222.80258 
L 228.56810 221.55880 
L 229.66010 221.70806 
L 245.61273 229.91698 
" fill="none" stroke="rgb(0, 0, 0)" stroke-width="0.35772" stroke-opacity="0.238" id = "39" /><path d="M 248.60385 229.70140 L 237.20911 225.80423 
L 230.37227 222.80258 
L 228.56810 221.55880 
L 229.66010 221.70806 
L 245.61273 229.91698 
" fill="none" stroke="rgb(0, 0, 0)" stroke-width="0.35772" stroke-opacity="0.238" id = "40" /><path d="M 354.62238 283.76423 L 361.98148 283.69790 
L 365.16251 285.96987 
" fill="none" stroke="rgb(0, 0, 0)" stroke-width="0.54697" stroke-opacity="0.365" id = "41" /><path d="M 294.84749 335.96970 L 294.98992 336.99789 
L 295.79705 336.99789 
L 295.22731 337.62807 
L 295.27479 338.24167 
" fill="none" stroke="rgb(0, 0, 0)" stroke-width="0.78545" stroke-opacity="0.524" id = "43" /><path d="M 196.23554 259.25354 L 195.52337 260.14906 
L 195.52337 260.77924 
" fill="none" stroke="rgb(0, 0, 0)" stroke-width="0.60149" stroke-opacity="0.401" id = "46" /><path d="M 196.23554 259.25354 L 195.52337 260.14906 
L 195.52337 260.77924 
" fill="none" stroke="rgb(0, 0, 0)" stroke-width="0.60149" stroke-opacity="0.401" id = "47" /><path d="M 311.08499 320.21519 L 312.17699 320.18202 
L 311.17995 319.73426 
L 312.41438 319.71768 
L 314.69332 320.44736 
L 312.12951 320.24836 
" fill="none" stroke="rgb(0, 0, 0)" stroke-width="0.59809" stroke-opacity="0.399" id = "48" /><path d="M 312.31942 324.09578 L 314.07611 321.85698 
L 315.12063 321.34288 
" fill="none" stroke="rgb(0, 0, 0)" stroke-width="0.56726" stroke-opacity="0.378" id = "51" /><path d="M 165.46975 100.38176 L 165.65966 98.67364 
L 166.65670 98.39171 
L 165.75462 97.57911 
" fill="none" stroke="rgb(0, 0, 0)" stroke-width="0.60940" stroke-opacity="0.406" id = "56" /><path d="M 287.67830 164.85916 L 289.00769 165.02499 
L 290.76438 166.16927 
L 291.71394 166.30194 
" fill="none" stroke="rgb(0, 0, 0)" stroke-width="0.88657" stroke-opacity="0.591" id = "62" /><path d="M 287.67830 164.85916 L 289.00769 165.02499 
L 290.76438 166.16927 
L 291.71394 166.30194 
" fill="none" stroke="rgb(0, 0, 0)" stroke-width="0.88657" stroke-opacity="0.591" id = "63" /><path d="M 143.62984 107.01523 L 144.95922 106.83281 
L 146.00374 108.93894 
" fill="none" stroke="rgb(0, 0, 0)" stroke-width="1.01583" stroke-opacity="0.677" id = "64" /><path d="M 143.62984 107.01523 L 144.95922 106.83281 
L 146.00374 108.93894 
" fill="none" stroke="rgb(0, 0, 0)" stroke-width="1.01583" stroke-opacity="0.677" id = "65" /><path d="M 294.56262 171.29363 L 296.03444 171.85747 
L 295.55966 171.37655 
L 294.98992 171.49263 
L 296.08192 172.18915 
" fill="none" stroke="rgb(0, 0, 0)" stroke-width="0.67817" stroke-opacity="0.452" id = "68" /><path d="M 296.31931 169.46942 L 296.17688 168.39148 
L 295.70209 168.40807 
L 295.55966 170.09960 
L 295.60714 167.74472 
L 295.79705 170.36494 
L 295.74957 168.93874 
L 295.46470 169.35334 
" fill="none" stroke="rgb(0, 0, 0)" stroke-width="0.90795" stroke-opacity="0.605" id = "71" /><path d="M 294.94245 170.09960 L 294.23027 169.50259 
L 293.32819 169.50259 
L 293.80297 169.43625 
L 295.03740 170.46444 
L 298.40834 174.17919 
L 303.48850 181.65844 
" fill="none" stroke="rgb(0, 0, 0)" stroke-width="0.54838" stroke-opacity="0.366" id = "75" /><path d="M 304.20067 180.58050 L 303.91580 179.17088 
L 304.48554 177.11450 
L 303.67841 176.79941 
" fill="none" stroke="rgb(0, 0, 0)" stroke-width="0.89213" stroke-opacity="0.595" id = "76" /><path d="M 304.20067 180.58050 L 303.91580 179.17088 
L 304.48554 177.11450 
L 303.67841 176.79941 
" fill="none" stroke="rgb(0, 0, 0)" stroke-width="0.89213" stroke-opacity="0.595" id = "77" /><path d="M 362.07644 123.74818 L 361.55418 125.24071 
L 361.55418 127.23076 
L 361.83905 111.11141 
L 361.55418 113.59896 
L 361.83905 113.71505 
L 362.02896 113.16778 
L 363.12095 125.09146 
L 363.50078 125.88748 
L 362.31383 127.42976 
L 363.07348 127.44634 
L 364.07052 126.83275 
L 363.26339 126.94883 
L 363.16843 127.91069 
" fill="none" stroke="rgb(0, 0, 0)" stroke-width="0.90456" stroke-opacity="0.603" id = "83" /><path d="M 156.21153 112.45469 L 153.79014 111.22749 
L 151.65363 109.43645 
" fill="none" stroke="rgb(0, 0, 0)" stroke-width="0.53231" stroke-opacity="0.355" id = "84" /><path d="M 156.21153 112.45469 L 153.79014 111.22749 
L 151.65363 109.43645 
" fill="none" stroke="rgb(0, 0, 0)" stroke-width="0.53231" stroke-opacity="0.355" id = "85" /><path d="M 153.07797 111.47625 L 152.60319 110.86265 
L 153.17293 110.66365 
L 155.21449 111.12799 
L 159.48751 114.31206 
L 163.14332 118.12631 
L 164.56767 118.22581 
L 163.38071 118.42482 
L 163.38071 118.72332 
L 165.32732 118.92233 
" fill="none" stroke="rgb(0, 0, 0)" stroke-width="0.96531" stroke-opacity="0.644" id = "86" /><path d="M 302.91876 177.51251 L 302.06416 176.45116 
L 302.49146 175.85414 
L 302.11163 175.48930 
" fill="none" stroke="rgb(0, 0, 0)" stroke-width="0.65918" stroke-opacity="0.439" id = "94" /><path d="M 310.56273 259.71788 L 310.94256 258.52385 
L 310.27786 258.05951 
L 310.46777 256.43431 
L 309.89804 256.35139 
L 309.80308 256.83232 
" fill="none" stroke="rgb(0, 0, 0)" stroke-width="0.70664" stroke-opacity="0.471" id = "95" /><path d="M 304.10571 255.50562 L 305.05527 254.75936 
L 305.95736 255.58854 
L 307.42918 255.05786 
L 307.52413 256.84890 
" fill="none" stroke="rgb(0, 0, 0)" stroke-width="0.78364" stroke-opacity="0.522" id = "100" /><path d="M 313.41141 308.15885 L 314.12359 307.41258 
L 315.69036 301.69121 
L 316.07019 291.89024 
L 315.73784 280.34799 
L 315.31054 276.79908 
L 314.31350 273.53210 
L 313.36394 272.42099 
L 311.55977 272.02298 
" fill="none" stroke="rgb(0, 0, 0)" stroke-width="0.38586" stroke-opacity="0.257" id = "101" /><path d="M 312.17699 308.54027 L 312.65177 308.02618 
L 314.93071 303.34958 
L 316.45001 297.94329 
L 317.73192 290.01629 
L 318.01679 279.10422 
L 317.44705 275.32313 
L 315.69036 270.77920 
L 313.69628 268.19215 
L 310.32534 266.45086 
L 310.61021 266.98154 
" fill="none" stroke="rgb(0, 0, 0)" stroke-width="0.52858" stroke-opacity="0.352" id = "102" /><path d="M 310.56273 266.63328 L 309.85056 265.29000 
L 310.13543 265.32317 
L 313.03159 267.51222 
L 314.88324 269.50226 
L 316.68740 272.47074 
L 318.30166 276.81567 
L 319.53609 282.15562 
L 320.58060 291.26006 
L 320.62808 296.36784 
L 319.86843 299.08757 
L 316.68740 303.49883 
L 314.59837 308.73928 
L 313.69628 309.31971 
L 313.12655 310.59665 
L 316.68740 305.43912 
L 318.82391 300.38109 
L 319.67852 294.17879 
L 319.77348 285.85378 
L 318.82391 277.16392 
L 317.39957 272.18882 
L 314.36098 266.91520 
L 311.55977 264.59349 
" fill="none" stroke="rgb(0, 0, 0)" stroke-width="0.46540" stroke-opacity="0.310" id = "103" /><path d="M 310.61021 306.20197 L 310.04047 306.43414 
L 310.46777 307.11407 
L 313.69628 308.75586 
" fill="none" stroke="rgb(0, 0, 0)" stroke-width="0.77773" stroke-opacity="0.518" id = "104" /><path d="M 310.61021 306.20197 L 310.04047 306.43414 
L 310.46777 307.11407 
L 313.69628 308.75586 
" fill="none" stroke="rgb(0, 0, 0)" stroke-width="0.77773" stroke-opacity="0.518" id = "105" /><path d="M 308.94848 307.27991 L 308.75856 308.34127 
L 309.80308 308.17543 
L 310.70517 307.09749 
L 312.36690 303.23349 
L 313.41141 299.41924 
L 314.17106 292.08925 
L 314.50341 280.64650 
L 314.45593 276.18549 
L 313.60133 273.94669 
L 309.23334 267.36296 
L 308.14135 267.56197 
L 306.62205 266.50061 
L 308.52117 265.53876 
L 306.57457 264.65982 
L 309.18587 266.11919 
L 306.52709 265.10758 
L 309.94552 266.08602 
" fill="none" stroke="rgb(0, 0, 0)" stroke-width="0.66784" stroke-opacity="0.445" id = "106" /><path d="M 196.14058 252.03963 L 195.99815 251.37628 
L 194.28894 251.21045 
L 193.57677 250.38126 
" fill="none" stroke="rgb(0, 0, 0)" stroke-width="0.39459" stroke-opacity="0.263" id = "107" /><path d="M 193.24442 247.14744 L 195.33346 248.93848 
L 192.53225 247.19719 
L 195.42841 248.09271 
" fill="none" stroke="rgb(0, 0, 0)" stroke-width="0.75910" stroke-opacity="0.506" id = "108" /><path d="M 185.07819 209.17078 L 186.97732 210.61356 
L 184.46098 207.79434 
L 186.12271 209.43612 
" fill="none" stroke="rgb(0, 0, 0)" stroke-width="0.73785" stroke-opacity="0.492" id = "109" /><path d="M 195.19102 250.56368 L 196.18806 249.36966 
L 197.04267 246.79918 
L 197.61240 242.68643 
L 197.61240 234.84234 
L 196.47293 226.31832 
L 194.71624 220.09944 
L 191.34530 212.50411 
L 189.30374 210.38139 
L 186.59749 210.28189 
" fill="none" stroke="rgb(0, 0, 0)" stroke-width="0.44080" stroke-opacity="0.294" id = "110" /><path d="M 190.68060 248.40780 L 190.96547 248.55705 
L 192.34234 246.38459 
L 193.52929 239.45261 
L 193.67172 230.56375 
L 192.86460 223.30009 
L 191.63017 218.15915 
L 189.35122 212.86895 
L 187.21471 210.51406 
L 185.31558 210.21556 
L 185.22063 210.96182 
" fill="none" stroke="rgb(0, 0, 0)" stroke-width="0.61642" stroke-opacity="0.411" id = "111" /><path d="M 191.96251 246.13584 L 190.63313 247.79420 
L 191.48773 247.51228 
L 193.05451 244.56038 
L 194.19398 238.32492 
L 194.14650 232.05628 
L 192.72216 223.43276 
L 190.82304 217.97672 
L 188.40166 213.20062 
L 185.69541 209.81755 
L 184.55593 209.40296 
L 183.51142 209.55221 
L 183.93872 209.75121 
" fill="none" stroke="rgb(0, 0, 0)" stroke-width="0.75509" stroke-opacity="0.503" id = "112" /><path d="M 194.90615 250.34809 L 194.43137 249.99984 
L 194.33642 248.72289 
L 196.09310 244.22871 
L 197.13762 239.81745 
L 197.65988 232.43770 
L 197.23258 226.48416 
L 195.76076 221.22713 
L 192.67468 215.42284 
L 190.25330 213.11770 
L 187.35714 212.62019 
L 186.40758 211.85734 
L 185.79036 210.33164 
" fill="none" stroke="rgb(0, 0, 0)" stroke-width="0.79109" stroke-opacity="0.527" id = "113" /><path d="M 194.90615 250.34809 L 194.43137 249.99984 
L 194.33642 248.72289 
L 196.09310 244.22871 
L 197.13762 239.81745 
L 197.65988 232.43770 
L 197.23258 226.48416 
L 195.76076 221.22713 
L 192.67468 215.42284 
L 190.25330 213.11770 
L 187.35714 212.62019 
L 186.40758 211.85734 
L 185.79036 210.33164 
" fill="none" stroke="rgb(0, 0, 0)" stroke-width="0.79109" stroke-opacity="0.527" id = "114" /><path d="M 192.62721 243.96337 L 190.82304 245.38957 
L 191.63017 245.50565 
L 192.19990 244.80914 
L 193.86164 239.66819 
L 194.05155 231.94019 
L 193.14946 222.90208 
L 192.00999 217.79430 
L 190.20582 213.64838 
L 187.59453 210.74623 
L 185.64793 210.49748 
L 186.45506 211.04474 
" fill="none" stroke="rgb(0, 0, 0)" stroke-width="0.90946" stroke-opacity="0.606" id = "115" /><path d="M 193.67172 246.98160 L 192.24738 246.46751 
L 191.48773 247.51228 
L 194.62128 248.59022 
L 191.91503 249.17065 
L 193.19694 249.10432 
" fill="none" stroke="rgb(0, 0, 0)" stroke-width="0.88946" stroke-opacity="0.593" id = "116" /><path d="M 183.65385 207.49583 L 184.08115 210.58040 
L 183.70133 206.60031 
L 183.03664 203.83083 
L 182.51438 203.39966 
L 183.27403 208.17576 
L 183.55889 209.07128 
L 183.55889 208.24210 
L 182.08707 201.34328 
" fill="none" stroke="rgb(0, 0, 0)" stroke-width="0.94601" stroke-opacity="0.631" id = "118" /><path d="M 301.58938 248.14246 L 302.63389 248.14246 
L 302.25407 247.77762 
" fill="none" stroke="rgb(0, 0, 0)" stroke-width="0.63789" stroke-opacity="0.425" id = "122" /><path d="M 168.88817 118.60724 L 169.50539 118.87258 
L 168.22348 118.83941 
L 166.60922 117.89414 
L 164.66262 115.98701 
L 168.50835 119.08816 
L 173.73093 122.35515 
" fill="none" stroke="rgb(0, 0, 0)" stroke-width="0.52438" stroke-opacity="0.350" id = "123" /><path d="M 296.65166 176.33507 L 297.26887 175.92048 
L 298.31339 176.11948 
L 298.55078 176.86575 
" fill="none" stroke="rgb(0, 0, 0)" stroke-width="0.79676" stroke-opacity="0.531" id = "124" /><path d="M 194.14650 190.97847 L 193.05451 191.12773 
L 193.33938 192.37150 
L 193.90911 192.43784 
L 195.28598 191.26039 
" fill="none" stroke="rgb(0, 0, 0)" stroke-width="0.72077" stroke-opacity="0.481" id = "141" /><path d="M 194.14650 190.97847 L 193.05451 191.12773 
L 193.33938 192.37150 
L 193.90911 192.43784 
L 195.28598 191.26039 
" fill="none" stroke="rgb(0, 0, 0)" stroke-width="0.72077" stroke-opacity="0.481" id = "142" /><path d="M 196.90023 194.47763 L 195.66580 194.39471 
L 198.70440 195.93700 
" fill="none" stroke="rgb(0, 0, 0)" stroke-width="0.62279" stroke-opacity="0.415" id = "143" /><path d="M 231.89157 180.91217 L 230.08740 180.74633 
L 229.61262 181.67502 
L 229.85001 183.20072 
L 230.60966 183.38314 
L 230.98949 182.83588 
L 231.08444 180.43124 
L 229.99245 178.68996 
L 227.76098 178.27536 
L 227.28620 178.90554 
L 227.23872 181.06142 
L 228.04585 183.96357 
L 229.04288 184.95859 
L 229.80253 184.95859 
L 230.79957 183.25047 
L 230.89453 181.34335 
L 230.41975 180.23224 
L 228.66306 179.02163 
L 227.33367 178.88896 
L 226.14672 180.18249 
L 226.24168 181.57552 
L 227.23872 183.30022 
L 228.37819 184.16257 
L 229.42271 184.21233 
L 230.27731 183.28364 
L 230.51471 181.34335 
" fill="none" stroke="rgb(0, 0, 0)" stroke-width="0.65882" stroke-opacity="0.439" id = "153" /><path d="M 227.23872 178.10953 L 227.57106 178.65679 
L 226.00429 179.81765 
L 225.29212 180.91217 
L 225.86185 182.71979 
" fill="none" stroke="rgb(0, 0, 0)" stroke-width="0.72344" stroke-opacity="0.482" id = "154" /><path d="M 227.23872 178.10953 L 227.57106 178.65679 
L 226.00429 179.81765 
L 225.29212 180.91217 
L 225.86185 182.71979 
" fill="none" stroke="rgb(0, 0, 0)" stroke-width="0.72344" stroke-opacity="0.482" id = "155" /><path d="M 226.09924 178.42462 L 226.71646 178.75629 
L 228.94793 177.97686 
L 229.80253 180.31516 
" fill="none" stroke="rgb(0, 0, 0)" stroke-width="0.78837" stroke-opacity="0.526" id = "156" /><path d="M 229.99245 183.43289 L 229.51767 185.38977 
L 230.98949 185.48927 
L 232.31887 184.14599 
" fill="none" stroke="rgb(0, 0, 0)" stroke-width="0.68338" stroke-opacity="0.456" id = "157" /><path d="M 229.99245 183.43289 L 229.51767 185.38977 
L 230.98949 185.48927 
L 232.31887 184.14599 
" fill="none" stroke="rgb(0, 0, 0)" stroke-width="0.68338" stroke-opacity="0.456" id = "158" /><path d="M 229.99245 183.43289 L 229.51767 185.38977 
L 230.98949 185.48927 
L 232.31887 184.14599 
" fill="none" stroke="rgb(0, 0, 0)" stroke-width="0.68338" stroke-opacity="0.456" id = "159" /><path d="M 241.24475 180.71317 L 238.39606 180.53075 
L 237.96876 180.87900 
L 237.73137 184.04649 
" fill="none" stroke="rgb(0, 0, 0)" stroke-width="0.53313" stroke-opacity="0.355" id = "160" /><path d="M 241.24475 180.71317 L 238.39606 180.53075 
L 237.96876 180.87900 
L 237.73137 184.04649 
" fill="none" stroke="rgb(0, 0, 0)" stroke-width="0.53313" stroke-opacity="0.355" id = "161" /><path d="M 241.24475 180.71317 L 238.39606 180.53075 
L 237.96876 180.87900 
L 237.73137 184.04649 
" fill="none" stroke="rgb(0, 0, 0)" stroke-width="0.53313" stroke-opacity="0.355" id = "162" /><path d="M 241.24475 180.71317 L 238.63346 179.33672 
L 237.20911 180.09957 
L 236.73433 181.50918 
L 236.87677 183.46606 
L 238.06372 186.05312 
L 239.34563 187.11447 
L 240.58006 187.31348 
L 241.38718 186.25212 
L 241.48214 184.21233 
L 240.39014 181.97353 
L 239.34563 181.19409 
L 237.20911 180.84584 
L 236.49694 181.26043 
L 236.21207 182.32178 
L 236.21207 184.46108 
L 236.97172 187.47931 
L 237.96876 188.70651 
L 239.63049 189.13768 
L 240.43762 188.17583 
L 240.58006 187.06472 
L 240.01032 183.81432 
L 237.87381 180.89559 
L 236.21207 180.53075 
L 235.83225 181.11117 
L 237.16163 181.80769 
L 239.44058 181.40968 
" fill="none" stroke="rgb(0, 0, 0)" stroke-width="0.73610" stroke-opacity="0.491" id = "163" /><path d="M 241.38718 180.66342 L 240.81745 181.80769 
L 241.43466 182.67004 
L 242.28927 183.00172 
L 241.62457 183.23389 
L 241.33971 183.94699 
L 242.33674 184.02990 
" fill="none" stroke="rgb(0, 0, 0)" stroke-width="0.98506" stroke-opacity="0.657" id = "164" /><path d="M 220.35440 66.53444 L 221.82622 68.64057 
L 225.48203 71.34371 
" fill="none" stroke="rgb(0, 0, 0)" stroke-width="0.57514" stroke-opacity="0.383" id = "169" /><path d="M 221.06657 68.12647 L 220.16449 67.82797 
L 224.29508 71.75830 
L 220.21196 66.45152 
L 224.95977 73.63226 
L 223.10813 71.21104 
L 223.10813 71.72514 
" fill="none" stroke="rgb(0, 0, 0)" stroke-width="0.97409" stroke-opacity="0.649" id = "173" /><path d="M 229.28028 72.62066 L 229.37523 70.96229 
L 230.41975 72.62066 
" fill="none" stroke="rgb(0, 0, 0)" stroke-width="0.85861" stroke-opacity="0.572" id = "175" /><path d="M 350.34935 115.88751 L 351.29891 113.98039 
L 352.01109 113.71505 
L 352.01109 115.17441 
L 351.77370 113.98039 
L 352.34343 114.37839 
L 351.63126 115.12466 
" fill="none" stroke="rgb(0, 0, 0)" stroke-width="0.87868" stroke-opacity="0.586" id = "180" /><path d="M 169.55286 107.97709 L 168.31843 106.98207 
L 166.56175 107.52933 
L 166.27688 108.97211 
L 166.65670 109.61887 
L 166.75166 109.17111 
L 166.75166 107.94392 
L 166.65670 107.66200 
L 166.46679 107.89417 
L 166.32435 110.69681 
" fill="none" stroke="rgb(0, 0, 0)" stroke-width="1.13794" stroke-opacity="0.759" id = "187" /><path d="M 169.55286 107.97709 L 168.31843 106.98207 
L 166.56175 107.52933 
L 166.27688 108.97211 
L 166.65670 109.61887 
L 166.75166 109.17111 
L 166.75166 107.94392 
L 166.65670 107.66200 
L 166.46679 107.89417 
L 166.32435 110.69681 
" fill="none" stroke="rgb(0, 0, 0)" stroke-width="1.13794" stroke-opacity="0.759" id = "188" /><path d="M 301.06712 341.34282 L 300.30747 341.32623 
L 300.30747 341.97300 
L 301.16207 343.83037 
L 300.44990 341.34282 
" fill="none" stroke="rgb(0, 0, 0)" stroke-width="1.03950" stroke-opacity="0.693" id = "201" /><path d="M 301.06712 341.34282 L 300.30747 341.32623 
L 300.30747 341.97300 
L 301.16207 343.83037 
L 300.44990 341.34282 
" fill="none" stroke="rgb(0, 0, 0)" stroke-width="1.03950" stroke-opacity="0.693" id = "202" /><path d="M 361.41174 284.67634 L 362.40878 284.69292 
L 365.68477 286.51713 
L 367.48894 288.39108 
" fill="none" stroke="rgb(0, 0, 0)" stroke-width="1.07319" stroke-opacity="0.715" id = "209" /><path d="M 361.41174 284.67634 L 362.40878 284.69292 
L 365.68477 286.51713 
L 367.48894 288.39108 
" fill="none" stroke="rgb(0, 0, 0)" stroke-width="1.07319" stroke-opacity="0.715" id = "210" /><path d="M 361.41174 284.67634 L 362.40878 284.69292 
L 365.68477 286.51713 
L 367.48894 288.39108 
" fill="none" stroke="rgb(0, 0, 0)" stroke-width="1.07319" stroke-opacity="0.715" id = "211" /><path d="M 361.41174 284.67634 L 362.40878 284.69292 
L 365.68477 286.51713 
L 367.48894 288.39108 
" fill="none" stroke="rgb(0, 0, 0)" stroke-width="1.07319" stroke-opacity="0.715" id = "212" /><path d="M 170.59738 274.19544 L 168.98313 273.68135 
L 169.88521 276.98150 
L 168.36591 276.93175 
L 165.32732 275.70456 
L 167.60626 273.48234 
L 182.37194 263.64821 
L 190.44321 258.98820 
L 188.40166 260.03297 
L 189.54113 259.08770 
" fill="none" stroke="rgb(0, 0, 0)" stroke-width="1.00889" stroke-opacity="0.673" id = "214" /><path d="M 194.43137 261.14408 L 193.71920 260.77924 
L 194.52633 261.97326 
L 195.90319 262.80245 
L 196.18806 262.68636 
L 195.47589 261.95668 
L 193.38685 260.84557 
L 195.66580 261.79084 
L 194.95363 261.02799 
L 194.76372 261.22700 
" fill="none" stroke="rgb(0, 0, 0)" stroke-width="1.06531" stroke-opacity="0.710" id = "215" /><path d="M 236.35451 233.59856 L 236.63938 232.80255 
L 237.87381 232.71963 
L 237.77885 232.45429 
L 237.77885 232.86888 
" fill="none" stroke="rgb(0, 0, 0)" stroke-width="0.75493" stroke-opacity="0.503" id = "218" /><path d="M 364.68773 382.45379 L 363.92808 382.70255 
L 363.07348 382.42062 
L 365.39990 383.46540 
L 362.17139 382.88497 
" fill="none" stroke="rgb(0, 0, 0)" stroke-width="0.95019" stroke-opacity="0.633" id = "228" /><path d="M 364.68773 382.45379 L 363.92808 382.70255 
L 363.07348 382.42062 
L 365.39990 383.46540 
L 362.17139 382.88497 
" fill="none" stroke="rgb(0, 0, 0)" stroke-width="0.95019" stroke-opacity="0.633" id = "229" /><path d="M 365.16251 386.21829 L 364.40286 385.82028 
L 365.63729 384.39408 
L 364.97260 384.37750 
L 364.73521 386.33438 
L 365.02008 384.47700 
L 365.25747 385.20668 
L 365.35242 389.98279 
L 363.35834 399.58475 
" fill="none" stroke="rgb(0, 0, 0)" stroke-width="0.88276" stroke-opacity="0.589" id = "232" /><path d="M 307.42918 435.80353 L 306.43214 435.63770 
L 305.71997 436.35079 
L 307.52413 436.48346 
L 306.19475 436.16837 
L 305.76745 435.63770 
L 305.71997 434.51000 
L 306.38466 432.47021 
L 305.62501 434.52659 
L 305.43510 436.51663 
" fill="none" stroke="rgb(0, 0, 0)" stroke-width="0.76976" stroke-opacity="0.513" id = "233" /><path d="M 194.00407 373.33276 L 194.19398 372.68600 
L 191.44025 374.17853 
L 195.09607 371.09396 
L 194.19398 372.28799 
L 191.91503 373.97952 
L 191.91503 373.08401 
" fill="none" stroke="rgb(0, 0, 0)" stroke-width="0.95725" stroke-opacity="0.638" id = "239" /><path d="M 191.82008 373.28301 L 193.05451 373.10059 
L 194.09903 380.89492 
L 196.61536 388.10883 
" fill="none" stroke="rgb(0, 0, 0)" stroke-width="0.81471" stroke-opacity="0.543" id = "240" /><path d="M 202.97742 390.14863 L 203.16734 389.03752 
L 203.02490 390.13204 
L 202.69256 388.77218 
L 203.45221 390.24813 
" fill="none" stroke="rgb(0, 0, 0)" stroke-width="0.85156" stroke-opacity="0.568" id = "244" /><path d="M 293.13828 441.27615 L 293.56558 443.74712 
L 293.99288 443.94613 
L 293.89793 442.71893 
L 293.23324 441.47516 
L 293.18576 442.22142 
L 294.18280 444.95773 
" fill="none" stroke="rgb(0, 0, 0)" stroke-width="0.83881" stroke-opacity="0.559" id = "247" /><path d="M 290.33707 438.97102 L 290.90681 438.93785 
L 291.47655 439.80020 
L 292.47359 443.63104 
L 293.04332 442.20484 
L 293.13828 440.26455 
L 293.37567 441.84000 
L 295.74957 446.31759 
L 294.42019 440.99423 
L 293.09080 442.40384 
" fill="none" stroke="rgb(0, 0, 0)" stroke-width="1.07387" stroke-opacity="0.716" id = "251" /><path d="M 202.74003 389.08727 L 202.97742 387.57815 
L 200.88839 388.78876 
" fill="none" stroke="rgb(0, 0, 0)" stroke-width="1.09396" stroke-opacity="0.729" id = "252" /><path d="M 202.74003 389.08727 L 202.97742 387.57815 
L 200.88839 388.78876 
" fill="none" stroke="rgb(0, 0, 0)" stroke-width="1.09396" stroke-opacity="0.729" id = "253" /><path d="M 202.74003 389.08727 L 202.97742 387.57815 
L 200.88839 388.78876 
" fill="none" stroke="rgb(0, 0, 0)" stroke-width="1.09396" stroke-opacity="0.729" id = "254" /><path d="M 197.61240 387.89324 L 196.42545 387.32940 
L 198.89431 389.12044 
L 202.69256 390.99439 
" fill="none" stroke="rgb(0, 0, 0)" stroke-width="0.92963" stroke-opacity="0.620" id = "255" /><path d="M 292.90089 439.41878 L 293.32819 438.98760 
L 294.46767 442.78527 
L 296.60418 446.23467 
" fill="none" stroke="rgb(0, 0, 0)" stroke-width="0.80917" stroke-opacity="0.539" id = "258" /><path d="M 298.83565 370.61303 L 298.78817 371.19346 
L 299.16799 371.82364 
L 301.35199 372.73575 
L 302.20659 373.79710 
" fill="none" stroke="rgb(0, 0, 0)" stroke-width="0.59805" stroke-opacity="0.399" id = "262" /><path d="M 245.51778 397.74396 L 245.09047 397.26303 
L 245.18543 398.25805 
L 246.70473 400.29785 
L 247.03707 400.36418 
L 247.03707 398.95457 
" fill="none" stroke="rgb(0, 0, 0)" stroke-width="0.49891" stroke-opacity="0.333" id = "263" /><path d="M 195.33346 330.14882 L 194.43137 328.27487 
L 195.23850 329.13722 
" fill="none" stroke="rgb(0, 0, 0)" stroke-width="0.46940" stroke-opacity="0.313" id = "267" /><path d="M 231.22688 350.64627 L 231.36931 348.85523 
L 230.56218 347.42903 
" fill="none" stroke="rgb(0, 0, 0)" stroke-width="0.53351" stroke-opacity="0.356" id = "269" /><path d="M 256.77008 394.37747 L 256.67512 397.77712 
L 256.34278 391.50849 
L 253.92139 378.80538 
L 248.03411 358.24160 
L 247.79672 358.93811 
" fill="none" stroke="rgb(0, 0, 0)" stroke-width="0.39531" stroke-opacity="0.264" id = "270" /><path d="M 249.07863 359.40246 L 249.50593 357.31291 
L 248.65133 355.80380 
L 249.03115 355.98622 
" fill="none" stroke="rgb(0, 0, 0)" stroke-width="0.58018" stroke-opacity="0.387" id = "271" /><path d="M 292.99584 377.82694 L 292.75845 375.45547 
L 291.95133 375.20672 
" fill="none" stroke="rgb(0, 0, 0)" stroke-width="0.60110" stroke-opacity="0.401" id = "273" /><path d="M 211.14365 371.92315 L 210.14661 371.69097 
L 212.47304 374.22828 
L 211.57096 372.81867 
L 211.99826 372.71916 
" fill="none" stroke="rgb(0, 0, 0)" stroke-width="0.68030" stroke-opacity="0.454" id = "286" /><path d="M 292.04628 417.14688 L 292.04628 418.63941 
L 295.22731 420.01586 
" fill="none" stroke="rgb(0, 0, 0)" stroke-width="0.65206" stroke-opacity="0.435" id = "289" /><path d="M 292.04628 417.14688 L 292.04628 418.63941 
L 295.22731 420.01586 
" fill="none" stroke="rgb(0, 0, 0)" stroke-width="0.65206" stroke-opacity="0.435" id = "290" /><path d="M 248.50889 335.72094 L 248.93620 337.69440 
L 248.88872 334.70934 
L 247.89168 328.63971 
" fill="none" stroke="rgb(0, 0, 0)" stroke-width="0.57927" stroke-opacity="0.386" id = "299" /><path d="M 246.27742 326.20190 L 247.60681 326.63308 
L 247.32194 327.42910 
L 247.70177 326.58333 
" fill="none" stroke="rgb(0, 0, 0)" stroke-width="0.74638" stroke-opacity="0.498" id = "310" /><path d="M 203.21481 308.65636 L 202.55012 310.08256 
L 202.12282 308.34127 
L 200.74596 306.71607 
" fill="none" stroke="rgb(0, 0, 0)" stroke-width="0.70978" stroke-opacity="0.473" id = "313" /><path d="M 203.21481 308.65636 L 202.55012 310.08256 
L 202.12282 308.34127 
L 200.74596 306.71607 
" fill="none" stroke="rgb(0, 0, 0)" stroke-width="0.70978" stroke-opacity="0.473" id = "314" /><path d="M 262.32501 336.91497 L 261.70780 336.53355 
L 261.66032 336.79888 
L 262.18258 339.50203 
L 263.93927 339.68445 
" fill="none" stroke="rgb(0, 0, 0)" stroke-width="0.62510" stroke-opacity="0.417" id = "317" /><path d="M 262.89475 339.28644 L 268.21229 342.25492 
L 276.18861 345.73750 
" fill="none" stroke="rgb(0, 0, 0)" stroke-width="0.61543" stroke-opacity="0.410" id = "318" /><path d="M 202.92995 313.48221 L 202.17030 311.54192 
L 202.12282 308.14226 
" fill="none" stroke="rgb(0, 0, 0)" stroke-width="0.58586" stroke-opacity="0.391" id = "319" /><path d="M 202.92995 313.48221 L 202.17030 311.54192 
L 202.12282 308.14226 
" fill="none" stroke="rgb(0, 0, 0)" stroke-width="0.58586" stroke-opacity="0.391" id = "320" /><path d="M 202.36021 310.53032 L 202.78751 314.51040 
L 204.16438 317.18038 
L 205.68367 318.55682 
L 208.24749 318.93825 
L 209.43444 318.40757 
L 211.47600 316.16877 
L 211.99826 314.65965 
L 211.85582 314.42748 
L 211.52348 314.82549 
" fill="none" stroke="rgb(0, 0, 0)" stroke-width="0.62937" stroke-opacity="0.420" id = "321" /><path d="M 264.31909 340.36438 L 263.65440 339.15377 
L 263.46449 340.91164 
L 264.84135 344.97465 
L 266.50308 347.29636 
L 268.78203 348.78889 
L 272.48532 349.00448 
L 276.71087 347.56170 
L 278.23017 346.50035 
" fill="none" stroke="rgb(0, 0, 0)" stroke-width="0.64738" stroke-opacity="0.432" id = "322" /><path d="M 264.36657 340.76239 L 263.32205 340.36438 
L 263.08466 341.02773 
L 263.03718 343.43236 
L 263.89179 346.88177 
L 265.45856 349.50199 
L 267.64256 351.29303 
L 270.20637 351.59154 
L 273.05506 350.51360 
L 275.95122 347.94313 
L 277.37556 346.25159 
L 276.56843 346.61643 
L 277.28060 347.37928 
" fill="none" stroke="rgb(0, 0, 0)" stroke-width="0.71430" stroke-opacity="0.476" id = "323" /><path d="M 264.36657 340.76239 L 263.32205 340.36438 
L 263.08466 341.02773 
L 263.03718 343.43236 
L 263.89179 346.88177 
L 265.45856 349.50199 
L 267.64256 351.29303 
L 270.20637 351.59154 
L 273.05506 350.51360 
L 275.95122 347.94313 
L 277.37556 346.25159 
L 276.56843 346.61643 
L 277.28060 347.37928 
" fill="none" stroke="rgb(0, 0, 0)" stroke-width="0.71430" stroke-opacity="0.476" id = "324" /><path d="M 232.22392 370.09894 L 231.70166 370.77887 
L 233.17348 373.15034 
L 235.16756 374.74237 
L 236.59190 374.99113 
L 237.82633 373.86344 
L 237.96876 371.93973 
L 236.44946 369.33609 
L 234.40791 368.09231 
L 232.55626 367.72747 
L 233.07852 371.64122 
L 234.45538 375.05746 
L 235.54738 376.63292 
L 237.25659 377.22993 
L 238.20615 375.90323 
L 238.39606 372.60308 
L 237.35155 369.76727 
L 236.02216 368.72249 
L 233.50582 368.14206 
L 232.03400 368.34107 
L 231.93905 369.03758 
L 232.36635 369.36926 
" fill="none" stroke="rgb(0, 0, 0)" stroke-width="0.62646" stroke-opacity="0.418" id = "325" /><path d="M 234.55034 367.59480 L 233.45835 366.26811 
L 237.01920 367.51188 
L 237.87381 368.10890 
L 238.34859 369.33609 
" fill="none" stroke="rgb(0, 0, 0)" stroke-width="0.74277" stroke-opacity="0.495" id = "326" /><path d="M 238.30111 374.09561 L 238.39606 370.97788 
L 237.63642 369.12050 
" fill="none" stroke="rgb(0, 0, 0)" stroke-width="0.78052" stroke-opacity="0.520" id = "327" /><path d="M 238.30111 374.09561 L 238.39606 370.97788 
L 237.63642 369.12050 
" fill="none" stroke="rgb(0, 0, 0)" stroke-width="0.78052" stroke-opacity="0.520" id = "328" /><path d="M 238.30111 374.09561 L 238.06372 371.88998 
L 238.77589 371.19346 
L 240.05780 371.07738 
" fill="none" stroke="rgb(0, 0, 0)" stroke-width="0.58904" stroke-opacity="0.393" id = "329" /><path d="M 244.28335 373.71419 L 243.71361 374.44387 
L 243.76109 376.40074 
L 244.61569 378.30787 
L 245.66021 379.43556 
L 247.08455 379.70090 
L 247.60681 379.13705 
L 247.74924 377.13043 
L 247.27446 375.55498 
L 246.04003 374.31120 
L 243.09639 373.10059 
L 244.23587 376.88167 
L 245.94508 379.23656 
L 247.74924 379.55165 
L 248.22403 378.60637 
L 248.22403 377.13043 
L 247.13203 374.21170 
L 245.89760 373.01767 
L 244.23587 372.38749 
L 243.04892 372.42066 
L 242.57413 372.81867 
L 242.19431 374.17853 
L 242.38422 376.78217 
L 243.47622 379.25314 
L 244.52074 380.56325 
L 246.32490 380.91151 
L 247.22699 380.36425 
L 248.03411 378.73904 
L 248.22403 376.31783 
L 247.46438 374.70921 
L 246.13499 373.41568 
L 243.42874 372.30457 
L 241.24475 372.07240 
L 242.71657 372.56991 
" fill="none" stroke="rgb(0, 0, 0)" stroke-width="0.66623" stroke-opacity="0.444" id = "330" /><path d="M 244.37830 371.01104 L 243.61865 370.62962 
L 244.04596 370.64620 
L 246.70473 371.55831 
" fill="none" stroke="rgb(0, 0, 0)" stroke-width="0.83608" stroke-opacity="0.557" id = "331" /><path d="M 244.37830 371.01104 L 243.61865 370.62962 
L 244.04596 370.64620 
L 246.70473 371.55831 
" fill="none" stroke="rgb(0, 0, 0)" stroke-width="0.83608" stroke-opacity="0.557" id = "332" /><path d="M 366.25451 285.20702 L 365.30495 282.96822 
L 366.11207 286.45079 
" fill="none" stroke="rgb(0, 0, 0)" stroke-width="0.71020" stroke-opacity="0.473" id = "336" /><path d="M 363.78565 116.60061 L 359.70253 128.19261 
L 359.93992 126.38499 
L 360.84201 124.21252 
L 367.29902 112.60394 
L 359.70253 127.42976 
L 360.79453 124.72662 
L 368.15363 111.16116 
" fill="none" stroke="rgb(0, 0, 0)" stroke-width="1.00224" stroke-opacity="0.668" id = "342" /><path d="M 363.78565 116.60061 L 359.70253 128.19261 
L 359.93992 126.38499 
L 360.84201 124.21252 
L 367.29902 112.60394 
L 359.70253 127.42976 
L 360.79453 124.72662 
L 368.15363 111.16116 
" fill="none" stroke="rgb(0, 0, 0)" stroke-width="1.00224" stroke-opacity="0.668" id = "343" /><path d="M 363.02600 125.14121 L 363.69069 124.34519 
L 363.69069 126.15282 
L 362.55122 130.34849 
" fill="none" stroke="rgb(0, 0, 0)" stroke-width="0.89023" stroke-opacity="0.593" id = "347" /><path d="M 295.22731 445.65425 L 294.18280 444.89140 
L 294.65758 444.90798 
L 298.02852 446.58293 
L 304.91284 451.09370 
L 297.69617 447.89304 
L 295.22731 446.01909 
L 298.31339 447.37895 
L 306.05231 452.18822 
" fill="none" stroke="rgb(0, 0, 0)" stroke-width="0.87538" stroke-opacity="0.584" id = "348" /><path d="M 235.49990 229.27022 L 235.16756 228.39128 
L 235.68981 228.95513 
L 236.21207 231.34318 
L 235.45242 226.81583 
L 234.97764 225.47255 
L 235.45242 228.27520 
L 234.59782 225.00821 
L 235.35747 228.00986 
" fill="none" stroke="rgb(0, 0, 0)" stroke-width="0.90431" stroke-opacity="0.603" id = "349" /></svg>