<?xml version="1.0" encoding="utf-8" ?>
<svg baseProfile="full" height="512" version="1.1" viewBox="0,0,512,512" width="512" xmlns="http://www.w3.org/2000/svg" xmlns:ev="http://www.w3.org/2001/xml-events" xmlns:xlink="http://www.w3.org/1999/xlink"><defs><style type="text/css"><![CDATA[
	.background { fill: white; }
	.line { stroke: firebrick; stroke-width: .1mm; }
	.blacksquare { fill: indigo; }
	.whitesquare { fill: white; }
]]></style></defs>
<path d="M 198.60944 392.71910 L 198.13466 391.62457 L 195.95067 376.11882 L 191.86756 353.71425 L 183.55889 312.40427 L 179.69809 295.76051 L 175.02038 269.77325 L 172.94140 260.93758 L 166.37183 225.25697 L 162.54650 207.40382 L 160.98726 198.56815 L 161.43411 198.80598 L 145.19661 110.61390 L 141.92063 95.39007 L 141.49332 93.98045 L 141.06602 94.61063 " fill="none" stroke="rgb(0, 0, 0)" stroke-width="0.53217" stroke-opacity="0.355" id = "1" /><path d="M 137.97995 109.55254 L 140.87611 110.53098 L 177.62414 129.18763 L 220.87666 148.70664 L 250.59793 164.12947 L 277.89782 177.57885 L 289.10264 182.08961 L 290.95429 182.27203 " fill="none" stroke="rgb(0, 0, 0)" stroke-width="0.40874" stroke-opacity="0.272" id = "2" /><path d="M 283.12041 174.22894 L 295.13236 164.69332 L 315.31054 146.11958 L 334.39672 129.61881 L 341.66087 122.85266 " fill="none" stroke="rgb(0, 0, 0)" stroke-width="0.41914" stroke-opacity="0.279" id = "3" /><path d="M 147.61800 108.49118 L 146.81087 108.49118 L 158.39552 103.03515 L 166.60922 98.57413 L 191.48773 84.09657 L 206.82315 74.26244 " fill="none" stroke="rgb(0, 0, 0)" stroke-width="0.43506" stroke-opacity="0.290" id = "4" /><path d="M 213.09025 67.49629 L 216.12885 68.20939 L 219.59475 70.46478 L 224.24760 72.60407 L 232.60374 75.19113 L 273.71975 86.31879 L 302.72885 92.15625 L 317.87435 95.67199 L 330.83587 99.45307 L 346.50363 105.07494 L 344.22468 103.81458 " fill="none" stroke="rgb(0, 0, 0)" stroke-width="0.36228" stroke-opacity="0.242" id = "5" /><path d="M 308.23631 448.58956 L 309.04343 441.14348 L 308.94848 431.57469 L 304.10571 392.52009 L 299.23949 358.64968 L 297.16051 339.41911 L 295.60127 330.06369 L 293.52229 310.31338 L 291.96306 300.43822 L 286.39639 248.82239 L 283.64267 219.12100 L 282.78806 193.20069 L 283.16788 189.95028 L 284.02249 188.24216 " fill="none" stroke="rgb(0, 0, 0)" stroke-width="0.44596" stroke-opacity="0.297" id = "6" /><path d="M 360.22479 383.68098 L 360.55714 392.50351 L 360.36723 393.56487 L 360.12984 392.96785 L 359.89245 386.53338 L 358.04080 298.87198 L 356.93121 269.25350 L 357.45096 181.93631 L 357.42359 190.49755 L 357.70845 182.18911 L 358.80045 142.27217 L 358.80045 131.21084 L 358.46810 129.41980 L 357.75593 129.37005 L 360.27227 122.67024 L 360.60462 121.01187 " fill="none" stroke="rgb(0, 0, 0)" stroke-width="0.47412" stroke-opacity="0.316" id = "7" /><path d="M 307.14431 449.23632 L 307.19179 448.73881 L 307.90396 447.74379 L 313.64881 442.28776 L 329.45900 428.58963 L 343.65495 414.59299 L 366.87172 394.42722 L 371.28718 390.18179 L 370.14771 390.79539 " fill="none" stroke="rgb(0, 0, 0)" stroke-width="0.56539" stroke-opacity="0.377" id = "8" /><path d="M 198.84683 387.41232 L 198.22962 387.37915 L 211.09617 395.28957 L 230.03992 406.11872 L 244.23587 414.77541 L 293.13828 445.53816 L 307.52413 455.32254 L 311.13247 458.07543 L 311.60725 458.58953 L 311.27490 458.55636 L 309.94552 457.49500 " fill="none" stroke="rgb(0, 0, 0)" stroke-width="0.48970" stroke-opacity="0.326" id = "9" /><path d="M 198.08718 388.32442 L 194.90615 384.92476 L 201.88543 390.18179 L 212.66295 397.08061 L 248.27150 416.58303 L 289.00769 439.93287 L 303.53598 449.18657 " fill="none" stroke="rgb(0, 0, 0)" stroke-width="0.60427" stroke-opacity="0.403" id = "10" /><path d="M 307.61909 452.13847 L 327.51240 433.06722 L 350.06448 410.59632 L 366.01712 396.89819 L 371.23970 392.98444 " fill="none" stroke="rgb(0, 0, 0)" stroke-width="0.72779" stroke-opacity="0.485" id = "12" /><path d="M 307.09683 451.14345 L 307.57161 446.06884 L 307.23927 435.52161 L 304.20067 403.24974 L 299.23949 360.20892 L 289.88408 267.69427 L 289.43499 258.24193 L 282.69310 182.33837 " fill="none" stroke="rgb(0, 0, 0)" stroke-width="0.59845" stroke-opacity="0.399" id = "14" /><path d="M 363.26339 395.67099 L 363.64321 397.41228 L 363.40582 391.65774 L 363.88060 382.37087 L 363.88060 362.68603 L 363.07348 321.95648 L 362.12866 301.99745 L 360.56943 238.06879 L 361.31679 127.26392 L 361.03192 122.08981 L 360.31975 118.98866 L 359.75001 118.93891 " fill="none" stroke="rgb(0, 0, 0)" stroke-width="0.71598" stroke-opacity="0.477" id = "15" /><path d="M 360.46218 113.86430 L 359.98740 112.90245 " fill="none" stroke="rgb(0, 0, 0)" stroke-width="0.61363" stroke-opacity="0.409" id = "16" /><path d="M 201.03082 385.52177 L 201.93291 387.36256 L 201.12578 385.37252 L 198.98927 375.63789 L 180.21783 306.15541 L 175.54013 286.92484 L 171.38217 266.13503 L 168.78344 255.74013 L 164.62548 233.91083 L 159.94777 213.12102 L 158.38854 202.72611 L 154.23057 183.49554 L 144.48444 131.92394 L 140.30637 106.91573 L 140.21142 109.45304 L 139.92655 106.81623 L 139.11942 105.43978 L 139.59420 104.37843 " fill="none" stroke="rgb(0, 0, 0)" stroke-width="0.55063" stroke-opacity="0.367" id = "17" /><path d="M 137.69508 109.38670 L 138.97699 109.18770 L 158.30056 100.19934 L 194.95363 80.41499 L 208.81723 72.50457 L 221.44639 66.46811 " fill="none" stroke="rgb(0, 0, 0)" stroke-width="0.62238" stroke-opacity="0.415" id = "18" /><path d="M 281.60111 177.26376 L 281.45867 178.04319 L 280.46163 178.42462 L 283.31032 177.14767 L 291.19168 171.64189 L 342.42052 129.13788 L 373.80352 106.35189 L 370.05275 107.69517 L 366.68181 109.93396 " fill="none" stroke="rgb(0, 0, 0)" stroke-width="0.55344" stroke-opacity="0.369" id = "20" /><path d="M 217.17337 66.05351 L 220.16449 67.38021 L 242.90648 75.65547 L 320.58060 100.11642 L 359.65505 113.88088 L 354.76481 110.81290 " fill="none" stroke="rgb(0, 0, 0)" stroke-width="0.53233" stroke-opacity="0.355" id = "21" /><path d="M 214.46712 67.46313 L 210.33653 64.75998 L 210.85878 65.47308 L 212.33060 66.21935 L 218.64519 68.62399 L 242.62161 76.03690 L 303.48850 93.03518 L 333.11481 102.43814 L 354.90725 111.14457 L 354.52742 110.00030 " fill="none" stroke="rgb(0, 0, 0)" stroke-width="0.50985" stroke-opacity="0.340" id = "22" /><path d="M 144.91175 115.25733 L 137.26778 111.72500 L 135.74848 110.51439 L 136.12830 110.39831 L 146.09870 115.87093 L 164.99497 124.22911 L 214.27721 143.48278 L 276.33104 169.38650 L 277.94530 170.13277 L 277.13817 170.34836 " fill="none" stroke="rgb(0, 0, 0)" stroke-width="0.56602" stroke-opacity="0.377" id = "23" /><path d="M 295.79705 328.97138 L 301.82677 325.12396 L 330.02874 303.84709 L 361.50670 278.00969 " fill="none" stroke="rgb(0, 0, 0)" stroke-width="0.42937" stroke-opacity="0.286" id = "25" /><path d="M 168.22348 272.91850 L 168.84069 273.06775 L 228.28324 297.47895 L 255.63060 309.00462 L 291.61898 325.25663 L 294.32523 326.30141 L 291.71394 324.72596 " fill="none" stroke="rgb(0, 0, 0)" stroke-width="0.44123" stroke-opacity="0.294" id = "27" /><path d="M 176.86449 278.52379 L 174.39563 277.41268 L 181.09003 281.19376 L 189.06635 285.20702 L 242.00440 309.68455 L 289.00769 332.42079 L 290.33707 333.79724 L 292.52106 334.95809 " fill="none" stroke="rgb(0, 0, 0)" stroke-width="0.43431" stroke-opacity="0.290" id = "28" /><path d="M 299.50034 333.59823 L 298.59826 333.56506 L 297.31635 334.19524 L 301.35199 331.89011 L 308.28378 326.53358 L 323.52424 314.19531 L 345.74398 295.27332 L 364.35538 281.24351 " fill="none" stroke="rgb(0, 0, 0)" stroke-width="0.47456" stroke-opacity="0.316" id = "29" /><path d="M 179.76065 272.66974 L 179.80813 273.08434 L 178.43126 273.61501 L 174.30067 274.47737 L 183.27403 269.63493 L 190.15835 265.07441 L 214.94190 246.16900 L 240.62753 227.31334 L 259.23894 214.67657 " fill="none" stroke="rgb(0, 0, 0)" stroke-width="0.28175" stroke-opacity="0.188" id = "33" /><path d="M 246.51481 227.91036 L 248.60385 227.29676 " fill="none" stroke="rgb(0, 0, 0)" stroke-width="0.38935" stroke-opacity="0.260" id = "34" /><path d="M 239.58302 224.82579 L 239.58302 217.96014 L 238.82337 209.50246 L 233.75159 175.69936 L 235.21503 183.20072 L 231.17940 153.11790 L 225.71942 106.08655 L 223.20308 79.90090 L 221.73126 52.65389 " fill="none" stroke="rgb(0, 0, 0)" stroke-width="0.36263" stroke-opacity="0.242" id = "35" /><path d="M 243.04892 219.36975 L 243.04892 222.50407 L 241.05484 206.74956 L 237.77885 189.30352 L 230.13488 143.21744 L 227.00133 121.85764 L 220.73422 73.11817 L 219.97457 68.57423 L 219.30988 67.46313 " fill="none" stroke="rgb(0, 0, 0)" stroke-width="0.27818" stroke-opacity="0.185" id = "36" /><path d="M 220.97161 63.76496 L 220.44935 61.99051 " fill="none" stroke="rgb(0, 0, 0)" stroke-width="0.28643" stroke-opacity="0.191" id = "37" /><path d="M 240.34267 230.58033 L 242.24179 230.81250 L 285.54179 250.49735 L 359.93992 282.98480 L 368.62841 286.11912 " fill="none" stroke="rgb(0, 0, 0)" stroke-width="0.37674" stroke-opacity="0.251" id = "38" /><path d="M 177.48170 273.64818 L 174.77545 271.90689 L 173.54102 270.18219 L 173.06624 270.08269 L 173.20867 270.82895 L 174.87041 272.33807 L 186.12271 279.35297 L 213.18521 294.65972 L 234.50286 306.10247 L 292.42611 338.92160 " fill="none" stroke="rgb(0, 0, 0)" stroke-width="0.50922" stroke-opacity="0.339" id = "42" /><path d="M 294.84749 335.96970 L 296.12940 338.27483 " fill="none" stroke="rgb(0, 0, 0)" stroke-width="0.86497" stroke-opacity="0.577" id = "44" /><path d="M 294.84749 335.96970 L 296.12940 338.27483 " fill="none" stroke="rgb(0, 0, 0)" stroke-width="0.86497" stroke-opacity="0.577" id = "45" /><path d="M 194.00407 261.75767 L 194.95363 261.77426 L 208.91218 268.44090 L 232.98356 278.57354 L 266.07578 293.41594 L 292.66350 306.21855 L 321.10286 321.25996 " fill="none" stroke="rgb(0, 0, 0)" stroke-width="0.35713" stroke-opacity="0.238" id = "49" /><path d="M 199.89135 266.21869 L 198.46701 264.87541 L 199.60648 266.71620 L 202.17030 269.02133 L 211.04870 274.47737 L 221.87370 279.56856 L 265.55352 298.30813 L 286.49135 307.86034 L 304.58049 317.06429 L 312.50933 322.02281 " fill="none" stroke="rgb(0, 0, 0)" stroke-width="0.28301" stroke-opacity="0.189" id = "50" /><path d="M 311.55977 323.76410 L 310.51525 304.32801 L 305.57753 239.23702 L 303.58345 201.77446 L 302.63389 160.82932 L 302.30155 162.98520 " fill="none" stroke="rgb(0, 0, 0)" stroke-width="0.41800" stroke-opacity="0.279" id = "52" /><path d="M 314.12359 309.91672 L 307.00188 235.85395 L 305.05527 205.55554 L 304.05824 172.42132 L 303.82084 169.66843 L 303.63093 169.32017 L 303.06120 169.43625 L 303.34606 164.82599 L 302.96624 165.92051 " fill="none" stroke="rgb(0, 0, 0)" stroke-width="0.34544" stroke-opacity="0.230" id = "53" /><path d="M 195.52337 261.06116 L 192.67468 245.60516 L 178.65860 183.49554 L 173.46115 158.02803 L 166.32435 113.03512 L 163.14332 87.29722 " fill="none" stroke="rgb(0, 0, 0)" stroke-width="0.41505" stroke-opacity="0.277" id = "54" /><path d="M 198.56196 262.35469 L 198.08718 263.05120 L 197.32753 260.53048 L 178.57370 173.15100 L 167.36887 115.14124 L 163.85550 101.12802 " fill="none" stroke="rgb(0, 0, 0)" stroke-width="0.35188" stroke-opacity="0.235" id = "55" /><path d="M 157.87326 96.41825 L 157.35100 95.80466 L 157.73082 95.80466 L 169.88521 100.91244 L 224.91229 120.46461 L 256.77008 132.25562 L 284.97205 143.71495 L 309.70813 154.84261 L 312.17699 156.05321 L 309.75560 155.15770 " fill="none" stroke="rgb(0, 0, 0)" stroke-width="0.25303" stroke-opacity="0.169" id = "57" /><path d="M 154.92962 96.41825 L 182.81656 108.65223 L 287.48839 150.01675 L 312.55681 159.76796 L 309.42326 158.14276 " fill="none" stroke="rgb(0, 0, 0)" stroke-width="0.39561" stroke-opacity="0.264" id = "58" /><path d="M 146.90582 104.82619 L 146.57348 104.82619 L 146.47852 104.26234 L 180.52030 118.95549 L 248.88872 145.77133 L 302.63389 168.82266 L 303.10867 168.93874 L 301.96920 167.66180 " fill="none" stroke="rgb(0, 0, 0)" stroke-width="0.47529" stroke-opacity="0.317" id = "59" /><path d="M 144.00966 104.36184 L 150.98894 107.74492 L 170.59738 115.93726 L 235.92721 142.18925 L 294.23027 167.29696 L 295.41723 167.71155 " fill="none" stroke="rgb(0, 0, 0)" stroke-width="0.69605" stroke-opacity="0.464" id = "60" /><path d="M 150.51416 107.28057 L 146.19365 106.21922 L 163.28576 113.91405 L 234.55034 142.13950 L 283.59519 163.74805 " fill="none" stroke="rgb(0, 0, 0)" stroke-width="0.74752" stroke-opacity="0.498" id = "61" /><path d="M 148.80495 109.93396 L 145.05418 109.25403 L 172.35407 120.97870 L 232.46131 144.69339 L 298.97808 174.14602 L 299.83269 174.51087 L 298.40834 173.44951 " fill="none" stroke="rgb(0, 0, 0)" stroke-width="0.53657" stroke-opacity="0.358" id = "66" /><path d="M 140.35385 104.74327 L 142.06306 105.93729 L 169.50539 118.04339 L 229.51767 142.63701 L 276.52095 163.89730 L 292.14124 170.39811 " fill="none" stroke="rgb(0, 0, 0)" stroke-width="0.47102" stroke-opacity="0.314" id = "69" /><path d="M 146.81087 108.73994 L 152.88806 112.55419 L 161.43411 116.58403 L 232.65122 143.51594 L 283.16788 165.57225 L 294.37271 169.88401 L 293.51810 169.96693 L 295.03740 170.53078 " fill="none" stroke="rgb(0, 0, 0)" stroke-width="0.59471" stroke-opacity="0.396" id = "70" /><path d="M 300.49738 165.12449 L 298.55078 166.18585 L 295.89201 168.97191 L 302.15911 163.93047 L 322.09990 146.41809 L 357.47106 116.96545 L 361.79157 113.21754 L 359.98740 114.16281 L 359.93992 114.44473 L 360.60462 114.44473 L 361.88652 113.93063 " fill="none" stroke="rgb(0, 0, 0)" stroke-width="0.62984" stroke-opacity="0.420" id = "72" /><path d="M 150.56164 104.87594 L 144.91175 106.35189 L 153.03050 103.35024 L 162.52611 98.69022 L 207.34541 72.60407 L 221.25648 64.99216 " fill="none" stroke="rgb(0, 0, 0)" stroke-width="0.73474" stroke-opacity="0.490" id = "73" /><path d="M 156.87622 101.29386 L 153.74267 102.65372 L 150.75155 104.74327 L 143.72479 107.29716 L 147.33313 106.31872 L 156.06909 102.48789 L 165.66497 96.69809 L 162.47863 99.17115 L 207.63028 72.57090 L 216.12885 68.22598 L 215.32172 67.77822 L 216.65111 67.23096 L 220.02205 66.96562 L 220.21196 66.33544 L 221.01909 65.82134 L 223.39299 66.21935 " fill="none" stroke="rgb(0, 0, 0)" stroke-width="0.69305" stroke-opacity="0.462" id = "74" /><path d="M 312.60429 170.34836 L 303.01372 178.24220 L 313.69628 170.87904 L 331.64299 157.19749 L 362.64617 130.69675 L 366.91920 126.71666 L 363.35834 128.78962 " fill="none" stroke="rgb(0, 0, 0)" stroke-width="0.51414" stroke-opacity="0.343" id = "78" /><path d="M 310.08795 171.62530 L 303.63093 177.56226 L 308.18883 174.31186 L 324.37885 160.56398 L 341.66087 144.41146 L 360.27227 128.37503 L 360.36723 127.97702 L 359.08532 128.67354 L 355.19212 131.36010 L 360.22479 129.68514 L 362.02896 128.02677 L 362.36130 127.04834 " fill="none" stroke="rgb(0, 0, 0)" stroke-width="0.55228" stroke-opacity="0.368" id = "79" /><path d="M 294.94245 170.89562 L 302.11163 175.15763 " fill="none" stroke="rgb(0, 0, 0)" stroke-width="0.63516" stroke-opacity="0.423" id = "80" /><path d="M 293.23324 169.18750 L 301.11459 174.84254 " fill="none" stroke="rgb(0, 0, 0)" stroke-width="0.72429" stroke-opacity="0.483" id = "81" /><path d="M 293.09080 170.03327 L 300.82973 175.30688 " fill="none" stroke="rgb(0, 0, 0)" stroke-width="0.73696" stroke-opacity="0.491" id = "82" /><path d="M 191.91503 263.44921 L 192.10495 260.31489 L 191.63017 256.15239 L 180.56778 195.47265 L 168.79321 116.15285 L 166.89409 108.19268 " fill="none" stroke="rgb(0, 0, 0)" stroke-width="0.55180" stroke-opacity="0.368" id = "87" /><path d="M 189.68357 253.39949 L 192.19990 262.38785 L 190.34826 247.69470 L 177.90900 183.08463 L 168.69826 131.44301 L 165.13740 115.52267 L 164.61514 114.92566 " fill="none" stroke="rgb(0, 0, 0)" stroke-width="0.58821" stroke-opacity="0.392" id = "88" /><path d="M 196.37797 262.45419 L 194.28894 247.51228 L 183.55889 191.35990 L 174.34815 138.70667 L 170.64486 121.14454 L 169.69530 118.24239 " fill="none" stroke="rgb(0, 0, 0)" stroke-width="0.55779" stroke-opacity="0.372" id = "89" /><path d="M 169.60034 121.17771 L 167.89113 120.97870 " fill="none" stroke="rgb(0, 0, 0)" stroke-width="0.47443" stroke-opacity="0.316" id = "90" /><path d="M 311.79716 318.54024 L 312.74672 321.97306 L 312.84168 315.05766 L 308.61613 234.12924 L 307.42918 185.05809 " fill="none" stroke="rgb(0, 0, 0)" stroke-width="0.58984" stroke-opacity="0.393" id = "91" /><path d="M 308.71109 313.34954 L 309.18587 316.55020 L 308.94848 303.49883 L 303.29859 234.69309 L 300.30747 179.56889 L 299.73773 176.18582 " fill="none" stroke="rgb(0, 0, 0)" stroke-width="0.56737" stroke-opacity="0.378" id = "92" /><path d="M 313.50637 316.25169 L 313.36394 323.05100 L 313.55385 314.80891 L 313.12655 306.78240 L 306.33718 225.82081 L 305.10275 205.83746 L 303.96328 174.61037 " fill="none" stroke="rgb(0, 0, 0)" stroke-width="0.58802" stroke-opacity="0.392" id = "93" /><path d="M 179.80813 200.63018 L 180.42534 200.74627 L 238.25363 224.52728 L 271.01350 238.98826 L 316.82984 261.27675 " fill="none" stroke="rgb(0, 0, 0)" stroke-width="0.34527" stroke-opacity="0.230" id = "96" /><path d="M 181.32742 199.56883 L 190.49069 204.37810 L 212.66295 214.31173 L 236.87006 224.55541 L 232.03400 222.71966 L 262.98970 236.63338 L 299.45286 253.86384 L 311.74968 258.87211 L 313.88620 259.45254 L 312.93663 258.65652 " fill="none" stroke="rgb(0, 0, 0)" stroke-width="0.54755" stroke-opacity="0.365" id = "97" /><path d="M 193.43433 205.80429 L 188.11679 204.06301 L 180.42534 199.96683 L 185.03071 202.65339 L 192.53225 206.21889 L 259.90363 235.02476 L 298.78817 252.93515 L 304.67545 255.35637 L 306.52709 255.53879 L 306.38466 254.84227 L 307.57161 255.32320 L 306.38466 254.72619 " fill="none" stroke="rgb(0, 0, 0)" stroke-width="0.72462" stroke-opacity="0.483" id = "98" /><path d="M 195.19102 207.64508 L 184.08115 203.33332 L 186.17019 204.75952 L 192.72216 207.99334 L 259.28642 236.20220 L 295.32227 252.32155 L 301.16207 254.67644 L 300.87720 254.22868 " fill="none" stroke="rgb(0, 0, 0)" stroke-width="0.65760" stroke-opacity="0.438" id = "99" /><path d="M 191.53521 249.53549 L 192.81712 257.37958 L 193.33938 259.18720 L 193.38685 258.45752 L 191.20286 247.61178 L 191.20286 245.67149 " fill="none" stroke="rgb(0, 0, 0)" stroke-width="0.97140" stroke-opacity="0.648" id = "117" /><path d="M 180.94760 195.83749 L 184.46098 197.84412 L 195.85571 202.65339 L 270.49124 236.50071 L 294.08784 247.91029 L 306.81196 255.02469 " fill="none" stroke="rgb(0, 0, 0)" stroke-width="0.42715" stroke-opacity="0.285" id = "119" /><path d="M 190.53817 200.69652 L 182.70429 198.49089 L 192.76964 202.91873 L 267.45264 233.64831 L 295.74957 246.35142 L 301.68433 249.56866 L 305.81492 250.54710 " fill="none" stroke="rgb(0, 0, 0)" stroke-width="0.44864" stroke-opacity="0.299" id = "120" /><path d="M 188.49661 200.91210 L 193.52929 203.59866 L 210.19409 211.09449 L 274.52688 235.57202 L 293.28071 243.69803 L 299.78521 247.37961 L 300.78225 247.26353 L 301.39946 247.72787 " fill="none" stroke="rgb(0, 0, 0)" stroke-width="0.53307" stroke-opacity="0.355" id = "121" /><path d="M 172.97128 123.64868 L 170.54990 121.47621 L 171.64190 122.48782 L 179.38082 126.55082 L 222.15856 145.20748 L 299.12052 180.91217 L 296.93652 179.75131 " fill="none" stroke="rgb(0, 0, 0)" stroke-width="0.57401" stroke-opacity="0.383" id = "125" /><path d="M 241.38718 211.34325 L 242.76405 217.87722 L 242.47918 222.10606 L 241.62457 209.51904 L 238.06372 185.62194 L 230.18236 140.77963 " fill="none" stroke="rgb(0, 0, 0)" stroke-width="0.56554" stroke-opacity="0.377" id = "126" /><path d="M 243.85604 221.72464 L 232.65122 162.20576 L 228.23576 132.67021 L 228.23576 135.07484 " fill="none" stroke="rgb(0, 0, 0)" stroke-width="0.58250" stroke-opacity="0.388" id = "127" /><path d="M 191.10791 190.63021 L 190.72808 193.98012 L 189.01887 183.41631 L 180.28291 139.56902 L 178.19387 126.55082 " fill="none" stroke="rgb(0, 0, 0)" stroke-width="0.40939" stroke-opacity="0.273" id = "128" /><path d="M 234.69278 208.82253 L 234.55034 211.90709 L 232.60374 201.39303 L 219.02501 144.29538 " fill="none" stroke="rgb(0, 0, 0)" stroke-width="0.41345" stroke-opacity="0.276" id = "129" /><path d="M 252.92435 219.32000 L 252.63949 218.49082 L 251.21514 207.41291 L 243.66613 169.95035 L 241.62457 157.49600 " fill="none" stroke="rgb(0, 0, 0)" stroke-width="0.43562" stroke-opacity="0.290" id = "130" /><path d="M 298.40834 232.81913 L 297.50626 236.00320 L 297.88609 232.71963 L 297.50626 225.67156 L 292.61602 177.31351 " fill="none" stroke="rgb(0, 0, 0)" stroke-width="0.47838" stroke-opacity="0.319" id = "131" /><path d="M 193.62424 196.98177 L 191.15539 195.35657 L 201.41065 200.58043 L 237.11416 215.95351 L 233.17348 214.57707 " fill="none" stroke="rgb(0, 0, 0)" stroke-width="0.47390" stroke-opacity="0.316" id = "132" /><path d="M 193.86164 194.04646 L 198.65692 196.89885 L 210.85878 202.48756 L 232.93609 211.60859 L 230.27731 209.91705 " fill="none" stroke="rgb(0, 0, 0)" stroke-width="0.55801" stroke-opacity="0.372" id = "133" /><path d="M 253.54157 221.70806 L 249.74332 219.73460 L 252.21218 220.38136 L 278.27764 231.69144 L 295.27479 238.49075 L 291.85637 236.68313 " fill="none" stroke="rgb(0, 0, 0)" stroke-width="0.50961" stroke-opacity="0.340" id = "134" /><path d="M 256.81756 219.13758 L 252.21218 218.22548 L 251.35758 217.64505 L 253.25670 218.15915 L 279.22720 229.60189 L 300.30747 238.44100 L 298.17095 237.19722 " fill="none" stroke="rgb(0, 0, 0)" stroke-width="0.49005" stroke-opacity="0.327" id = "135" /><path d="M 252.16470 215.43942 L 252.06975 219.90043 L 246.94212 190.13270 L 242.43170 153.28374 L 242.09935 151.57562 " fill="none" stroke="rgb(0, 0, 0)" stroke-width="0.56222" stroke-opacity="0.375" id = "136" /><path d="M 255.34574 212.00659 L 255.86799 214.77607 L 255.77304 218.30840 L 254.44365 207.31341 L 247.22699 173.03492 L 244.33082 156.55073 L 244.18839 159.03828 L 244.47326 159.41970 L 244.94804 159.05486 " fill="none" stroke="rgb(0, 0, 0)" stroke-width="0.53443" stroke-opacity="0.356" id = "137" /><path d="M 194.57381 189.07135 L 194.38389 192.71976 L 191.82008 176.18582 L 184.93576 143.76470 L 182.94168 132.55412 L 182.94168 134.71000 " fill="none" stroke="rgb(0, 0, 0)" stroke-width="0.54459" stroke-opacity="0.363" id = "138" /><path d="M 194.85867 192.98510 L 194.43137 193.05143 L 194.24146 192.57051 L 191.72512 174.79279 L 186.31262 143.46619 L 183.60637 131.40985 L 183.55889 134.59392 " fill="none" stroke="rgb(0, 0, 0)" stroke-width="0.41169" stroke-opacity="0.274" id = "139" /><path d="M 192.05747 190.91214 L 192.48477 196.03650 L 189.16131 176.73308 L 181.18499 136.33520 L 178.62117 120.79628 " fill="none" stroke="rgb(0, 0, 0)" stroke-width="0.54914" stroke-opacity="0.366" id = "140" /><path d="M 193.52929 192.05641 L 197.32753 194.39471 L 203.78455 197.52903 L 237.06668 210.34823 " fill="none" stroke="rgb(0, 0, 0)" stroke-width="0.57880" stroke-opacity="0.386" id = "144" /><path d="M 198.51449 194.94197 L 193.14946 192.88560 L 192.67468 192.58709 L 193.48181 192.71976 L 204.63916 197.86070 L 227.95089 207.46266 L 233.45835 210.29847 L 233.83817 210.76282 L 232.65122 210.48090 L 233.93313 210.77940 " fill="none" stroke="rgb(0, 0, 0)" stroke-width="0.68629" stroke-opacity="0.458" id = "145" /><path d="M 197.80232 198.05971 L 193.90911 196.00333 L 188.44914 194.02987 L 223.44047 208.85569 L 237.11416 215.65501 " fill="none" stroke="rgb(0, 0, 0)" stroke-width="0.62827" stroke-opacity="0.419" id = "146" /><path d="M 253.35166 215.88718 L 260.71076 220.06627 L 267.45264 223.08450 L 296.27183 234.07949 " fill="none" stroke="rgb(0, 0, 0)" stroke-width="0.59472" stroke-opacity="0.396" id = "147" /><path d="M 256.91251 217.41288 L 253.44661 216.08618 L 263.41701 220.53061 L 292.28367 232.58696 L 296.12940 234.47750 L 295.74957 234.79259 " fill="none" stroke="rgb(0, 0, 0)" stroke-width="0.55902" stroke-opacity="0.373" id = "148" /><path d="M 255.10835 221.19396 L 249.93324 219.63509 L 276.56843 229.91698 L 293.51810 235.95345 L 299.21547 238.59025 " fill="none" stroke="rgb(0, 0, 0)" stroke-width="0.55773" stroke-opacity="0.372" id = "149" /><path d="M 233.50582 210.31506 L 233.79069 214.37806 L 233.64826 215.07458 L 233.45835 214.42781 L 219.83214 147.14777 " fill="none" stroke="rgb(0, 0, 0)" stroke-width="0.62845" stroke-opacity="0.419" id = "150" /><path d="M 232.22392 206.86565 L 233.50582 213.06795 L 231.98653 202.68656 L 221.73126 142.73651 L 221.82622 145.93716 " fill="none" stroke="rgb(0, 0, 0)" stroke-width="0.60477" stroke-opacity="0.403" id = "151" /><path d="M 297.07896 232.81913 L 298.36087 237.51231 L 291.95133 187.72807 L 291.61898 182.32178 L 292.04628 182.70321 L 292.80593 181.06142 " fill="none" stroke="rgb(0, 0, 0)" stroke-width="0.55866" stroke-opacity="0.372" id = "152" /><path d="M 175.48762 270.49728 L 173.25615 270.97821 L 169.17304 273.16725 L 185.93280 262.85220 L 190.06339 260.72948 L 191.53521 260.19881 L 191.01295 260.66315 L 189.73104 260.92849 " fill="none" stroke="rgb(0, 0, 0)" stroke-width="0.59914" stroke-opacity="0.399" id = "165" /><path d="M 173.39859 269.60176 L 169.98017 271.37622 L 170.59738 271.40938 L 176.62710 268.10923 L 193.33938 257.13082 " fill="none" stroke="rgb(0, 0, 0)" stroke-width="0.61100" stroke-opacity="0.407" id = "166" /><path d="M 308.56865 334.11233 L 302.72885 337.99291 L 366.68181 285.30652 " fill="none" stroke="rgb(0, 0, 0)" stroke-width="0.60042" stroke-opacity="0.400" id = "167" /><path d="M 303.48850 332.96805 L 295.84453 340.66289 L 300.73477 337.34615 L 340.23652 304.84211 L 364.59277 286.78247 L 365.96964 285.42260 " fill="none" stroke="rgb(0, 0, 0)" stroke-width="0.70084" stroke-opacity="0.467" id = "168" /><path d="M 172.68642 105.75487 L 168.50835 108.83944 L 194.81120 94.64380 L 221.20900 79.40339 L 240.76997 68.75665 L 236.59190 70.08335 " fill="none" stroke="rgb(0, 0, 0)" stroke-width="0.48067" stroke-opacity="0.320" id = "170" /><path d="M 164.85253 112.52102 L 165.80210 112.50444 L 169.03060 110.72998 L 198.37205 92.65376 L 225.52951 77.52943 L 227.28620 76.40174 L 227.09628 75.98714 L 227.95089 75.73839 " fill="none" stroke="rgb(0, 0, 0)" stroke-width="0.53152" stroke-opacity="0.354" id = "171" /><path d="M 166.32435 107.82784 L 174.96536 103.16782 L 213.89738 79.88431 L 227.33367 72.53774 L 224.91229 73.08500 L 224.39003 73.46642 L 224.81734 73.66543 L 224.67490 73.10158 " fill="none" stroke="rgb(0, 0, 0)" stroke-width="0.58074" stroke-opacity="0.387" id = "172" /><path d="M 179.99804 101.82454 L 176.05736 103.21757 L 172.06920 105.29053 L 171.64190 105.58904 L 172.92381 105.37345 L 179.95056 102.07329 L 214.60955 82.72012 L 233.83817 72.53774 " fill="none" stroke="rgb(0, 0, 0)" stroke-width="0.68631" stroke-opacity="0.458" id = "174" /><path d="M 300.82973 159.91722 L 293.09080 165.53909 L 295.41723 164.47773 L 301.01964 160.59715 L 347.64310 122.86925 L 359.60758 113.63213 L 361.55418 111.72500 " fill="none" stroke="rgb(0, 0, 0)" stroke-width="0.58014" stroke-opacity="0.387" id = "176" /><path d="M 302.01668 157.82767 L 295.08488 163.41637 L 315.59541 145.32357 L 337.76766 127.11467 L 359.32271 110.33197 L 361.64913 107.89417 L 360.69957 108.01026 L 360.27227 109.25403 L 359.03784 109.66863 " fill="none" stroke="rgb(0, 0, 0)" stroke-width="0.64530" stroke-opacity="0.430" id = "178" /><path d="M 358.99036 109.81788 L 332.59256 134.16274 L 302.15911 159.22070 L 289.19760 168.59049 " fill="none" stroke="rgb(0, 0, 0)" stroke-width="1.07668" stroke-opacity="0.718" id = "179" /><path d="M 226.81142 72.57090 L 229.80253 73.25084 " fill="none" stroke="rgb(0, 0, 0)" stroke-width="0.12161" stroke-opacity="0.081" id = "181" /><path d="M 225.57699 70.09993 L 226.62150 70.87937 L 230.13488 72.75332 L 242.81153 77.49626 L 307.33422 97.16452 L 325.51832 103.05173 L 348.45023 111.36016 " fill="none" stroke="rgb(0, 0, 0)" stroke-width="0.52408" stroke-opacity="0.349" id = "182" /><path d="M 223.82030 69.23758 L 224.62742 69.18783 L 232.93609 73.20108 L 243.95100 77.23092 L 294.98992 91.97382 L 330.50352 103.36682 L 338.66975 106.53431 L 352.20100 112.57077 L 352.10604 111.21091 L 352.43839 111.52600 L 351.48883 111.54258 L 349.16240 110.97874 L 353.15056 112.38835 L 354.19508 113.76480 L 354.24256 114.79299 " fill="none" stroke="rgb(0, 0, 0)" stroke-width="0.89470" stroke-opacity="0.596" id = "183" /><path d="M 170.12260 111.92401 L 168.31843 111.95718 L 165.08992 109.98372 L 165.80210 110.09980 L 172.30659 114.07989 L 182.51438 118.67357 L 243.38126 142.08975 L 293.28071 162.88570 L 297.98104 164.34506 " fill="none" stroke="rgb(0, 0, 0)" stroke-width="0.56321" stroke-opacity="0.375" id = "184" /><path d="M 163.66558 107.96051 L 164.37775 108.06001 L 180.18795 115.45633 L 194.76372 121.52597 L 216.65111 129.96707 L 264.60396 147.29702 L 293.04332 158.44127 L 299.07304 161.14441 " fill="none" stroke="rgb(0, 0, 0)" stroke-width="0.61752" stroke-opacity="0.412" id = "185" /><path d="M 166.75166 108.40826 L 167.22644 109.18770 L 169.36295 110.53098 L 176.38971 113.53263 L 233.41087 133.58231 L 252.82940 141.01181 L 269.87402 148.19254 L 294.89497 159.68504 " fill="none" stroke="rgb(0, 0, 0)" stroke-width="0.72229" stroke-opacity="0.482" id = "186" /><path d="M 172.16416 107.91075 L 170.45495 107.99367 L 165.18488 110.81290 L 171.87929 107.28057 L 224.62742 73.46642 L 227.85593 71.31054 " fill="none" stroke="rgb(0, 0, 0)" stroke-width="0.87403" stroke-opacity="0.583" id = "189" /><path d="M 226.57403 71.84122 L 229.47019 71.89097 L 229.61262 71.27738 L 229.09036 71.34371 L 226.38411 72.72016 L 207.15549 84.52775 L 197.65988 89.60236 L 199.70144 89.20435 " fill="none" stroke="rgb(0, 0, 0)" stroke-width="0.89590" stroke-opacity="0.597" id = "190" /><path d="M 226.57403 71.84122 L 229.47019 71.89097 L 229.61262 71.27738 L 229.09036 71.34371 L 226.38411 72.72016 L 207.15549 84.52775 L 197.65988 89.60236 L 199.70144 89.20435 " fill="none" stroke="rgb(0, 0, 0)" stroke-width="0.89590" stroke-opacity="0.597" id = "191" /><path d="M 226.57403 71.84122 L 229.47019 71.89097 L 229.61262 71.27738 L 229.09036 71.34371 L 226.38411 72.72016 L 207.15549 84.52775 L 197.65988 89.60236 L 199.70144 89.20435 " fill="none" stroke="rgb(0, 0, 0)" stroke-width="0.89590" stroke-opacity="0.597" id = "192" /><path d="M 292.94837 161.09466 L 293.80297 160.00013 L 310.89508 145.35673 L 333.63707 127.46293 L 344.22468 117.19762 L 347.78554 113.06828 L 348.30780 112.18935 L 347.97545 112.20593 L 347.64310 113.56579 " fill="none" stroke="rgb(0, 0, 0)" stroke-width="0.63637" stroke-opacity="0.424" id = "193" /><path d="M 352.48587 111.24408 L 351.72622 112.17276 L 332.02282 129.53589 L 297.26887 156.61706 L 288.86525 162.60377 L 290.81185 160.87907 L 295.89201 158.24226 L 316.11766 141.52590 L 342.46799 122.76974 " fill="none" stroke="rgb(0, 0, 0)" stroke-width="0.78168" stroke-opacity="0.521" id = "194" /><path d="M 359.89245 112.45469 L 362.02896 110.00030 L 360.84201 112.00693 L 355.90429 116.93228 L 339.80922 130.13290 L 299.59530 160.18255 L 290.62194 166.43461 " fill="none" stroke="rgb(0, 0, 0)" stroke-width="0.80517" stroke-opacity="0.537" id = "195" /><path d="M 175.72501 278.95496 L 167.70122 274.79246 L 165.27984 272.93508 L 227.95089 306.71607 L 273.00758 332.00620 L 299.92764 346.46718 L 304.20067 348.93815 L 302.44398 348.17530 " fill="none" stroke="rgb(0, 0, 0)" stroke-width="0.64137" stroke-opacity="0.428" id = "196" /><path d="M 167.03653 276.81567 L 171.68938 279.73440 L 180.52030 284.27833 L 234.55034 310.14889 L 291.80889 340.87847 " fill="none" stroke="rgb(0, 0, 0)" stroke-width="0.62666" stroke-opacity="0.418" id = "197" /><path d="M 170.02764 280.48066 L 169.07808 280.33141 L 166.51427 277.24684 L 170.83477 280.38116 L 179.57074 285.35627 L 234.97764 312.58669 L 295.17984 344.92489 " fill="none" stroke="rgb(0, 0, 0)" stroke-width="0.84024" stroke-opacity="0.560" id = "198" /><path d="M 170.02764 280.48066 L 169.07808 280.33141 L 166.51427 277.24684 L 170.83477 280.38116 L 179.57074 285.35627 L 234.97764 312.58669 L 295.17984 344.92489 " fill="none" stroke="rgb(0, 0, 0)" stroke-width="0.84024" stroke-opacity="0.560" id = "199" /><path d="M 170.07512 278.25845 L 169.83773 277.79411 L 168.50835 277.86044 L 167.65374 278.54037 L 167.60626 279.13738 L 168.60330 278.70621 L 168.93565 277.97653 L 174.20571 281.21035 L 298.59826 343.74745 L 297.79113 343.39919 L 297.93356 343.71428 L 298.45582 343.76404 L 299.50034 342.85193 " fill="none" stroke="rgb(0, 0, 0)" stroke-width="0.96461" stroke-opacity="0.643" id = "200" /><path d="M 308.28378 335.90337 L 306.47962 336.31796 L 302.82381 338.90501 L 299.31043 342.40417 L 305.24519 338.07583 L 327.18006 319.85035 L 343.18016 305.93663 L 362.07644 290.46405 L 366.34946 286.41763 " fill="none" stroke="rgb(0, 0, 0)" stroke-width="0.80134" stroke-opacity="0.534" id = "203" /><path d="M 302.63389 341.35940 L 299.21547 343.46553 L 323.76163 324.41087 L 345.36416 306.63315 L 361.17435 294.31146 L 365.96964 289.56853 L 368.24859 288.30817 L 367.20407 288.50717 " fill="none" stroke="rgb(0, 0, 0)" stroke-width="0.89184" stroke-opacity="0.595" id = "204" /><path d="M 363.26339 284.84217 L 366.44442 285.28993 " fill="none" stroke="rgb(0, 0, 0)" stroke-width="1.01008" stroke-opacity="0.673" id = "205" /><path d="M 363.26339 284.84217 L 366.44442 285.28993 " fill="none" stroke="rgb(0, 0, 0)" stroke-width="1.01008" stroke-opacity="0.673" id = "206" /><path d="M 318.49157 317.86031 L 312.41438 323.29976 L 322.24234 316.31802 L 351.48883 291.72441 L 360.41470 284.90851 L 365.87468 281.26010 L 363.50078 282.35462 " fill="none" stroke="rgb(0, 0, 0)" stroke-width="0.73082" stroke-opacity="0.487" id = "207" /><path d="M 312.41438 322.08915 L 311.22742 322.93492 L 311.27490 322.61983 L 312.60429 321.44239 L 324.52128 312.81886 L 363.54826 281.79078 L 364.73521 280.96159 L 364.97260 281.14401 L 363.12095 282.73605 " fill="none" stroke="rgb(0, 0, 0)" stroke-width="0.94657" stroke-opacity="0.631" id = "208" /><path d="M 305.19771 340.06587 L 329.50648 321.30972 L 341.94573 310.86199 L 361.26931 295.60499 L 364.78269 292.57018 L 362.36130 293.36619 L 362.83609 293.54861 L 365.06755 292.70285 L 366.96668 290.82889 L 367.72633 289.20369 L 368.72337 289.17052 L 368.72337 288.25842 " fill="none" stroke="rgb(0, 0, 0)" stroke-width="0.88846" stroke-opacity="0.592" id = "213" /><path d="M 197.65988 261.59184 L 196.52041 261.65817 L 195.38093 262.30494 L 202.40769 257.56200 L 242.09935 227.71135 " fill="none" stroke="rgb(0, 0, 0)" stroke-width="0.61431" stroke-opacity="0.410" id = "216" /><path d="M 196.80528 262.32152 L 201.17326 259.56863 L 235.83225 234.79259 L 236.87677 233.74782 " fill="none" stroke="rgb(0, 0, 0)" stroke-width="0.37424" stroke-opacity="0.249" id = "217" /><path d="M 239.53554 232.42112 L 234.40791 230.09940 L 240.67501 233.21714 L 293.42315 256.45089 L 311.32238 265.00808 L 309.13839 263.41604 " fill="none" stroke="rgb(0, 0, 0)" stroke-width="0.47224" stroke-opacity="0.315" id = "219" /><path d="M 243.95100 234.90867 L 238.20615 232.18895 L 236.40199 230.81250 L 246.75220 236.15245 L 283.64267 252.48739 L 297.22139 258.09268 L 305.24519 262.07276 " fill="none" stroke="rgb(0, 0, 0)" stroke-width="0.67623" stroke-opacity="0.451" id = "220" /><path d="M 235.49990 229.95015 L 236.30703 229.96673 L 259.61876 240.44763 L 295.27479 258.10926 L 305.43510 264.09597 " fill="none" stroke="rgb(0, 0, 0)" stroke-width="0.57296" stroke-opacity="0.382" id = "221" /><path d="M 314.40845 447.89304 L 307.76152 453.05057 L 328.27205 432.98430 L 346.17128 414.72566 L 356.61646 404.95786 L 359.79749 401.29287 L 359.98740 400.66269 L 359.65505 400.23151 L 360.41470 400.18176 " fill="none" stroke="rgb(0, 0, 0)" stroke-width="0.81190" stroke-opacity="0.541" id = "223" /><path d="M 364.16547 398.14197 L 364.59277 397.21328 " fill="none" stroke="rgb(0, 0, 0)" stroke-width="0.88667" stroke-opacity="0.591" id = "224" /><path d="M 364.16547 398.14197 L 364.59277 397.21328 " fill="none" stroke="rgb(0, 0, 0)" stroke-width="0.88667" stroke-opacity="0.591" id = "225" /><path d="M 307.57161 435.17335 L 308.75856 434.02908 L 322.76459 421.75714 L 358.99036 388.24150 L 370.38510 376.78217 " fill="none" stroke="rgb(0, 0, 0)" stroke-width="0.48996" stroke-opacity="0.327" id = "226" /><path d="M 310.37282 429.99924 L 309.18587 431.06060 L 307.19179 431.85661 L 315.40549 426.00257 L 322.71712 419.66760 L 356.75889 387.89324 L 363.64321 380.92809 L 361.17435 382.95130 " fill="none" stroke="rgb(0, 0, 0)" stroke-width="0.53251" stroke-opacity="0.355" id = "227" /><path d="M 308.42622 430.74551 L 305.71997 432.05562 L 317.87435 422.18832 L 333.77951 408.32435 L 362.97852 382.20504 L 363.45330 381.55827 L 362.88356 381.22660 " fill="none" stroke="rgb(0, 0, 0)" stroke-width="0.77638" stroke-opacity="0.518" id = "230" /><path d="M 310.37282 436.31763 L 310.27786 435.96937 L 311.60725 434.69242 L 321.76756 426.28449 L 342.23060 407.34591 L 364.30791 388.20833 L 372.23674 381.01101 L 369.62545 382.53671 " fill="none" stroke="rgb(0, 0, 0)" stroke-width="0.65246" stroke-opacity="0.435" id = "231" /><path d="M 305.43510 436.58297 L 305.67249 445.98592 " fill="none" stroke="rgb(0, 0, 0)" stroke-width="0.68308" stroke-opacity="0.455" id = "234" /><path d="M 193.48181 373.48201 L 194.14650 373.78052 L 211.61843 383.71415 L 266.59804 410.89483 L 315.02567 438.93785 L 318.06427 440.44697 L 314.59837 437.72724 " fill="none" stroke="rgb(0, 0, 0)" stroke-width="0.47825" stroke-opacity="0.319" id = "235" /><path d="M 196.04563 372.40407 L 210.38400 382.15529 L 220.78170 388.52342 L 239.34563 399.23649 L 266.93038 414.32765 L 301.39946 434.54317 L 313.03159 441.79025 L 309.04343 438.34084 " fill="none" stroke="rgb(0, 0, 0)" stroke-width="0.54516" stroke-opacity="0.363" id = "236" /><path d="M 210.47896 384.89159 L 205.82611 381.93970 " fill="none" stroke="rgb(0, 0, 0)" stroke-width="0.01151" stroke-opacity="0.008" id = "237" /><path d="M 196.85275 373.31618 L 197.09014 372.73575 L 195.33346 372.33774 L 213.28017 383.84682 L 236.30703 396.61627 L 265.88587 412.15519 L 296.17688 429.61781 L 310.84760 439.17002 L 309.37578 437.76041 " fill="none" stroke="rgb(0, 0, 0)" stroke-width="0.67756" stroke-opacity="0.452" id = "238" /><path d="M 195.95067 378.73904 L 194.95363 378.75563 L 192.15242 375.80373 L 191.53521 375.67106 L 196.23554 379.20339 L 208.15253 386.63288 L 245.18543 406.18506 L 258.05199 413.43213 L 297.55374 438.78860 L 315.31054 451.40879 " fill="none" stroke="rgb(0, 0, 0)" stroke-width="0.53183" stroke-opacity="0.355" id = "241" /><path d="M 190.87052 373.68102 L 196.94771 377.92644 L 213.32764 387.89324 L 256.62764 411.45867 L 293.51810 433.21648 L 306.71701 440.16504 L 311.98707 442.66918 L 311.22742 442.00583 " fill="none" stroke="rgb(0, 0, 0)" stroke-width="0.63287" stroke-opacity="0.422" id = "242" /><path d="M 191.10791 373.20009 L 190.39574 372.25482 L 192.72216 373.13376 L 213.13773 384.72576 L 260.47337 408.78870 L 311.84464 437.85991 L 314.17106 439.07052 L 312.84168 438.07550 " fill="none" stroke="rgb(0, 0, 0)" stroke-width="0.62843" stroke-opacity="0.419" id = "243" /><path d="M 292.99584 443.15011 L 291.38159 443.24961 " fill="none" stroke="rgb(0, 0, 0)" stroke-width="0.73273" stroke-opacity="0.488" id = "245" /><path d="M 292.99584 443.15011 L 291.38159 443.24961 " fill="none" stroke="rgb(0, 0, 0)" stroke-width="0.73273" stroke-opacity="0.488" id = "246" /><path d="M 204.63916 388.22492 L 203.92699 386.99772 L 200.98335 385.55494 L 200.08126 384.90818 L 200.93587 385.09060 L 215.03685 394.59305 L 224.76986 400.43051 L 267.50012 424.12861 L 292.61602 438.39059 L 298.50330 442.17167 L 296.55670 440.72889 " fill="none" stroke="rgb(0, 0, 0)" stroke-width="0.53735" stroke-opacity="0.358" id = "248" /><path d="M 202.74003 384.74234 L 205.01898 385.98612 L 215.60659 392.55326 L 251.50001 412.83512 L 296.50922 440.08212 " fill="none" stroke="rgb(0, 0, 0)" stroke-width="0.62613" stroke-opacity="0.417" id = "249" /><path d="M 204.59168 387.71082 L 200.88839 386.48363 L 200.46109 386.01929 L 201.88543 386.61630 L 240.72249 406.84840 L 259.85615 417.54489 L 293.04332 438.55643 L 295.03740 439.91629 L 293.61306 439.56803 " fill="none" stroke="rgb(0, 0, 0)" stroke-width="0.66991" stroke-opacity="0.447" id = "250" /><path d="M 204.92403 389.70087 L 203.54716 387.95958 L 208.29497 391.62457 L 215.60659 395.90317 L 236.25955 406.46698 L 249.55341 413.84672 L 292.42611 439.33586 L 294.75253 440.92789 L 294.08784 440.76206 " fill="none" stroke="rgb(0, 0, 0)" stroke-width="0.80182" stroke-opacity="0.535" id = "256" /><path d="M 207.10802 387.77716 L 202.97742 386.36754 L 205.44628 387.61132 L 214.70451 393.76387 L 252.82940 414.80858 L 292.47359 439.51828 L 291.42907 438.49009 L 291.90385 438.42376 " fill="none" stroke="rgb(0, 0, 0)" stroke-width="0.75577" stroke-opacity="0.504" id = "257" /><path d="M 182.75177 309.48554 L 179.80813 307.89351 L 183.36898 310.09914 L 219.11997 326.50041 L 246.37238 340.03270 L 297.45878 367.66114 L 300.25999 369.71752 " fill="none" stroke="rgb(0, 0, 0)" stroke-width="0.35322" stroke-opacity="0.235" id = "260" /><path d="M 182.13455 309.41921 L 192.95955 315.92002 L 202.07534 320.77904 L 248.36646 343.64795 L 289.05517 365.38917 L 294.98992 368.27473 L 295.65462 368.40740 L 296.03444 367.99281 L 298.31339 369.81702 " fill="none" stroke="rgb(0, 0, 0)" stroke-width="0.50311" stroke-opacity="0.335" id = "261" /><path d="M 246.56229 401.75721 L 246.75220 394.70914 L 246.04003 387.09723 L 239.48806 343.84695 L 235.59486 309.70113 L 234.55034 303.54858 " fill="none" stroke="rgb(0, 0, 0)" stroke-width="0.35999" stroke-opacity="0.240" id = "264" /><path d="M 247.93916 392.12208 L 247.84420 399.28624 L 248.22403 401.75721 L 245.04299 382.35429 L 237.25659 345.55507 L 233.36339 323.10075 L 232.22392 310.77907 L 232.27139 313.18371 L 231.79661 311.24341 L 231.79661 308.32468 L 230.70462 306.40098 " fill="none" stroke="rgb(0, 0, 0)" stroke-width="0.48706" stroke-opacity="0.325" id = "265" /><path d="M 206.30089 370.51353 L 205.87359 369.80043 L 201.88543 352.81873 L 196.14058 331.27652 " fill="none" stroke="rgb(0, 0, 0)" stroke-width="0.43230" stroke-opacity="0.288" id = "266" /><path d="M 239.06076 386.38413 L 238.58598 388.68926 L 238.30111 382.76888 L 236.59190 373.26643 L 231.27435 350.14876 L 231.13192 351.25987 " fill="none" stroke="rgb(0, 0, 0)" stroke-width="0.43380" stroke-opacity="0.289" id = "268" /><path d="M 295.60714 417.92631 L 295.89201 409.53496 L 293.23324 388.05908 L 292.71098 379.89990 " fill="none" stroke="rgb(0, 0, 0)" stroke-width="0.44267" stroke-opacity="0.295" id = "272" /><path d="M 193.14946 328.60654 L 193.95659 328.49045 L 196.09310 329.30306 L 218.97753 339.12060 L 228.80549 342.91827 L 228.23576 342.86852 L 228.23576 343.33286 " fill="none" stroke="rgb(0, 0, 0)" stroke-width="0.47127" stroke-opacity="0.314" id = "274" /><path d="M 203.21481 373.38251 L 204.44924 373.76394 L 226.24168 384.94135 L 234.97764 389.98279 L 232.69870 388.09225 " fill="none" stroke="rgb(0, 0, 0)" stroke-width="0.48226" stroke-opacity="0.322" id = "275" /><path d="M 208.01010 373.01767 L 205.11394 372.05582 L 204.78159 371.32613 L 206.15846 371.67439 L 216.69859 377.90986 L 234.88269 387.66107 " fill="none" stroke="rgb(0, 0, 0)" stroke-width="0.58103" stroke-opacity="0.387" id = "276" /><path d="M 248.79376 357.97626 L 249.55341 357.92651 L 259.14398 362.15535 L 281.93345 372.86842 L 289.15012 376.79875 L 288.62786 376.16857 " fill="none" stroke="rgb(0, 0, 0)" stroke-width="0.49329" stroke-opacity="0.329" id = "277" /><path d="M 252.30714 359.58488 L 252.35462 359.10395 L 253.11427 358.67278 L 255.10835 359.13712 L 282.97797 373.79710 L 287.53587 376.38416 L 287.86821 376.73242 L 287.29848 376.64950 L 286.06405 375.90323 " fill="none" stroke="rgb(0, 0, 0)" stroke-width="0.48364" stroke-opacity="0.322" id = "278" /><path d="M 258.24190 400.79536 L 259.66624 402.12205 L 263.17962 404.19501 L 290.33707 418.40724 " fill="none" stroke="rgb(0, 0, 0)" stroke-width="0.43199" stroke-opacity="0.288" id = "279" /><path d="M 259.14398 399.23649 L 257.67216 398.30780 L 259.57128 399.00432 L 290.76438 415.57143 L 292.47359 416.88154 L 290.05220 415.17342 " fill="none" stroke="rgb(0, 0, 0)" stroke-width="0.51521" stroke-opacity="0.343" id = "280" /><path d="M 290.28960 415.75385 L 295.03740 418.62283 " fill="none" stroke="rgb(0, 0, 0)" stroke-width="0.63811" stroke-opacity="0.425" id = "281" /><path d="M 258.00451 399.25307 L 258.28938 402.18839 L 257.48225 398.58972 L 252.82940 364.69266 L 252.59201 361.77393 L 253.06679 362.15535 " fill="none" stroke="rgb(0, 0, 0)" stroke-width="0.54923" stroke-opacity="0.366" id = "282" /><path d="M 259.99859 398.00930 L 261.13806 400.67927 L 260.47337 394.31113 L 256.20034 367.81039 L 255.86799 362.66945 L 256.01043 365.07408 L 255.72556 363.53180 " fill="none" stroke="rgb(0, 0, 0)" stroke-width="0.49599" stroke-opacity="0.331" id = "283" /><path d="M 208.10506 368.98783 L 208.95966 369.70093 L 209.43444 371.40905 L 209.62435 372.70258 L 209.19705 371.79048 L 207.06054 363.99614 L 200.60352 335.45561 L 199.55900 331.74086 " fill="none" stroke="rgb(0, 0, 0)" stroke-width="0.44931" stroke-opacity="0.300" id = "284" /><path d="M 204.21185 365.73743 L 205.11394 368.49032 L 200.17622 343.97962 L 196.56789 328.47387 L 196.23554 329.66790 L 196.61536 329.80057 L 196.99519 329.31964 " fill="none" stroke="rgb(0, 0, 0)" stroke-width="0.54827" stroke-opacity="0.366" id = "285" /><path d="M 236.49694 384.44383 L 237.73137 386.36754 L 238.15867 389.12044 L 237.39903 382.90155 L 230.51471 355.62138 L 227.33367 340.44730 L 227.99837 344.29471 " fill="none" stroke="rgb(0, 0, 0)" stroke-width="0.54983" stroke-opacity="0.367" id = "287" /><path d="M 292.80593 410.06564 L 294.46767 415.96944 L 294.46767 414.75883 L 289.19760 381.95628 " fill="none" stroke="rgb(0, 0, 0)" stroke-width="0.46255" stroke-opacity="0.308" id = "288" /><path d="M 295.60714 416.38403 L 295.03740 417.24638 L 291.95133 394.79206 L 291.04924 381.93970 L 290.62194 382.45379 " fill="none" stroke="rgb(0, 0, 0)" stroke-width="0.58527" stroke-opacity="0.390" id = "291" /><path d="M 201.88543 333.48215 L 198.32457 331.21018 L 197.56492 330.96142 L 198.27710 331.62477 L 200.50857 332.78563 L 221.39892 341.34282 L 228.14080 344.87514 " fill="none" stroke="rgb(0, 0, 0)" stroke-width="0.46492" stroke-opacity="0.310" id = "292" /><path d="M 202.59760 336.05262 L 215.98642 342.25492 L 230.32479 348.20847 L 229.18532 348.32455 " fill="none" stroke="rgb(0, 0, 0)" stroke-width="0.59153" stroke-opacity="0.394" id = "293" /><path d="M 253.58905 360.09897 L 267.64256 366.51686 L 282.69310 374.60970 L 283.26284 375.05746 L 281.07885 374.69262 " fill="none" stroke="rgb(0, 0, 0)" stroke-width="0.55714" stroke-opacity="0.371" id = "294" /><path d="M 257.71964 365.90327 L 257.00747 365.83693 L 258.90659 366.88170 L 270.44376 371.62464 L 288.91273 380.38083 L 287.20352 379.89990 " fill="none" stroke="rgb(0, 0, 0)" stroke-width="0.54876" stroke-opacity="0.366" id = "295" /><path d="M 190.25330 304.24510 L 189.96843 304.59335 L 190.11087 306.51706 L 187.73696 296.30151 " fill="none" stroke="rgb(0, 0, 0)" stroke-width="0.47770" stroke-opacity="0.318" id = "296" /><path d="M 227.14376 322.27157 L 228.18828 324.67621 " fill="none" stroke="rgb(0, 0, 0)" stroke-width="0.41042" stroke-opacity="0.274" id = "297" /><path d="M 227.14376 322.27157 L 228.18828 324.67621 " fill="none" stroke="rgb(0, 0, 0)" stroke-width="0.41042" stroke-opacity="0.274" id = "298" /><path d="M 292.37863 355.72088 L 292.33115 346.08575 " fill="none" stroke="rgb(0, 0, 0)" stroke-width="0.60226" stroke-opacity="0.402" id = "300" /><path d="M 185.79036 294.92506 L 200.98335 302.60331 L 228.14080 314.54357 L 228.66306 315.28983 " fill="none" stroke="rgb(0, 0, 0)" stroke-width="0.40212" stroke-opacity="0.268" id = "301" /><path d="M 191.01295 308.34127 L 212.71043 319.60160 L 230.94201 328.10903 L 228.56810 326.45066 " fill="none" stroke="rgb(0, 0, 0)" stroke-width="0.46090" stroke-opacity="0.307" id = "302" /><path d="M 189.54113 293.59836 L 186.17019 292.55359 L 197.51745 298.24180 L 227.33367 312.08918 L 227.71350 312.71936 " fill="none" stroke="rgb(0, 0, 0)" stroke-width="0.53784" stroke-opacity="0.359" id = "303" /><path d="M 188.06931 293.94662 L 184.22359 292.02291 L 186.36010 292.52042 L 216.41372 307.27991 L 223.39299 310.92832 L 228.09332 313.94656 L 226.57403 312.60328 " fill="none" stroke="rgb(0, 0, 0)" stroke-width="0.53573" stroke-opacity="0.357" id = "304" /><path d="M 193.76668 311.30975 L 187.92688 308.90511 L 222.11109 325.78731 L 222.53839 326.30141 " fill="none" stroke="rgb(0, 0, 0)" stroke-width="0.61258" stroke-opacity="0.408" id = "305" /><path d="M 246.89464 324.09578 L 247.98663 324.09578 L 291.33411 345.23998 L 288.39047 343.21677 " fill="none" stroke="rgb(0, 0, 0)" stroke-width="0.57442" stroke-opacity="0.383" id = "306" /><path d="M 249.26854 339.58495 L 249.45845 338.68943 L 250.31306 338.70601 L 285.82666 356.31789 L 290.52699 358.85520 L 289.62490 358.78886 L 287.29848 357.56167 " fill="none" stroke="rgb(0, 0, 0)" stroke-width="0.59054" stroke-opacity="0.394" id = "308" /><path d="M 254.25374 342.03933 L 247.13203 338.63967 L 251.73740 340.48046 L 286.77622 356.74907 " fill="none" stroke="rgb(0, 0, 0)" stroke-width="0.58748" stroke-opacity="0.392" id = "309" /><path d="M 203.26229 308.52369 L 202.21778 307.54525 L 212.85286 312.71936 " fill="none" stroke="rgb(0, 0, 0)" stroke-width="0.49719" stroke-opacity="0.331" id = "311" /><path d="M 213.61251 312.71936 L 213.99234 315.02450 " fill="none" stroke="rgb(0, 0, 0)" stroke-width="0.58784" stroke-opacity="0.392" id = "312" /><path d="M 200.74596 309.51871 L 201.60056 310.16547 L 210.90626 314.75916 " fill="none" stroke="rgb(0, 0, 0)" stroke-width="0.62243" stroke-opacity="0.415" id = "315" /><path d="M 264.65144 338.32458 L 262.65736 337.31298 L 263.55944 337.49540 L 275.52392 342.78560 " fill="none" stroke="rgb(0, 0, 0)" stroke-width="0.47211" stroke-opacity="0.315" id = "316" /><path d="M 300.07008 371.19346 L 299.50034 374.47704 L 299.59530 381.40902 L 303.96328 426.38399 L 304.39058 434.80851 " fill="none" stroke="rgb(0, 0, 0)" stroke-width="0.42282" stroke-opacity="0.282" id = "333" /><path d="M 306.00484 432.12195 L 305.95736 431.95612 " fill="none" stroke="rgb(0, 0, 0)" stroke-width="0.21808" stroke-opacity="0.145" id = "334" /><path d="M 306.52709 436.05229 L 306.62205 435.75378 L 319.44113 424.97438 L 345.83894 399.68425 L 359.93992 388.14200 L 360.69957 386.48363 L 363.21591 383.51515 L 364.21295 382.76888 " fill="none" stroke="rgb(0, 0, 0)" stroke-width="0.64112" stroke-opacity="0.427" id = "335" /><path d="M 296.93652 172.03989 L 299.69025 170.08302 L 323.04946 149.53582 L 345.31668 132.30537 L 361.31679 120.81287 L 361.60166 120.33194 " fill="none" stroke="rgb(0, 0, 0)" stroke-width="0.75455" stroke-opacity="0.503" id = "337" /><path d="M 296.79409 170.38153 L 296.55670 169.93377 L 311.79716 156.50097 L 336.34332 136.66688 L 348.26032 127.64535 L 363.50078 117.49613 L 365.30495 115.24075 L 365.63729 114.06330 L 365.30495 112.20593 L 363.16843 112.10643 L 360.74705 112.91903 " fill="none" stroke="rgb(0, 0, 0)" stroke-width="1.05868" stroke-opacity="0.706" id = "338" /><path d="M 296.79409 170.38153 L 296.55670 169.93377 L 311.79716 156.50097 L 336.34332 136.66688 L 348.26032 127.64535 L 363.50078 117.49613 L 365.30495 115.24075 L 365.63729 114.06330 L 365.30495 112.20593 L 363.16843 112.10643 L 360.74705 112.91903 " fill="none" stroke="rgb(0, 0, 0)" stroke-width="1.05868" stroke-opacity="0.706" id = "339" /><path d="M 296.79409 170.38153 L 296.55670 169.93377 L 311.79716 156.50097 L 336.34332 136.66688 L 348.26032 127.64535 L 363.50078 117.49613 L 365.30495 115.24075 L 365.63729 114.06330 L 365.30495 112.20593 L 363.16843 112.10643 L 360.74705 112.91903 " fill="none" stroke="rgb(0, 0, 0)" stroke-width="1.05868" stroke-opacity="0.706" id = "340" /><path d="M 296.79409 170.38153 L 296.55670 169.93377 L 311.79716 156.50097 L 336.34332 136.66688 L 348.26032 127.64535 L 363.50078 117.49613 L 365.30495 115.24075 L 365.63729 114.06330 L 365.30495 112.20593 L 363.16843 112.10643 L 360.74705 112.91903 " fill="none" stroke="rgb(0, 0, 0)" stroke-width="1.05868" stroke-opacity="0.706" id = "341" /><path d="M 298.83565 163.01837 L 295.60714 164.85916 L 300.63981 160.72982 L 320.24826 142.07316 L 343.37008 123.15117 L 358.89541 111.14457 " fill="none" stroke="rgb(0, 0, 0)" stroke-width="0.92175" stroke-opacity="0.614" id = "344" /><path d="M 301.06712 173.56559 L 300.11756 174.46111 L 300.97216 174.22894 L 304.05824 171.87406 L 343.41756 138.02674 L 359.93992 125.75481 L 358.75297 125.90406 " fill="none" stroke="rgb(0, 0, 0)" stroke-width="0.64618" stroke-opacity="0.431" id = "345" /><path d="M 299.64277 172.57057 L 295.98696 175.72147 L 304.10571 170.14935 L 347.35823 134.22907 L 364.54530 121.64205 " fill="none" stroke="rgb(0, 0, 0)" stroke-width="0.82464" stroke-opacity="0.550" id = "346" /></svg>