<?xml version="1.0" encoding="utf-8" ?>
<svg baseProfile="full" height="512" version="1.1" viewBox="0,0,512,512" width="512" xmlns="http://www.w3.org/2000/svg" xmlns:ev="http://www.w3.org/2001/xml-events" xmlns:xlink="http://www.w3.org/1999/xlink"><defs><style type="text/css"><![CDATA[
	.background { fill: white; }
	.line { stroke: firebrick; stroke-width: .1mm; }
	.blacksquare { fill: indigo; }
	.whitesquare { fill: white; }
]]></style></defs>
<path d="M 87.80675 259.86363 L 90.44404 259.86363 
L 92.68324 258.21245 
L 94.42484 255.25772 
L 95.91764 249.34826 
L 95.96740 244.77711 
L 95.22100 239.78883 
L 93.87748 234.47032 
L 90.94164 226.42302 
L 87.15987 218.74072 
L 84.17427 214.32600 
L 79.59634 209.58105 
L 76.71026 208.08630 
L 74.22226 207.98202 
L 72.33138 209.38986 
L 70.29121 213.30053 
L 69.34577 217.99334 
L 69.24625 222.30378 
L 69.89313 226.21445 
L 73.57538 234.45294 
L 77.60594 240.93596 
L 80.44226 244.55116 
L 83.17907 246.77590 
L 85.71683 247.71447 
L 89.10052 247.54066 
L 91.04116 246.20234 
L 92.28516 243.90808 
L 93.18084 240.97073 
L 93.57892 237.56409 
L 93.28036 231.82844 
L 91.73780 225.71041 
L 90.14548 221.62593 
L 87.06035 216.11622 
L 84.47283 212.91816 
L 79.89490 209.04225 
L 75.46626 207.00870 
L 72.82898 206.88703 
L 71.73425 207.28679 
L 69.99265 208.79891 
L 68.74865 211.14532 
L 67.70369 215.83813 
L 67.50465 221.33045 
L 68.25105 227.03135 
L 72.58018 237.70314 
L 75.41650 242.43071 
L 78.65090 246.67162 
L 82.08435 250.00873 
L 86.86131 252.84179 
L 89.74740 253.18941 
L 92.33492 252.38989 
L 94.47460 250.28682 
L 96.41524 245.47235 
L 96.81332 241.47477 
L 96.46500 234.69627 
L 95.42004 230.02084 
L 93.13108 223.15543 
L 91.14068 219.01881 
L 88.65267 215.38623 
L 85.76659 212.48364 
L 82.68147 210.57175 
L 79.59634 209.72010 
L 76.85954 209.66795 
L 75.76482 210.05033 
L 74.02322 211.37127 
L 72.28161 214.58671 
L 71.38593 219.54023 
L 71.53521 227.96991 
L 74.07298 239.00670 
L 75.96386 243.28237 
L 79.89490 248.86160 
L 82.88051 251.67728 
L 85.71683 253.36322 
L 89.54836 253.64131 
L 91.83732 252.21609 
L 93.72820 249.57421 
L 95.37028 244.01236 
L 95.51956 239.40646 
L 94.72340 234.22699 
L 90.94164 223.20758 
L 86.61251 215.52527 
L 82.73123 211.82317 
L 80.34274 210.55437 
L 77.90450 209.89390 
L 73.07778 210.06771 
L 69.29601 212.72697 
L 67.85297 214.84742 
" fill="none" stroke="rgb(0, 0, 0)" stroke-width="0.44760" stroke-opacity="0.298" id = "17" /><path d="M 203.54865 313.50069 L 206.33522 315.77757 
L 209.22130 316.90732 
L 212.00786 317.06375 
L 214.44611 316.19471 
L 216.48627 314.30021 
L 218.07859 311.38024 
L 218.87475 307.24361 
L 218.97427 302.32485 
L 218.32739 296.97158 
L 216.33699 288.64619 
L 214.59539 283.44933 
L 212.45570 278.89557 
L 209.71890 275.17609 
L 206.63378 272.62111 
L 205.09121 271.85636 
L 202.25489 271.54351 
L 199.81665 272.48207 
L 197.22913 276.25369 
L 195.43776 281.58959 
L 194.74112 287.77715 
L 194.94016 292.20924 
L 196.53248 299.80464 
L 199.46833 307.92146 
L 202.05585 313.23998 
L 205.09121 317.84588 
L 208.22610 321.28728 
L 211.36098 323.26869 
L 215.93891 324.01606 
L 218.67571 323.00797 
L 221.01443 320.59205 
L 222.60676 316.87256 
L 223.45268 312.04071 
L 223.50244 303.52413 
L 222.65652 297.54514 
L 220.66611 289.39356 
L 218.77523 284.82242 
L 216.43651 280.94650 
L 213.50066 277.99177 
L 210.21650 276.37536 
L 206.88258 276.02774 
L 203.79745 276.65345 
L 201.01089 278.51320 
L 198.67217 281.34626 
L 196.18416 286.96025 
L 195.28848 290.90569 
L 195.03968 296.97158 
L 195.73632 301.38629 
L 197.17937 306.07910 
L 199.31905 310.61548 
L 203.69793 316.02090 
L 208.72370 319.34063 
L 212.30642 320.53990 
L 217.03363 320.64419 
L 219.72067 319.37539 
L 221.66131 316.90732 
L 222.80580 313.17046 
L 223.20388 306.27029 
L 222.70628 301.42105 
L 221.06419 294.12113 
L 219.32259 289.61951 
L 217.03363 285.56979 
L 212.65474 280.61627 
L 209.22130 278.47843 
L 205.78786 277.66154 
L 204.14577 277.67892 
L 202.75249 278.21772 
L 200.21473 280.30342 
L 197.37841 285.69145 
L 196.23392 290.36688 
L 195.63680 295.35516 
L 195.73632 300.32607 
L 197.57745 307.76504 
L 199.81665 312.23190 
L 201.25969 314.16116 
L 204.69313 317.39398 
L 208.82322 319.87944 
L 213.25186 321.51323 
L 219.47187 321.80870 
L 222.90532 320.14015 
L 225.54260 317.11589 
L 227.28420 313.13570 
L 228.17988 308.42551 
L 228.27940 303.24604 
L 227.33396 297.91014 
L 224.49764 290.05403 
L 221.71107 285.37860 
L 216.33699 279.29533 
L 212.45570 276.32322 
L 208.67394 274.55038 
L 205.24049 274.22014 
L 202.45393 275.24561 
L 201.30945 276.32322 
L 199.41857 279.48652 
L 198.22433 283.91862 
L 197.77649 289.48046 
L 197.92577 296.11992 
L 199.16977 303.59365 
L 201.50849 311.13691 
L 203.05105 314.56092 
L 204.99169 317.56779 
L 207.13138 320.07062 
L 212.10738 323.47726 
L 216.98387 324.76343 
L 221.36275 324.31153 
L 223.35316 323.37297 
L 226.58756 319.98372 
L 228.67748 314.85639 
L 229.67268 308.73836 
L 229.72244 302.51604 
L 228.52820 296.20682 
L 226.43828 289.93236 
L 223.35316 284.12719 
L 221.51203 281.48531 
L 216.83459 277.01845 
L 214.04803 275.31513 
L 210.96290 274.15062 
L 207.67874 273.55968 
" fill="none" stroke="rgb(0, 0, 0)" stroke-width="0.55988" stroke-opacity="0.373" id = "18" /><path d="M 96.36548 310.84143 L 96.11668 308.63408 
L 96.51476 309.50311 
" fill="none" stroke="rgb(0, 0, 0)" stroke-width="0.68324" stroke-opacity="0.455" id = "19" /><path d="M 213.64994 358.82975 L 214.19731 360.67211 
L 214.64515 360.91544 
L 214.29683 360.88068 
L 214.54563 360.51568 
" fill="none" stroke="rgb(0, 0, 0)" stroke-width="0.74006" stroke-opacity="0.493" id = "20" /><path d="M 371.93670 239.47598 L 371.93670 231.34178 
L 370.69269 226.77063 
L 369.49845 224.77185 
L 368.00565 223.45091 
L 366.11477 222.68615 
L 363.72629 222.39068 
" fill="none" stroke="rgb(0, 0, 0)" stroke-width="0.13770" stroke-opacity="0.092" id = "24" /><path d="M 352.38099 228.85633 L 352.18195 236.43434 
L 353.32643 240.39716 
L 355.96372 245.94163 
L 358.60100 249.78278 
L 361.68612 252.82441 
L 364.82101 254.47559 
L 366.86117 254.61463 
L 368.85157 253.76297 
L 371.48885 250.94729 
L 372.88214 248.25327 
L 373.87734 244.89878 
L 374.27542 240.79692 
L 373.87734 234.17484 
L 372.98166 230.15988 
L 371.09077 225.43231 
L 368.35397 222.30378 
L 364.87077 220.46141 
L 361.03924 220.06166 
L 358.84980 220.56570 
L 356.31204 223.15543 
L 354.96851 225.93636 
L 353.92355 229.27347 
L 352.77907 235.89554 
L 352.62979 242.83047 
L 353.87379 246.63686 
L 356.31204 250.79086 
L 359.44692 254.66677 
L 361.73588 256.61342 
L 365.36837 258.21245 
L 368.70229 258.31674 
L 370.84197 257.27389 
L 373.57878 254.12797 
L 375.46966 249.81754 
L 376.11654 246.41091 
L 376.21606 240.57097 
L 375.56918 236.57339 
L 374.67350 232.90605 
L 372.63334 228.36967 
L 370.69269 225.98850 
L 367.10997 223.38138 
L 364.42293 222.42544 
L 360.49188 222.30378 
L 358.15316 223.15543 
L 356.16276 224.49375 
L 351.08723 229.41251 
L 350.29107 230.71607 
L 350.29107 232.69748 
L 352.08243 237.14696 
L 355.66516 244.30783 
L 358.99908 249.55683 
L 361.28804 252.18132 
L 364.52245 254.73630 
L 366.61237 255.58796 
L 369.64773 255.67486 
L 371.48885 254.75368 
L 373.82758 251.86847 
L 375.46966 247.55804 
L 376.06678 243.89070 
L 376.21606 235.68697 
L 375.81798 231.82844 
L 374.57398 226.70111 
L 372.38454 222.59925 
L 369.10037 219.92261 
L 365.11957 218.63643 
L 360.74068 218.63643 
L 357.05844 220.21808 
L 354.52067 223.34662 
L 352.97811 228.24800 
L 352.48051 232.21082 
L 352.58003 239.14574 
L 353.97331 246.56733 
L 356.61060 253.43274 
L 360.59140 258.87292 
L 363.67653 261.21933 
L 366.91093 262.24479 
L 370.04581 261.98408 
L 373.08118 260.22862 
L 376.91270 255.24034 
L 379.15190 248.23589 
L 379.54998 240.13645 
L 378.90310 234.74841 
L 376.71366 227.57015 
L 374.67350 223.53781 
L 370.44389 218.79286 
L 368.70229 217.64573 
L 364.67173 216.08146 
L 360.24308 215.69908 
" fill="none" stroke="rgb(0, 0, 0)" stroke-width="0.46975" stroke-opacity="0.313" id = "25" /><path d="M 228.17988 160.63679 L 227.93108 159.12467 
L 228.87652 159.08990 
" fill="none" stroke="rgb(0, 0, 0)" stroke-width="0.58380" stroke-opacity="0.389" id = "31" /><path d="M 208.17634 165.22532 L 208.87298 164.99937 
L 210.46530 165.99007 
L 212.60498 168.97956 
L 214.14755 172.54262 
L 215.98867 180.55516 
L 215.93891 188.44603 
L 214.19731 197.10165 
L 211.80882 203.37611 
L 205.78786 214.72576 
L 203.54865 217.48930 
" fill="none" stroke="rgb(0, 0, 0)" stroke-width="0.39082" stroke-opacity="0.261" id = "32" /><path d="M 208.22610 209.45938 L 208.42514 208.12106 
L 209.02226 208.06892 
L 209.76866 208.71201 
" fill="none" stroke="rgb(0, 0, 0)" stroke-width="0.48427" stroke-opacity="0.323" id = "35" /><path d="M 87.55795 212.79649 L 89.64788 215.10814 
L 92.58372 219.81832 
L 94.92244 224.77185 
L 96.96260 230.71607 
L 98.95301 241.75286 
L 99.30133 251.52085 
" fill="none" stroke="rgb(0, 0, 0)" stroke-width="0.29718" stroke-opacity="0.198" id = "36" /><path d="M 108.35766 297.04110 L 107.46198 297.80585 
L 108.65622 297.44086 
" fill="none" stroke="rgb(0, 0, 0)" stroke-width="0.47622" stroke-opacity="0.317" id = "38" /><path d="M 107.66102 277.53987 L 107.46198 275.26299 
L 106.61606 282.37173 
L 107.36246 282.77148 
" fill="none" stroke="rgb(0, 0, 0)" stroke-width="0.62652" stroke-opacity="0.418" id = "45" /><path d="M 189.51632 317.41137 L 188.67039 317.37660 
L 188.62063 321.09609 
L 189.06848 323.65106 
L 189.86464 325.42390 
" fill="none" stroke="rgb(0, 0, 0)" stroke-width="0.66226" stroke-opacity="0.442" id = "46" /><path d="M 189.71536 325.38914 L 188.86944 325.49342 
L 189.91440 326.98817 
L 191.75552 328.46554 
L 193.54688 329.26505 
L 192.05408 329.31720 
L 194.64160 329.49100 
" fill="none" stroke="rgb(0, 0, 0)" stroke-width="0.76294" stroke-opacity="0.509" id = "47" /><path d="M 193.19856 292.48734 L 193.39760 289.89760 
L 194.69136 286.63002 
L 197.97553 280.72055 
L 203.84721 271.87374 
" fill="none" stroke="rgb(0, 0, 0)" stroke-width="0.50790" stroke-opacity="0.339" id = "49" /><path d="M 119.10583 345.23798 L 117.81207 345.35965 
L 118.50871 344.99465 
" fill="none" stroke="rgb(0, 0, 0)" stroke-width="0.44982" stroke-opacity="0.300" id = "52" /><path d="M 346.50930 331.87217 L 346.80786 331.40289 
L 346.26050 331.66360 
" fill="none" stroke="rgb(0, 0, 0)" stroke-width="0.51727" stroke-opacity="0.345" id = "58" /><path d="M 329.93920 340.99707 L 331.33249 341.72707 
L 331.43201 341.41421 
" fill="none" stroke="rgb(0, 0, 0)" stroke-width="0.31867" stroke-opacity="0.212" id = "64" /><path d="M 217.92931 430.16044 L 218.67571 430.26472 
L 229.32436 423.78170 
L 231.21525 422.44338 
L 230.46885 422.39123 
L 226.28900 425.22430 
" fill="none" stroke="rgb(0, 0, 0)" stroke-width="0.67271" stroke-opacity="0.448" id = "71" /><path d="M 219.91971 429.88235 L 219.12355 430.61234 
L 219.62115 430.54282 
L 229.82196 423.13861 
L 230.02100 422.87790 
L 229.62292 422.87790 
L 226.43828 424.58121 
L 215.88915 431.62043 
L 225.34356 426.07596 
L 230.81717 421.73077 
L 228.47844 422.91266 
" fill="none" stroke="rgb(0, 0, 0)" stroke-width="0.94843" stroke-opacity="0.632" id = "72" /><path d="M 335.31329 340.85803 L 334.61665 338.05972 
L 334.51713 345.84631 
L 333.47217 354.27599 
L 333.82049 354.93645 
" fill="none" stroke="rgb(0, 0, 0)" stroke-width="0.84179" stroke-opacity="0.561" id = "74" /><path d="M 322.82352 355.45788 L 322.67424 354.84955 
L 325.51056 356.50072 
L 332.07889 358.51689 
L 330.03872 357.54357 
L 321.67903 356.29215 
L 320.53455 355.82287 
L 321.23119 355.56216 
L 325.90864 356.06620 
L 332.02913 358.96879 
L 330.03872 357.63047 
L 322.57472 355.19717 
" fill="none" stroke="rgb(0, 0, 0)" stroke-width="0.86089" stroke-opacity="0.574" id = "76" /><path d="M 321.28095 350.59126 L 321.08191 349.56580 
L 320.68383 351.11268 
L 320.68383 351.80792 
L 321.03215 351.14745 
L 321.08191 349.75698 
L 319.73839 352.78124 
" fill="none" stroke="rgb(0, 0, 0)" stroke-width="0.88637" stroke-opacity="0.591" id = "77" /><path d="M 204.64337 421.22672 L 213.10258 428.17903 
L 217.53123 431.04686 
L 201.16017 416.96843 
L 200.86161 417.02058 
L 201.45873 417.66366 
L 207.72850 423.06908 
L 216.43651 429.32616 
L 213.20210 427.77927 
L 205.14097 422.11314 
L 205.38977 422.84313 
L 207.08162 424.37264 
" fill="none" stroke="rgb(0, 0, 0)" stroke-width="1.03472" stroke-opacity="0.690" id = "78" /><path d="M 201.01089 415.28250 L 201.60801 416.18630 
L 202.00609 419.10627 
L 202.50369 420.02745 
L 198.12481 400.12646 
L 197.97553 397.95387 
L 201.70753 417.15962 
L 202.25489 419.17579 
L 202.50369 418.23723 
L 199.86641 402.10787 
L 197.62721 391.88798 
" fill="none" stroke="rgb(0, 0, 0)" stroke-width="0.90923" stroke-opacity="0.606" id = "84" /><path d="M 118.55847 362.51447 L 115.77191 363.08804 
L 125.57464 356.77882 
L 128.21192 356.37906 
L 115.82167 362.07995 
L 117.21495 362.07995 
L 121.04647 360.67211 
L 132.93913 354.79741 
" fill="none" stroke="rgb(0, 0, 0)" stroke-width="0.83720" stroke-opacity="0.558" id = "87" /><path d="M 195.53728 321.11347 L 194.79088 321.40894 
L 194.84064 327.75293 
L 194.54208 314.59568 
L 194.54208 304.25412 
L 195.38800 293.84304 
L 196.28368 288.15952 
L 197.92577 282.49339 
L 199.61761 280.49460 
" fill="none" stroke="rgb(0, 0, 0)" stroke-width="0.70772" stroke-opacity="0.472" id = "95" /><path d="M 200.66257 279.19105 L 201.20993 277.19226 
L 203.34961 276.35798 
L 205.04145 276.74036 
L 206.78306 278.63486 
" fill="none" stroke="rgb(0, 0, 0)" stroke-width="0.58950" stroke-opacity="0.393" id = "96" /><path d="M 109.45238 274.74157 L 108.85526 274.42871 
L 108.45718 273.24682 
L 112.73654 268.20640 
" fill="none" stroke="rgb(0, 0, 0)" stroke-width="0.61771" stroke-opacity="0.412" id = "97" /><path d="M 202.00609 232.43677 L 200.36401 234.27913 
L 197.22913 240.01478 
L 197.77649 237.33814 
" fill="none" stroke="rgb(0, 0, 0)" stroke-width="0.66160" stroke-opacity="0.441" id = "100" /><path d="M 202.00609 232.43677 L 200.36401 234.27913 
L 197.22913 240.01478 
L 197.77649 237.33814 
" fill="none" stroke="rgb(0, 0, 0)" stroke-width="0.66160" stroke-opacity="0.441" id = "101" /><path d="M 348.64899 214.96909 L 345.91218 218.63643 
L 344.96674 218.89714 
L 344.86722 218.41048 
" fill="none" stroke="rgb(0, 0, 0)" stroke-width="0.42531" stroke-opacity="0.284" id = "103" /><path d="M 363.52724 157.03897 L 361.68612 156.74350 
L 363.02964 156.50017 
L 362.97988 155.66589 
L 362.33300 155.24875 
L 363.17892 155.89184 
" fill="none" stroke="rgb(0, 0, 0)" stroke-width="0.83816" stroke-opacity="0.559" id = "105" /><path d="M 364.27365 158.65538 L 363.77605 157.97753 
L 361.58660 157.89063 
L 374.77302 153.52806 
L 364.12437 155.68327 
L 359.94452 155.94398 
L 368.05541 154.22329 
L 371.98646 153.09354 
L 370.34437 153.11092 
L 360.24308 155.52685 
" fill="none" stroke="rgb(0, 0, 0)" stroke-width="1.07501" stroke-opacity="0.717" id = "110" /><path d="M 201.35921 169.32718 L 200.71233 171.04788 
L 201.80705 171.06526 
L 200.46353 173.22047 
L 201.20993 172.54262 
L 205.58882 162.87891 
L 216.98387 129.92497 
L 219.86995 122.10362 
L 220.31779 122.19052 
L 220.76563 118.36675 
L 218.52643 123.54622 
L 209.76866 150.79928 
L 205.48930 162.63558 
L 203.49889 167.01554 
L 203.29985 165.79888 
L 202.85201 165.65984 
L 198.17457 173.18571 
L 215.19251 129.57735 
L 219.47187 119.96578 
" fill="none" stroke="rgb(0, 0, 0)" stroke-width="0.80228" stroke-opacity="0.535" id = "115" /><path d="M 200.86161 172.73381 L 201.01089 172.07334 
L 201.25969 172.19501 
L 204.44433 174.62831 
L 206.83282 177.21805 
L 208.22610 179.54707 
L 209.96770 185.52606 
L 210.31602 191.97433 
L 209.96770 195.27667 
L 208.62418 199.89996 
L 205.14097 206.13966 
L 200.66257 211.68412 
" fill="none" stroke="rgb(0, 0, 0)" stroke-width="0.80208" stroke-opacity="0.535" id = "116" /><path d="M 200.81185 214.86480 L 201.30945 215.00385 
L 203.05105 213.07458 
L 204.69313 209.68533 
L 207.67874 198.92664 
L 209.02226 190.47958 
L 209.27106 182.62347 
L 208.67394 178.15661 
L 206.68354 172.94238 
L 205.14097 170.64812 
" fill="none" stroke="rgb(0, 0, 0)" stroke-width="0.88017" stroke-opacity="0.587" id = "117" /><path d="M 200.81185 214.86480 L 201.30945 215.00385 
L 203.05105 213.07458 
L 204.69313 209.68533 
L 207.67874 198.92664 
L 209.02226 190.47958 
L 209.27106 182.62347 
L 208.67394 178.15661 
L 206.68354 172.94238 
L 205.14097 170.64812 
" fill="none" stroke="rgb(0, 0, 0)" stroke-width="0.88017" stroke-opacity="0.587" id = "118" /><path d="M 81.58675 250.75610 L 79.74562 247.81875 
L 75.51602 238.88503 
L 71.13713 225.55398 
L 70.29121 220.42665 
L 70.44049 216.22050 
L 72.08257 211.45817 
L 73.47586 208.92058 
L 74.67010 208.05154 
" fill="none" stroke="rgb(0, 0, 0)" stroke-width="0.79391" stroke-opacity="0.529" id = "125" /><path d="M 76.90930 212.55316 L 77.65570 211.59722 
L 76.61074 211.49293 
L 74.22226 212.74435 
L 72.77922 214.29124 
L 71.98305 216.51598 
L 71.73425 221.12188 
L 73.17730 233.58390 
L 75.41650 240.22335 
L 78.99922 245.88948 
L 82.23363 249.24397 
L 85.31875 250.18254 
" fill="none" stroke="rgb(0, 0, 0)" stroke-width="0.87937" stroke-opacity="0.586" id = "126" /><path d="M 76.61074 211.07580 L 78.05378 210.93675 
L 81.33795 212.32721 
L 86.11491 215.94241 
L 90.39428 221.15664 
L 92.43444 224.68494 
L 94.97220 231.11583 
L 96.81332 238.24194 
L 97.95781 247.43637 
" fill="none" stroke="rgb(0, 0, 0)" stroke-width="0.78993" stroke-opacity="0.527" id = "127" /><path d="M 77.55618 208.15583 L 79.04898 207.99940 
L 81.18867 209.42462 
L 87.60771 215.03861 
L 91.19044 219.59237 
L 93.28036 223.27710 
L 95.71860 230.33369 
L 97.31093 238.95456 
L 98.25637 255.22296 
" fill="none" stroke="rgb(0, 0, 0)" stroke-width="0.81523" stroke-opacity="0.543" id = "128" /><path d="M 102.98357 267.56331 L 104.27733 274.22014 
L 104.32709 278.04391 
" fill="none" stroke="rgb(0, 0, 0)" stroke-width="0.80299" stroke-opacity="0.535" id = "130" /><path d="M 102.98357 267.56331 L 104.27733 274.22014 
L 104.32709 278.04391 
" fill="none" stroke="rgb(0, 0, 0)" stroke-width="0.80299" stroke-opacity="0.535" id = "131" /><path d="M 223.05460 269.21448 L 216.18771 275.66275 
L 212.10738 278.02653 
L 209.86818 278.49581 
L 210.91314 277.95701 
L 219.57139 274.68943 
" fill="none" stroke="rgb(0, 0, 0)" stroke-width="0.91819" stroke-opacity="0.612" id = "134" /><path d="M 223.05460 269.21448 L 216.18771 275.66275 
L 212.10738 278.02653 
L 209.86818 278.49581 
L 210.91314 277.95701 
L 219.57139 274.68943 
" fill="none" stroke="rgb(0, 0, 0)" stroke-width="0.91819" stroke-opacity="0.612" id = "135" /><path d="M 337.05489 223.64209 L 345.96194 226.99658 
L 344.76770 226.64897 
L 368.80181 218.27144 
L 366.16453 218.42786 
L 345.76290 225.06732 
L 342.08066 226.82278 
L 343.92178 226.77063 
L 365.56741 219.50547 
" fill="none" stroke="rgb(0, 0, 0)" stroke-width="0.98966" stroke-opacity="0.660" id = "138" /><path d="M 363.92533 258.66435 L 364.77125 258.62959 
L 366.66213 257.39556 
L 372.38454 251.55562 
L 374.67350 246.49781 
L 375.61894 241.71810 
L 375.56918 235.09602 
L 373.92710 228.33490 
L 370.19509 222.33854 
L 369.44869 221.83449 
L 367.06021 221.62593 
" fill="none" stroke="rgb(0, 0, 0)" stroke-width="1.13818" stroke-opacity="0.759" id = "139" /><path d="M 363.92533 258.66435 L 364.77125 258.62959 
L 366.66213 257.39556 
L 372.38454 251.55562 
L 374.67350 246.49781 
L 375.61894 241.71810 
L 375.56918 235.09602 
L 373.92710 228.33490 
L 370.19509 222.33854 
L 369.44869 221.83449 
L 367.06021 221.62593 
" fill="none" stroke="rgb(0, 0, 0)" stroke-width="1.13818" stroke-opacity="0.759" id = "140" /><path d="M 215.54083 323.99868 L 219.57139 324.41582 
L 221.56179 323.45987 
L 223.50244 321.11347 
L 224.49764 318.40207 
L 225.14452 314.59568 
L 225.14452 302.88104 
" fill="none" stroke="rgb(0, 0, 0)" stroke-width="0.87500" stroke-opacity="0.583" id = "144" /><path d="M 210.96290 279.13890 L 211.65954 278.86081 
L 213.30162 279.03462 
L 217.97907 282.18054 
L 220.61635 285.81312 
L 222.55700 291.18378 
L 223.60196 297.66681 
L 223.75124 306.47886 
L 222.85556 312.70118 
L 220.91491 318.95825 
" fill="none" stroke="rgb(0, 0, 0)" stroke-width="0.85309" stroke-opacity="0.569" id = "145" /><path d="M 218.42691 327.31841 L 220.66611 325.38914 
L 223.00484 321.73918 
L 224.44788 316.55971 
L 225.04500 311.01524 
L 225.14452 304.06293 
L 224.64692 299.14417 
L 223.45268 294.24280 
L 221.36275 289.34142 
L 218.37715 284.63123 
L 212.55522 278.42629 
L 210.41554 276.77512 
L 206.03666 274.55038 
L 201.95633 274.06372 
L 200.21473 274.58514 
" fill="none" stroke="rgb(0, 0, 0)" stroke-width="0.89903" stroke-opacity="0.599" id = "146" /><path d="M 221.26323 120.19173 L 220.56659 119.23579 
L 229.97124 116.52439 
L 237.78357 113.41323 
L 231.21525 114.57774 
L 221.01443 117.23700 
L 237.88309 112.99609 
" fill="none" stroke="rgb(0, 0, 0)" stroke-width="1.10553" stroke-opacity="0.737" id = "155" /><path d="M 358.75028 296.39801 L 358.15316 295.33778 
L 355.91396 301.78605 
" fill="none" stroke="rgb(0, 0, 0)" stroke-width="0.60186" stroke-opacity="0.401" id = "159" /><path d="M 358.75028 296.39801 L 358.15316 295.33778 
L 355.91396 301.78605 
" fill="none" stroke="rgb(0, 0, 0)" stroke-width="0.60186" stroke-opacity="0.401" id = "160" /><path d="M 343.62322 347.35844 L 343.17538 350.79983 
L 343.17538 352.05125 
L 343.52370 351.68625 
L 349.24611 320.33134 
L 360.19332 274.58514 
L 361.03924 269.45781 
L 360.64116 267.70235 
L 361.08900 266.52046 
L 360.88996 263.54835 
L 360.93972 265.77309 
L 359.59620 271.78684 
L 347.30547 344.03871 
L 345.96194 350.36531 
L 345.41458 349.23556 
L 344.41938 351.49506 
L 346.90739 330.84670 
L 350.49011 309.78121 
L 358.65076 268.81472 
" fill="none" stroke="rgb(0, 0, 0)" stroke-width="0.91699" stroke-opacity="0.611" id = "161" /><path d="M 340.98594 355.02336 L 344.66818 352.39886 
L 343.87202 352.22505 
L 341.73234 353.26790 
L 335.91041 357.21334 
L 334.31809 358.96879 
L 344.86722 352.48577 
L 342.87682 352.76386 
L 337.45297 355.11026 
L 334.11905 356.90048 
L 333.67121 357.49143 
L 334.71617 357.47405 
L 338.09985 355.92716 
L 343.67298 352.38148 
L 342.37922 352.22505 
L 336.15921 355.16240 
" fill="none" stroke="rgb(0, 0, 0)" stroke-width="1.19639" stroke-opacity="0.798" id = "162" /><path d="M 321.38047 352.79862 L 320.98239 351.65149 
L 321.87807 351.51244 
L 327.20240 353.84147 
L 328.64544 354.15432 
L 328.79472 353.85885 
" fill="none" stroke="rgb(0, 0, 0)" stroke-width="0.73956" stroke-opacity="0.493" id = "164" /><path d="M 322.42544 349.68746 L 321.92783 348.78366 
L 322.67424 348.80104 
L 328.99376 350.86935 
" fill="none" stroke="rgb(0, 0, 0)" stroke-width="0.68578" stroke-opacity="0.457" id = "165" /><path d="M 324.41584 346.71535 L 326.75456 347.68867 
L 329.98896 348.34914 
" fill="none" stroke="rgb(0, 0, 0)" stroke-width="0.73049" stroke-opacity="0.487" id = "166" /><path d="M 241.16726 305.64458 L 244.84950 300.84749 
L 236.98741 316.40328 
" fill="none" stroke="rgb(0, 0, 0)" stroke-width="0.51421" stroke-opacity="0.343" id = "171" /><path d="M 261.07128 301.47320 L 271.57065 288.09000 
L 264.20617 298.50108 
L 262.41480 301.85557 
" fill="none" stroke="rgb(0, 0, 0)" stroke-width="0.49002" stroke-opacity="0.327" id = "176" /><path d="M 108.05910 230.94202 L 106.01894 232.83652 
L 102.58549 238.24194 
L 100.29653 242.65666 
L 99.40085 245.85472 
" fill="none" stroke="rgb(0, 0, 0)" stroke-width="0.44463" stroke-opacity="0.296" id = "181" /><path d="M 121.64359 239.14574 L 126.12200 230.83773 
L 130.60041 223.72900 
L 133.68553 219.99213 
" fill="none" stroke="rgb(0, 0, 0)" stroke-width="0.41336" stroke-opacity="0.276" id = "184" /><path d="M 121.64359 239.14574 L 126.12200 230.83773 
L 130.60041 223.72900 
L 133.68553 219.99213 
" fill="none" stroke="rgb(0, 0, 0)" stroke-width="0.41336" stroke-opacity="0.276" id = "185" /><path d="M 159.75980 224.42423 L 165.73101 214.46505 
L 169.96061 208.38178 
L 175.28494 202.03779 
L 177.97198 199.67401 
" fill="none" stroke="rgb(0, 0, 0)" stroke-width="0.44441" stroke-opacity="0.296" id = "192" /><path d="M 159.75980 224.42423 L 165.73101 214.46505 
L 169.96061 208.38178 
L 175.28494 202.03779 
L 177.97198 199.67401 
" fill="none" stroke="rgb(0, 0, 0)" stroke-width="0.44441" stroke-opacity="0.296" id = "193" /><path d="M 196.53248 205.27062 L 199.86641 200.10853 
L 202.80225 196.61499 
L 205.14097 195.18977 
" fill="none" stroke="rgb(0, 0, 0)" stroke-width="0.47765" stroke-opacity="0.318" id = "198" /><path d="M 196.53248 205.27062 L 199.86641 200.10853 
L 202.80225 196.61499 
L 205.14097 195.18977 
" fill="none" stroke="rgb(0, 0, 0)" stroke-width="0.47765" stroke-opacity="0.318" id = "199" /><path d="M 118.35943 348.07105 L 116.56807 347.48010 
L 119.75271 346.73273 
" fill="none" stroke="rgb(0, 0, 0)" stroke-width="0.48386" stroke-opacity="0.323" id = "206" /><path d="M 118.35943 348.07105 L 115.72215 348.85318 
L 117.06567 348.97485 
L 120.00151 347.74081 
" fill="none" stroke="rgb(0, 0, 0)" stroke-width="0.64295" stroke-opacity="0.429" id = "207" /><path d="M 114.97575 354.11956 L 115.97095 354.03265 
L 123.08664 350.67817 
L 118.75751 353.18100 
" fill="none" stroke="rgb(0, 0, 0)" stroke-width="0.61411" stroke-opacity="0.409" id = "209" /><path d="M 114.87623 355.92716 L 115.72215 356.15311 
L 123.48472 352.41624 
L 123.48472 352.03387 
L 119.50391 354.91907 
" fill="none" stroke="rgb(0, 0, 0)" stroke-width="0.63894" stroke-opacity="0.426" id = "210" /><path d="M 114.42839 359.17736 L 123.48472 354.25860 
L 124.92776 353.19838 
L 124.23112 353.21576 
L 120.84743 355.21455 
" fill="none" stroke="rgb(0, 0, 0)" stroke-width="0.63897" stroke-opacity="0.426" id = "211" /><path d="M 116.07047 358.70808 L 118.45895 358.11714 
L 125.87320 354.46717 
L 126.52008 354.31075 
L 123.68376 356.18787 
" fill="none" stroke="rgb(0, 0, 0)" stroke-width="0.70969" stroke-opacity="0.473" id = "212" /><path d="M 118.90679 360.88068 L 124.43016 358.27356 
L 131.79465 355.97930 
" fill="none" stroke="rgb(0, 0, 0)" stroke-width="0.76799" stroke-opacity="0.512" id = "213" /><path d="M 195.23872 398.87505 L 195.63680 398.47529 
L 196.03488 400.07432 
" fill="none" stroke="rgb(0, 0, 0)" stroke-width="0.86576" stroke-opacity="0.577" id = "215" /></svg>