<?xml version="1.0" encoding="utf-8" ?>
<svg baseProfile="full" height="512" version="1.1" viewBox="0,0,512,512" width="512" xmlns="http://www.w3.org/2000/svg" xmlns:ev="http://www.w3.org/2001/xml-events" xmlns:xlink="http://www.w3.org/1999/xlink"><defs><style type="text/css"><![CDATA[
	.background { fill: white; }
	.line { stroke: firebrick; stroke-width: .1mm; }
	.blacksquare { fill: indigo; }
	.whitesquare { fill: white; }
]]></style></defs>
<path d="M 100.99317 349.23556 L 95.42004 318.81921 L 84.13885 245.76769 L 80.87049 220.16555 L 72.69960 166.78238 L 71.06542 153.70895 L 64.52870 114.48865 L 60.17089 91.06542 " fill="none" stroke="rgb(0, 0, 0)" stroke-width="0.63374" stroke-opacity="0.422" id = "1" /><path d="M 215.49107 419.54079 L 210.51535 319.30574 L 208.33645 202.73431 L 208.33645 136.82243 " fill="none" stroke="rgb(0, 0, 0)" stroke-width="0.62995" stroke-opacity="0.420" id = "2" /><path d="M 353.02787 357.35238 L 352.87859 363.47041 L 355.56564 344.87299 L 360.85981 294.24833 L 372.29907 202.18959 L 387.55140 101.41522 L 390.27503 86.70761 L 391.90921 72.54473 " fill="none" stroke="rgb(0, 0, 0)" stroke-width="0.58207" stroke-opacity="0.388" id = "3" /><path d="M 227.08516 425.72834 L 223.25364 428.99593 L 225.34356 427.84880 L 256.27236 406.46195 L 305.84246 374.86782 L 331.44459 357.98131 L 345.60748 349.81041 L 359.77036 340.55007 L 374.47797 331.83445 " fill="none" stroke="rgb(0, 0, 0)" stroke-width="0.68068" stroke-opacity="0.454" id = "4" /><path d="M 211.65954 224.58066 L 214.09779 224.25042 L 219.82019 222.44282 L 231.26501 217.40240 L 355.41255 154.25367 L 406.61682 129.74099 L 424.04806 122.11482 " fill="none" stroke="rgb(0, 0, 0)" stroke-width="0.55980" stroke-opacity="0.373" id = "6" /><path d="M 205.24049 420.74006 L 216.78483 428.76998 L 217.13315 429.30878 L 215.09299 428.02261 L 152.77437 387.39653 L 76.51268 334.55808 " fill="none" stroke="rgb(0, 0, 0)" stroke-width="0.54441" stroke-opacity="0.363" id = "7" /><path d="M 198.37361 225.36279 L 204.09601 228.02205 L 210.76386 229.72537 L 182.10207 217.03740 L 148.41656 201.10013 L 95.03338 174.40854 L 73.78905 162.96929 L 52.54473 152.61949 " fill="none" stroke="rgb(0, 0, 0)" stroke-width="0.55979" stroke-opacity="0.373" id = "8" /><path d="M 68.25105 159.61133 L 116.82243 144.44860 L 224.67824 113.94393 L 313.46862 89.97597 " fill="none" stroke="rgb(0, 0, 0)" stroke-width="0.67674" stroke-opacity="0.451" id = "9" /><path d="M 215.14275 105.80045 L 213.25186 105.40070 L 214.99347 106.37402 L 224.69668 109.43304 L 250.92023 116.40273 L 336.89186 136.27770 L 390.27503 147.71696 L 408.79573 152.07477 " fill="none" stroke="rgb(0, 0, 0)" stroke-width="0.62545" stroke-opacity="0.417" id = "10" /><path d="M 216.13795 115.06441 L 217.18291 115.06441 L 235.04677 117.58462 L 281.87450 122.65955 L 320.00534 127.56208 L 364.67290 134.09880 L 380.46996 136.82243 L 428.40587 146.62750 L 458.91055 153.70895 " fill="none" stroke="rgb(0, 0, 0)" stroke-width="0.58071" stroke-opacity="0.387" id = "11" /><path d="M 93.37988 356.69191 L 156.04272 326.93191 L 194.71829 310.59012 L 208.88117 304.05340 L 257.90654 284.44326 " fill="none" stroke="rgb(0, 0, 0)" stroke-width="0.60583" stroke-opacity="0.404" id = "12" /><path d="M 236.73861 290.94045 L 236.68885 268.01521 L 234.48331 235.41789 L 232.84913 199.46595 L 230.12550 154.79840 L 228.49132 107.40721 " fill="none" stroke="rgb(0, 0, 0)" stroke-width="0.57949" stroke-opacity="0.386" id = "13" /><path d="M 232.11093 291.06211 L 231.41429 290.34950 L 231.86213 290.43641 L 241.91366 295.28564 L 263.21096 304.48007 L 315.10280 325.84246 L 342.33912 337.82644 L 401.71429 365.60748 " fill="none" stroke="rgb(0, 0, 0)" stroke-width="0.65204" stroke-opacity="0.435" id = "14" /><path d="M 200.21473 277.90487 L 204.89217 275.14133 L 226.38852 266.15547 L 271.52470 249.58077 L 341.79439 226.15754 L 429.49533 198.92123 " fill="none" stroke="rgb(0, 0, 0)" stroke-width="0.47126" stroke-opacity="0.314" id = "15" /><path d="M 206.23570 272.06493 L 209.76866 274.68943 L 196.23392 269.09282 L 165.30307 255.02804 L 147.87183 246.31242 L 119.54606 231.60481 L 100.48064 220.71028 L 90.67557 215.80774 L 55.26836 195.10814 " fill="none" stroke="rgb(0, 0, 0)" stroke-width="0.49334" stroke-opacity="0.329" id = "16" /><path d="M 219.42211 322.76464 L 215.98867 325.84104 L 216.58579 325.12843 L 244.50118 312.89236 L 277.51669 296.97196 L 321.63952 276.81709 L 397.90120 243.58879 L 410.42991 237.59680 " fill="none" stroke="rgb(0, 0, 0)" stroke-width="0.59095" stroke-opacity="0.394" id = "21" /><path d="M 220.01923 324.74605 L 248.38247 312.87498 L 268.80107 302.96395 L 287.32176 294.79306 L 320.00534 279.54072 L 345.06275 268.64619 L 370.12016 256.66222 L 383.19359 251.21495 L 407.70628 239.23097 " fill="none" stroke="rgb(0, 0, 0)" stroke-width="0.65410" stroke-opacity="0.436" id = "22" /><path d="M 208.82322 273.75086 L 201.06065 275.41942 L 207.67874 273.95943 L 220.06899 269.80543 L 269.89052 250.67023 L 313.46862 234.87316 L 339.61549 225.61282 L 353.77837 221.25501 L 382.64887 211.44993 L 382.63511 211.85793 L 412.06409 201.10013 " fill="none" stroke="rgb(0, 0, 0)" stroke-width="0.66938" stroke-opacity="0.446" id = "23" /><path d="M 367.30901 209.59843 L 366.56261 215.14290 L 365.91573 216.98526 L 365.91573 216.18574 L 370.04581 142.66507 L 370.04581 140.71843 " fill="none" stroke="rgb(0, 0, 0)" stroke-width="0.44575" stroke-opacity="0.297" id = "26" /><path d="M 364.47269 217.59359 L 364.97029 216.79407 L 367.01045 202.48969 L 372.38454 150.29523 L 372.38454 149.30453 L 371.78741 150.53856 " fill="none" stroke="rgb(0, 0, 0)" stroke-width="0.52773" stroke-opacity="0.352" id = "27" /><path d="M 347.10643 214.63885 L 353.47571 169.88336 L 356.11300 154.13638 L 355.21732 155.49208 L 357.85460 152.22450 L 357.15796 154.04948 " fill="none" stroke="rgb(0, 0, 0)" stroke-width="0.54892" stroke-opacity="0.366" id = "28" /><path d="M 79.09874 206.80013 L 75.06818 208.83368 L 85.41827 205.44443 L 166.39252 174.95327 L 175.65287 172.22964 L 222.49933 155.88785 L 241.02003 150.44059 " fill="none" stroke="rgb(0, 0, 0)" stroke-width="0.44044" stroke-opacity="0.294" id = "29" /><path d="M 91.93684 206.20918 L 75.26722 210.58913 L 71.53521 211.23222 L 72.23185 210.84985 L 90.29476 205.73990 L 158.01820 183.35346 L 209.12178 167.74553 L 222.75604 162.11416 L 225.69188 159.87204 " fill="none" stroke="rgb(0, 0, 0)" stroke-width="0.45574" stroke-opacity="0.304" id = "30" /><path d="M 88.20483 255.20558 L 87.25939 255.69224 L 88.25459 255.62272 L 91.68804 254.30178 L 110.29830 246.18496 L 135.52665 234.41817 L 168.31853 219.85309 L 234.10133 192.11337 " fill="none" stroke="rgb(0, 0, 0)" stroke-width="0.39495" stroke-opacity="0.263" id = "33" /><path d="M 95.17124 252.84179 L 95.96740 252.82441 L 98.70421 252.09442 L 110.94518 247.64494 L 167.47261 224.45899 L 195.73632 214.01315 L 209.37058 209.68533 " fill="none" stroke="rgb(0, 0, 0)" stroke-width="0.55558" stroke-opacity="0.370" id = "34" /><path d="M 99.30133 243.21285 L 102.78453 263.79168 L 107.61126 301.26463 L 107.71078 298.51847 " fill="none" stroke="rgb(0, 0, 0)" stroke-width="0.34476" stroke-opacity="0.230" id = "37" /><path d="M 193.39760 342.64825 L 193.14880 341.95302 L 192.05408 320.64419 L 190.76032 275.71489 " fill="none" stroke="rgb(0, 0, 0)" stroke-width="0.39203" stroke-opacity="0.261" id = "39" /><path d="M 194.09424 338.45948 L 194.84064 345.82893 L 193.59664 306.35719 L 193.74592 286.80382 " fill="none" stroke="rgb(0, 0, 0)" stroke-width="0.37380" stroke-opacity="0.249" id = "40" /><path d="M 107.66102 274.02896 L 105.77014 272.41254 L 108.80550 274.49824 L 109.20358 274.53300 L 108.90502 273.95943 L 103.28213 270.23995 L 101.29173 268.39759 L 100.89365 268.46711 L 102.13765 269.89233 L 106.26774 272.53421 L 130.89897 285.74360 L 149.55899 295.12921 L 193.64640 319.09730 " fill="none" stroke="rgb(0, 0, 0)" stroke-width="0.22255" stroke-opacity="0.148" id = "41" /><path d="M 111.64182 283.01482 L 109.85046 281.10293 L 102.38645 278.07868 L 101.39125 277.17488 L 103.63045 277.93963 L 121.34503 288.45500 L 164.03917 311.20643 L 212.80402 335.31356 " fill="none" stroke="rgb(0, 0, 0)" stroke-width="0.44926" stroke-opacity="0.300" id = "42" /><path d="M 105.96918 284.04028 L 105.22277 285.34384 L 105.32229 289.96712 L 104.52613 281.72864 L 97.01236 231.70677 " fill="none" stroke="rgb(0, 0, 0)" stroke-width="0.52903" stroke-opacity="0.353" id = "43" /><path d="M 104.07829 280.82484 L 103.92901 285.91740 L 104.02853 278.54796 L 102.43621 256.94366 " fill="none" stroke="rgb(0, 0, 0)" stroke-width="0.16620" stroke-opacity="0.111" id = "44" /><path d="M 194.54208 324.60701 L 195.48752 330.04719 L 194.74112 314.33497 L 194.89040 291.58354 " fill="none" stroke="rgb(0, 0, 0)" stroke-width="0.65725" stroke-opacity="0.438" id = "48" /><path d="M 190.11344 388.16849 L 191.45696 389.76752 L 177.42462 380.64262 L 134.87977 356.04882 L 123.83304 349.02699 L 116.07047 343.22181 L 113.98055 342.23111 L 114.22935 342.71777 " fill="none" stroke="rgb(0, 0, 0)" stroke-width="0.33437" stroke-opacity="0.223" id = "50" /><path d="M 190.31248 392.67011 L 187.72495 391.12322 L 156.92348 371.62200 L 133.78505 356.20525 L 117.11543 344.17776 " fill="none" stroke="rgb(0, 0, 0)" stroke-width="0.47631" stroke-opacity="0.318" id = "51" /><path d="M 115.37383 359.54236 L 116.26951 359.95950 L 116.26951 355.63169 L 110.09926 317.68946 L 106.61606 289.93236 " fill="none" stroke="rgb(0, 0, 0)" stroke-width="0.40443" stroke-opacity="0.270" id = "53" /><path d="M 200.21473 405.54927 L 200.51329 412.88395 L 199.86641 416.11678 L 199.71713 405.54927 L 192.94976 347.63653 " fill="none" stroke="rgb(0, 0, 0)" stroke-width="0.39597" stroke-opacity="0.264" id = "54" /><path d="M 213.89875 424.77240 L 214.64515 428.24856 " fill="none" stroke="rgb(0, 0, 0)" stroke-width="0.65251" stroke-opacity="0.435" id = "55" /><path d="M 213.89875 424.77240 L 214.64515 428.24856 " fill="none" stroke="rgb(0, 0, 0)" stroke-width="0.65251" stroke-opacity="0.435" id = "56" /><path d="M 239.82374 393.81724 L 229.37412 400.23075 L 234.10133 397.81482 L 274.45674 372.73437 L 329.19280 341.95302 L 345.51410 331.82003 " fill="none" stroke="rgb(0, 0, 0)" stroke-width="0.32212" stroke-opacity="0.215" id = "57" /><path d="M 224.49764 425.27644 L 224.14932 428.89164 L 224.29860 426.18024 L 229.17508 400.38718 L 228.47844 402.26430 L 228.47844 403.39405 L 229.62292 401.82978 " fill="none" stroke="rgb(0, 0, 0)" stroke-width="0.33599" stroke-opacity="0.224" id = "59" /><path d="M 345.26530 346.62844 L 343.62322 350.12198 L 344.71794 346.81963 L 346.06146 340.11066 L 353.82403 295.70278 L 361.13876 260.12434 " fill="none" stroke="rgb(0, 0, 0)" stroke-width="0.42446" stroke-opacity="0.283" id = "60" /><path d="M 359.79524 260.41981 L 359.64596 260.57624 " fill="none" stroke="rgb(0, 0, 0)" stroke-width="0.20611" stroke-opacity="0.137" id = "61" /><path d="M 346.65858 347.91462 L 345.11602 352.32934 L 345.21554 348.41866 L 352.67955 306.91338 L 362.78084 257.15223 L 362.88036 256.16152 L 361.73588 258.45578 " fill="none" stroke="rgb(0, 0, 0)" stroke-width="0.53068" stroke-opacity="0.354" id = "62" /><path d="M 329.93920 340.99707 L 330.88465 341.03184 " fill="none" stroke="rgb(0, 0, 0)" stroke-width="0.24817" stroke-opacity="0.165" id = "63" /><path d="M 332.12865 340.47565 L 331.78033 339.88471 L 331.63105 341.51850 L 331.23297 352.45100 L 331.23297 355.56216 L 331.68081 355.54478 L 331.92961 354.81479 " fill="none" stroke="rgb(0, 0, 0)" stroke-width="0.54295" stroke-opacity="0.362" id = "65" /><path d="M 332.57649 350.66078 L 332.32769 355.51002 L 332.72577 357.36976 L 332.52673 353.37218 L 333.42241 341.81397 L 333.96977 337.13854 L 334.61665 336.39117 " fill="none" stroke="rgb(0, 0, 0)" stroke-width="0.48868" stroke-opacity="0.326" id = "66" /><path d="M 232.80757 400.94336 L 230.31956 401.93406 L 275.55146 372.47365 L 304.46205 356.13573 L 326.00816 344.68180 L 333.42241 339.29376 " fill="none" stroke="rgb(0, 0, 0)" stroke-width="0.79435" stroke-opacity="0.530" id = "67" /><path d="M 233.15589 418.65437 L 230.26980 423.27765 " fill="none" stroke="rgb(0, 0, 0)" stroke-width="0.69357" stroke-opacity="0.462" id = "68" /><path d="M 233.15589 418.65437 L 230.26980 423.27765 " fill="none" stroke="rgb(0, 0, 0)" stroke-width="0.69357" stroke-opacity="0.462" id = "69" /><path d="M 233.15589 418.65437 L 230.26980 423.27765 " fill="none" stroke="rgb(0, 0, 0)" stroke-width="0.69357" stroke-opacity="0.462" id = "70" /><path d="M 241.61510 395.83341 L 233.85253 400.66527 L 240.71942 397.24126 L 269.97833 378.48740 L 294.26124 364.98254 L 313.07054 353.80670 L 326.15744 345.02941 L 330.33729 341.60540 L 330.63585 341.17088 L 329.74016 341.27517 L 333.22337 340.23232 L 333.47217 340.00637 L 332.67601 339.95423 L 331.58129 340.33661 L 331.63105 341.15350 " fill="none" stroke="rgb(0, 0, 0)" stroke-width="0.83838" stroke-opacity="0.559" id = "73" /><path d="M 334.01953 357.50881 L 340.68738 354.55408 " fill="none" stroke="rgb(0, 0, 0)" stroke-width="0.67259" stroke-opacity="0.448" id = "75" /><path d="M 108.35766 355.73597 L 104.92421 353.32004 " fill="none" stroke="rgb(0, 0, 0)" stroke-width="1.06163" stroke-opacity="0.708" id = "79" /><path d="M 108.35766 355.73597 L 104.92421 353.32004 " fill="none" stroke="rgb(0, 0, 0)" stroke-width="1.06163" stroke-opacity="0.708" id = "80" /><path d="M 108.35766 355.73597 L 104.92421 353.32004 " fill="none" stroke="rgb(0, 0, 0)" stroke-width="1.06163" stroke-opacity="0.708" id = "81" /><path d="M 116.56807 359.55974 L 115.92119 360.42878 L 115.77191 359.80307 L 115.82167 348.26224 L 115.47335 342.26587 L 115.22455 346.69797 " fill="none" stroke="rgb(0, 0, 0)" stroke-width="0.80972" stroke-opacity="0.540" id = "82" /><path d="M 115.17479 358.06499 L 114.62743 343.25657 L 115.27431 344.69918 " fill="none" stroke="rgb(0, 0, 0)" stroke-width="0.77605" stroke-opacity="0.517" id = "83" /><path d="M 194.94016 395.95508 L 195.68656 397.36292 L 159.71004 375.18506 L 122.58904 351.11268 L 115.97095 347.35844 L 113.88102 346.68059 L 116.36903 347.72343 " fill="none" stroke="rgb(0, 0, 0)" stroke-width="0.73349" stroke-opacity="0.489" id = "85" /><path d="M 117.66279 345.22060 L 120.30007 346.62844 L 140.05482 359.26427 L 182.45039 384.93567 L 193.49712 392.11393 L 196.98032 393.92153 " fill="none" stroke="rgb(0, 0, 0)" stroke-width="0.84204" stroke-opacity="0.561" id = "86" /><path d="M 105.17301 351.33863 L 104.92421 354.15432 L 102.58549 340.89279 L 95.76836 314.16116 L 92.58372 298.29252 L 92.33492 299.56131 L 92.68324 300.49987 " fill="none" stroke="rgb(0, 0, 0)" stroke-width="0.67291" stroke-opacity="0.449" id = "88" /><path d="M 92.78276 302.34224 L 94.47460 308.40813 " fill="none" stroke="rgb(0, 0, 0)" stroke-width="0.16328" stroke-opacity="0.109" id = "89" /><path d="M 106.11846 352.53791 L 106.56630 357.97809 L 105.96918 355.61430 L 93.23060 299.45703 L 93.23060 301.40367 " fill="none" stroke="rgb(0, 0, 0)" stroke-width="0.82996" stroke-opacity="0.553" id = "90" /><path d="M 215.93891 422.70409 L 214.99347 429.98663 L 215.59059 392.60059 L 214.64515 367.67656 L 214.24707 363.99184 L 213.94851 363.87017 L 213.69970 364.60016 " fill="none" stroke="rgb(0, 0, 0)" stroke-width="0.74936" stroke-opacity="0.500" id = "91" /><path d="M 216.28723 433.81040 L 215.83939 437.18227 L 215.78963 382.11998 L 216.03843 370.28368 L 216.43651 370.40534 L 216.58579 368.99750 L 214.94371 365.13897 " fill="none" stroke="rgb(0, 0, 0)" stroke-width="0.96829" stroke-opacity="0.646" id = "92" /><path d="M 347.80307 344.38633 L 346.90739 347.65391 L 343.42418 353.82408 L 346.11122 343.04801 L 353.52547 307.29576 L 354.42115 302.01200 L 354.52067 296.39801 L 354.91875 294.65993 L 354.71971 295.80706 L 355.21732 294.85112 " fill="none" stroke="rgb(0, 0, 0)" stroke-width="0.84597" stroke-opacity="0.564" id = "93" /><path d="M 213.89875 326.32770 L 213.60018 368.61512 " fill="none" stroke="rgb(0, 0, 0)" stroke-width="0.54904" stroke-opacity="0.366" id = "94" /><path d="M 107.95958 269.80543 L 104.42661 270.76137 L 103.58069 270.81351 L 103.82949 270.50066 L 113.23414 267.66759 L 133.73529 258.61221 L 190.31248 236.38220 L 202.45393 231.22011 L 207.28066 228.49133 " fill="none" stroke="rgb(0, 0, 0)" stroke-width="0.64926" stroke-opacity="0.433" id = "98" /><path d="M 107.95958 273.43801 L 104.37685 273.88991 L 105.47157 274.02896 L 109.65142 272.77754 L 138.41273 260.75005 L 161.55116 252.44204 L 193.24832 241.82238 L 202.75249 237.92909 L 207.18114 235.18293 " fill="none" stroke="rgb(0, 0, 0)" stroke-width="0.61297" stroke-opacity="0.409" id = "99" /><path d="M 200.11521 166.87649 L 201.65777 163.33081 L 202.95153 157.97753 L 213.60018 124.05027 L 216.63555 115.70749 " fill="none" stroke="rgb(0, 0, 0)" stroke-width="0.56222" stroke-opacity="0.375" id = "102" /><path d="M 343.17538 223.08591 L 348.35043 210.38057 L 357.60580 183.24918 L 367.30901 152.50259 " fill="none" stroke="rgb(0, 0, 0)" stroke-width="0.64950" stroke-opacity="0.433" id = "104" /><path d="M 234.74821 112.83967 L 226.88612 110.77135 L 228.77700 110.77135 L 374.67350 148.93953 L 382.18727 150.20833 " fill="none" stroke="rgb(0, 0, 0)" stroke-width="0.66452" stroke-opacity="0.443" id = "106" /><path d="M 216.23747 116.26368 L 214.34659 115.13393 L 226.48804 119.30531 L 311.62750 143.77744 L 363.92533 157.66468 L 372.43430 159.66347 L 375.96726 160.16751 L 374.27542 159.59395 " fill="none" stroke="rgb(0, 0, 0)" stroke-width="0.61621" stroke-opacity="0.411" id = "107" /><path d="M 225.19428 118.21033 L 217.92931 116.94153 L 225.54260 119.54865 L 289.58380 137.88536 L 353.22691 157.24754 L 359.29764 158.96824 L 364.12437 159.81990 " fill="none" stroke="rgb(0, 0, 0)" stroke-width="0.76679" stroke-opacity="0.511" id = "108" /><path d="M 228.57796 114.43870 L 261.86744 122.71195 L 332.72577 142.38698 L 356.36180 148.52239 L 379.15190 153.28473 L 373.23046 150.19095 L 374.57398 150.15619 L 375.27062 150.41690 L 375.22086 150.81666 L 371.14053 151.85950 " fill="none" stroke="rgb(0, 0, 0)" stroke-width="0.76499" stroke-opacity="0.510" id = "109" /><path d="M 364.72149 207.92988 L 363.97509 211.45817 L 363.87557 219.17524 L 369.05061 175.60164 L 372.13574 156.27422 L 371.09077 157.05635 L 372.23526 153.24996 L 371.19029 156.79564 L 370.59317 161.22774 " fill="none" stroke="rgb(0, 0, 0)" stroke-width="0.81695" stroke-opacity="0.545" id = "111" /><path d="M 364.72149 207.92988 L 363.97509 211.45817 L 363.87557 219.17524 L 369.05061 175.60164 L 372.13574 156.27422 L 371.09077 157.05635 L 372.23526 153.24996 L 371.19029 156.79564 L 370.59317 161.22774 " fill="none" stroke="rgb(0, 0, 0)" stroke-width="0.81695" stroke-opacity="0.545" id = "112" /><path d="M 346.06146 214.22172 L 345.51410 215.05599 L 344.46914 222.04306 L 344.31986 220.54832 L 348.84803 203.82801 L 357.25748 175.46259 " fill="none" stroke="rgb(0, 0, 0)" stroke-width="0.84692" stroke-opacity="0.565" id = "113" /><path d="M 346.06146 214.22172 L 345.51410 215.05599 L 344.46914 222.04306 L 344.31986 220.54832 L 348.84803 203.82801 L 357.25748 175.46259 " fill="none" stroke="rgb(0, 0, 0)" stroke-width="0.84692" stroke-opacity="0.565" id = "114" /><path d="M 201.40897 213.66553 L 201.60801 216.25527 L 196.98032 233.11462 L 195.63680 239.77145 " fill="none" stroke="rgb(0, 0, 0)" stroke-width="0.75098" stroke-opacity="0.501" id = "119" /><path d="M 201.40897 213.66553 L 201.60801 216.25527 L 196.98032 233.11462 L 195.63680 239.77145 " fill="none" stroke="rgb(0, 0, 0)" stroke-width="0.75098" stroke-opacity="0.501" id = "120" /><path d="M 201.40897 213.66553 L 201.60801 216.25527 L 196.98032 233.11462 L 195.63680 239.77145 " fill="none" stroke="rgb(0, 0, 0)" stroke-width="0.75098" stroke-opacity="0.501" id = "121" /><path d="M 200.26449 231.60249 L 197.42817 241.26620 L 198.77169 234.81793 L 206.33522 207.39107 " fill="none" stroke="rgb(0, 0, 0)" stroke-width="0.67992" stroke-opacity="0.453" id = "122" /><path d="M 81.58675 207.92988 L 76.01362 210.31104 L 77.75522 208.99010 L 88.35411 205.82680 L 132.98889 189.00221 L 178.71838 172.83810 L 187.17759 169.20551 L 190.66080 167.34577 L 190.90960 167.13720 L 190.46176 167.13720 L 190.71056 167.48482 L 192.75072 167.50220 L 195.73632 166.72006 " fill="none" stroke="rgb(0, 0, 0)" stroke-width="0.89821" stroke-opacity="0.599" id = "123" /><path d="M 79.79538 209.04225 L 77.60594 209.00748 L 72.03281 210.06771 L 89.29956 204.95776 L 135.67593 188.27222 L 165.63149 178.36518 L 188.52111 171.34335 L 192.25312 169.97027 L 191.70576 169.76170 " fill="none" stroke="rgb(0, 0, 0)" stroke-width="0.95350" stroke-opacity="0.636" id = "124" /><path d="M 103.77973 270.15304 L 103.18261 273.03825 L 103.13285 276.75774 L 103.33189 273.73348 L 102.58549 265.61666 L 99.30133 242.46547 L 98.30613 238.81551 " fill="none" stroke="rgb(0, 0, 0)" stroke-width="0.89031" stroke-opacity="0.594" id = "129" /><path d="M 93.03156 308.33860 L 92.33492 299.28322 L 89.24980 277.29654 L 87.30915 258.31674 L 87.01059 257.23913 L 86.66227 258.07341 L 87.15987 257.58674 L 87.20963 256.43961 L 85.66707 253.72821 " fill="none" stroke="rgb(0, 0, 0)" stroke-width="0.97505" stroke-opacity="0.650" id = "132" /><path d="M 236.68885 398.09291 L 232.40949 401.36050 L 231.66309 402.05573 L 232.60853 401.65597 L 252.91063 389.61110 L 276.69594 374.80268 L 316.10591 352.92028 L 321.08191 349.65270 L 321.57951 349.02699 L 321.28095 348.41866 L 331.73057 341.43159 " fill="none" stroke="rgb(0, 0, 0)" stroke-width="0.99547" stroke-opacity="0.664" id = "133" /><path d="M 339.64242 223.71162 L 340.43858 223.76376 " fill="none" stroke="rgb(0, 0, 0)" stroke-width="0.49669" stroke-opacity="0.331" id = "136" /><path d="M 206.78306 273.29896 L 212.40594 271.61303 L 235.34533 261.48004 L 290.97708 240.91858 L 319.24079 229.22132 L 329.59088 224.11138 L 330.58609 223.24234 " fill="none" stroke="rgb(0, 0, 0)" stroke-width="1.00382" stroke-opacity="0.669" id = "137" /><path d="M 222.20868 323.28607 L 221.31299 324.25939 L 221.06419 324.06820 L 234.35013 317.30708 L 267.88841 301.03868 L 347.70355 265.82523 L 370.79221 256.07462 L 389.35272 247.47113 L 390.99480 246.46305 " fill="none" stroke="rgb(0, 0, 0)" stroke-width="1.00460" stroke-opacity="0.670" id = "141" /><path d="M 222.25844 321.84346 L 218.07859 325.02414 L 220.71587 323.09488 L 224.00004 321.46109 L 246.44182 312.63165 L 289.98188 293.53018 L 304.75300 286.62216 L 304.81037 287.16882 L 340.43858 271.85636 L 368.15493 259.16840 L 375.61894 254.84058 L 376.76342 253.86726 L 376.86294 253.53702 " fill="none" stroke="rgb(0, 0, 0)" stroke-width="0.87286" stroke-opacity="0.582" id = "142" /><path d="M 213.74946 333.07144 L 213.74946 325.59771 L 213.35138 328.91744 L 212.10738 368.94536 " fill="none" stroke="rgb(0, 0, 0)" stroke-width="0.90179" stroke-opacity="0.601" id = "143" /><path d="M 207.03186 239.96264 L 201.45873 237.87695 L 198.77169 236.29530 L 198.32385 236.36482 L 200.21473 237.33814 L 204.99169 239.21527 L 227.63252 246.16758 L 253.80631 254.94487 " fill="none" stroke="rgb(0, 0, 0)" stroke-width="0.64858" stroke-opacity="0.432" id = "147" /><path d="M 202.55345 242.13524 L 200.71233 240.77954 L 198.57265 239.89312 L 197.92577 239.80621 L 198.72193 240.31026 L 202.20513 241.54429 L 239.47542 250.61705 L 249.27815 253.25893 L 250.92023 253.93678 L 250.82071 254.26702 " fill="none" stroke="rgb(0, 0, 0)" stroke-width="0.86846" stroke-opacity="0.579" id = "148" /><path d="M 199.96593 239.49336 L 224.64692 246.65424 L 248.68103 254.45821 L 249.42743 254.71892 L 249.27815 255.03177 " fill="none" stroke="rgb(0, 0, 0)" stroke-width="0.77447" stroke-opacity="0.516" id = "149" /><path d="M 198.62241 239.35431 L 194.19376 237.98123 L 196.73152 238.39837 L 221.71107 245.62877 L 250.92023 254.45821 L 254.50295 255.65748 L 251.76615 255.17082 " fill="none" stroke="rgb(0, 0, 0)" stroke-width="0.77181" stroke-opacity="0.515" id = "150" /><path d="M 110.14902 271.17851 L 107.21318 273.42063 L 130.89897 263.09645 L 192.65120 241.10977 " fill="none" stroke="rgb(0, 0, 0)" stroke-width="0.79105" stroke-opacity="0.527" id = "151" /><path d="M 114.57767 269.45781 L 109.00454 270.25733 L 109.90022 270.41376 L 113.63222 269.16234 L 134.03385 259.67244 L 181.10687 240.93596 L 190.71056 236.33006 " fill="none" stroke="rgb(0, 0, 0)" stroke-width="1.02226" stroke-opacity="0.682" id = "152" /><path d="M 114.57767 269.45781 L 109.00454 270.25733 L 109.90022 270.41376 L 113.63222 269.16234 L 134.03385 259.67244 L 181.10687 240.93596 L 190.71056 236.33006 " fill="none" stroke="rgb(0, 0, 0)" stroke-width="1.02226" stroke-opacity="0.682" id = "153" /><path d="M 106.16822 273.78563 L 129.45592 262.66193 L 181.90303 242.53500 L 189.51632 238.95456 L 191.60624 237.40767 L 191.80528 236.64291 " fill="none" stroke="rgb(0, 0, 0)" stroke-width="1.17236" stroke-opacity="0.782" id = "154" /><path d="M 240.52038 115.56845 L 235.34533 115.20345 L 229.77220 111.58825 L 239.02758 114.64727 L 263.06168 121.26934 L 324.91344 136.11252 L 372.68310 148.29644 L 380.79399 150.05190 L 387.90967 150.90356 " fill="none" stroke="rgb(0, 0, 0)" stroke-width="0.82384" stroke-opacity="0.549" id = "156" /><path d="M 230.76741 114.92536 L 229.92148 113.96942 L 237.63429 116.80248 L 272.91418 125.66668 L 359.94452 149.98238 L 368.10517 151.39022 L 368.75205 151.89426 L 370.74245 151.94641 " fill="none" stroke="rgb(0, 0, 0)" stroke-width="1.12718" stroke-opacity="0.751" id = "157" /><path d="M 365.71669 208.59035 L 364.02485 210.65866 L 362.97988 216.02932 L 362.97988 217.41978 L 363.42772 216.77669 L 364.42293 210.74556 L 367.60757 179.04303 L 371.33957 150.59071 " fill="none" stroke="rgb(0, 0, 0)" stroke-width="0.92899" stroke-opacity="0.619" id = "158" /><path d="M 196.98032 385.23114 L 196.68176 390.35847 L 196.93056 395.08604 L 193.89520 367.74608 L 192.10384 341.58802 " fill="none" stroke="rgb(0, 0, 0)" stroke-width="0.63131" stroke-opacity="0.421" id = "163" /><path d="M 327.15264 344.22990 L 332.17841 345.77679 " fill="none" stroke="rgb(0, 0, 0)" stroke-width="0.61217" stroke-opacity="0.408" id = "167" /><path d="M 227.08516 309.65954 L 227.23444 309.15550 L 234.99701 304.41055 L 243.70502 300.15226 L 308.56609 271.36983 L 381.73943 241.52691 " fill="none" stroke="rgb(0, 0, 0)" stroke-width="0.51904" stroke-opacity="0.346" id = "168" /><path d="M 229.97124 306.84386 L 227.48324 319.35801 " fill="none" stroke="rgb(0, 0, 0)" stroke-width="0.62428" stroke-opacity="0.416" id = "169" /><path d="M 238.28117 303.75008 L 229.67268 320.83538 " fill="none" stroke="rgb(0, 0, 0)" stroke-width="0.51188" stroke-opacity="0.341" id = "170" /><path d="M 250.42263 299.87417 L 254.45319 295.65064 " fill="none" stroke="rgb(0, 0, 0)" stroke-width="0.50882" stroke-opacity="0.339" id = "172" /><path d="M 250.42263 299.87417 L 254.45319 295.65064 " fill="none" stroke="rgb(0, 0, 0)" stroke-width="0.50882" stroke-opacity="0.339" id = "173" /><path d="M 261.91720 294.99017 L 266.14681 290.74926 " fill="none" stroke="rgb(0, 0, 0)" stroke-width="0.46621" stroke-opacity="0.311" id = "174" /><path d="M 261.91720 294.99017 L 266.14681 290.74926 " fill="none" stroke="rgb(0, 0, 0)" stroke-width="0.46621" stroke-opacity="0.311" id = "175" /><path d="M 277.14378 289.28927 L 283.61259 283.43195 " fill="none" stroke="rgb(0, 0, 0)" stroke-width="0.53796" stroke-opacity="0.359" id = "177" /><path d="M 277.14378 289.28927 L 283.61259 283.43195 " fill="none" stroke="rgb(0, 0, 0)" stroke-width="0.53796" stroke-opacity="0.359" id = "178" /><path d="M 291.47468 285.44812 L 289.28524 288.55928 " fill="none" stroke="rgb(0, 0, 0)" stroke-width="0.47311" stroke-opacity="0.315" id = "179" /><path d="M 99.74917 230.54226 L 102.58549 230.73345 L 106.31750 230.02084 L 111.99014 228.19586 L 159.85932 207.70393 L 186.72975 197.74474 L 199.51809 193.79931 " fill="none" stroke="rgb(0, 0, 0)" stroke-width="0.45755" stroke-opacity="0.305" id = "180" /><path d="M 113.33366 229.20394 L 103.82949 248.86160 L 101.09269 255.17082 L 100.79413 256.83937 " fill="none" stroke="rgb(0, 0, 0)" stroke-width="0.54513" stroke-opacity="0.363" id = "182" /><path d="M 122.48952 226.75325 L 125.22632 222.54711 L 122.19095 227.46586 L 115.77191 240.97073 L 109.94998 254.77106 L 107.81030 261.77551 " fill="none" stroke="rgb(0, 0, 0)" stroke-width="0.47295" stroke-opacity="0.315" id = "183" /><path d="M 133.03865 233.91413 L 136.91993 227.29206 L 142.69210 218.81024 L 146.37434 214.32600 " fill="none" stroke="rgb(0, 0, 0)" stroke-width="0.30548" stroke-opacity="0.204" id = "186" /><path d="M 133.03865 233.91413 L 136.91993 227.29206 L 142.69210 218.81024 L 146.37434 214.32600 " fill="none" stroke="rgb(0, 0, 0)" stroke-width="0.30548" stroke-opacity="0.204" id = "187" /><path d="M 150.15611 219.00143 L 157.12252 208.83368 " fill="none" stroke="rgb(0, 0, 0)" stroke-width="0.45929" stroke-opacity="0.306" id = "188" /><path d="M 150.15611 219.00143 L 157.12252 208.83368 " fill="none" stroke="rgb(0, 0, 0)" stroke-width="0.45929" stroke-opacity="0.306" id = "189" /><path d="M 162.74540 211.59722 L 170.30893 201.46423 " fill="none" stroke="rgb(0, 0, 0)" stroke-width="0.33419" stroke-opacity="0.223" id = "190" /><path d="M 162.74540 211.59722 L 170.30893 201.46423 " fill="none" stroke="rgb(0, 0, 0)" stroke-width="0.33419" stroke-opacity="0.223" id = "191" /><path d="M 177.67342 212.90078 L 187.07807 199.58711 L 190.51152 195.64167 " fill="none" stroke="rgb(0, 0, 0)" stroke-width="0.42742" stroke-opacity="0.285" id = "194" /><path d="M 177.67342 212.90078 L 187.07807 199.58711 L 190.51152 195.64167 " fill="none" stroke="rgb(0, 0, 0)" stroke-width="0.42742" stroke-opacity="0.285" id = "195" /><path d="M 184.14223 216.51598 L 195.58704 197.72736 L 200.06545 192.75646 " fill="none" stroke="rgb(0, 0, 0)" stroke-width="0.42247" stroke-opacity="0.282" id = "196" /><path d="M 184.14223 216.51598 L 195.58704 197.72736 L 200.06545 192.75646 " fill="none" stroke="rgb(0, 0, 0)" stroke-width="0.42247" stroke-opacity="0.282" id = "197" /><path d="M 202.35441 211.44079 L 205.83762 206.00061 L 206.68354 205.16633 " fill="none" stroke="rgb(0, 0, 0)" stroke-width="0.69059" stroke-opacity="0.460" id = "200" /><path d="M 202.35441 211.44079 L 205.83762 206.00061 L 206.68354 205.16633 " fill="none" stroke="rgb(0, 0, 0)" stroke-width="0.69059" stroke-opacity="0.460" id = "201" /><path d="M 112.13942 286.40407 L 147.36955 303.64579 L 187.57567 324.06820 " fill="none" stroke="rgb(0, 0, 0)" stroke-width="0.55321" stroke-opacity="0.369" id = "202" /><path d="M 110.69638 275.33251 L 126.66936 284.05766 L 149.16091 295.00755 L 185.98335 315.51686 " fill="none" stroke="rgb(0, 0, 0)" stroke-width="0.62642" stroke-opacity="0.418" id = "203" /><path d="M 111.44278 273.49015 L 110.14902 272.51683 L 129.85400 282.91053 L 153.93787 294.78160 L 194.39280 316.21209 L 196.78128 317.27232 L 194.44256 315.53424 " fill="none" stroke="rgb(0, 0, 0)" stroke-width="0.59234" stroke-opacity="0.395" id = "204" /><path d="M 118.30967 290.52331 L 108.10886 284.14457 L 107.06390 283.77957 L 112.63702 287.22096 L 137.96489 300.34345 L 176.32990 321.60013 L 189.41680 327.82245 " fill="none" stroke="rgb(0, 0, 0)" stroke-width="0.74104" stroke-opacity="0.494" id = "205" /><path d="M 115.32407 351.07792 L 122.39000 348.99223 L 120.15079 349.89603 " fill="none" stroke="rgb(0, 0, 0)" stroke-width="0.65762" stroke-opacity="0.438" id = "208" /><path d="M 115.47335 345.82893 L 111.14422 343.83014 L 130.40136 356.51810 L 154.43547 371.53509 L 198.02529 400.80431 " fill="none" stroke="rgb(0, 0, 0)" stroke-width="0.94119" stroke-opacity="0.627" id = "214" /></svg>