<?xml version="1.0" encoding="utf-8" ?>
<svg baseProfile="full" height="512" version="1.1" viewBox="0,0,512,512" width="512" xmlns="http://www.w3.org/2000/svg" xmlns:ev="http://www.w3.org/2001/xml-events" xmlns:xlink="http://www.w3.org/1999/xlink"><defs><style type="text/css"><![CDATA[
	.background { fill: white; }
	.line { stroke: firebrick; stroke-width: .1mm; }
	.blacksquare { fill: indigo; }
	.whitesquare { fill: white; }
]]></style></defs>
<path d="M 243.65313 318.82876 L 244.21262 319.53529 
L 250.36695 323.72938 
L 255.70357 326.81105 
L 286.08789 341.37760 
L 312.68493 352.66706 
L 339.97056 363.68593 
L 349.69699 366.88786 
L 365.44863 370.10483 
" fill="none" stroke="rgb(0, 0, 0)" stroke-width="0.39563" stroke-opacity="0.264" id = "4" /><path d="M 368.63339 374.56950 L 368.37517 373.17147 
L 367.38531 372.25449 
L 367.17013 371.11201 
L 369.27895 368.34602 
" fill="none" stroke="rgb(0, 0, 0)" stroke-width="0.40813" stroke-opacity="0.272" id = "10" /><path d="M 384.16985 172.60703 L 384.42807 171.40442 
L 387.05335 171.41945 
" fill="none" stroke="rgb(0, 0, 0)" stroke-width="0.44039" stroke-opacity="0.294" id = "12" /><path d="M 301.62435 259.58543 L 304.46481 259.54034 
L 303.17369 259.07433 
L 291.08021 258.80374 
L 278.85763 257.21029 
L 266.80719 254.51946 
L 253.63778 250.80642 
L 226.82555 241.44113 
L 177.89217 222.12429 
L 168.59611 218.98248 
L 152.41410 214.23219 
L 150.56349 213.28514 
" fill="none" stroke="rgb(0, 0, 0)" stroke-width="0.31006" stroke-opacity="0.207" id = "14" /><path d="M 214.51689 148.67519 L 213.65615 147.45755 
L 215.16245 149.39675 
L 216.62572 150.55426 
L 223.85598 154.55292 
L 228.80527 156.23657 
L 235.26086 157.70976 
L 252.13147 160.22020 
L 292.93082 164.45938 
L 312.59885 167.13517 
L 331.36311 170.96848 
L 342.72495 174.18545 
" fill="none" stroke="rgb(0, 0, 0)" stroke-width="0.36725" stroke-opacity="0.245" id = "17" /><path d="M 387.61283 184.04681 L 387.13942 183.47557 
L 387.91409 183.38537 
L 387.61283 184.30236 
" fill="none" stroke="rgb(0, 0, 0)" stroke-width="0.58802" stroke-opacity="0.392" id = "18" /><path d="M 140.49277 188.12063 L 139.80417 186.40692 
L 140.53581 184.96379 
" fill="none" stroke="rgb(0, 0, 0)" stroke-width="0.35381" stroke-opacity="0.236" id = "20" /><path d="M 302.44206 256.15801 L 306.18630 255.21096 
L 308.89765 253.51228 
" fill="none" stroke="rgb(0, 0, 0)" stroke-width="0.28124" stroke-opacity="0.187" id = "23" /><path d="M 301.58131 229.17456 L 303.43191 229.02423 
L 304.72303 228.30267 
" fill="none" stroke="rgb(0, 0, 0)" stroke-width="0.32465" stroke-opacity="0.216" id = "24" /><path d="M 305.66985 232.73728 L 304.89518 231.91049 
L 304.76607 233.26342 
L 305.28252 230.36213 
" fill="none" stroke="rgb(0, 0, 0)" stroke-width="0.36225" stroke-opacity="0.242" id = "25" /><path d="M 332.86941 131.88382 L 335.58076 131.55310 
L 337.94781 132.31976 
L 339.49715 133.35701 
L 341.13257 135.94261 
L 341.43383 140.18179 
" fill="none" stroke="rgb(0, 0, 0)" stroke-width="0.39700" stroke-opacity="0.265" id = "30" /><path d="M 299.98893 226.96477 L 299.42945 226.03275 
L 299.68767 226.57393 
L 301.19397 226.82948 
L 307.17616 226.25824 
" fill="none" stroke="rgb(0, 0, 0)" stroke-width="0.40086" stroke-opacity="0.267" id = "31" /><path d="M 298.61174 236.43529 L 300.20412 237.47253 
L 302.14079 237.54770 
L 303.56102 237.14182 
L 305.75593 235.54837 
" fill="none" stroke="rgb(0, 0, 0)" stroke-width="0.43466" stroke-opacity="0.290" id = "32" /><path d="M 372.37764 105.86245 L 373.88394 106.53892 
L 375.82062 108.44805 
L 376.98263 110.32712 
L 377.62818 112.79246 
" fill="none" stroke="rgb(0, 0, 0)" stroke-width="0.48181" stroke-opacity="0.321" id = "33" /><path d="M 372.89408 113.27350 L 374.05609 111.80031 
L 375.26113 111.60489 
" fill="none" stroke="rgb(0, 0, 0)" stroke-width="0.40287" stroke-opacity="0.269" id = "35" /><path d="M 368.93465 101.05203 L 370.69918 99.90956 
L 371.86119 100.72131 
" fill="none" stroke="rgb(0, 0, 0)" stroke-width="0.45611" stroke-opacity="0.304" id = "37" /><path d="M 372.33460 114.40095 L 372.89408 112.86762 
L 374.52950 112.17613 
L 376.55225 112.17613 
L 378.44589 113.40880 
" fill="none" stroke="rgb(0, 0, 0)" stroke-width="0.53997" stroke-opacity="0.360" id = "39" /><path d="M 373.15231 97.72983 L 372.29156 97.00827 
L 373.28142 96.96317 
L 376.03580 98.55663 
L 377.92945 100.36053 
L 379.78005 103.03633 
L 381.24332 106.38859 
L 381.67369 108.34282 
L 382.10406 115.43819 
" fill="none" stroke="rgb(0, 0, 0)" stroke-width="0.57103" stroke-opacity="0.381" id = "43" /><path d="M 142.25730 178.48476 L 141.05225 177.98868 
L 140.14847 176.24491 
" fill="none" stroke="rgb(0, 0, 0)" stroke-width="0.45259" stroke-opacity="0.302" id = "48" /><path d="M 293.96371 248.35611 L 295.42698 253.63254 
L 294.65231 243.87641 
L 294.78142 230.91834 
L 295.94343 223.32689 
L 297.88010 217.38903 
" fill="none" stroke="rgb(0, 0, 0)" stroke-width="0.49007" stroke-opacity="0.327" id = "50" /><path d="M 140.92314 202.29634 L 142.12819 205.07736 
L 142.51552 207.00153 
L 141.00922 195.08071 
L 140.40669 186.63241 
" fill="none" stroke="rgb(0, 0, 0)" stroke-width="0.43348" stroke-opacity="0.289" id = "51" /><path d="M 140.14847 187.39907 L 140.23455 184.19713 
L 142.51552 176.38020 
" fill="none" stroke="rgb(0, 0, 0)" stroke-width="0.47932" stroke-opacity="0.320" id = "52" /><path d="M 179.87188 104.02848 L 182.75538 97.83506 
L 187.57555 90.12336 
L 190.54513 86.54561 
L 192.09447 85.38810 
L 193.60077 84.81686 
" fill="none" stroke="rgb(0, 0, 0)" stroke-width="0.42973" stroke-opacity="0.286" id = "58" /><path d="M 184.08953 94.51287 L 184.86421 93.98673 
L 189.42616 89.79264 
L 192.91218 85.77895 
L 195.70960 84.18550 
L 215.20549 75.40648 
L 230.82802 69.60391 
L 237.28361 66.56733 
" fill="none" stroke="rgb(0, 0, 0)" stroke-width="0.56529" stroke-opacity="0.377" id = "60" /><path d="M 232.07610 67.86013 L 234.09885 67.36406 
L 239.26333 67.63464 
" fill="none" stroke="rgb(0, 0, 0)" stroke-width="0.48364" stroke-opacity="0.322" id = "61" /><path d="M 200.78800 95.73050 L 197.21590 95.56515 
L 195.06404 94.81352 
" fill="none" stroke="rgb(0, 0, 0)" stroke-width="0.21301" stroke-opacity="0.142" id = "64" /><path d="M 195.23619 93.05471 L 193.55774 95.08410 
L 191.19069 99.39845 
" fill="none" stroke="rgb(0, 0, 0)" stroke-width="0.40677" stroke-opacity="0.271" id = "65" /><path d="M 195.23619 93.05471 L 193.55774 95.08410 
L 191.19069 99.39845 
" fill="none" stroke="rgb(0, 0, 0)" stroke-width="0.40677" stroke-opacity="0.271" id = "66" /><path d="M 234.40012 71.30259 L 234.57226 72.29474 
L 235.38997 72.20454 
L 236.20768 71.36272 
" fill="none" stroke="rgb(0, 0, 0)" stroke-width="0.45795" stroke-opacity="0.305" id = "68" /><path d="M 234.74441 71.10717 L 235.34694 69.96469 
L 237.80006 70.08495 
" fill="none" stroke="rgb(0, 0, 0)" stroke-width="0.49910" stroke-opacity="0.333" id = "70" /><path d="M 363.29677 97.32395 L 362.26388 96.88801 
L 362.39299 96.31677 
L 363.46892 97.27886 
" fill="none" stroke="rgb(0, 0, 0)" stroke-width="0.87174" stroke-opacity="0.581" id = "80" /><path d="M 358.17533 96.70762 L 359.07912 97.42918 
L 360.54238 97.50435 
L 359.93986 97.85009 
" fill="none" stroke="rgb(0, 0, 0)" stroke-width="0.72334" stroke-opacity="0.482" id = "85" /><path d="M 230.78498 73.70780 L 231.21536 72.21958 
L 231.43054 73.21172 
L 232.54951 74.88034 
L 233.06596 72.71565 
L 231.81788 73.81303 
" fill="none" stroke="rgb(0, 0, 0)" stroke-width="0.91420" stroke-opacity="0.609" id = "93" /><path d="M 285.87270 219.59882 L 286.90560 219.86940 
L 288.45494 219.01255 
L 288.88531 219.76418 
L 289.83213 220.33541 
L 292.41437 220.86155 
L 291.25236 220.98181 
" fill="none" stroke="rgb(0, 0, 0)" stroke-width="0.85166" stroke-opacity="0.568" id = "97" /><path d="M 139.45987 207.31721 L 139.63202 206.27997 
L 141.48263 209.51197 
" fill="none" stroke="rgb(0, 0, 0)" stroke-width="0.80099" stroke-opacity="0.534" id = "99" /><path d="M 141.48263 209.52700 L 141.09529 210.81980 
L 142.17122 212.89429 
L 144.23701 214.81846 
L 146.38888 215.96094 
" fill="none" stroke="rgb(0, 0, 0)" stroke-width="0.74424" stroke-opacity="0.496" id = "104" /><path d="M 190.11475 369.98457 L 191.40587 370.33032 
L 190.37298 369.62379 
" fill="none" stroke="rgb(0, 0, 0)" stroke-width="0.56772" stroke-opacity="0.378" id = "105" /><path d="M 321.85187 444.35066 L 320.73290 443.25328 
L 322.15313 444.35066 
L 323.18602 444.83170 
L 323.14299 444.56111 
L 321.24935 442.65198 
L 320.99112 442.51668 
L 321.03416 443.20818 
" fill="none" stroke="rgb(0, 0, 0)" stroke-width="0.74646" stroke-opacity="0.498" id = "106" /><path d="M 319.91519 443.43367 L 318.58104 443.83955 
L 309.80143 443.86962 
L 296.02950 442.33629 
L 286.21700 440.26180 
L 278.72851 437.94679 
L 270.42232 434.71478 
L 261.85790 430.73116 
L 249.59228 424.26715 
L 228.15971 411.08360 
L 222.00538 406.70912 
L 216.36749 402.12419 
L 204.44617 391.13539 
L 198.98043 385.40798 
L 188.90971 373.36690 
L 186.45658 369.02249 
L 186.06925 367.47413 
L 186.67177 368.78197 
" fill="none" stroke="rgb(0, 0, 0)" stroke-width="0.50479" stroke-opacity="0.337" id = "109" /><path d="M 324.13284 441.32911 L 317.20384 441.43434 
L 300.16108 439.58533 
L 286.26004 436.90954 
L 275.28553 433.58734 
L 263.70850 429.39326 
L 252.64792 424.73316 
L 241.58734 419.18615 
L 230.35461 412.72215 
L 220.36996 406.03266 
L 214.64600 401.50785 
L 204.66135 392.63864 
L 198.67917 386.62562 
L 194.46152 381.45442 
L 185.89710 367.88001 
L 185.46673 366.81270 
L 185.85406 366.78264 
" fill="none" stroke="rgb(0, 0, 0)" stroke-width="0.54705" stroke-opacity="0.365" id = "110" /><path d="M 319.35571 443.28335 L 318.92533 443.62909 
L 316.34310 444.20033 
L 310.87736 444.26046 
L 298.56870 442.81734 
L 289.05746 440.83304 
L 279.20192 437.84156 
L 272.22988 435.24092 
L 261.21234 430.43050 
L 250.23783 424.89852 
L 232.67862 414.72148 
L 223.55472 408.31761 
L 218.26114 404.03332 
L 201.17533 387.51254 
L 197.21590 382.68709 
L 192.43877 375.44139 
" fill="none" stroke="rgb(0, 0, 0)" stroke-width="0.57708" stroke-opacity="0.385" id = "111" /><path d="M 188.43630 372.17933 L 187.14518 370.54078 
L 186.54266 368.46628 
" fill="none" stroke="rgb(0, 0, 0)" stroke-width="0.53593" stroke-opacity="0.357" id = "112" /><path d="M 324.13284 441.28401 L 323.57336 441.04349 
L 323.70247 440.72781 
L 326.32775 439.43501 
L 327.61886 438.20234 
L 328.00620 437.25529 
L 328.09227 435.12066 
" fill="none" stroke="rgb(0, 0, 0)" stroke-width="0.76011" stroke-opacity="0.507" id = "119" /><path d="M 322.02402 441.10362 L 320.38860 441.61473 
L 323.01388 441.99054 
L 325.76826 440.69774 
L 327.31760 439.45004 
L 331.36311 434.65465 
" fill="none" stroke="rgb(0, 0, 0)" stroke-width="0.89087" stroke-opacity="0.594" id = "124" /><path d="M 377.54211 186.76770 L 376.50921 184.49778 
L 376.38010 183.17492 
" fill="none" stroke="rgb(0, 0, 0)" stroke-width="0.60131" stroke-opacity="0.401" id = "129" /><path d="M 300.07500 259.52530 L 295.81431 258.87890 
L 297.92314 259.75079 
L 304.76607 260.50242 
L 307.34831 260.41222 
L 308.81157 259.57040 
" fill="none" stroke="rgb(0, 0, 0)" stroke-width="0.96143" stroke-opacity="0.641" id = "130" /><path d="M 294.43712 258.12727 L 294.56623 258.54819 
L 295.34090 258.87890 
L 300.16108 259.19459 
L 308.33816 258.35276 
L 310.05965 257.75146 
L 311.00647 256.96977 
" fill="none" stroke="rgb(0, 0, 0)" stroke-width="0.95011" stroke-opacity="0.633" id = "131" /><path d="M 301.66738 259.07433 L 302.44206 259.85602 
L 303.99140 260.15667 
L 306.10022 260.17170 
L 307.86475 259.72073 
L 311.00647 257.76649 
L 314.57857 254.63972 
" fill="none" stroke="rgb(0, 0, 0)" stroke-width="0.80481" stroke-opacity="0.537" id = "132" /><path d="M 380.38257 181.23572 L 381.28635 177.88346 
L 382.87873 177.74816 
" fill="none" stroke="rgb(0, 0, 0)" stroke-width="0.89473" stroke-opacity="0.596" id = "136" /><path d="M 380.38257 181.23572 L 381.28635 177.88346 
L 382.87873 177.74816 
" fill="none" stroke="rgb(0, 0, 0)" stroke-width="0.89473" stroke-opacity="0.596" id = "137" /><path d="M 142.17122 207.99368 L 142.08515 211.37601 
L 142.55856 208.21917 
L 142.51552 204.86691 
L 141.26744 193.81797 
L 139.76114 188.15070 
" fill="none" stroke="rgb(0, 0, 0)" stroke-width="0.94359" stroke-opacity="0.629" id = "138" /><path d="M 319.61393 250.06982 L 318.27977 249.69401 
L 323.22906 248.52147 
" fill="none" stroke="rgb(0, 0, 0)" stroke-width="0.40513" stroke-opacity="0.270" id = "140" /><path d="M 365.53471 89.58219 L 367.72961 89.35670 
L 375.17506 92.94948 
L 378.57500 95.36972 
L 380.12435 97.54944 
" fill="none" stroke="rgb(0, 0, 0)" stroke-width="0.81119" stroke-opacity="0.541" id = "147" /><path d="M 379.60790 93.40046 L 377.84337 92.34818 
L 376.29403 90.60440 
L 374.91684 90.96518 
L 376.42314 91.07041 
L 379.26360 93.95666 
L 380.72687 96.78278 
L 380.42561 98.48146 
" fill="none" stroke="rgb(0, 0, 0)" stroke-width="0.78306" stroke-opacity="0.522" id = "148" /><path d="M 385.33186 158.38622 L 385.20275 168.89398 
L 384.51415 174.17041 
" fill="none" stroke="rgb(0, 0, 0)" stroke-width="0.77482" stroke-opacity="0.517" id = "149" /><path d="M 385.33186 158.38622 L 385.20275 168.89398 
L 384.51415 174.17041 
" fill="none" stroke="rgb(0, 0, 0)" stroke-width="0.77482" stroke-opacity="0.517" id = "150" /><path d="M 383.69644 144.70659 L 383.39518 147.77323 
L 383.61037 135.08575 
L 381.93191 107.50100 
L 380.33953 98.45140 
L 379.47879 96.04619 
L 378.31678 94.76842 
" fill="none" stroke="rgb(0, 0, 0)" stroke-width="0.76642" stroke-opacity="0.511" id = "151" /><path d="M 375.34721 93.79130 L 375.82062 93.15994 
L 378.35982 94.37757 
L 380.16738 96.09128 
L 380.76991 97.69977 
L 381.32939 102.31477 
L 380.76991 114.58134 
" fill="none" stroke="rgb(0, 0, 0)" stroke-width="0.79630" stroke-opacity="0.531" id = "152" /><path d="M 319.74304 441.32911 L 326.02649 442.17094 
L 318.53800 442.17094 
L 305.15340 440.29187 
L 295.77128 438.21737 
L 284.96892 435.12066 
L 272.61722 430.64096 
L 262.89079 426.61223 
L 252.43274 421.93711 
L 241.80253 416.57048 
L 225.70658 407.32546 
L 215.93712 400.50067 
L 202.12215 389.97788 
L 190.88942 379.98123 
L 185.59584 374.07343 
L 182.15286 368.99242 
" fill="none" stroke="rgb(0, 0, 0)" stroke-width="0.82806" stroke-opacity="0.552" id = "153" /><path d="M 323.78855 439.49514 L 322.45439 440.48729 
L 319.57089 441.35918 
L 311.26470 441.84022 
L 306.87490 441.52454 
L 298.43959 440.17160 
L 288.06760 437.66117 
L 276.87791 433.94812 
L 264.39710 428.95731 
L 252.00236 423.27500 
L 240.59748 417.06656 
L 233.02292 412.42149 
L 225.70658 407.26533 
L 215.89408 398.62160 
L 207.76004 389.78246 
L 203.19809 384.20538 
L 194.46152 371.69828 
" fill="none" stroke="rgb(0, 0, 0)" stroke-width="1.00180" stroke-opacity="0.668" id = "154" /><path d="M 321.37846 442.53172 L 319.70000 442.90753 
L 316.42917 442.92256 
L 310.23180 442.18597 
L 300.41930 440.33696 
L 287.63723 437.05986 
L 278.25510 433.94812 
L 267.96919 429.87430 
L 252.43274 422.68873 
L 232.16218 411.57967 
L 218.73455 402.59020 
L 208.53471 394.41248 
L 201.26141 387.91842 
L 196.35516 382.01062 
L 195.10708 379.30476 
" fill="none" stroke="rgb(0, 0, 0)" stroke-width="0.95394" stroke-opacity="0.636" id = "155" /><path d="M 141.39655 184.07687 L 143.89271 197.39572 
L 145.95850 211.57143 
L 147.24962 216.95309 
L 144.88257 203.12313 
L 143.59145 187.59449 
L 143.76360 184.37752 
L 146.90532 173.85473 
" fill="none" stroke="rgb(0, 0, 0)" stroke-width="1.12500" stroke-opacity="0.750" id = "158" /><path d="M 141.56870 189.33827 L 141.65478 187.03829 
L 146.38888 173.02794 
L 158.69754 142.15106 
L 166.96070 124.92374 
L 185.16547 90.95015 
" fill="none" stroke="rgb(0, 0, 0)" stroke-width="0.90437" stroke-opacity="0.603" id = "159" /><path d="M 142.64463 181.43114 L 142.94589 179.80762 
L 153.44699 153.87645 
L 164.52656 128.32333 
L 167.82448 121.72748 
L 174.96563 109.65066 
L 187.01607 90.45407 
" fill="none" stroke="rgb(0, 0, 0)" stroke-width="0.75450" stroke-opacity="0.503" id = "161" /><path d="M 188.26415 87.95867 L 192.74003 85.22274 
L 212.96755 74.65485 
L 227.90149 68.04052 
L 233.96974 66.04119 
L 242.49112 66.47714 
" fill="none" stroke="rgb(0, 0, 0)" stroke-width="1.01805" stroke-opacity="0.679" id = "163" /></svg>