<?xml version="1.0" encoding="utf-8" ?>
<svg baseProfile="full" height="512" version="1.1" viewBox="0,0,512,512" width="512" xmlns="http://www.w3.org/2000/svg" xmlns:ev="http://www.w3.org/2001/xml-events" xmlns:xlink="http://www.w3.org/1999/xlink"><defs><style type="text/css"><![CDATA[
	.background { fill: white; }
	.line { stroke: firebrick; stroke-width: .1mm; }
	.blacksquare { fill: indigo; }
	.whitesquare { fill: white; }
]]></style></defs>
<path d="M 315.31020 452.42314 L 313.71782 454.37738 L 314.19123 454.42247 L 316.68740 451.58132 L 324.43411 439.64547 L 333.68712 423.41030 L 346.81349 398.59154 L 350.77292 389.58703 L 351.37544 387.10666 L 350.77292 388.21907 " fill="none" stroke="rgb(0, 0, 0)" stroke-width="0.35126" stroke-opacity="0.234" id = "1" /><path d="M 170.27457 378.67339 L 171.56569 380.68776 L 173.88970 383.06290 L 179.01114 386.80601 L 217.40039 409.49015 L 242.70631 422.43318 L 274.51086 439.26965 L 290.52073 448.15390 L 294.99661 450.30355 L 300.37627 452.13752 " fill="none" stroke="rgb(0, 0, 0)" stroke-width="0.31384" stroke-opacity="0.209" id = "2" /><path d="M 175.65423 376.46361 L 179.65669 374.59957 L 183.65916 372.11920 L 189.29705 367.69962 L 209.28406 349.75520 L 206.08158 352.95268 L 233.53937 326.43524 L 239.90889 320.91829 L 242.79238 318.93399 L 244.51388 318.34772 " fill="none" stroke="rgb(0, 0, 0)" stroke-width="0.34992" stroke-opacity="0.233" id = "3" /><path d="M 178.92506 378.56816 L 177.41876 374.13356 L 165.45439 321.76011 L 155.10393 269.19169 L 155.51278 269.53699 L 143.76360 197.26043 " fill="none" stroke="rgb(0, 0, 0)" stroke-width="0.38171" stroke-opacity="0.254" id = "5" /><path d="M 310.57610 451.56629 L 310.70521 448.06370 L 308.85461 416.85610 L 307.30527 368.91726 L 306.22934 300.45897 L 305.92808 235.72876 L 305.54074 225.37132 " fill="none" stroke="rgb(0, 0, 0)" stroke-width="0.32821" stroke-opacity="0.219" id = "6" /><path d="M 365.92204 375.32113 L 366.52457 372.70546 L 367.17013 366.33166 L 371.12955 297.10671 L 374.57254 250.56590 L 376.42314 228.57326 L 380.16738 192.91602 L 381.07117 180.10828 L 381.37243 169.42012 L 380.68383 165.81231 " fill="none" stroke="rgb(0, 0, 0)" stroke-width="0.38497" stroke-opacity="0.257" id = "7" /><path d="M 240.59748 315.46147 L 240.72660 315.13075 L 239.43548 311.37261 L 237.71399 304.02169 L 231.47358 267.01152 L 218.99277 168.33778 L 214.55993 144.34581 L 212.10680 137.14521 L 211.03087 135.71712 " fill="none" stroke="rgb(0, 0, 0)" stroke-width="0.34198" stroke-opacity="0.228" id = "8" /><path d="M 311.43685 458.34597 L 311.26470 458.97734 L 311.95329 458.48127 L 316.94562 453.03948 L 328.52265 438.17227 L 333.94534 430.62593 L 362.13476 387.58770 L 367.94480 377.63615 L 369.45110 374.52440 L 369.40806 374.25382 L 368.71947 374.61460 " fill="none" stroke="rgb(0, 0, 0)" stroke-width="0.29381" stroke-opacity="0.196" id = "9" /><path d="M 305.49770 262.15600 L 316.17095 250.76132 L 353.95768 206.41526 L 376.85351 180.69455 L 382.74962 174.56126 " fill="none" stroke="rgb(0, 0, 0)" stroke-width="0.35793" stroke-opacity="0.239" id = "11" /><path d="M 304.85214 261.29915 L 307.99386 259.78086 L 312.72797 255.72206 L 320.21645 248.11559 L 357.21940 206.53118 L 362.09173 201.84536 L 392.51908 168.98418 " fill="none" stroke="rgb(0, 0, 0)" stroke-width="0.37403" stroke-opacity="0.249" id = "13" /><path d="M 142.47248 208.95576 L 158.69754 211.76685 L 171.39354 214.87859 L 185.07939 219.25307 L 220.41300 231.54970 L 240.81267 238.10390 L 268.87298 246.08619 L 289.10050 250.94171 " fill="none" stroke="rgb(0, 0, 0)" stroke-width="0.27448" stroke-opacity="0.183" id = "15" /><path d="M 147.42177 205.46821 L 147.85214 204.97213 L 155.98619 199.04930 L 186.97303 174.75668 L 226.39518 146.45037 " fill="none" stroke="rgb(0, 0, 0)" stroke-width="0.34278" stroke-opacity="0.229" id = "16" /><path d="M 142.81678 209.60216 L 138.51305 188.75200 " fill="none" stroke="rgb(0, 0, 0)" stroke-width="0.39461" stroke-opacity="0.263" id = "19" /><path d="M 297.19151 234.34576 L 296.76113 233.59413 L 298.65477 250.09989 L 300.11804 259.64556 " fill="none" stroke="rgb(0, 0, 0)" stroke-width="0.40483" stroke-opacity="0.270" id = "21" /><path d="M 306.48756 236.64574 L 306.48756 238.10390 L 308.46727 254.09855 " fill="none" stroke="rgb(0, 0, 0)" stroke-width="0.37987" stroke-opacity="0.253" id = "22" /><path d="M 306.87490 221.49292 L 305.75593 224.75499 L 308.07994 219.70405 L 314.44946 203.27345 L 323.61640 181.31088 L 344.57555 132.57531 " fill="none" stroke="rgb(0, 0, 0)" stroke-width="0.34876" stroke-opacity="0.233" id = "26" /><path d="M 336.87188 137.88181 L 350.47166 127.34398 L 367.04101 112.59704 " fill="none" stroke="rgb(0, 0, 0)" stroke-width="0.31591" stroke-opacity="0.211" id = "27" /><path d="M 382.44836 122.92441 L 382.74962 120.75972 L 382.92177 120.27868 L 383.05088 120.54926 L 383.65340 143.47392 L 383.13696 188.64677 " fill="none" stroke="rgb(0, 0, 0)" stroke-width="0.31749" stroke-opacity="0.212" id = "28" /><path d="M 294.69534 230.88827 L 294.95357 229.11443 L 313.28745 175.73380 L 326.41382 143.32360 L 330.88970 134.19883 L 332.69726 131.58316 " fill="none" stroke="rgb(0, 0, 0)" stroke-width="0.32385" stroke-opacity="0.216" id = "29" /><path d="M 342.72495 138.28769 L 341.90724 140.58767 L 341.08953 141.77524 L 340.01360 142.34648 L 341.82117 140.33212 L 358.08926 123.81133 L 371.99030 108.98922 " fill="none" stroke="rgb(0, 0, 0)" stroke-width="0.44817" stroke-opacity="0.299" id = "34" /><path d="M 333.38586 127.41914 L 333.04156 128.27600 L 333.55801 127.97535 L 339.71234 123.70610 L 352.70960 112.88266 L 368.03087 101.09713 " fill="none" stroke="rgb(0, 0, 0)" stroke-width="0.42768" stroke-opacity="0.285" id = "36" /><path d="M 339.84145 146.48043 L 342.50976 142.78242 L 350.68685 134.34916 L 367.51442 119.52705 L 374.48646 112.86762 L 371.90423 114.98722 " fill="none" stroke="rgb(0, 0, 0)" stroke-width="0.43607" stroke-opacity="0.291" id = "38" /><path d="M 381.24332 166.98485 L 380.89902 174.12532 L 381.28635 156.83787 L 380.68383 135.83738 L 380.68383 124.18714 L 381.24332 112.11600 " fill="none" stroke="rgb(0, 0, 0)" stroke-width="0.43425" stroke-opacity="0.289" id = "40" /><path d="M 379.22056 113.28854 L 378.61804 112.73233 L 378.48893 113.10815 L 378.79019 137.22038 L 378.27374 162.64044 " fill="none" stroke="rgb(0, 0, 0)" stroke-width="0.38220" stroke-opacity="0.255" id = "41" /><path d="M 384.55719 158.71694 L 384.51415 165.81231 L 383.82555 172.09592 L 384.04074 151.60654 L 383.56733 110.43235 L 383.00784 107.12519 " fill="none" stroke="rgb(0, 0, 0)" stroke-width="0.46596" stroke-opacity="0.311" id = "42" /><path d="M 305.41163 263.56906 L 300.89271 262.96776 L 278.68548 257.46584 L 120.22221 210.56425 L 116.65012 209.91785 " fill="none" stroke="rgb(0, 0, 0)" stroke-width="0.50629" stroke-opacity="0.338" id = "44" /><path d="M 308.59639 262.54685 L 306.96097 262.72724 L 295.85735 260.09654 L 279.89052 255.69200 L 209.75520 234.32794 L 202.21709 231.50115 L 187.23126 226.99484 L 173.00693 222.07852 L 173.20110 222.42494 L 146.25976 213.72109 L 130.46508 209.33158 " fill="none" stroke="rgb(0, 0, 0)" stroke-width="0.41337" stroke-opacity="0.276" id = "45" /><path d="M 300.54842 233.84969 L 298.52566 233.66930 L 284.83981 229.24972 L 222.94688 211.71363 L 208.83597 208.17407 L 193.73672 203.70439 L 142.60160 190.07486 L 130.93849 187.33894 L 124.78416 186.37685 L 122.63230 186.49711 " fill="none" stroke="rgb(0, 0, 0)" stroke-width="0.33075" stroke-opacity="0.220" id = "46" /><path d="M 296.07254 224.10859 L 295.47002 224.03342 L 234.35708 205.81396 L 195.40834 193.17157 L 155.21152 179.52201 L 150.86475 178.37953 L 147.12051 177.88346 " fill="none" stroke="rgb(0, 0, 0)" stroke-width="0.38302" stroke-opacity="0.255" id = "47" /><path d="M 306.44452 253.42208 L 306.83186 253.99332 L 307.34831 234.46602 L 308.55335 221.65828 " fill="none" stroke="rgb(0, 0, 0)" stroke-width="0.36200" stroke-opacity="0.241" id = "49" /><path d="M 140.62188 186.18143 L 146.34584 170.75802 L 155.29759 148.76538 L 169.23788 117.48730 L 173.00693 110.89145 " fill="none" stroke="rgb(0, 0, 0)" stroke-width="0.37950" stroke-opacity="0.253" id = "53" /><path d="M 190.71728 93.08477 L 191.62106 93.02464 L 252.94918 105.14089 L 274.59694 110.44738 L 310.70521 120.66952 " fill="none" stroke="rgb(0, 0, 0)" stroke-width="0.42146" stroke-opacity="0.281" id = "54" /><path d="M 212.53718 64.32748 L 214.68904 64.43271 L 226.13696 66.80785 L 281.36721 75.55658 L 274.20960 74.54962 L 321.88453 83.56582 L 348.73903 89.21940 L 394.43880 100.05543 " fill="none" stroke="rgb(0, 0, 0)" stroke-width="0.40333" stroke-opacity="0.269" id = "55" /><path d="M 185.72495 91.98740 L 184.77813 92.06256 L 184.90724 91.83707 L 192.22358 87.49266 L 214.43082 76.71431 L 234.25404 67.54734 L 251.68591 60.95150 L 271.00231 52.47113 " fill="none" stroke="rgb(0, 0, 0)" stroke-width="0.39358" stroke-opacity="0.262" id = "56" /><path d="M 147.29266 176.15471 L 144.62435 180.13834 L 141.13833 187.12848 L 161.83926 135.85241 L 169.54293 120.33881 L 179.31240 103.24678 " fill="none" stroke="rgb(0, 0, 0)" stroke-width="0.50444" stroke-opacity="0.336" id = "57" /><path d="M 144.23701 173.47892 L 141.56870 181.38604 L 142.73071 178.54489 L 149.87490 164.97049 L 160.16081 143.00791 L 166.87462 130.12501 L 189.59831 90.34885 L 191.10461 89.16127 L 192.99825 85.77895 " fill="none" stroke="rgb(0, 0, 0)" stroke-width="0.43991" stroke-opacity="0.293" id = "59" /><path d="M 229.88120 66.73269 L 233.06596 66.86798 L 288.62709 76.74438 L 325.51004 82.69727 L 367.29924 90.85995 " fill="none" stroke="rgb(0, 0, 0)" stroke-width="0.54492" stroke-opacity="0.363" id = "62" /><path d="M 369.92451 93.14490 L 372.03334 95.12920 " fill="none" stroke="rgb(0, 0, 0)" stroke-width="0.48294" stroke-opacity="0.322" id = "63" /><path d="M 202.55253 85.97437 L 199.62599 88.40965 L 197.00072 88.86062 L 209.22331 83.53910 L 227.04074 74.12871 L 238.18740 69.78430 " fill="none" stroke="rgb(0, 0, 0)" stroke-width="0.39295" stroke-opacity="0.262" id = "67" /><path d="M 200.96015 88.87565 L 226.86859 75.78229 L 231.25839 73.69277 L 237.06843 71.61827 " fill="none" stroke="rgb(0, 0, 0)" stroke-width="0.47011" stroke-opacity="0.313" id = "69" /><path d="M 154.65203 176.57562 L 153.57610 177.95862 L 153.44699 178.83051 L 154.26470 177.44751 L 156.37353 173.10310 L 169.88723 141.03865 L 184.82117 107.42584 L 191.31980 94.55796 L 194.67671 88.87565 L 195.23619 88.45474 " fill="none" stroke="rgb(0, 0, 0)" stroke-width="0.41402" stroke-opacity="0.276" id = "71" /><path d="M 159.73043 170.18678 L 156.24441 176.01942 L 165.23921 157.79995 L 186.49962 110.71797 L 193.17040 97.44422 L 199.45384 85.82404 L 200.01333 85.05738 L 199.97029 85.44823 L 198.24880 88.55997 " fill="none" stroke="rgb(0, 0, 0)" stroke-width="0.46551" stroke-opacity="0.310" id = "72" /><path d="M 152.24195 178.86057 L 182.19589 112.79246 L 188.82364 98.97754 L 192.43877 92.64883 " fill="none" stroke="rgb(0, 0, 0)" stroke-width="0.58824" stroke-opacity="0.392" id = "73" /><path d="M 291.20933 218.86222 L 291.20933 218.29098 L 291.51059 217.38903 L 300.54842 195.00555 L 312.29759 163.16658 L 324.71132 133.50577 L 323.05691 137.58116 L 329.25428 125.35968 " fill="none" stroke="rgb(0, 0, 0)" stroke-width="0.39285" stroke-opacity="0.262" id = "74" /><path d="M 297.19151 222.12429 L 295.81431 224.75499 L 295.85735 223.58245 L 315.22413 172.50180 L 324.99359 151.02027 L 329.77073 141.45956 L 334.07446 133.80798 " fill="none" stroke="rgb(0, 0, 0)" stroke-width="0.43784" stroke-opacity="0.292" id = "75" /><path d="M 294.95357 217.44916 L 293.49030 219.52365 L 292.75867 221.47789 L 292.75867 221.95893 L 293.44726 220.77136 L 295.59913 215.96094 L 312.51278 165.97767 L 320.64683 145.48828 L 325.94041 133.29688 L 327.44672 129.22305 L 327.70494 127.46424 L 329.51250 126.20151 L 329.42643 125.70543 L 332.22385 121.01527 " fill="none" stroke="rgb(0, 0, 0)" stroke-width="0.69381" stroke-opacity="0.463" id = "76" /><path d="M 331.49222 121.67671 L 327.44672 129.49364 " fill="none" stroke="rgb(0, 0, 0)" stroke-width="0.63481" stroke-opacity="0.423" id = "77" /><path d="M 331.49222 121.67671 L 327.44672 129.49364 " fill="none" stroke="rgb(0, 0, 0)" stroke-width="0.63481" stroke-opacity="0.423" id = "78" /><path d="M 336.01113 117.90353 L 329.85680 122.17278 L 333.90231 119.64731 L 346.21097 109.53040 L 364.15752 96.99324 L 362.65121 97.63964 " fill="none" stroke="rgb(0, 0, 0)" stroke-width="0.62619" stroke-opacity="0.417" id = "79" /><path d="M 231.04321 73.37708 L 232.46344 73.24179 L 238.10132 74.74505 L 254.71371 77.70646 L 292.71563 83.35870 L 311.95329 86.74103 L 339.06678 92.10766 L 360.92972 97.53441 " fill="none" stroke="rgb(0, 0, 0)" stroke-width="0.45417" stroke-opacity="0.303" id = "81" /><path d="M 232.24825 73.97839 L 229.66601 72.47513 L 229.10653 72.50519 L 230.52676 72.91107 L 254.97194 77.60123 L 334.97824 92.28805 L 353.18301 96.15142 L 354.21590 96.27168 L 353.87161 95.67037 L 361.83350 98.27101 " fill="none" stroke="rgb(0, 0, 0)" stroke-width="0.70125" stroke-opacity="0.467" id = "82" /><path d="M 240.08104 73.15159 L 236.25072 72.76075 L 229.75209 71.25749 L 232.29129 72.41500 L 234.48619 72.94114 L 260.26552 77.25548 L 275.24249 79.32564 L 269.94891 78.80384 L 299.90286 83.96001 L 341.26168 92.01746 L 362.00565 96.90304 L 360.75757 96.24161 L 361.40313 96.25664 L 361.40313 96.55729 L 361.53224 96.10632 L 361.74743 95.95599 L 361.74743 96.25664 " fill="none" stroke="rgb(0, 0, 0)" stroke-width="0.75807" stroke-opacity="0.505" id = "83" /><path d="M 232.42040 74.63982 L 231.81788 74.60975 L 231.81788 74.17381 L 236.37983 75.72216 L 243.00757 77.09013 L 298.05225 84.29072 L 330.97577 89.11618 L 363.03855 94.82855 L 359.50949 93.67104 " fill="none" stroke="rgb(0, 0, 0)" stroke-width="0.49620" stroke-opacity="0.331" id = "84" /><path d="M 157.06212 174.63642 L 153.79129 179.14619 L 158.95576 165.27114 L 165.19617 150.10328 L 189.85653 96.85795 L 191.87928 93.28020 L 192.18054 93.28020 " fill="none" stroke="rgb(0, 0, 0)" stroke-width="0.79269" stroke-opacity="0.528" id = "86" /><path d="M 160.24688 172.84755 L 157.66464 178.09391 L 166.31514 155.99605 L 176.98838 131.16225 L 186.32747 111.15391 L 198.42095 88.77043 " fill="none" stroke="rgb(0, 0, 0)" stroke-width="0.63859" stroke-opacity="0.426" id = "87" /><path d="M 158.78361 177.52268 L 158.18109 178.34947 L 158.69754 176.47040 L 169.02649 151.75686 L 187.31733 111.81535 L 193.60077 98.93244 L 195.58049 96.51220 L 196.18301 95.09914 L 200.01333 90.72466 " fill="none" stroke="rgb(0, 0, 0)" stroke-width="0.68824" stroke-opacity="0.459" id = "88" /><path d="M 200.22851 92.91941 L 195.96782 96.82788 " fill="none" stroke="rgb(0, 0, 0)" stroke-width="0.61758" stroke-opacity="0.412" id = "89" /><path d="M 200.22851 92.91941 L 195.96782 96.82788 " fill="none" stroke="rgb(0, 0, 0)" stroke-width="0.61758" stroke-opacity="0.412" id = "90" /><path d="M 200.52978 93.00961 L 199.92725 92.67889 L 200.70192 92.19785 L 205.82336 89.89787 L 216.97002 84.03517 L 234.48619 74.33917 " fill="none" stroke="rgb(0, 0, 0)" stroke-width="0.68756" stroke-opacity="0.458" id = "91" /><path d="M 197.00072 93.03967 L 195.10708 94.04686 L 195.49441 93.50568 L 220.36996 80.68291 L 230.61283 74.54962 L 230.78498 73.99342 " fill="none" stroke="rgb(0, 0, 0)" stroke-width="0.74752" stroke-opacity="0.498" id = "92" /><path d="M 192.69699 91.46126 L 193.68685 90.81486 L 206.51196 85.14758 L 216.35104 80.26790 L 213.26881 82.00577 L 227.16985 75.13589 L 232.29129 73.12153 L 229.66601 73.90322 " fill="none" stroke="rgb(0, 0, 0)" stroke-width="0.76600" stroke-opacity="0.511" id = "94" /><path d="M 152.11284 182.21283 L 166.61640 187.36900 L 210.64354 199.00421 L 239.30637 207.39238 L 270.03498 217.65962 L 293.44726 226.03275 " fill="none" stroke="rgb(0, 0, 0)" stroke-width="0.67604" stroke-opacity="0.451" id = "95" /><path d="M 162.65697 186.06117 L 151.51031 182.36316 L 152.84447 182.39323 L 167.04677 187.98534 L 187.18822 193.72778 L 263.79458 213.72109 L 285.74359 219.10274 L 283.54869 217.91517 " fill="none" stroke="rgb(0, 0, 0)" stroke-width="0.69656" stroke-opacity="0.464" id = "96" /><path d="M 170.40368 185.00889 L 164.89491 183.65596 L 157.57857 180.22854 L 160.16081 181.91218 L 166.14299 184.51282 L 184.30472 190.69120 L 261.77183 211.42110 L 281.56897 217.43413 L 287.37901 219.67398 L 287.93849 220.06483 L 287.33597 220.07986 L 286.08789 219.11778 " fill="none" stroke="rgb(0, 0, 0)" stroke-width="0.66526" stroke-opacity="0.444" id = "98" /><path d="M 146.00154 213.55573 L 142.34337 212.84920 L 147.89518 215.54003 L 157.19123 218.69686 L 217.65861 235.26275 L 301.19397 260.72791 " fill="none" stroke="rgb(0, 0, 0)" stroke-width="0.70769" stroke-opacity="0.472" id = "101" /><path d="M 146.51799 213.11978 L 149.65971 214.65310 L 161.19370 218.74196 L 206.85626 231.30918 L 238.49423 240.45266 L 307.69260 262.39652 " fill="none" stroke="rgb(0, 0, 0)" stroke-width="0.73963" stroke-opacity="0.493" id = "102" /><path d="M 141.56870 209.99301 L 143.37627 212.96946 " fill="none" stroke="rgb(0, 0, 0)" stroke-width="0.78820" stroke-opacity="0.525" id = "103" /><path d="M 240.98482 415.38291 L 240.59748 420.32862 L 239.73674 412.51169 L 237.49880 399.73401 L 225.77367 337.03464 L 226.22303 337.34888 L 221.10160 306.72755 L 216.10927 272.78402 " fill="none" stroke="rgb(0, 0, 0)" stroke-width="0.42872" stroke-opacity="0.286" id = "107" /><path d="M 211.76251 238.23919 L 211.93465 237.95358 " fill="none" stroke="rgb(0, 0, 0)" stroke-width="0.22543" stroke-opacity="0.150" id = "108" /><path d="M 187.74770 367.72969 L 190.84639 375.83224 L 185.81103 353.31346 L 177.28964 319.20458 L 169.23788 290.39261 L 169.62901 290.61264 L 161.53800 257.28545 L 159.42917 246.79272 L 156.41656 228.49809 " fill="none" stroke="rgb(0, 0, 0)" stroke-width="0.55341" stroke-opacity="0.369" id = "113" /><path d="M 154.99633 217.52432 L 154.17862 214.53284 " fill="none" stroke="rgb(0, 0, 0)" stroke-width="0.08467" stroke-opacity="0.056" id = "114" /><path d="M 188.90971 372.26952 L 188.56541 373.05121 L 188.26415 372.47998 L 185.38065 356.63566 L 177.37572 321.03855 L 162.14052 258.99916 L 153.70521 221.43279 L 153.53307 222.36481 " fill="none" stroke="rgb(0, 0, 0)" stroke-width="0.53751" stroke-opacity="0.358" id = "115" /><path d="M 181.93767 325.99929 L 186.67177 348.56317 " fill="none" stroke="rgb(0, 0, 0)" stroke-width="0.15775" stroke-opacity="0.105" id = "116" /><path d="M 189.81349 370.93162 L 189.38312 369.75908 L 187.14518 356.62062 L 184.69206 344.92529 L 169.23788 276.72979 L 169.58597 277.18856 L 162.95823 244.31235 L 161.10763 231.24905 L 160.28992 222.09422 " fill="none" stroke="rgb(0, 0, 0)" stroke-width="0.67518" stroke-opacity="0.450" id = "117" /><path d="M 189.72742 374.52440 L 189.46919 373.98323 L 181.59337 338.68678 L 167.73537 271.76181 L 163.43164 248.40121 L 161.32281 233.92485 L 161.06459 232.81244 L 160.72029 232.97780 L 160.67725 227.82163 " fill="none" stroke="rgb(0, 0, 0)" stroke-width="0.80402" stroke-opacity="0.536" id = "118" /><path d="M 324.17588 436.23307 L 322.71261 439.13436 L 322.36832 440.60755 L 323.14299 438.09711 L 323.44425 434.53439 L 323.31514 420.11817 L 320.90505 376.01263 L 318.58661 342.21709 L 319.05445 342.59524 L 317.64434 325.25635 L 318.15066 325.54832 L 315.13805 254.56456 " fill="none" stroke="rgb(0, 0, 0)" stroke-width="0.53575" stroke-opacity="0.357" id = "120" /><path d="M 328.60872 432.32461 L 329.03909 437.82653 L 328.39354 437.69123 L 328.86695 428.79196 L 328.82391 415.48814 L 326.84419 360.48399 L 326.12471 316.77598 L 326.32775 325.68361 L 326.12471 293.69053 L 326.32775 301.27073 L 326.62901 269.85267 L 326.15560 235.66863 " fill="none" stroke="rgb(0, 0, 0)" stroke-width="0.51541" stroke-opacity="0.344" id = "121" /><path d="M 328.39354 434.27884 L 328.65176 434.95531 L 328.86695 434.72982 L 329.12517 411.71496 L 326.58597 304.90861 L 325.81130 253.54234 " fill="none" stroke="rgb(0, 0, 0)" stroke-width="0.40571" stroke-opacity="0.270" id = "122" /><path d="M 320.64683 439.54024 L 320.43164 439.22455 L 320.68986 409.21956 L 320.00000 350.22633 L 320.00000 319.60277 L 319.52887 308.76674 L 319.52887 278.14319 " fill="none" stroke="rgb(0, 0, 0)" stroke-width="0.52069" stroke-opacity="0.347" id = "123" /><path d="M 328.86695 438.69841 L 327.18849 439.99121 L 328.43657 439.35985 L 330.80362 436.99973 L 335.19343 431.06187 L 344.44644 415.29271 L 362.95247 385.24262 L 374.52950 364.97873 " fill="none" stroke="rgb(0, 0, 0)" stroke-width="0.91022" stroke-opacity="0.607" id = "125" /><path d="M 330.58844 436.54876 L 327.44672 441.19382 L 330.54540 437.64613 L 335.92506 430.17495 L 365.01826 383.58904 L 370.09666 374.71983 L 370.31185 374.01330 L 370.05362 373.99827 " fill="none" stroke="rgb(0, 0, 0)" stroke-width="0.95869" stroke-opacity="0.639" id = "126" /><path d="M 366.78279 380.07142 L 366.35242 379.54528 L 366.35242 374.77996 L 368.24606 347.18017 L 368.99769 326.66975 L 368.93465 334.35740 L 372.29156 252.62536 L 374.57254 218.50144 L 377.19781 194.25392 " fill="none" stroke="rgb(0, 0, 0)" stroke-width="0.83412" stroke-opacity="0.556" id = "127" /><path d="M 366.26634 378.82372 L 366.73975 379.60541 L 367.12709 378.59823 L 373.79787 248.31101 L 378.10159 186.37685 L 377.97248 185.15922 L 377.54211 186.84286 " fill="none" stroke="rgb(0, 0, 0)" stroke-width="0.85632" stroke-opacity="0.571" id = "128" /><path d="M 313.20138 254.17371 L 311.52292 254.80508 L 307.73564 258.54819 L 314.83679 252.08418 L 326.11256 240.40388 L 342.72495 221.92886 L 351.09469 211.71363 L 360.98845 201.34873 L 375.12240 185.33025 L 375.26113 185.76052 L 391.91656 167.66131 " fill="none" stroke="rgb(0, 0, 0)" stroke-width="0.86435" stroke-opacity="0.576" id = "133" /><path d="M 311.60900 255.52664 L 317.93548 249.27310 L 352.58049 209.43681 L 375.00291 185.20431 " fill="none" stroke="rgb(0, 0, 0)" stroke-width="0.87205" stroke-opacity="0.581" id = "134" /><path d="M 376.55225 184.18210 L 378.40286 182.78407 " fill="none" stroke="rgb(0, 0, 0)" stroke-width="0.13429" stroke-opacity="0.090" id = "135" /><path d="M 321.03416 443.13302 L 320.77594 442.20100 L 320.38860 436.12785 L 320.90505 403.62745 L 320.99112 366.15127 L 319.44178 258.96910 " fill="none" stroke="rgb(0, 0, 0)" stroke-width="0.63908" stroke-opacity="0.426" id = "139" /><path d="M 322.15313 243.16988 L 324.39107 242.91432 " fill="none" stroke="rgb(0, 0, 0)" stroke-width="0.38390" stroke-opacity="0.256" id = "141" /><path d="M 363.89929 370.25516 L 363.81322 379.50018 L 363.08158 382.82238 L 366.69671 334.83844 L 368.52656 298.87298 L 369.93995 280.02771 L 370.88222 271.07621 L 371.17259 271.16051 L 372.76674 253.17321 L 374.65861 237.48757 L 378.57500 209.39171 " fill="none" stroke="rgb(0, 0, 0)" stroke-width="0.67717" stroke-opacity="0.451" id = "142" /><path d="M 237.49880 68.32614 L 234.78745 67.49935 L 229.57994 67.01831 L 233.45329 67.21373 L 276.18476 71.78753 L 269.94891 71.40782 L 283.20439 73.16663 L 319.35571 79.02933 L 365.83597 88.31945 " fill="none" stroke="rgb(0, 0, 0)" stroke-width="0.72166" stroke-opacity="0.481" id = "145" /><path d="M 234.05582 65.51505 L 235.51908 66.07126 L 274.16656 71.51305 L 325.81130 80.20187 L 348.31980 84.32079 L 376.03580 90.15342 " fill="none" stroke="rgb(0, 0, 0)" stroke-width="0.76444" stroke-opacity="0.510" id = "146" /><path d="M 192.61092 376.49367 L 185.12243 362.67875 " fill="none" stroke="rgb(0, 0, 0)" stroke-width="0.84218" stroke-opacity="0.561" id = "156" /><path d="M 143.07501 187.11345 L 143.33323 185.65529 L 144.96865 208.54988 L 145.74332 212.53351 L 146.77621 214.93872 " fill="none" stroke="rgb(0, 0, 0)" stroke-width="0.88979" stroke-opacity="0.593" id = "157" /><path d="M 141.26744 182.15270 L 140.75099 182.78407 L 140.36366 182.96446 L 140.44973 182.61871 L 144.75346 174.56126 L 161.75319 137.83671 L 171.12240 118.90069 L 174.42032 112.77598 L 174.66437 113.12318 L 191.14765 85.67372 " fill="none" stroke="rgb(0, 0, 0)" stroke-width="0.93946" stroke-opacity="0.626" id = "160" /><path d="M 191.75017 85.88418 L 189.81349 87.35737 L 192.82610 85.25281 L 221.74715 70.62612 L 231.21536 66.31178 L 240.72660 62.65887 " fill="none" stroke="rgb(0, 0, 0)" stroke-width="0.84851" stroke-opacity="0.566" id = "162" /><path d="M 321.24935 431.79847 L 321.42150 435.93242 L 322.84173 442.54675 L 322.79869 443.49380 L 322.45439 442.78727 L 322.02402 439.26965 L 319.52887 390.27252 L 320.25949 398.35102 L 319.05774 381.79215 L 316.70208 334.67898 L 315.75982 324.78522 L 314.81755 305.93995 L 315.18109 306.23147 L 314.06212 276.37681 " fill="none" stroke="rgb(0, 0, 0)" stroke-width="0.69026" stroke-opacity="0.460" id = "164" /><path d="M 314.87983 259.04426 L 316.94562 254.71488 " fill="none" stroke="rgb(0, 0, 0)" stroke-width="0.72402" stroke-opacity="0.483" id = "165" /></svg>