<?xml version="1.0" encoding="utf-8" ?>
<svg baseProfile="full" height="512" version="1.1" viewBox="0,0,512,512" width="512" xmlns="http://www.w3.org/2000/svg" xmlns:ev="http://www.w3.org/2001/xml-events" xmlns:xlink="http://www.w3.org/1999/xlink"><defs><style type="text/css"><![CDATA[
	.background { fill: white; }
	.line { stroke: firebrick; stroke-width: .1mm; }
	.blacksquare { fill: indigo; }
	.whitesquare { fill: white; }
]]></style></defs>
<path d="M 242.72195 62.43449 L 246.29405 64.29853 
L 252.79268 66.61354 
L 287.56680 72.74683 
L 304.95386 76.29451 
L 317.09037 79.75200 
L 332.32557 86.36633 
L 335.07996 87.23822 
L 333.74580 86.42646 
" fill="none" stroke="rgb(0, 0, 0)" stroke-width="0.46514" stroke-opacity="0.310" id = "5" /><path d="M 339.55583 90.13950 L 338.26471 89.05716 
L 338.04953 89.22252 
" fill="none" stroke="rgb(0, 0, 0)" stroke-width="0.56344" stroke-opacity="0.376" id = "14" /><path d="M 232.43604 60.42013 L 231.57530 59.98418 
L 231.70441 60.46523 
" fill="none" stroke="rgb(0, 0, 0)" stroke-width="0.49075" stroke-opacity="0.327" id = "26" /><path d="M 313.00183 408.76970 L 311.71071 408.87492 
L 312.95879 407.82264 
L 312.95879 408.45401 
" fill="none" stroke="rgb(0, 0, 0)" stroke-width="0.50239" stroke-opacity="0.335" id = "38" /><path d="M 205.88204 87.58397 L 205.23648 85.17876 
L 205.23648 84.71275 
L 205.75293 84.39706 
" fill="none" stroke="rgb(0, 0, 0)" stroke-width="0.34123" stroke-opacity="0.227" id = "42" /><path d="M 311.32338 407.16121 L 311.32338 404.78607 
L 312.35627 385.69471 
L 313.73346 368.54256 
L 314.93851 342.82184 
L 315.19673 333.96767 
L 314.93851 315.16193 
L 313.81954 293.89085 
L 312.52842 279.54979 
L 306.41713 240.91610 
L 299.18686 210.89608 
L 294.40973 194.49555 
L 290.88067 185.19040 
L 284.64026 172.21729 
L 279.60490 164.02455 
L 272.84805 156.19258 
L 265.23045 148.91682 
L 265.05830 149.24754 
" fill="none" stroke="rgb(0, 0, 0)" stroke-width="0.49227" stroke-opacity="0.328" id = "44" /><path d="M 231.44618 381.87644 L 231.10189 380.29802 
L 230.15507 338.88331 
L 228.90698 311.34366 
L 224.77541 274.79950 
L 222.96784 263.73553 
L 219.82612 248.20690 
L 210.74525 211.91829 
L 204.37573 189.57990 
L 200.07201 177.13294 
L 193.01389 160.19124 
L 187.33297 150.11943 
L 173.86230 128.20195 
L 168.82694 121.93337 
L 161.51060 115.80009 
L 156.60435 112.77854 
L 153.89300 111.69620 
L 151.95633 111.41058 
" fill="none" stroke="rgb(0, 0, 0)" stroke-width="0.40200" stroke-opacity="0.268" id = "45" /><path d="M 307.32091 242.85530 L 307.66521 243.80236 
L 308.87025 243.93765 
" fill="none" stroke="rgb(0, 0, 0)" stroke-width="0.53734" stroke-opacity="0.358" id = "52" /><path d="M 307.32091 242.85530 L 307.66521 243.80236 
L 308.87025 243.93765 
" fill="none" stroke="rgb(0, 0, 0)" stroke-width="0.53734" stroke-opacity="0.358" id = "53" /><path d="M 312.82968 291.56081 L 312.57146 290.05755 
L 313.34613 288.58436 
L 312.39931 288.77978 
L 315.23977 285.72817 
L 312.18412 288.79482 
" fill="none" stroke="rgb(0, 0, 0)" stroke-width="0.54785" stroke-opacity="0.365" id = "54" /><path d="M 314.59421 323.05402 L 315.92837 322.12201 
L 314.29295 325.63963 
" fill="none" stroke="rgb(0, 0, 0)" stroke-width="0.57622" stroke-opacity="0.384" id = "56" /><path d="M 314.59421 323.05402 L 315.92837 322.12201 
L 314.29295 325.63963 
" fill="none" stroke="rgb(0, 0, 0)" stroke-width="0.57622" stroke-opacity="0.384" id = "57" /><path d="M 315.23977 359.59818 L 314.37902 360.71059 
L 315.71318 357.56879 
L 313.04487 362.84522 
" fill="none" stroke="rgb(0, 0, 0)" stroke-width="0.64858" stroke-opacity="0.432" id = "58" /><path d="M 328.75348 121.90331 L 329.39903 121.15168 
L 329.78637 121.30201 
L 330.04459 123.48173 
L 329.87244 125.88694 
L 328.92562 128.39737 
" fill="none" stroke="rgb(0, 0, 0)" stroke-width="0.52169" stroke-opacity="0.348" id = "76" /><path d="M 326.85983 174.12643 L 326.77376 176.96758 
L 324.83708 183.37146 
" fill="none" stroke="rgb(0, 0, 0)" stroke-width="0.50920" stroke-opacity="0.339" id = "79" /><path d="M 310.84997 292.04185 L 313.86258 289.44122 
L 318.46757 284.40531 
L 320.18906 283.24780 
" fill="none" stroke="rgb(0, 0, 0)" stroke-width="0.45422" stroke-opacity="0.303" id = "84" /><path d="M 312.18412 322.61808 L 311.58160 323.32461 
L 312.09805 323.08409 
L 316.66000 319.16059 
L 319.80172 315.62794 
" fill="none" stroke="rgb(0, 0, 0)" stroke-width="0.54493" stroke-opacity="0.363" id = "85" /><path d="M 311.19426 330.17946 L 313.77650 327.03765 
L 319.84476 321.82135 
" fill="none" stroke="rgb(0, 0, 0)" stroke-width="0.56942" stroke-opacity="0.380" id = "86" /><path d="M 313.13094 361.41712 L 311.40945 362.64979 
L 310.89300 363.29619 
L 311.15123 363.29619 
L 313.47524 361.17660 
L 319.07009 355.20868 
" fill="none" stroke="rgb(0, 0, 0)" stroke-width="0.49780" stroke-opacity="0.332" id = "87" /><path d="M 277.92645 171.84148 L 277.53911 171.10488 
L 278.05556 169.73692 
L 278.14163 172.72840 
L 277.66822 169.48137 
L 277.92645 172.60814 
" fill="none" stroke="rgb(0, 0, 0)" stroke-width="0.57056" stroke-opacity="0.380" id = "93" /><path d="M 292.81735 210.47517 L 291.91356 208.58106 
L 292.43001 211.67777 
L 292.17179 205.58958 
L 291.78445 213.87252 
" fill="none" stroke="rgb(0, 0, 0)" stroke-width="0.65016" stroke-opacity="0.433" id = "94" /><path d="M 300.39191 252.82189 L 300.04761 249.04872 
L 300.26280 248.37226 
L 300.43494 252.62647 
L 300.82228 247.54546 
L 300.56406 255.99376 
" fill="none" stroke="rgb(0, 0, 0)" stroke-width="0.57947" stroke-opacity="0.386" id = "95" /><path d="M 306.33105 291.33532 L 306.11587 289.21573 
L 306.11587 297.40847 
L 306.24498 289.47128 
L 305.64246 296.05554 
" fill="none" stroke="rgb(0, 0, 0)" stroke-width="0.61215" stroke-opacity="0.408" id = "96" /><path d="M 303.83489 295.13856 L 304.30830 298.68624 
L 304.52349 299.16728 
L 304.52349 297.64899 
L 304.26526 296.67188 
L 304.22223 297.91958 
" fill="none" stroke="rgb(0, 0, 0)" stroke-width="0.70732" stroke-opacity="0.472" id = "100" /><path d="M 308.48292 328.60104 L 307.62217 329.12718 
L 307.45002 328.87163 
L 309.25759 326.28603 
L 322.72826 314.99657 
L 320.92069 315.94362 
" fill="none" stroke="rgb(0, 0, 0)" stroke-width="0.54204" stroke-opacity="0.361" id = "101" /><path d="M 308.82721 332.81016 L 307.27787 333.96767 
L 307.06269 334.40361 
L 307.32091 334.38858 
L 310.72085 331.92324 
L 319.84476 323.26448 
" fill="none" stroke="rgb(0, 0, 0)" stroke-width="0.66473" stroke-opacity="0.443" id = "102" /><path d="M 308.43988 326.96249 L 308.35380 327.81935 
L 307.88039 336.68856 
L 306.63231 331.27684 
L 306.93357 330.01410 
L 307.66521 329.36770 
" fill="none" stroke="rgb(0, 0, 0)" stroke-width="0.77381" stroke-opacity="0.516" id = "103" /><path d="M 306.71839 327.21804 L 309.08544 326.19583 
L 312.18412 324.04617 
L 318.89794 318.09328 
" fill="none" stroke="rgb(0, 0, 0)" stroke-width="0.73148" stroke-opacity="0.488" id = "104" /><path d="M 309.12848 332.99055 L 306.97661 335.29053 
L 309.25759 333.92257 
L 319.67261 324.45205 
" fill="none" stroke="rgb(0, 0, 0)" stroke-width="0.63281" stroke-opacity="0.422" id = "105" /><path d="M 308.31077 367.35499 L 307.62217 367.30989 
L 307.06269 368.01642 
L 307.66521 367.92622 
L 311.71071 364.90468 
L 319.11312 357.70408 
" fill="none" stroke="rgb(0, 0, 0)" stroke-width="0.61712" stroke-opacity="0.411" id = "106" /><path d="M 210.18577 264.60742 L 210.09969 269.64333 
L 210.74525 267.08780 
" fill="none" stroke="rgb(0, 0, 0)" stroke-width="0.71732" stroke-opacity="0.478" id = "114" /><path d="M 210.18577 264.60742 L 210.09969 269.64333 
L 210.74525 267.08780 
" fill="none" stroke="rgb(0, 0, 0)" stroke-width="0.71732" stroke-opacity="0.478" id = "115" /><path d="M 204.16055 217.94635 L 203.98840 215.84179 
L 203.73018 216.42806 
L 203.60106 220.87770 
L 202.13780 214.95487 
L 201.44920 216.99930 
L 201.49224 219.20908 
L 201.96565 218.57772 
L 201.87957 217.07446 
L 200.20112 215.04506 
" fill="none" stroke="rgb(0, 0, 0)" stroke-width="0.92108" stroke-opacity="0.614" id = "121" /><path d="M 292.34394 206.91245 L 292.94646 211.34705 
L 293.37683 211.45228 
L 293.29076 211.87319 
" fill="none" stroke="rgb(0, 0, 0)" stroke-width="0.61594" stroke-opacity="0.411" id = "122" /><path d="M 190.08736 175.32903 L 189.48484 174.15649 
L 189.52787 171.85651 
L 190.21647 176.47151 
L 190.60381 176.72706 
L 190.64684 175.93034 
L 189.18357 167.45197 
L 189.44180 171.63102 
" fill="none" stroke="rgb(0, 0, 0)" stroke-width="0.68468" stroke-opacity="0.456" id = "123" /><path d="M 307.23483 330.16443 L 306.71839 329.74352 
L 306.89054 332.05853 
L 306.37409 333.23107 
" fill="none" stroke="rgb(0, 0, 0)" stroke-width="0.68993" stroke-opacity="0.460" id = "124" /><path d="M 222.53747 338.71795 L 221.37546 336.26765 
L 222.06406 339.45455 
L 222.02102 335.78661 
L 221.54761 333.44153 
L 221.20331 333.12584 
L 221.11724 333.60688 
" fill="none" stroke="rgb(0, 0, 0)" stroke-width="0.77321" stroke-opacity="0.515" id = "125" /><path d="M 213.75786 300.67054 L 214.53253 299.81368 
L 215.26417 302.95549 
L 215.65150 301.27184 
L 215.60846 298.46075 
L 216.46921 303.94764 
L 216.34010 297.85945 
L 217.11477 309.69008 
" fill="none" stroke="rgb(0, 0, 0)" stroke-width="0.74832" stroke-opacity="0.499" id = "126" /><path d="M 215.22113 296.50652 L 218.79322 294.97320 
L 226.58297 290.10265 
" fill="none" stroke="rgb(0, 0, 0)" stroke-width="0.73470" stroke-opacity="0.490" id = "137" /><path d="M 268.93166 151.33707 L 267.42535 150.13446 
L 267.85572 150.02923 
L 268.50128 150.57040 
L 278.27075 161.18339 
L 279.30364 163.13763 
L 279.26060 161.31869 
" fill="none" stroke="rgb(0, 0, 0)" stroke-width="0.77079" stroke-opacity="0.514" id = "138" /><path d="M 299.14383 216.05225 L 298.75649 212.71502 
L 298.06789 210.80588 
L 298.11093 210.40000 
L 298.58434 211.19673 
L 303.27541 225.02669 
L 305.77157 233.88087 
L 306.37409 238.97690 
L 306.89054 240.34487 
" fill="none" stroke="rgb(0, 0, 0)" stroke-width="0.55366" stroke-opacity="0.369" id = "142" /><path d="M 308.43988 406.80043 L 310.24744 406.75533 
L 309.42974 406.25926 
L 307.10572 405.89848 
L 307.14876 406.43965 
L 308.99936 408.21349 
L 305.64246 407.65729 
L 304.26526 408.25859 
" fill="none" stroke="rgb(0, 0, 0)" stroke-width="0.95020" stroke-opacity="0.633" id = "152" /><path d="M 167.14849 120.83600 L 167.70797 120.85103 
L 169.34339 122.39938 
L 174.80912 130.95291 
L 190.99114 161.79973 
L 196.75814 174.87806 
L 202.13780 188.54266 
L 206.39849 201.56086 
L 211.82118 220.41169 
L 216.85655 241.77296 
L 220.21345 259.27086 
L 223.74251 282.15042 
L 225.50704 296.49149 
L 227.70194 319.97235 
L 228.39054 334.19315 
L 228.60572 348.48912 
L 228.34750 358.35048 
L 227.35764 372.28567 
" fill="none" stroke="rgb(0, 0, 0)" stroke-width="0.62648" stroke-opacity="0.418" id = "155" /><path d="M 171.66740 126.90915 L 168.48264 122.74513 
L 166.50293 120.82096 
L 171.15095 127.31503 
L 174.68001 133.43328 
L 186.34311 156.26775 
L 192.62656 169.60163 
L 202.91247 194.45045 
L 212.33763 222.39599 
L 220.25649 252.13040 
L 223.62125 270.13395 
L 222.83873 264.29174 
L 223.95770 270.28973 
L 225.80830 281.95500 
L 228.17535 304.92475 
L 229.59558 346.05385 
L 229.55254 375.48760 
L 228.82091 391.25676 
" fill="none" stroke="rgb(0, 0, 0)" stroke-width="0.71925" stroke-opacity="0.480" id = "156" /><path d="M 178.89766 126.41308 L 177.99388 125.64642 
L 177.86477 126.20262 
L 179.28500 129.07384 
L 193.31515 155.36579 
L 197.18851 163.33305 
L 209.02376 192.13544 
L 218.70715 221.50907 
L 222.32228 234.33184 
L 225.46400 247.39514 
L 228.95002 267.35838 
L 231.57530 287.06607 
L 233.98538 318.76974 
L 234.54487 359.94393 
L 232.99553 384.35681 
" fill="none" stroke="rgb(0, 0, 0)" stroke-width="0.57371" stroke-opacity="0.382" id = "157" /><path d="M 184.49251 140.46852 L 177.77870 131.32872 
L 195.55309 162.95724 
L 204.11751 182.01852 
L 208.46428 192.78184 
L 212.85408 204.95822 
L 219.18056 224.48551 
L 223.01088 238.21024 
L 226.19564 252.32582 
L 229.03610 266.81721 
L 231.44618 281.60925 
L 234.41576 304.41365 
L 235.87902 319.73183 
L 237.17014 349.01526 
L 237.04103 368.21184 
L 236.35243 379.05032 
" fill="none" stroke="rgb(0, 0, 0)" stroke-width="0.62182" stroke-opacity="0.415" id = "158" /><path d="M 261.91658 155.20043 L 260.58242 153.95273 
L 262.47606 155.44095 
L 266.52157 161.48404 
L 276.54925 179.28260 
L 282.78966 191.41388 
L 287.99717 204.10136 
L 295.74388 227.05608 
L 302.50073 251.33367 
L 305.90068 267.62897 
L 308.39684 284.28505 
L 309.98922 302.09863 
L 310.54871 320.30307 
L 310.16137 339.06370 
L 308.82721 358.21519 
L 306.54042 376.60970 
L 307.62217 370.79744 
L 306.11587 383.25944 
L 302.58681 406.78540 
L 299.74635 423.35128 
L 295.65781 441.39036 
" fill="none" stroke="rgb(0, 0, 0)" stroke-width="0.61419" stroke-opacity="0.409" id = "159" /><path d="M 272.84805 155.78670 L 278.70112 165.51277 
L 285.37190 178.54600 
L 291.31104 192.34590 
L 295.48566 204.23665 
L 301.25265 224.69597 
L 304.65260 239.77363 
L 307.62217 255.82841 
L 311.19426 281.42886 
L 312.91576 299.48297 
L 314.12080 318.46909 
L 314.42206 327.92458 
L 314.07852 356.82217 
L 311.25173 385.09007 
L 308.42494 402.99307 
L 305.12702 419.95381 
" fill="none" stroke="rgb(0, 0, 0)" stroke-width="0.59669" stroke-opacity="0.398" id = "160" /><path d="M 270.82530 172.86369 L 268.50128 169.97744 
L 264.75704 163.69383 
L 266.22031 165.49774 
L 270.82530 173.13428 
L 280.63780 191.36878 
L 288.98703 210.55033 
L 293.80720 222.77180 
L 296.69070 231.50572 
L 300.47798 245.03503 
L 302.71592 254.47548 
L 304.56652 264.71265 
L 306.67535 280.58704 
L 308.26773 298.38559 
L 309.21455 317.88282 
L 309.42974 338.98854 
L 309.12848 353.49496 
L 307.88039 375.26211 
L 306.67535 389.58815 
L 304.17919 410.31805 
" fill="none" stroke="rgb(0, 0, 0)" stroke-width="0.66170" stroke-opacity="0.441" id = "161" /><path d="M 234.67398 337.16960 L 232.82338 339.49965 
L 236.61066 336.49314 
L 244.57255 328.45071 
" fill="none" stroke="rgb(0, 0, 0)" stroke-width="0.61703" stroke-opacity="0.411" id = "164" /><path d="M 220.77294 217.51040 L 217.88944 219.31431 
L 215.60846 220.08097 
L 220.90205 217.25485 
L 223.91466 215.18036 
L 233.77020 207.40852 
" fill="none" stroke="rgb(0, 0, 0)" stroke-width="0.62298" stroke-opacity="0.415" id = "171" /><path d="M 166.15863 125.16537 L 150.96647 122.51964 
L 152.77404 122.68500 
L 164.22195 125.81177 
" fill="none" stroke="rgb(0, 0, 0)" stroke-width="0.97128" stroke-opacity="0.648" id = "183" /><path d="M 166.15863 125.16537 L 150.96647 122.51964 
L 152.77404 122.68500 
L 164.22195 125.81177 
" fill="none" stroke="rgb(0, 0, 0)" stroke-width="0.97128" stroke-opacity="0.648" id = "184" /><path d="M 156.69043 120.47521 L 158.41192 120.47521 
L 161.55364 119.40790 
L 154.92590 121.99350 
L 156.47524 121.03142 
L 162.54350 118.91183 
L 158.62711 119.84385 
L 156.08791 120.98632 
" fill="none" stroke="rgb(0, 0, 0)" stroke-width="0.86826" stroke-opacity="0.579" id = "185" /><path d="M 157.20688 129.14900 L 156.77650 128.36731 
L 154.71071 129.10391 
" fill="none" stroke="rgb(0, 0, 0)" stroke-width="0.52395" stroke-opacity="0.349" id = "186" /><path d="M 162.71565 114.74781 L 162.02705 114.74781 
L 162.11313 115.03343 
L 162.41439 115.06349 
L 162.41439 114.29683 
L 161.81186 114.29683 
L 162.84476 115.72492 
L 169.90287 121.60266 
" fill="none" stroke="rgb(0, 0, 0)" stroke-width="0.78630" stroke-opacity="0.524" id = "192" /><path d="M 162.45742 113.65043 L 167.57886 116.29616 
L 178.29514 119.93404 
L 175.11038 119.19745 
" fill="none" stroke="rgb(0, 0, 0)" stroke-width="0.75636" stroke-opacity="0.504" id = "194" /><path d="M 162.45742 113.65043 L 167.57886 116.29616 
L 178.29514 119.93404 
L 175.11038 119.19745 
" fill="none" stroke="rgb(0, 0, 0)" stroke-width="0.75636" stroke-opacity="0.504" id = "195" /><path d="M 264.45578 153.06581 L 274.05309 157.21480 
L 269.79240 155.84683 
L 259.67864 151.66778 
" fill="none" stroke="rgb(0, 0, 0)" stroke-width="0.79774" stroke-opacity="0.532" id = "196" /><path d="M 264.45578 153.06581 L 274.05309 157.21480 
L 269.79240 155.84683 
L 259.67864 151.66778 
" fill="none" stroke="rgb(0, 0, 0)" stroke-width="0.79774" stroke-opacity="0.532" id = "197" /><path d="M 264.45578 153.06581 L 274.05309 157.21480 
L 269.79240 155.84683 
L 259.67864 151.66778 
" fill="none" stroke="rgb(0, 0, 0)" stroke-width="0.79774" stroke-opacity="0.532" id = "198" /><path d="M 251.67371 71.30370 L 251.93193 73.10761 
L 251.41548 77.66248 
L 253.26609 70.73247 
L 253.65342 70.73247 
L 255.07365 74.18996 
" fill="none" stroke="rgb(0, 0, 0)" stroke-width="0.85065" stroke-opacity="0.567" id = "204" /><path d="M 327.89273 88.36566 L 326.21428 87.61403 
L 327.93577 88.35063 
L 331.72305 88.68135 
L 328.32310 88.11011 
L 330.34585 88.17024 
" fill="none" stroke="rgb(0, 0, 0)" stroke-width="0.87778" stroke-opacity="0.585" id = "208" /><path d="M 284.64026 156.53833 L 278.74416 162.65658 
L 277.79734 162.82194 
L 282.40232 160.22131 
" fill="none" stroke="rgb(0, 0, 0)" stroke-width="0.68800" stroke-opacity="0.459" id = "210" /><path d="M 284.64026 156.53833 L 278.74416 162.65658 
L 277.79734 162.82194 
L 282.40232 160.22131 
" fill="none" stroke="rgb(0, 0, 0)" stroke-width="0.68800" stroke-opacity="0.459" id = "211" /><path d="M 329.95852 122.66997 L 329.87244 120.92619 
L 329.70030 124.24839 
L 330.21674 125.09021 
L 331.59394 121.34710 
L 331.03445 125.78171 
" fill="none" stroke="rgb(0, 0, 0)" stroke-width="0.98905" stroke-opacity="0.659" id = "216" /><path d="M 295.57173 201.68112 L 295.31351 203.21444 
L 293.63505 205.69481 
" fill="none" stroke="rgb(0, 0, 0)" stroke-width="0.30719" stroke-opacity="0.205" id = "217" /><path d="M 327.84969 178.23032 L 326.30035 180.28978 
L 325.65479 183.32636 
L 325.69783 184.24334 
L 326.08516 183.20610 
L 326.30035 181.77800 
L 325.31049 184.70935 
" fill="none" stroke="rgb(0, 0, 0)" stroke-width="0.93506" stroke-opacity="0.623" id = "222" /><path d="M 305.34119 243.05073 L 311.28034 237.95469 
L 318.76883 232.64819 
" fill="none" stroke="rgb(0, 0, 0)" stroke-width="0.86215" stroke-opacity="0.575" id = "231" /><path d="M 307.96647 299.21238 L 306.63231 300.35486 
L 308.43988 299.52806 
L 312.48538 296.23593 
L 322.03966 286.46477 
L 322.21181 286.13405 
L 321.78144 286.22425 
L 320.87765 286.94581 
L 321.65232 286.05889 
L 321.56625 283.06741 
L 321.69536 286.31444 
L 321.30803 288.16345 
L 321.73840 283.11251 
L 321.22195 283.05238 
L 320.40424 284.30008 
" fill="none" stroke="rgb(0, 0, 0)" stroke-width="0.92103" stroke-opacity="0.614" id = "234" /><path d="M 215.65150 263.58521 L 214.53253 263.44992 
L 214.61861 263.02900 
L 219.09448 260.17282 
L 218.79322 260.08262 
L 212.55282 263.17933 
L 214.74772 262.75842 
L 218.01855 261.46562 
L 220.60079 260.06759 
L 218.70715 260.24798 
L 212.20852 263.20939 
L 216.46921 262.68325 
L 220.17042 261.58588 
L 220.12738 262.95384 
" fill="none" stroke="rgb(0, 0, 0)" stroke-width="0.99370" stroke-opacity="0.662" id = "235" /><path d="M 226.28171 266.66688 L 223.48429 264.80285 
L 223.57036 265.17866 
L 224.56022 265.50938 
L 228.86395 265.85513 
" fill="none" stroke="rgb(0, 0, 0)" stroke-width="1.04851" stroke-opacity="0.699" id = "236" /><path d="M 226.28171 266.66688 L 223.48429 264.80285 
L 223.57036 265.17866 
L 224.56022 265.50938 
L 228.86395 265.85513 
" fill="none" stroke="rgb(0, 0, 0)" stroke-width="1.04851" stroke-opacity="0.699" id = "237" /><path d="M 231.14492 336.47810 L 230.80062 335.77157 
L 232.13478 336.70359 
L 235.87902 337.99639 
L 232.52212 336.34281 
L 232.09174 335.78661 
L 232.82338 336.50817 
" fill="none" stroke="rgb(0, 0, 0)" stroke-width="0.99589" stroke-opacity="0.664" id = "241" /><path d="M 224.81844 335.99706 L 222.75265 337.51535 
L 222.66658 337.24476 
L 223.78555 336.25261 
" fill="none" stroke="rgb(0, 0, 0)" stroke-width="0.89623" stroke-opacity="0.597" id = "242" /><path d="M 224.81844 335.99706 L 222.75265 337.51535 
L 222.66658 337.24476 
L 223.78555 336.25261 
" fill="none" stroke="rgb(0, 0, 0)" stroke-width="0.89623" stroke-opacity="0.597" id = "243" /><path d="M 189.70002 167.16635 L 190.00128 167.13629 
L 191.24936 166.55002 
L 189.31269 167.16635 
L 190.38862 167.87288 
" fill="none" stroke="rgb(0, 0, 0)" stroke-width="0.88095" stroke-opacity="0.587" id = "265" /><path d="M 249.56488 364.64913 L 249.86614 366.61839 
L 250.33955 364.96481 
L 250.16740 353.78058 
L 249.56488 354.00607 
" fill="none" stroke="rgb(0, 0, 0)" stroke-width="0.93831" stroke-opacity="0.626" id = "267" /><path d="M 249.56488 364.64913 L 249.86614 366.61839 
L 250.33955 364.96481 
L 250.16740 353.78058 
L 249.56488 354.00607 
" fill="none" stroke="rgb(0, 0, 0)" stroke-width="0.93831" stroke-opacity="0.626" id = "268" /><path d="M 245.86367 328.27032 L 245.56241 331.60755 
L 245.86367 323.06906 
L 245.39026 317.88282 
L 245.51937 323.36971 
L 244.78774 329.03698 
L 245.51937 325.69976 
L 246.38012 317.97302 
" fill="none" stroke="rgb(0, 0, 0)" stroke-width="0.85872" stroke-opacity="0.572" id = "269" /><path d="M 241.25868 287.32162 L 242.07639 281.18834 
L 241.60298 285.17197 
L 241.51691 291.18499 
" fill="none" stroke="rgb(0, 0, 0)" stroke-width="0.91540" stroke-opacity="0.610" id = "270" /><path d="M 241.25868 287.32162 L 242.07639 281.18834 
L 241.60298 285.17197 
L 241.51691 291.18499 
" fill="none" stroke="rgb(0, 0, 0)" stroke-width="0.91540" stroke-opacity="0.610" id = "271" /><path d="M 241.25868 287.32162 L 242.07639 281.18834 
L 241.60298 285.17197 
L 241.51691 291.18499 
" fill="none" stroke="rgb(0, 0, 0)" stroke-width="0.91540" stroke-opacity="0.610" id = "272" /><path d="M 237.72963 200.29812 L 237.98785 206.01049 
L 237.55748 207.76930 
L 237.55748 200.79420 
L 237.25622 194.99163 
L 237.08407 194.58575 
L 237.04103 195.39751 
" fill="none" stroke="rgb(0, 0, 0)" stroke-width="0.85557" stroke-opacity="0.570" id = "280" /><path d="M 237.55748 204.13142 L 237.08407 200.28309 
L 237.42837 192.34590 
" fill="none" stroke="rgb(0, 0, 0)" stroke-width="0.83607" stroke-opacity="0.557" id = "281" /><path d="M 224.08681 336.13235 L 223.65644 340.82251 
L 223.95770 337.36502 
L 223.52732 337.30489 
L 223.31214 337.84607 
L 223.48429 341.76957 
" fill="none" stroke="rgb(0, 0, 0)" stroke-width="0.80859" stroke-opacity="0.539" id = "282" /><path d="M 219.99827 301.04635 L 218.62107 299.60323 
L 217.97552 297.96468 
L 218.79322 297.39344 
L 220.94509 297.42351 
" fill="none" stroke="rgb(0, 0, 0)" stroke-width="0.73150" stroke-opacity="0.488" id = "283" /><path d="M 202.39602 212.65489 L 204.16055 212.50456 
L 206.69975 210.91111 
L 208.59339 208.89675 
L 204.28966 212.24901 
L 202.26691 214.53396 
L 202.09476 215.22546 
" fill="none" stroke="rgb(0, 0, 0)" stroke-width="0.73384" stroke-opacity="0.489" id = "284" /><path d="M 202.39602 212.65489 L 204.16055 212.50456 
L 206.69975 210.91111 
L 208.59339 208.89675 
L 204.28966 212.24901 
L 202.26691 214.53396 
L 202.09476 215.22546 
" fill="none" stroke="rgb(0, 0, 0)" stroke-width="0.73384" stroke-opacity="0.489" id = "285" /><path d="M 191.03418 167.13629 L 191.37848 166.98596 
L 192.54048 167.06113 
" fill="none" stroke="rgb(0, 0, 0)" stroke-width="0.78674" stroke-opacity="0.524" id = "286" /><path d="M 246.25101 74.91152 L 245.94975 74.52067 
L 245.90671 74.85139 
L 246.07886 78.75985 
" fill="none" stroke="rgb(0, 0, 0)" stroke-width="0.71894" stroke-opacity="0.479" id = "287" /><path d="M 248.01554 73.07755 L 248.70413 72.89715 
L 249.13451 73.46839 
L 249.09147 76.59517 
L 248.83325 77.30170 
L 248.83325 76.36968 
L 249.43577 73.39323 
L 249.52184 69.31940 
" fill="none" stroke="rgb(0, 0, 0)" stroke-width="1.02932" stroke-opacity="0.686" id = "291" /><path d="M 248.01554 73.07755 L 248.70413 72.89715 
L 249.13451 73.46839 
L 249.09147 76.59517 
L 248.83325 77.30170 
L 248.83325 76.36968 
L 249.43577 73.39323 
L 249.52184 69.31940 
" fill="none" stroke="rgb(0, 0, 0)" stroke-width="1.02932" stroke-opacity="0.686" id = "292" /><path d="M 240.44098 66.38806 L 243.71181 67.78608 
L 250.64081 68.16190 
" fill="none" stroke="rgb(0, 0, 0)" stroke-width="0.87808" stroke-opacity="0.585" id = "293" /><path d="M 267.55446 134.63589 L 262.51910 139.67180 
L 259.11916 142.46785 
L 256.40781 144.06130 
L 261.05583 141.41557 
L 265.10134 138.52932 
" fill="none" stroke="rgb(0, 0, 0)" stroke-width="0.75830" stroke-opacity="0.506" id = "302" /><path d="M 267.55446 134.63589 L 262.51910 139.67180 
L 259.11916 142.46785 
L 256.40781 144.06130 
L 261.05583 141.41557 
L 265.10134 138.52932 
" fill="none" stroke="rgb(0, 0, 0)" stroke-width="0.75830" stroke-opacity="0.506" id = "303" /><path d="M 325.39657 86.11078 L 328.66740 87.13299 
L 336.54322 88.18527 
" fill="none" stroke="rgb(0, 0, 0)" stroke-width="1.03609" stroke-opacity="0.691" id = "304" /><path d="M 325.39657 86.11078 L 328.66740 87.13299 
L 336.54322 88.18527 
" fill="none" stroke="rgb(0, 0, 0)" stroke-width="1.03609" stroke-opacity="0.691" id = "305" /><path d="M 337.87738 90.39506 L 337.40397 89.76369 
L 337.83434 88.81664 
L 337.36093 90.71074 
" fill="none" stroke="rgb(0, 0, 0)" stroke-width="0.89985" stroke-opacity="0.600" id = "307" /><path d="M 306.84750 372.21050 L 308.43988 373.33795 
L 309.47277 373.29285 
L 310.59174 372.49612 
L 311.62464 364.85958 
L 311.79679 372.49612 
L 311.66767 366.36284 
L 310.63478 375.29218 
L 310.63478 373.78892 
L 311.10819 372.60135 
L 319.71565 361.55242 
L 322.12573 359.20734 
L 321.69536 359.31257 
" fill="none" stroke="rgb(0, 0, 0)" stroke-width="0.98034" stroke-opacity="0.654" id = "323" /><path d="M 321.65232 355.97534 L 321.43714 360.83085 
L 320.83462 361.25177 
" fill="none" stroke="rgb(0, 0, 0)" stroke-width="0.83845" stroke-opacity="0.559" id = "324" /><path d="M 313.56132 363.55175 L 314.89547 363.46155 
L 316.96126 362.16875 
L 321.95358 357.53872 
L 320.10298 358.65113 
" fill="none" stroke="rgb(0, 0, 0)" stroke-width="1.03539" stroke-opacity="0.690" id = "325" /><path d="M 320.40424 318.10831 L 319.84476 326.21086 
L 321.39410 317.91289 
L 321.13588 316.52989 
" fill="none" stroke="rgb(0, 0, 0)" stroke-width="0.82798" stroke-opacity="0.552" id = "326" /><path d="M 310.84997 324.66251 L 310.33352 324.37689 
L 311.58160 322.63311 
L 316.83215 318.24361 
" fill="none" stroke="rgb(0, 0, 0)" stroke-width="0.98854" stroke-opacity="0.659" id = "327" /><path d="M 311.10819 328.15006 L 312.05501 327.77425 
L 316.57392 323.88082 
L 319.11312 320.97953 
L 320.79158 318.33380 
L 319.71565 320.48346 
" fill="none" stroke="rgb(0, 0, 0)" stroke-width="0.99159" stroke-opacity="0.661" id = "328" /><path d="M 308.65507 283.83407 L 306.89054 284.57067 
L 311.96894 286.22425 
L 309.51581 284.90138 
L 306.58928 284.36021 
L 311.62464 286.97588 
L 306.76142 286.81052 
L 311.06515 287.78763 
L 308.18166 287.66737 
L 309.98922 287.80267 
L 310.54871 287.24646 
L 311.02212 285.93863 
L 311.36641 281.09814 
" fill="none" stroke="rgb(0, 0, 0)" stroke-width="1.13855" stroke-opacity="0.759" id = "332" /><path d="M 309.17151 322.31743 L 310.89300 323.55010 
L 312.09805 323.85075 
" fill="none" stroke="rgb(0, 0, 0)" stroke-width="1.13383" stroke-opacity="0.756" id = "333" /><path d="M 309.17151 322.31743 L 310.89300 323.55010 
L 312.09805 323.85075 
" fill="none" stroke="rgb(0, 0, 0)" stroke-width="1.13383" stroke-opacity="0.756" id = "334" /><path d="M 309.17151 322.31743 L 310.89300 323.55010 
L 312.09805 323.85075 
" fill="none" stroke="rgb(0, 0, 0)" stroke-width="1.13383" stroke-opacity="0.756" id = "335" /><path d="M 310.72085 363.67201 L 309.60189 363.29619 
L 309.38670 362.83018 
L 311.58160 363.29619 
L 312.18412 363.11580 
L 308.48292 361.29686 
L 310.24744 361.07138 
L 311.88286 361.67268 
L 310.50567 361.91320 
L 307.53610 360.37988 
L 309.47277 361.92823 
" fill="none" stroke="rgb(0, 0, 0)" stroke-width="1.16998" stroke-opacity="0.780" id = "336" /><path d="M 302.07036 242.56969 L 301.29569 242.07361 
L 303.01718 242.76511 
L 306.11587 243.23112 
L 299.66027 242.62982 
" fill="none" stroke="rgb(0, 0, 0)" stroke-width="1.17321" stroke-opacity="0.782" id = "337" /><path d="M 302.07036 242.56969 L 301.29569 242.07361 
L 303.01718 242.76511 
L 306.11587 243.23112 
L 299.66027 242.62982 
" fill="none" stroke="rgb(0, 0, 0)" stroke-width="1.17321" stroke-opacity="0.782" id = "338" /><path d="M 302.07036 242.56969 L 301.29569 242.07361 
L 303.01718 242.76511 
L 306.11587 243.23112 
L 299.66027 242.62982 
" fill="none" stroke="rgb(0, 0, 0)" stroke-width="1.17321" stroke-opacity="0.782" id = "339" /><path d="M 289.15918 200.61380 L 287.82502 199.68179 
L 291.99964 199.96740 
L 294.36669 201.04975 
" fill="none" stroke="rgb(0, 0, 0)" stroke-width="1.10923" stroke-opacity="0.739" id = "340" /><path d="M 289.15918 200.61380 L 287.82502 199.68179 
L 291.99964 199.96740 
L 294.36669 201.04975 
" fill="none" stroke="rgb(0, 0, 0)" stroke-width="1.10923" stroke-opacity="0.739" id = "341" /><path d="M 194.04679 166.79054 L 193.53034 166.50492 
L 194.86450 166.56505 
L 202.48209 169.00033 
L 196.93029 166.38466 
L 195.55309 166.20427 
L 200.97579 168.72974 
L 202.61121 169.88725 
" fill="none" stroke="rgb(0, 0, 0)" stroke-width="0.98126" stroke-opacity="0.654" id = "343" /><path d="M 192.02404 167.93301 L 194.95057 168.47419 
L 197.36066 169.85718 
" fill="none" stroke="rgb(0, 0, 0)" stroke-width="0.70858" stroke-opacity="0.472" id = "344" /><path d="M 211.17563 216.80387 L 210.22880 216.77381 
L 211.60600 217.14962 
L 216.77047 217.58557 
L 219.43878 218.60778 
L 218.27678 218.48752 
L 210.44399 215.63133 
L 210.27184 215.34572 
L 211.82118 215.45094 
L 217.28692 217.08949 
L 217.76033 217.45027 
L 216.38314 217.31498 
L 210.27184 215.28559 
L 213.62875 216.15747 
L 218.19070 218.26203 
" fill="none" stroke="rgb(0, 0, 0)" stroke-width="0.96591" stroke-opacity="0.644" id = "345" /><path d="M 259.72168 145.94038 L 258.99004 145.38417 
L 259.37738 145.38417 
L 265.01526 146.55671 
L 267.59750 147.93971 
L 268.63039 149.09721 
" fill="none" stroke="rgb(0, 0, 0)" stroke-width="0.88085" stroke-opacity="0.587" id = "348" /><path d="M 258.08626 144.97829 L 262.30391 145.69985 
L 265.35956 147.11292 
L 266.26334 147.99984 
L 266.47853 148.75146 
" fill="none" stroke="rgb(0, 0, 0)" stroke-width="0.97240" stroke-opacity="0.648" id = "349" /><path d="M 259.97990 145.63972 L 260.23812 145.02339 
L 261.40013 145.54953 
L 267.72661 150.19459 
" fill="none" stroke="rgb(0, 0, 0)" stroke-width="0.97894" stroke-opacity="0.653" id = "350" /><path d="M 173.51800 114.64258 L 172.57118 112.37266 
L 172.22689 112.10208 
L 172.35600 113.18442 
L 177.90781 122.86539 
" fill="none" stroke="rgb(0, 0, 0)" stroke-width="0.80152" stroke-opacity="0.534" id = "351" /><path d="M 200.45934 142.60315 L 200.76060 148.33055 
L 200.37327 155.02004 
" fill="none" stroke="rgb(0, 0, 0)" stroke-width="0.57132" stroke-opacity="0.381" id = "355" /><path d="M 213.62875 151.80307 L 214.66164 149.29264 
L 212.89712 160.26641 
" fill="none" stroke="rgb(0, 0, 0)" stroke-width="0.64326" stroke-opacity="0.429" id = "359" /><path d="M 217.24388 152.37431 L 218.31981 152.29915 
L 219.05145 155.68148 
" fill="none" stroke="rgb(0, 0, 0)" stroke-width="0.58680" stroke-opacity="0.391" id = "360" /><path d="M 231.87656 193.17269 L 232.60819 189.15899 
L 231.87656 202.55301 
L 231.87656 204.94318 
L 232.43604 207.28826 
" fill="none" stroke="rgb(0, 0, 0)" stroke-width="0.50126" stroke-opacity="0.334" id = "365" /><path d="M 238.46126 314.27501 L 239.27897 318.15341 
L 239.75238 327.23308 
" fill="none" stroke="rgb(0, 0, 0)" stroke-width="0.56810" stroke-opacity="0.379" id = "372" /><path d="M 203.64410 96.82899 L 202.65424 106.82565 
L 202.86943 110.73411 
" fill="none" stroke="rgb(0, 0, 0)" stroke-width="0.47991" stroke-opacity="0.320" id = "377" /><path d="M 209.54021 93.65712 L 207.86175 100.70740 
L 207.30227 105.66814 
" fill="none" stroke="rgb(0, 0, 0)" stroke-width="0.54663" stroke-opacity="0.364" id = "378" /><path d="M 213.37053 90.99636 L 211.56296 99.56492 
L 211.34777 103.09757 
" fill="none" stroke="rgb(0, 0, 0)" stroke-width="0.55779" stroke-opacity="0.372" id = "379" /><path d="M 216.55529 90.95126 L 217.93248 86.18594 
L 216.25402 92.04864 
L 215.43632 98.46754 
" fill="none" stroke="rgb(0, 0, 0)" stroke-width="0.58547" stroke-opacity="0.390" id = "380" /><path d="M 224.47414 85.64477 L 225.50704 83.14936 
L 224.04377 89.43297 
L 223.52732 93.58196 
" fill="none" stroke="rgb(0, 0, 0)" stroke-width="0.54571" stroke-opacity="0.364" id = "382" /><path d="M 236.65370 77.69254 L 237.77266 74.92655 
L 237.72963 75.66315 
L 235.27650 85.41928 
L 234.71702 89.37284 
" fill="none" stroke="rgb(0, 0, 0)" stroke-width="0.61529" stroke-opacity="0.410" id = "385" /><path d="M 243.02321 77.45202 L 244.35737 73.33310 
L 242.72195 82.35264 
L 242.67891 83.55524 
L 243.02321 83.49511 
" fill="none" stroke="rgb(0, 0, 0)" stroke-width="0.59930" stroke-opacity="0.400" id = "387" /><path d="M 248.66110 72.47624 L 250.46866 74.08473 
L 250.94207 74.12982 
" fill="none" stroke="rgb(0, 0, 0)" stroke-width="0.37883" stroke-opacity="0.253" id = "388" /></svg>