<?xml version="1.0" encoding="utf-8" ?>
<svg baseProfile="full" height="512" version="1.1" viewBox="0,0,512,512" width="512" xmlns="http://www.w3.org/2000/svg" xmlns:ev="http://www.w3.org/2001/xml-events" xmlns:xlink="http://www.w3.org/1999/xlink"><defs><style type="text/css"><![CDATA[
	.background { fill: white; }
	.line { stroke: firebrick; stroke-width: .1mm; }
	.blacksquare { fill: indigo; }
	.whitesquare { fill: white; }
]]></style></defs>
<path d="M 192.92782 399.70506 L 193.48730 400.23120 L 193.48730 399.46454 L 189.82913 384.04113 L 185.56844 361.52235 L 180.61916 330.19449 L 174.24964 285.30726 L 168.02771 238.56813 L 169.17124 246.31279 L 158.58407 149.66845 L 154.32338 120.06934 L 152.77404 113.34978 L 152.21455 112.35763 " fill="none" stroke="rgb(0, 0, 0)" stroke-width="0.30250" stroke-opacity="0.202" id = "1" /><path d="M 153.59174 113.36481 L 154.49553 113.45501 L 160.30556 117.61903 L 165.47003 120.21966 L 170.67754 121.76801 L 184.19125 124.75949 L 191.85189 127.14967 L 213.11230 135.64307 L 232.86641 142.10707 L 248.35984 149.62335 L 249.95221 149.95407 L 251.15726 149.75865 " fill="none" stroke="rgb(0, 0, 0)" stroke-width="0.33676" stroke-opacity="0.225" id = "2" /><path d="M 263.46592 153.66711 L 270.39492 148.25539 L 285.93138 134.57576 L 313.60435 108.19361 L 315.71318 105.77337 L 314.98155 105.78840 " fill="none" stroke="rgb(0, 0, 0)" stroke-width="0.25573" stroke-opacity="0.170" id = "3" /><path d="M 152.68796 106.81062 L 158.41192 104.45050 L 180.96345 92.27413 L 233.46894 66.43315 L 234.80309 65.83185 L 234.63094 66.25276 " fill="none" stroke="rgb(0, 0, 0)" stroke-width="0.59008" stroke-opacity="0.393" id = "4" /><path d="M 268.07091 156.10239 L 264.58489 160.05595 L 263.89629 160.25137 L 266.26334 157.90629 L 288.94399 137.44698 L 304.60956 122.15886 L 327.29021 102.28581 L 338.22168 91.74799 L 338.78116 90.68068 " fill="none" stroke="rgb(0, 0, 0)" stroke-width="0.39242" stroke-opacity="0.262" id = "6" /><path d="M 281.88588 451.38701 L 281.71373 450.57525 L 281.06817 438.18842 L 276.80748 392.89531 L 273.09007 336.09238 L 273.49361 336.25261 L 273.14931 327.30824 L 271.67667 300.28637 L 272.11641 300.43002 L 271.47085 274.51388 L 271.34174 230.18285 L 272.50375 190.72238 L 272.63286 171.85651 L 272.28856 166.68531 L 271.98730 165.15199 L 271.34174 164.98663 L 271.34174 163.75396 L 272.33160 158.49256 L 272.80501 157.30499 " fill="none" stroke="rgb(0, 0, 0)" stroke-width="0.44347" stroke-opacity="0.296" id = "7" /><path d="M 320.92069 414.67749 L 321.09284 413.82064 L 321.00676 370.75235 L 321.35106 351.37537 L 324.88012 258.23362 L 327.50539 214.87971 L 336.37107 117.96478 L 338.04953 93.83751 L 338.09256 91.20682 L 337.61915 91.88328 " fill="none" stroke="rgb(0, 0, 0)" stroke-width="0.39196" stroke-opacity="0.261" id = "8" /><path d="M 282.31625 456.93403 L 282.35929 456.49808 L 289.11614 445.22366 L 298.19701 427.89111 L 312.27020 403.89915 L 323.97634 385.24374 L 327.29021 379.08038 L 327.59147 378.19346 L 327.29021 378.13333 " fill="none" stroke="rgb(0, 0, 0)" stroke-width="0.41638" stroke-opacity="0.278" id = "9" /><path d="M 280.98209 456.60331 L 234.28664 437.22634 L 221.54761 431.28847 L 205.15041 422.68985 L 202.22387 422.68985 L 199.55556 420.40490 L 193.78856 416.43630 " fill="none" stroke="rgb(0, 0, 0)" stroke-width="0.44978" stroke-opacity="0.300" id = "10" /><path d="M 191.93796 416.03042 L 191.85189 407.97297 L 190.99114 401.83968 L 187.20386 381.19998 L 184.23429 362.42431 L 173.69015 289.71180 L 163.61943 211.09150 L 156.13094 146.57174 L 154.02212 132.80192 L 151.22469 118.14517 L 150.01965 112.86874 " fill="none" stroke="rgb(0, 0, 0)" stroke-width="0.50872" stroke-opacity="0.339" id = "11" /><path d="M 279.94920 449.20729 L 280.12135 451.47721 L 279.47579 453.14582 L 280.29350 447.26809 L 280.33653 433.64859 L 274.56954 299.91891 L 271.34174 188.57272 L 269.23292 154.11809 L 268.32913 149.72858 " fill="none" stroke="rgb(0, 0, 0)" stroke-width="0.50101" stroke-opacity="0.334" id = "12" /><path d="M 322.08270 391.37702 L 322.77129 387.24307 L 325.69783 284.73602 L 328.15095 230.27305 L 337.27486 98.46754 L 337.87738 91.32708 L 338.35079 89.31271 L 338.39383 90.19963 " fill="none" stroke="rgb(0, 0, 0)" stroke-width="0.55582" stroke-opacity="0.371" id = "13" /><path d="M 278.09860 144.54235 L 276.97963 144.52731 L 275.90369 145.05345 L 269.79240 150.02923 L 283.34914 138.92017 L 303.53363 119.27261 L 330.64712 93.86758 L 346.22661 80.20298 L 347.77595 78.71476 L 347.34558 78.69972 " fill="none" stroke="rgb(0, 0, 0)" stroke-width="0.49171" stroke-opacity="0.328" id = "15" /><path d="M 150.10572 111.99685 L 156.13094 114.23670 L 181.91027 120.67064 L 200.63149 125.91700 L 232.17782 136.45483 L 267.59750 148.69133 L 269.10380 149.50309 " fill="none" stroke="rgb(0, 0, 0)" stroke-width="0.47019" stroke-opacity="0.313" id = "16" /><path d="M 153.46263 110.32823 L 147.13615 107.62237 L 144.81214 106.35964 L 145.07036 106.19428 L 147.91082 108.04329 L 153.16137 110.68902 L 175.79898 118.53601 L 220.72990 132.39604 L 269.74936 146.15083 " fill="none" stroke="rgb(0, 0, 0)" stroke-width="0.37344" stroke-opacity="0.249" id = "17" /><path d="M 242.89410 64.91486 L 231.61833 64.94493 L 246.85353 69.04882 L 302.41466 81.18010 L 338.69509 89.55323 " fill="none" stroke="rgb(0, 0, 0)" stroke-width="0.44077" stroke-opacity="0.294" id = "18" /><path d="M 232.47908 64.25343 L 231.79048 64.70441 L 237.12711 65.92205 L 282.35929 74.58080 L 307.19180 79.97749 L 343.55830 88.84670 L 345.71016 89.49310 L 344.59119 89.59833 " fill="none" stroke="rgb(0, 0, 0)" stroke-width="0.37056" stroke-opacity="0.247" id = "19" /><path d="M 152.81707 110.16288 L 147.48045 112.10208 L 159.44481 105.80343 L 178.68248 93.65712 L 206.18330 77.93306 L 218.01855 70.73247 L 224.51718 66.34296 L 223.95770 66.10244 L 220.77294 67.15472 L 227.40068 65.87695 L 229.93988 64.08807 L 231.31707 62.04364 " fill="none" stroke="rgb(0, 0, 0)" stroke-width="0.46943" stroke-opacity="0.313" id = "20" /><path d="M 190.81899 419.20229 L 192.66959 416.78205 L 197.74799 411.61085 L 207.60353 402.54621 L 227.05638 387.58882 L 244.05611 373.56343 L 254.29898 365.82166 " fill="none" stroke="rgb(0, 0, 0)" stroke-width="0.44114" stroke-opacity="0.294" id = "21" /><path d="M 250.85600 363.49162 L 247.28390 363.58181 " fill="none" stroke="rgb(0, 0, 0)" stroke-width="0.60491" stroke-opacity="0.403" id = "22" /><path d="M 250.85600 363.49162 L 247.28390 363.58181 " fill="none" stroke="rgb(0, 0, 0)" stroke-width="0.60491" stroke-opacity="0.403" id = "23" /><path d="M 250.51170 363.35632 L 250.64081 359.74851 L 246.63834 329.80365 L 242.89410 294.88300 L 238.59037 238.36057 L 236.18029 181.56755 " fill="none" stroke="rgb(0, 0, 0)" stroke-width="0.33173" stroke-opacity="0.221" id = "24" /><path d="M 232.60819 103.71391 L 230.45633 63.68219 L 230.02595 60.54039 " fill="none" stroke="rgb(0, 0, 0)" stroke-width="0.20892" stroke-opacity="0.139" id = "25" /><path d="M 251.37244 370.96280 L 249.95221 369.35432 L 246.63834 368.06152 L 243.15232 367.68570 L 265.01526 374.46539 L 308.22469 386.32608 " fill="none" stroke="rgb(0, 0, 0)" stroke-width="0.40031" stroke-opacity="0.267" id = "27" /><path d="M 240.95742 366.27264 L 241.86121 366.96414 L 244.05611 367.73080 L 254.12683 370.73731 L 309.47277 384.59734 L 322.55611 388.41561 L 339.72798 394.05282 " fill="none" stroke="rgb(0, 0, 0)" stroke-width="0.34343" stroke-opacity="0.229" id = "29" /><path d="M 191.37848 416.99251 L 191.46455 416.60166 L 207.51746 399.93055 L 230.24114 378.79477 L 240.01060 368.84321 L 240.31186 368.40727 L 240.01060 368.39223 L 246.12190 366.15238 L 246.46620 363.74717 L 247.92946 362.63476 " fill="none" stroke="rgb(0, 0, 0)" stroke-width="0.42288" stroke-opacity="0.282" id = "30" /><path d="M 311.49553 406.92069 L 311.40945 406.77036 " fill="none" stroke="rgb(0, 0, 0)" stroke-width="0.45996" stroke-opacity="0.307" id = "31" /><path d="M 308.18166 406.00370 L 309.25759 412.01673 L 309.04240 413.88077 L 309.42974 412.43764 L 310.20441 403.95928 L 310.29048 395.16523 L 308.65507 348.94010 L 307.01965 274.64917 L 306.80446 167.93301 L 307.96647 113.47004 " fill="none" stroke="rgb(0, 0, 0)" stroke-width="0.35280" stroke-opacity="0.235" id = "32" /><path d="M 232.78034 382.97382 L 235.70687 384.37185 " fill="none" stroke="rgb(0, 0, 0)" stroke-width="0.15049" stroke-opacity="0.100" id = "33" /><path d="M 232.78034 382.97382 L 235.70687 384.37185 " fill="none" stroke="rgb(0, 0, 0)" stroke-width="0.15049" stroke-opacity="0.100" id = "34" /><path d="M 229.46647 383.62022 L 233.29679 385.25877 L 243.19536 388.38554 L 270.99744 396.35280 L 311.10819 409.02525 L 322.08270 412.16705 L 326.47250 412.82849 " fill="none" stroke="rgb(0, 0, 0)" stroke-width="0.21632" stroke-opacity="0.144" id = "35" /><path d="M 250.38259 366.42297 L 248.18769 365.94193 L 250.16740 367.03930 L 260.23812 370.63208 L 313.04487 387.54372 L 328.53829 392.88028 L 331.93823 394.30837 L 332.19646 394.56392 L 331.33571 394.56392 " fill="none" stroke="rgb(0, 0, 0)" stroke-width="0.46808" stroke-opacity="0.312" id = "36" /><path d="M 234.88917 385.16857 L 230.75759 384.61237 L 241.86121 388.00973 L 282.05803 398.87827 L 312.48538 409.19061 L 315.49799 409.98733 L 315.79925 409.94224 L 315.36888 409.50629 " fill="none" stroke="rgb(0, 0, 0)" stroke-width="0.43390" stroke-opacity="0.289" id = "37" /><path d="M 209.45413 432.86689 L 201.36313 432.80676 L 198.78089 432.43095 " fill="none" stroke="rgb(0, 0, 0)" stroke-width="0.04753" stroke-opacity="0.032" id = "39" /><path d="M 196.45688 423.56174 L 194.60627 421.65260 L 191.55063 419.95392 L 195.98347 422.04345 L 229.76773 434.44531 L 282.83270 455.44580 L 289.89081 458.03140 L 293.67809 458.99349 " fill="none" stroke="rgb(0, 0, 0)" stroke-width="0.47679" stroke-opacity="0.318" id = "40" /><path d="M 230.19810 381.84638 L 229.29432 370.52686 L 216.08314 257.41339 L 215.61201 248.46189 L 212.31409 212.65589 L 212.07941 204.23665 L 208.16302 150.17956 L 203.38588 90.92120 L 202.82639 85.90032 L 202.13780 87.35848 L 203.64410 83.19446 " fill="none" stroke="rgb(0, 0, 0)" stroke-width="0.39279" stroke-opacity="0.262" id = "43" /><path d="M 307.62217 410.30302 L 300.82228 406.42462 L 293.93632 403.59849 L 249.86614 389.42279 L 245.99278 387.48359 L 233.33982 382.70323 " fill="none" stroke="rgb(0, 0, 0)" stroke-width="0.39414" stroke-opacity="0.263" id = "46" /><path d="M 296.17425 405.07169 L 300.73621 407.92787 L 306.46016 410.58864 L 271.77212 396.54822 L 250.46866 387.37836 L 229.12217 377.21635 L 227.70194 376.78040 " fill="none" stroke="rgb(0, 0, 0)" stroke-width="0.62709" stroke-opacity="0.418" id = "47" /><path d="M 302.07036 406.77036 L 303.57667 408.42395 L 308.22469 411.98666 L 292.43001 405.08672 L 237.98785 383.49996 L 234.88917 382.47774 L 234.97524 383.22937 L 235.10435 382.68820 L 234.67398 382.40258 " fill="none" stroke="rgb(0, 0, 0)" stroke-width="0.72883" stroke-opacity="0.486" id = "48" /><path d="M 159.18659 125.67648 L 158.36888 125.00002 L 159.27266 124.98498 L 163.61943 126.12746 L 239.83845 151.44229 L 276.72140 165.36245 L 277.79734 165.70819 L 276.33407 164.41539 L 279.99224 166.33956 " fill="none" stroke="rgb(0, 0, 0)" stroke-width="0.48434" stroke-opacity="0.323" id = "49" /><path d="M 297.16411 208.32551 L 298.79953 207.57388 " fill="none" stroke="rgb(0, 0, 0)" stroke-width="0.49554" stroke-opacity="0.330" id = "50" /><path d="M 297.16411 208.32551 L 298.79953 207.57388 " fill="none" stroke="rgb(0, 0, 0)" stroke-width="0.49554" stroke-opacity="0.330" id = "51" /><path d="M 194.69235 167.57223 L 198.04925 168.47419 L 214.66164 175.53949 L 290.45030 205.98043 L 295.91603 208.34054 L 293.33379 207.48369 " fill="none" stroke="rgb(0, 0, 0)" stroke-width="0.37260" stroke-opacity="0.248" id = "59" /><path d="M 209.92754 212.39933 L 215.73758 215.09016 L 225.80830 218.81824 L 287.22250 239.68343 L 302.32858 245.44091 " fill="none" stroke="rgb(0, 0, 0)" stroke-width="0.37407" stroke-opacity="0.249" id = "60" /><path d="M 224.60326 260.59373 L 222.32228 258.50420 L 220.38560 257.39179 L 219.30967 257.13624 L 221.50457 258.21858 L 231.27404 262.35254 L 285.71619 282.07526 L 306.46016 290.62879 L 305.08297 289.80200 L 304.73867 289.69677 L 304.82475 290.01245 L 305.81460 290.80918 L 309.17151 292.49283 L 313.60435 293.90589 L 313.00183 293.22942 " fill="none" stroke="rgb(0, 0, 0)" stroke-width="0.34607" stroke-opacity="0.231" id = "61" /><path d="M 229.38039 301.94831 L 242.50677 306.47311 L 291.13889 321.97168 L 307.19180 328.21019 " fill="none" stroke="rgb(0, 0, 0)" stroke-width="0.34486" stroke-opacity="0.230" id = "62" /><path d="M 228.77787 335.75654 L 224.99059 334.17812 L 225.63615 334.17812 L 235.44865 337.13954 L 283.95167 354.54724 L 309.55885 364.40860 " fill="none" stroke="rgb(0, 0, 0)" stroke-width="0.43756" stroke-opacity="0.292" id = "63" /><path d="M 238.28911 346.32443 L 235.31954 345.25712 " fill="none" stroke="rgb(0, 0, 0)" stroke-width="0.07001" stroke-opacity="0.047" id = "64" /><path d="M 231.74745 343.82903 L 228.34750 342.08525 L 229.76773 342.43100 L 271.85819 357.43350 L 299.70331 366.79878 L 315.62710 372.90200 L 321.43714 375.39741 L 322.55611 376.01374 L 321.48017 375.75819 " fill="none" stroke="rgb(0, 0, 0)" stroke-width="0.42773" stroke-opacity="0.285" id = "65" /><path d="M 226.49690 299.19735 L 226.41082 298.16010 L 273.36450 312.83188 L 306.11587 323.73049 L 306.71839 324.64748 " fill="none" stroke="rgb(0, 0, 0)" stroke-width="0.42878" stroke-opacity="0.286" id = "66" /><path d="M 223.95770 254.85129 L 219.05145 253.91927 L 260.84065 268.23027 L 290.10600 278.85829 L 305.85764 285.48765 L 307.45002 286.41967 L 304.65260 285.74321 " fill="none" stroke="rgb(0, 0, 0)" stroke-width="0.43266" stroke-opacity="0.288" id = "67" /><path d="M 214.44646 222.39599 L 212.94015 221.76462 L 215.52239 222.33586 L 261.22798 235.53445 L 285.07064 243.20105 L 304.00704 250.67224 " fill="none" stroke="rgb(0, 0, 0)" stroke-width="0.46290" stroke-opacity="0.309" id = "68" /><path d="M 192.62656 173.37480 L 195.12272 175.11858 L 199.51252 177.08784 L 260.02294 197.98311 L 295.44262 211.46731 L 303.66274 215.15029 L 304.43741 215.70650 L 303.87793 215.72153 L 300.69317 214.48886 " fill="none" stroke="rgb(0, 0, 0)" stroke-width="0.44706" stroke-opacity="0.298" id = "69" /><path d="M 190.81899 168.54935 L 193.61641 170.39835 L 207.94783 176.06563 L 255.50402 191.71453 L 277.66822 199.99747 L 302.28555 209.75360 " fill="none" stroke="rgb(0, 0, 0)" stroke-width="0.43749" stroke-opacity="0.292" id = "70" /><path d="M 297.85271 204.95822 L 298.41219 204.14646 " fill="none" stroke="rgb(0, 0, 0)" stroke-width="0.57782" stroke-opacity="0.385" id = "71" /><path d="M 297.85271 204.95822 L 298.41219 204.14646 " fill="none" stroke="rgb(0, 0, 0)" stroke-width="0.57782" stroke-opacity="0.385" id = "72" /><path d="M 281.02513 164.83631 L 278.61504 167.21145 L 281.02513 165.54284 L 304.65260 143.50510 L 332.71290 118.50595 L 328.79651 121.06148 " fill="none" stroke="rgb(0, 0, 0)" stroke-width="0.47178" stroke-opacity="0.315" id = "73" /><path d="M 278.14163 166.53499 L 279.17453 165.16702 L 291.13889 154.67429 L 317.13341 128.98364 L 335.42425 112.23737 " fill="none" stroke="rgb(0, 0, 0)" stroke-width="0.44737" stroke-opacity="0.298" id = "74" /><path d="M 287.00731 168.75980 L 283.26307 171.85651 L 287.05035 167.66243 L 326.77376 129.47972 L 332.32557 123.49676 " fill="none" stroke="rgb(0, 0, 0)" stroke-width="0.49530" stroke-opacity="0.330" id = "75" /><path d="M 295.74388 201.17001 L 295.05528 202.97392 L 293.97935 204.22162 L 318.89794 179.11724 L 320.61943 177.31333 L 319.75868 177.82444 L 320.27513 177.97477 L 321.43714 177.25320 " fill="none" stroke="rgb(0, 0, 0)" stroke-width="0.44014" stroke-opacity="0.293" id = "77" /><path d="M 303.44755 206.25102 L 301.16658 208.56603 L 300.69317 208.74642 L 302.02732 207.24316 L 327.16110 180.18455 " fill="none" stroke="rgb(0, 0, 0)" stroke-width="0.41939" stroke-opacity="0.280" id = "78" /><path d="M 305.68549 242.64485 L 303.31844 245.03503 L 305.94372 243.00563 L 312.70057 236.76712 L 320.14602 229.31097 L 318.20934 230.55867 " fill="none" stroke="rgb(0, 0, 0)" stroke-width="0.40460" stroke-opacity="0.270" id = "80" /><path d="M 306.67535 248.11670 L 309.51581 246.14744 L 321.17891 234.69262 " fill="none" stroke="rgb(0, 0, 0)" stroke-width="0.41611" stroke-opacity="0.277" id = "81" /><path d="M 324.06241 225.23714 L 324.23456 226.52994 L 322.81433 234.31681 " fill="none" stroke="rgb(0, 0, 0)" stroke-width="0.46313" stroke-opacity="0.309" id = "82" /><path d="M 312.05501 283.98440 L 319.15616 277.08445 L 319.62957 276.97922 " fill="none" stroke="rgb(0, 0, 0)" stroke-width="0.41995" stroke-opacity="0.280" id = "83" /><path d="M 310.72085 369.68503 L 317.73593 362.93541 L 319.37135 361.07138 L 318.85490 360.84589 " fill="none" stroke="rgb(0, 0, 0)" stroke-width="0.56956" stroke-opacity="0.380" id = "88" /><path d="M 320.87765 354.77273 L 320.96373 357.08775 " fill="none" stroke="rgb(0, 0, 0)" stroke-width="0.64868" stroke-opacity="0.432" id = "89" /><path d="M 320.87765 354.77273 L 320.96373 357.08775 " fill="none" stroke="rgb(0, 0, 0)" stroke-width="0.64868" stroke-opacity="0.432" id = "90" /><path d="M 299.70331 252.55131 L 299.44509 252.56634 " fill="none" stroke="rgb(0, 0, 0)" stroke-width="0.15346" stroke-opacity="0.102" id = "91" /><path d="M 299.70331 252.55131 L 299.44509 252.56634 " fill="none" stroke="rgb(0, 0, 0)" stroke-width="0.15346" stroke-opacity="0.102" id = "92" /><path d="M 302.41466 294.68758 L 318.33845 279.54979 " fill="none" stroke="rgb(0, 0, 0)" stroke-width="0.48924" stroke-opacity="0.326" id = "97" /><path d="M 305.16905 298.65618 L 303.70578 300.39995 L 312.87272 291.92159 L 317.60682 287.14123 " fill="none" stroke="rgb(0, 0, 0)" stroke-width="0.58952" stroke-opacity="0.393" id = "98" /><path d="M 302.93111 292.49283 L 301.59695 293.15426 L 308.82721 287.41182 L 318.68275 279.02365 L 317.52074 279.67005 " fill="none" stroke="rgb(0, 0, 0)" stroke-width="0.66095" stroke-opacity="0.441" id = "99" /><path d="M 308.74114 366.42297 L 308.18166 365.52101 L 307.88039 375.77322 L 307.70824 373.96931 " fill="none" stroke="rgb(0, 0, 0)" stroke-width="0.73035" stroke-opacity="0.487" id = "107" /><path d="M 308.74114 366.42297 L 308.18166 365.52101 L 307.88039 375.77322 L 307.70824 373.96931 " fill="none" stroke="rgb(0, 0, 0)" stroke-width="0.73035" stroke-opacity="0.487" id = "108" /><path d="M 206.65671 264.74272 L 215.43632 268.63615 L 237.60052 275.98707 L 297.89575 297.63396 L 302.37162 298.97186 " fill="none" stroke="rgb(0, 0, 0)" stroke-width="0.44334" stroke-opacity="0.296" id = "109" /><path d="M 218.87930 265.23879 L 211.86422 263.14926 L 220.21345 266.12571 L 247.02568 274.22826 L 293.50594 289.59154 L 299.96153 291.36538 L 302.62985 291.74120 L 300.60709 291.48564 " fill="none" stroke="rgb(0, 0, 0)" stroke-width="0.38206" stroke-opacity="0.255" id = "110" /><path d="M 213.06927 271.79299 L 215.52239 272.42435 L 213.19838 272.24396 L 228.26143 276.78380 L 272.03034 291.36538 L 305.85764 303.63195 L 304.30830 302.57968 " fill="none" stroke="rgb(0, 0, 0)" stroke-width="0.54333" stroke-opacity="0.362" id = "111" /><path d="M 220.77294 307.20970 L 218.27678 306.21756 L 219.61093 306.30775 L 245.86367 314.71095 L 306.37409 332.64480 L 304.09311 331.86311 L 304.39437 331.87814 L 304.39437 331.39710 " fill="none" stroke="rgb(0, 0, 0)" stroke-width="0.36024" stroke-opacity="0.240" id = "112" /><path d="M 304.95386 327.21804 L 303.18933 327.08275 L 276.11888 318.64948 L 263.19630 313.94919 L 267.94180 315.88349 L 224.12985 301.10648 L 220.72990 299.51303 " fill="none" stroke="rgb(0, 0, 0)" stroke-width="0.43055" stroke-opacity="0.287" id = "113" /><path d="M 215.39328 265.44925 L 208.24909 260.96954 L 211.56296 262.90874 L 218.10463 265.41918 L 257.56981 276.96419 L 285.07064 287.11117 L 301.33873 293.86079 L 303.66274 294.49216 L 303.27541 294.13137 " fill="none" stroke="rgb(0, 0, 0)" stroke-width="0.53706" stroke-opacity="0.358" id = "116" /><path d="M 217.32996 272.66488 L 212.25156 270.80084 L 210.83133 270.62045 L 215.04898 272.00344 L 228.34750 275.77662 L 252.01800 283.18767 L 300.99443 299.72349 L 300.00457 299.45290 L 300.77924 299.93394 " fill="none" stroke="rgb(0, 0, 0)" stroke-width="0.60274" stroke-opacity="0.402" id = "117" /><path d="M 207.60353 222.36592 L 201.92261 220.75744 L 216.55529 225.86851 L 264.84311 239.20239 L 283.43522 244.77947 L 296.81981 249.24414 L 304.00704 252.29575 L 304.30830 252.55131 L 303.92096 252.55131 L 302.11340 251.84478 " fill="none" stroke="rgb(0, 0, 0)" stroke-width="0.54015" stroke-opacity="0.360" id = "118" /><path d="M 201.10490 221.08815 L 201.66439 221.11822 L 213.19838 225.26721 L 271.16959 242.31413 L 294.40973 250.29642 L 302.32858 253.36307 L 303.10326 253.75391 L 302.02732 253.46829 L 301.76910 253.69378 " fill="none" stroke="rgb(0, 0, 0)" stroke-width="0.60305" stroke-opacity="0.402" id = "119" /><path d="M 200.58845 214.80454 L 202.00868 214.95487 L 212.63889 218.72804 L 224.86148 222.48618 L 237.75520 225.84758 L 233.33982 224.90643 L 237.98785 226.24432 L 253.30254 230.08776 L 248.14465 229.05541 L 295.14136 242.29910 L 298.49827 243.14092 L 297.12107 242.53962 L 296.51855 242.52459 L 296.38944 242.88537 L 297.33626 243.50170 L 301.38176 244.67424 " fill="none" stroke="rgb(0, 0, 0)" stroke-width="0.52956" stroke-opacity="0.353" id = "120" /><path d="M 211.56296 261.34536 L 216.81351 264.50219 L 223.65644 267.32832 L 258.21537 279.12888 L 284.55419 288.56933 L 315.23977 300.71564 " fill="none" stroke="rgb(0, 0, 0)" stroke-width="0.64297" stroke-opacity="0.429" id = "127" /><path d="M 212.98319 268.92177 L 209.62628 268.18517 L 262.73429 287.63731 L 297.85271 301.12152 L 294.28061 299.48297 " fill="none" stroke="rgb(0, 0, 0)" stroke-width="0.60104" stroke-opacity="0.401" id = "128" /><path d="M 213.93001 296.26600 L 217.15781 298.31043 L 227.91713 302.91039 L 292.68823 325.89518 L 307.96647 331.83304 L 305.59942 331.18664 " fill="none" stroke="rgb(0, 0, 0)" stroke-width="0.57973" stroke-opacity="0.386" id = "129" /><path d="M 224.99059 307.45023 L 223.18303 307.46526 L 218.79322 306.50317 L 258.68878 320.10764 L 303.61970 336.32778 L 307.53610 337.54542 L 304.78171 335.93693 " fill="none" stroke="rgb(0, 0, 0)" stroke-width="0.56551" stroke-opacity="0.377" id = "130" /><path d="M 218.27678 301.84308 L 216.89958 301.19668 L 218.14766 301.04635 L 223.05391 302.26399 L 255.84832 311.80967 L 299.53116 325.85008 L 300.52102 326.97752 L 304.05008 328.67620 " fill="none" stroke="rgb(0, 0, 0)" stroke-width="0.56457" stroke-opacity="0.376" id = "131" /><path d="M 224.64629 336.83888 L 221.16027 335.68138 L 222.27924 335.63628 L 227.52979 336.94411 L 265.31652 349.31591 L 307.88039 364.57396 L 308.74114 364.73932 L 307.88039 364.06286 L 307.70824 364.70926 L 308.35380 365.26546 " fill="none" stroke="rgb(0, 0, 0)" stroke-width="0.59446" stroke-opacity="0.396" id = "132" /><path d="M 227.44372 342.82184 L 222.53747 341.12316 L 239.88149 348.38389 L 294.92617 367.88113 L 311.06515 374.73597 " fill="none" stroke="rgb(0, 0, 0)" stroke-width="0.61187" stroke-opacity="0.408" id = "133" /><path d="M 233.46894 368.31707 L 233.29679 368.40727 " fill="none" stroke="rgb(0, 0, 0)" stroke-width="0.15101" stroke-opacity="0.101" id = "134" /><path d="M 222.06406 343.06237 L 219.74004 341.04800 L 231.61833 345.94862 L 280.16439 363.95763 L 307.75128 375.02159 L 311.23730 376.07387 " fill="none" stroke="rgb(0, 0, 0)" stroke-width="0.49829" stroke-opacity="0.332" id = "135" /><path d="M 220.94509 334.88465 L 223.09695 335.35066 L 241.60298 342.85191 L 303.14629 364.84455 L 307.49306 366.21251 L 308.13862 366.28767 " fill="none" stroke="rgb(0, 0, 0)" stroke-width="0.61433" stroke-opacity="0.410" id = "136" /><path d="M 268.80254 149.77368 L 277.62519 160.32654 L 279.60490 163.42325 " fill="none" stroke="rgb(0, 0, 0)" stroke-width="0.76325" stroke-opacity="0.509" id = "139" /><path d="M 285.80227 173.38983 L 284.29596 170.86436 L 287.09339 177.28327 L 294.19454 192.58642 L 296.21729 199.08048 L 296.90589 198.68964 " fill="none" stroke="rgb(0, 0, 0)" stroke-width="0.72887" stroke-opacity="0.486" id = "140" /><path d="M 285.24278 173.75062 L 292.43001 189.36945 L 295.78692 198.04324 L 296.60463 200.77916 L 296.04514 200.05760 " fill="none" stroke="rgb(0, 0, 0)" stroke-width="0.60822" stroke-opacity="0.405" id = "141" /><path d="M 299.96153 210.03922 L 299.48812 208.92681 L 299.48812 209.88890 L 305.29816 232.90375 L 306.89054 240.63049 " fill="none" stroke="rgb(0, 0, 0)" stroke-width="0.56303" stroke-opacity="0.375" id = "143" /><path d="M 306.97661 251.37877 L 307.23483 250.13106 L 307.70824 251.75458 L 313.13094 277.02432 L 313.73346 283.21773 " fill="none" stroke="rgb(0, 0, 0)" stroke-width="0.73575" stroke-opacity="0.491" id = "144" /><path d="M 306.63231 253.51339 L 305.47031 250.79250 L 307.14876 257.28656 L 311.45249 280.79749 " fill="none" stroke="rgb(0, 0, 0)" stroke-width="0.58248" stroke-opacity="0.388" id = "145" /><path d="M 313.60435 297.16795 L 314.07776 294.95817 L 313.34613 291.21506 L 313.26005 291.83139 L 314.59421 311.58418 L 314.85243 322.24227 L 314.68028 323.64029 L 314.37902 323.79062 L 314.24991 323.42984 L 314.59421 322.84357 " fill="none" stroke="rgb(0, 0, 0)" stroke-width="0.60912" stroke-opacity="0.406" id = "146" /><path d="M 311.49553 297.48364 L 310.37656 293.40981 L 310.33352 294.22157 L 313.00183 316.80048 L 313.17398 321.58083 L 312.82968 320.45339 " fill="none" stroke="rgb(0, 0, 0)" stroke-width="0.61191" stroke-opacity="0.408" id = "147" /><path d="M 314.76636 332.94545 L 314.24991 329.36770 L 314.98155 352.99889 L 314.03473 359.08708 " fill="none" stroke="rgb(0, 0, 0)" stroke-width="0.61191" stroke-opacity="0.408" id = "148" /><path d="M 312.78664 332.96048 L 312.44235 331.32193 L 312.27020 332.05853 L 312.44235 353.11915 L 312.09805 359.26747 L 311.58160 362.10862 " fill="none" stroke="rgb(0, 0, 0)" stroke-width="0.63296" stroke-opacity="0.422" id = "149" /><path d="M 312.61449 375.95361 L 312.52842 370.39156 L 312.91576 368.39223 L 313.13094 368.19681 L 313.13094 369.09876 L 312.31323 387.90450 L 311.45249 398.90833 L 310.33352 405.74815 L 309.25759 407.98800 L 310.03226 408.07820 " fill="none" stroke="rgb(0, 0, 0)" stroke-width="0.62851" stroke-opacity="0.419" id = "150" /><path d="M 309.81707 373.57847 L 308.22469 402.63641 L 307.66521 407.29650 L 307.45002 407.85271 L 307.40698 406.42462 " fill="none" stroke="rgb(0, 0, 0)" stroke-width="0.69422" stroke-opacity="0.463" id = "151" /><path d="M 170.16110 126.12746 L 167.14849 123.04578 L 169.94591 125.67648 L 176.18632 133.71890 L 191.50759 155.35076 L 194.43412 160.01085 L 196.49991 164.15984 " fill="none" stroke="rgb(0, 0, 0)" stroke-width="0.47561" stroke-opacity="0.317" id = "153" /><path d="M 171.10792 129.20913 L 171.62436 129.61501 L 173.64712 132.29081 L 190.47469 157.47035 L 195.29487 166.17420 L 196.54295 169.18072 L 195.68220 168.03824 " fill="none" stroke="rgb(0, 0, 0)" stroke-width="0.58223" stroke-opacity="0.388" id = "154" /><path d="M 301.16658 400.89263 L 302.28555 400.24623 " fill="none" stroke="rgb(0, 0, 0)" stroke-width="0.65872" stroke-opacity="0.439" id = "162" /><path d="M 301.16658 400.89263 L 302.28555 400.24623 " fill="none" stroke="rgb(0, 0, 0)" stroke-width="0.65872" stroke-opacity="0.439" id = "163" /><path d="M 236.86888 337.51535 L 246.20797 329.05202 L 245.77760 329.06705 " fill="none" stroke="rgb(0, 0, 0)" stroke-width="0.62500" stroke-opacity="0.417" id = "165" /><path d="M 234.50183 299.25748 L 230.11203 302.83523 " fill="none" stroke="rgb(0, 0, 0)" stroke-width="0.62146" stroke-opacity="0.414" id = "166" /><path d="M 234.50183 299.25748 L 230.11203 302.83523 " fill="none" stroke="rgb(0, 0, 0)" stroke-width="0.62146" stroke-opacity="0.414" id = "167" /><path d="M 234.28664 301.42217 L 233.46894 302.27902 L 235.40561 300.91106 L 244.18522 293.43988 " fill="none" stroke="rgb(0, 0, 0)" stroke-width="0.63849" stroke-opacity="0.426" id = "168" /><path d="M 232.39300 266.12571 L 230.32721 267.44858 L 229.50951 268.44073 L 232.04871 266.35120 L 240.13971 259.21073 " fill="none" stroke="rgb(0, 0, 0)" stroke-width="0.63754" stroke-opacity="0.425" id = "169" /><path d="M 232.82338 267.26819 L 242.85106 260.20288 L 243.06625 259.96236 L 241.64602 260.17282 " fill="none" stroke="rgb(0, 0, 0)" stroke-width="0.68071" stroke-opacity="0.454" id = "170" /><path d="M 221.46154 218.65288 L 217.93248 221.50907 L 221.20331 219.66006 L 233.55501 209.88890 " fill="none" stroke="rgb(0, 0, 0)" stroke-width="0.55687" stroke-opacity="0.371" id = "172" /><path d="M 202.91247 169.97744 L 198.73785 172.50291 L 202.99854 169.46634 L 217.84640 156.91415 L 229.50951 148.67630 L 231.53226 147.42860 L 231.36011 147.80441 " fill="none" stroke="rgb(0, 0, 0)" stroke-width="0.53896" stroke-opacity="0.359" id = "173" /><path d="M 200.63149 170.74410 L 199.94289 171.46567 L 200.50238 171.33037 L 204.20359 169.07549 L 214.83379 161.31869 L 235.44865 148.05997 L 236.78281 146.93252 L 236.22332 146.70704 " fill="none" stroke="rgb(0, 0, 0)" stroke-width="0.66158" stroke-opacity="0.441" id = "175" /><path d="M 237.42837 198.07330 L 237.21318 201.21511 " fill="none" stroke="rgb(0, 0, 0)" stroke-width="0.08524" stroke-opacity="0.057" id = "176" /><path d="M 237.04103 191.89492 L 237.38533 191.48904 L 236.35243 202.53797 L 236.69673 204.35691 " fill="none" stroke="rgb(0, 0, 0)" stroke-width="0.56212" stroke-opacity="0.375" id = "177" /><path d="M 159.91822 123.70722 L 153.59174 120.12947 L 236.30940 150.52531 L 258.00019 158.83831 L 281.28335 169.33104 L 278.95934 167.96308 " fill="none" stroke="rgb(0, 0, 0)" stroke-width="0.56887" stroke-opacity="0.379" id = "178" /><path d="M 168.74087 137.43194 L 165.21181 136.60515 " fill="none" stroke="rgb(0, 0, 0)" stroke-width="0.22357" stroke-opacity="0.149" id = "179" /><path d="M 160.21949 132.38100 L 157.24991 130.35161 L 155.22716 130.11109 L 160.64986 132.02022 L 229.07913 153.77234 L 261.22798 165.16702 L 279.77705 172.17220 L 278.70112 171.42057 L 281.32639 172.33755 " fill="none" stroke="rgb(0, 0, 0)" stroke-width="0.55591" stroke-opacity="0.371" id = "180" /><path d="M 164.13588 132.05029 L 162.54350 131.32872 L 154.71071 129.37449 L 154.53856 129.13397 L 155.95879 129.34443 L 166.02952 133.80910 L 178.16603 137.98815 L 228.17535 153.11091 L 245.56241 158.85335 L 267.55446 167.09119 L 275.21510 170.38332 L 276.37710 170.99966 L 275.90369 171.02972 " fill="none" stroke="rgb(0, 0, 0)" stroke-width="0.74792" stroke-opacity="0.499" id = "181" /><path d="M 155.61450 123.87257 L 155.27020 123.06082 L 162.37135 126.44314 L 173.43193 130.47187 L 244.40041 151.96843 L 259.85079 157.00434 L 274.95687 162.43110 L 274.52650 161.93502 L 276.46318 163.12259 " fill="none" stroke="rgb(0, 0, 0)" stroke-width="0.82288" stroke-opacity="0.549" id = "182" /><path d="M 165.94344 121.13665 L 164.73840 121.52749 " fill="none" stroke="rgb(0, 0, 0)" stroke-width="0.85047" stroke-opacity="0.567" id = "187" /><path d="M 165.94344 121.13665 L 164.73840 121.52749 " fill="none" stroke="rgb(0, 0, 0)" stroke-width="0.85047" stroke-opacity="0.567" id = "188" /><path d="M 165.94344 121.13665 L 164.73840 121.52749 " fill="none" stroke="rgb(0, 0, 0)" stroke-width="0.85047" stroke-opacity="0.567" id = "189" /><path d="M 165.94344 121.13665 L 167.36367 122.02357 " fill="none" stroke="rgb(0, 0, 0)" stroke-width="0.88470" stroke-opacity="0.590" id = "190" /><path d="M 165.94344 121.13665 L 167.36367 122.02357 " fill="none" stroke="rgb(0, 0, 0)" stroke-width="0.88470" stroke-opacity="0.590" id = "191" /><path d="M 174.89520 118.35562 L 178.03692 121.27194 " fill="none" stroke="rgb(0, 0, 0)" stroke-width="0.68845" stroke-opacity="0.459" id = "193" /><path d="M 165.59915 111.42561 L 165.21181 111.09490 L 164.60929 111.41058 L 159.70304 115.24388 L 190.00128 96.25776 L 221.37546 77.82784 L 247.80035 62.47959 L 265.61778 52.70842 " fill="none" stroke="rgb(0, 0, 0)" stroke-width="0.61912" stroke-opacity="0.413" id = "199" /><path d="M 166.76115 109.90732 L 172.95852 106.78055 L 190.47469 96.15253 L 232.22086 72.40108 L 252.53445 60.02928 " fill="none" stroke="rgb(0, 0, 0)" stroke-width="0.71384" stroke-opacity="0.476" id = "200" /><path d="M 169.81680 116.40139 L 168.69783 116.68701 L 170.33325 115.46937 L 193.05693 102.66163 L 230.68822 80.26790 L 236.81293 76.96998 L 237.12711 77.21150 L 265.23045 61.86325 " fill="none" stroke="rgb(0, 0, 0)" stroke-width="0.62089" stroke-opacity="0.414" id = "201" /><path d="M 177.64958 107.72760 L 170.11806 112.61318 L 169.12820 112.85371 L 182.90013 105.77337 L 218.44893 85.76503 L 260.96976 63.29135 " fill="none" stroke="rgb(0, 0, 0)" stroke-width="0.57308" stroke-opacity="0.382" id = "202" /><path d="M 175.62683 122.79023 L 177.21921 122.53468 L 182.90013 119.93404 L 198.30748 111.60600 L 218.06159 99.98583 L 235.83599 90.16957 L 247.36998 84.21667 L 270.82530 72.92722 " fill="none" stroke="rgb(0, 0, 0)" stroke-width="0.62720" stroke-opacity="0.418" id = "203" /><path d="M 262.13177 142.93386 L 259.89383 144.46718 L 262.43303 143.27961 L 265.87601 140.60382 L 317.37644 95.34411 L 347.05774 72.72979 L 347.17343 73.10761 L 361.67699 62.32926 " fill="none" stroke="rgb(0, 0, 0)" stroke-width="0.59149" stroke-opacity="0.394" id = "205" /><path d="M 258.43056 144.94823 L 259.20523 143.95608 L 285.37190 122.59481 L 327.27021 86.39261 L 340.46189 76.02771 L 352.24018 66.13395 L 352.59613 66.19263 " fill="none" stroke="rgb(0, 0, 0)" stroke-width="0.61240" stroke-opacity="0.408" id = "206" /><path d="M 273.14931 144.78287 L 265.44564 148.61617 L 270.78226 145.53450 L 277.49607 140.43846 L 287.60984 131.94506 L 307.01155 114.66051 L 331.98152 93.45958 L 350.82679 78.85450 L 361.66282 69.90300 L 361.89218 70.34162 L 366.66932 66.56845 " fill="none" stroke="rgb(0, 0, 0)" stroke-width="0.66012" stroke-opacity="0.440" id = "207" /><path d="M 333.27239 85.84019 L 333.44454 87.70423 L 330.86230 99.62505 " fill="none" stroke="rgb(0, 0, 0)" stroke-width="0.62774" stroke-opacity="0.418" id = "209" /><path d="M 275.86066 164.58075 L 289.20221 152.65993 L 315.97140 127.14967 L 327.97880 116.19093 L 328.15095 115.73996 " fill="none" stroke="rgb(0, 0, 0)" stroke-width="0.91695" stroke-opacity="0.611" id = "212" /><path d="M 275.86066 164.58075 L 289.20221 152.65993 L 315.97140 127.14967 L 327.97880 116.19093 L 328.15095 115.73996 " fill="none" stroke="rgb(0, 0, 0)" stroke-width="0.91695" stroke-opacity="0.611" id = "213" /><path d="M 291.00978 157.00434 L 286.61998 161.28862 L 281.45550 165.03173 L 285.93138 161.69450 L 304.22223 144.61751 L 318.68275 131.77970 L 327.97880 122.83533 L 328.23703 122.41442 " fill="none" stroke="rgb(0, 0, 0)" stroke-width="0.83721" stroke-opacity="0.558" id = "214" /><path d="M 277.66822 173.35977 L 277.88341 172.89376 L 296.17425 155.99716 L 320.83462 134.59079 L 329.26992 125.93203 L 329.65726 125.40590 L 329.35600 125.36080 " fill="none" stroke="rgb(0, 0, 0)" stroke-width="0.85335" stroke-opacity="0.569" id = "215" /><path d="M 300.65013 203.00398 L 325.26746 177.50876 L 327.03198 175.99047 L 324.62190 179.07214 " fill="none" stroke="rgb(0, 0, 0)" stroke-width="0.60884" stroke-opacity="0.406" id = "218" /><path d="M 298.67042 202.89875 L 297.33626 204.80789 L 300.56406 202.08700 L 313.69043 189.11389 L 326.38642 177.41856 L 325.43960 177.56889 L 326.77376 175.74995 " fill="none" stroke="rgb(0, 0, 0)" stroke-width="0.90857" stroke-opacity="0.606" id = "219" /><path d="M 298.67042 202.89875 L 297.33626 204.80789 L 300.56406 202.08700 L 313.69043 189.11389 L 326.38642 177.41856 L 325.43960 177.56889 L 326.77376 175.74995 " fill="none" stroke="rgb(0, 0, 0)" stroke-width="0.90857" stroke-opacity="0.606" id = "220" /><path d="M 300.00457 208.80655 L 297.46537 213.09083 L 306.24498 203.75561 L 326.73072 183.95773 L 327.24717 183.37146 L 326.08516 183.83746 L 327.37628 182.69499 " fill="none" stroke="rgb(0, 0, 0)" stroke-width="0.77900" stroke-opacity="0.519" id = "221" /><path d="M 296.13122 202.31248 L 294.28061 204.58240 L 300.60709 199.24584 L 320.79158 179.68848 L 322.16877 178.21529 " fill="none" stroke="rgb(0, 0, 0)" stroke-width="0.79333" stroke-opacity="0.529" id = "223" /><path d="M 296.13122 202.31248 L 294.28061 204.58240 L 300.60709 199.24584 L 320.79158 179.68848 L 322.16877 178.21529 " fill="none" stroke="rgb(0, 0, 0)" stroke-width="0.79333" stroke-opacity="0.529" id = "224" /><path d="M 308.13862 245.32064 L 305.81460 246.56835 L 313.26005 240.35990 L 323.20167 230.90442 L 324.10545 229.89724 L 322.59914 230.82925 " fill="none" stroke="rgb(0, 0, 0)" stroke-width="0.66253" stroke-opacity="0.442" id = "225" /><path d="M 321.13588 230.63383 L 319.15616 230.49854 " fill="none" stroke="rgb(0, 0, 0)" stroke-width="0.84539" stroke-opacity="0.564" id = "226" /><path d="M 321.13588 230.63383 L 319.15616 230.49854 " fill="none" stroke="rgb(0, 0, 0)" stroke-width="0.84539" stroke-opacity="0.564" id = "227" /><path d="M 323.97634 231.92663 L 323.54596 231.44559 L 323.45989 231.68611 L 321.82447 239.42788 " fill="none" stroke="rgb(0, 0, 0)" stroke-width="0.87646" stroke-opacity="0.584" id = "228" /><path d="M 304.26526 254.52057 L 322.12573 238.97690 L 322.64218 238.48083 L 322.64218 237.75927 " fill="none" stroke="rgb(0, 0, 0)" stroke-width="0.76370" stroke-opacity="0.509" id = "229" /><path d="M 305.16905 251.40883 L 303.83489 253.01732 L 304.95386 252.53627 L 309.04240 248.43239 L 323.45989 236.39130 L 321.22195 237.41352 " fill="none" stroke="rgb(0, 0, 0)" stroke-width="0.88021" stroke-opacity="0.587" id = "230" /><path d="M 308.13862 293.80066 L 306.63231 295.10849 L 307.49306 293.93595 L 321.91055 281.21840 L 318.94098 282.87199 " fill="none" stroke="rgb(0, 0, 0)" stroke-width="0.79401" stroke-opacity="0.529" id = "232" /><path d="M 304.82475 294.80784 L 320.27513 282.87199 L 321.17891 282.04519 L 320.83462 281.84977 L 320.57639 282.16546 " fill="none" stroke="rgb(0, 0, 0)" stroke-width="0.83671" stroke-opacity="0.558" id = "233" /><path d="M 228.73484 299.61826 L 226.79816 299.78362 " fill="none" stroke="rgb(0, 0, 0)" stroke-width="0.94503" stroke-opacity="0.630" id = "238" /><path d="M 228.73484 299.61826 L 226.79816 299.78362 " fill="none" stroke="rgb(0, 0, 0)" stroke-width="0.94503" stroke-opacity="0.630" id = "239" /><path d="M 228.73484 299.61826 L 226.79816 299.78362 " fill="none" stroke="rgb(0, 0, 0)" stroke-width="0.94503" stroke-opacity="0.630" id = "240" /><path d="M 230.15507 337.19967 L 228.47661 336.71862 " fill="none" stroke="rgb(0, 0, 0)" stroke-width="0.94979" stroke-opacity="0.633" id = "244" /><path d="M 230.15507 337.19967 L 228.47661 336.71862 " fill="none" stroke="rgb(0, 0, 0)" stroke-width="0.94979" stroke-opacity="0.633" id = "245" /><path d="M 247.06872 332.78009 L 244.22826 331.12651 L 244.40041 331.47226 L 255.54706 335.80164 L 297.63752 350.57865 L 312.27020 356.63677 L 315.11066 358.01977 L 315.97140 358.66617 L 315.62710 358.75636 " fill="none" stroke="rgb(0, 0, 0)" stroke-width="0.54666" stroke-opacity="0.364" id = "246" /><path d="M 247.58516 333.99773 L 242.80803 331.29187 L 252.87875 335.01994 L 299.44509 350.29303 L 307.49306 353.37470 " fill="none" stroke="rgb(0, 0, 0)" stroke-width="0.56899" stroke-opacity="0.379" id = "247" /><path d="M 243.62573 293.95098 L 241.73209 293.62027 L 251.63067 296.68691 L 298.79953 310.18615 L 313.69043 315.28219 L 316.48785 316.55996 " fill="none" stroke="rgb(0, 0, 0)" stroke-width="0.66923" stroke-opacity="0.446" id = "248" /><path d="M 248.01554 294.74771 L 244.57255 294.58235 L 242.11943 293.95098 L 241.38780 293.31962 L 249.82310 296.65685 L 290.79459 309.99073 L 302.02732 314.22991 L 307.01965 316.48480 " fill="none" stroke="rgb(0, 0, 0)" stroke-width="0.73512" stroke-opacity="0.490" id = "249" /><path d="M 237.60052 258.15845 L 238.54734 259.01531 L 243.75485 260.98457 L 286.96428 273.55180 L 300.65013 278.55764 L 306.63231 281.26350 L 307.14876 281.84977 L 306.33105 281.54912 " fill="none" stroke="rgb(0, 0, 0)" stroke-width="0.73614" stroke-opacity="0.491" id = "250" /><path d="M 250.29651 261.37542 L 244.70167 260.11269 L 242.24854 259.09047 L 241.21565 258.24865 L 244.65863 259.97739 L 249.17754 261.63098 L 288.25539 273.52173 L 307.10572 280.07593 " fill="none" stroke="rgb(0, 0, 0)" stroke-width="0.80458" stroke-opacity="0.536" id = "251" /><path d="M 236.39547 208.22028 L 234.41576 207.03271 L 234.97524 207.72421 L 238.80556 209.87386 L 245.82064 212.57972 L 285.50101 223.89924 L 296.86285 227.53712 " fill="none" stroke="rgb(0, 0, 0)" stroke-width="0.68350" stroke-opacity="0.456" id = "252" /><path d="M 236.39547 208.16015 L 231.83352 208.11505 L 230.11203 207.21310 L 239.19289 210.15948 L 272.41768 219.13392 L 296.56159 226.66524 L 296.64766 225.92864 " fill="none" stroke="rgb(0, 0, 0)" stroke-width="0.83465" stroke-opacity="0.556" id = "253" /><path d="M 195.03664 173.26957 L 191.07722 172.26239 L 207.25923 179.47802 L 259.85079 199.48636 L 296.08818 214.21827 L 292.51608 212.02352 " fill="none" stroke="rgb(0, 0, 0)" stroke-width="0.84917" stroke-opacity="0.566" id = "254" /><path d="M 190.43166 173.84081 L 192.28226 174.80289 L 262.34695 199.80205 L 286.61998 209.39282 L 289.63259 211.01634 L 286.36175 210.27974 " fill="none" stroke="rgb(0, 0, 0)" stroke-width="0.82991" stroke-opacity="0.553" id = "255" /><path d="M 201.75046 219.94568 L 256.23566 238.57102 L 299.57420 254.09966 L 311.92590 258.08329 L 312.82968 258.20355 L 311.88286 257.60225 L 307.49306 256.03886 " fill="none" stroke="rgb(0, 0, 0)" stroke-width="0.80418" stroke-opacity="0.536" id = "256" /><path d="M 200.58845 222.14043 L 200.11504 221.82475 L 200.45934 221.65939 L 202.61121 221.79468 L 206.61367 222.77180 L 258.25841 239.05207 L 275.64547 245.00496 L 304.56652 255.82841 " fill="none" stroke="rgb(0, 0, 0)" stroke-width="0.85778" stroke-opacity="0.572" id = "257" /><path d="M 199.94289 215.06010 L 200.63149 214.99997 L 218.31981 221.01299 L 256.96729 232.70833 L 285.84531 242.13374 L 305.90068 249.61996 " fill="none" stroke="rgb(0, 0, 0)" stroke-width="0.73287" stroke-opacity="0.489" id = "258" /><path d="M 209.28198 268.72634 L 214.79076 271.22175 L 234.92841 277.67206 L 231.18796 276.67857 L 271.04048 290.61376 L 302.75896 301.37707 " fill="none" stroke="rgb(0, 0, 0)" stroke-width="0.92522" stroke-opacity="0.617" id = "259" /><path d="M 215.82365 266.74205 L 208.85161 265.13356 L 211.90726 265.59957 L 229.63862 270.51522 L 258.73182 279.97070 L 300.52102 295.49934 " fill="none" stroke="rgb(0, 0, 0)" stroke-width="0.80738" stroke-opacity="0.538" id = "260" /><path d="M 217.88944 306.23259 L 216.08188 305.73651 L 222.58050 308.36721 L 290.79459 332.91539 L 306.37409 338.88331 " fill="none" stroke="rgb(0, 0, 0)" stroke-width="0.98884" stroke-opacity="0.659" id = "261" /><path d="M 215.13505 298.71631 L 215.56543 299.15225 L 231.96263 304.23326 L 255.59010 312.17045 L 286.23264 323.50500 L 305.34119 331.57749 L 304.65260 330.90102 " fill="none" stroke="rgb(0, 0, 0)" stroke-width="0.60458" stroke-opacity="0.403" id = "262" /><path d="M 227.27157 344.53556 L 220.81598 342.68655 L 249.60792 352.05184 L 268.80254 358.78643 L 285.54405 365.00991 L 301.16658 371.42881 L 302.11340 371.62423 " fill="none" stroke="rgb(0, 0, 0)" stroke-width="1.04042" stroke-opacity="0.694" id = "263" /><path d="M 305.81460 375.11179 L 308.91329 374.05951 " fill="none" stroke="rgb(0, 0, 0)" stroke-width="0.83694" stroke-opacity="0.558" id = "264" /><path d="M 248.27376 365.08507 L 248.44591 359.88380 L 247.84339 351.07472 L 241.55995 284.42034 L 236.95496 198.90009 L 234.71702 178.14012 L 233.89931 173.29964 L 233.55501 172.83363 L 233.42590 173.75062 " fill="none" stroke="rgb(0, 0, 0)" stroke-width="0.66004" stroke-opacity="0.440" id = "266" /><path d="M 241.17261 250.32649 L 241.21565 252.19053 L 240.52705 256.02383 L 240.87135 246.97423 L 239.83845 235.54948 L 239.75238 235.08347 L 239.53719 235.26386 L 240.87135 255.52775 L 239.45112 234.61746 " fill="none" stroke="rgb(0, 0, 0)" stroke-width="0.97729" stroke-opacity="0.652" id = "279" /><path d="M 174.42179 113.04913 L 167.53582 117.27328 L 190.43166 102.28581 L 209.10984 90.80094 L 242.89410 72.11546 L 265.27349 60.31490 " fill="none" stroke="rgb(0, 0, 0)" stroke-width="0.77413" stroke-opacity="0.516" id = "288" /><path d="M 184.06214 119.61836 L 180.74827 122.54971 L 178.68248 123.78238 L 189.09750 118.58111 L 206.87190 108.26877 L 240.48401 87.65913 L 255.71921 79.28599 " fill="none" stroke="rgb(0, 0, 0)" stroke-width="0.90116" stroke-opacity="0.601" id = "289" /><path d="M 181.60901 118.53601 L 183.20139 118.19027 L 187.24690 116.38636 L 200.15808 109.26092 L 247.24087 80.62389 " fill="none" stroke="rgb(0, 0, 0)" stroke-width="0.68442" stroke-opacity="0.456" id = "290" /><path d="M 162.11313 119.66346 L 163.40424 118.82163 L 152.81707 123.79741 " fill="none" stroke="rgb(0, 0, 0)" stroke-width="1.07730" stroke-opacity="0.718" id = "294" /><path d="M 162.11313 119.66346 L 163.40424 118.82163 L 152.81707 123.79741 " fill="none" stroke="rgb(0, 0, 0)" stroke-width="1.07730" stroke-opacity="0.718" id = "295" /><path d="M 162.11313 119.66346 L 163.40424 118.82163 L 152.81707 123.79741 " fill="none" stroke="rgb(0, 0, 0)" stroke-width="1.07730" stroke-opacity="0.718" id = "296" /><path d="M 162.11313 119.66346 L 163.40424 118.82163 L 152.81707 123.79741 " fill="none" stroke="rgb(0, 0, 0)" stroke-width="1.07730" stroke-opacity="0.718" id = "297" /><path d="M 162.11313 119.66346 L 163.40424 118.82163 L 152.81707 123.79741 " fill="none" stroke="rgb(0, 0, 0)" stroke-width="1.07730" stroke-opacity="0.718" id = "298" /><path d="M 227.96016 75.97883 L 229.38039 75.96380 L 236.65370 78.06836 L 248.31680 80.68402 L 276.33407 85.81013 L 340.07228 94.16823 " fill="none" stroke="rgb(0, 0, 0)" stroke-width="0.24912" stroke-opacity="0.166" id = "299" /><path d="M 255.03061 81.51081 L 248.83325 80.75918 L 247.84339 80.42847 L 250.12436 80.50363 L 257.01033 81.52585 L 299.57420 89.94408 L 313.38917 92.90550 L 321.39410 95.14535 " fill="none" stroke="rgb(0, 0, 0)" stroke-width="0.47334" stroke-opacity="0.316" id = "300" /><path d="M 248.40287 79.58664 L 246.20797 79.01541 L 248.87628 79.15070 L 307.01965 90.71074 L 310.84997 91.28198 L 311.49553 90.72577 L 312.52842 90.66564 " fill="none" stroke="rgb(0, 0, 0)" stroke-width="0.66169" stroke-opacity="0.441" id = "301" /><path d="M 316.96126 389.46789 L 319.97387 389.39272 " fill="none" stroke="rgb(0, 0, 0)" stroke-width="0.18728" stroke-opacity="0.125" id = "306" /><path d="M 320.87765 388.86658 L 321.48017 387.64895 " fill="none" stroke="rgb(0, 0, 0)" stroke-width="0.67826" stroke-opacity="0.452" id = "308" /><path d="M 325.65479 386.82215 L 325.05227 387.18294 L 325.05227 386.19079 L 325.43960 378.56928 L 325.38568 297.45958 L 325.85681 288.03695 L 325.85681 278.14319 L 326.79908 257.88453 L 326.79908 247.51963 L 328.68360 207.47344 L 330.56813 179.20554 L 332.92809 131.05814 L 333.48758 109.38118 L 333.48758 90.90616 L 333.01417 84.23171 " fill="none" stroke="rgb(0, 0, 0)" stroke-width="0.77099" stroke-opacity="0.514" id = "309" /><path d="M 312.14108 404.06450 L 310.93604 407.19128 L 311.40945 405.94357 L 321.35106 392.74498 L 323.02952 390.20448 L 321.99662 391.12147 " fill="none" stroke="rgb(0, 0, 0)" stroke-width="0.92579" stroke-opacity="0.617" id = "310" /><path d="M 311.36641 406.68017 L 313.04487 404.72594 L 319.67261 394.68418 " fill="none" stroke="rgb(0, 0, 0)" stroke-width="0.90649" stroke-opacity="0.604" id = "311" /><path d="M 235.14739 382.32742 L 234.67398 382.52284 L 235.01828 382.02677 L 244.74470 370.99287 L 249.65095 365.97199 L 249.90918 365.47592 L 249.09147 365.73147 L 247.97250 367.05434 " fill="none" stroke="rgb(0, 0, 0)" stroke-width="0.75068" stroke-opacity="0.500" id = "312" /><path d="M 235.36258 381.23004 L 246.85353 369.85039 L 251.02815 366.42297 L 249.69399 366.78375 " fill="none" stroke="rgb(0, 0, 0)" stroke-width="0.87653" stroke-opacity="0.584" id = "313" /><path d="M 234.93220 376.13400 L 235.14739 378.59934 L 234.63094 380.11763 L 235.57776 369.71510 L 236.39547 344.35517 L 235.79295 347.16626 " fill="none" stroke="rgb(0, 0, 0)" stroke-width="0.68886" stroke-opacity="0.459" id = "314" /><path d="M 235.49169 348.57932 L 236.00814 355.40410 L 235.83599 377.69739 " fill="none" stroke="rgb(0, 0, 0)" stroke-width="0.81190" stroke-opacity="0.541" id = "315" /><path d="M 230.37025 348.35383 L 231.14492 359.41779 L 231.31707 376.04381 L 231.01581 377.92288 " fill="none" stroke="rgb(0, 0, 0)" stroke-width="0.95329" stroke-opacity="0.636" id = "316" /><path d="M 230.37025 348.35383 L 231.14492 359.41779 L 231.31707 376.04381 L 231.01581 377.92288 " fill="none" stroke="rgb(0, 0, 0)" stroke-width="0.95329" stroke-opacity="0.636" id = "317" /><path d="M 302.62985 403.02726 L 301.72606 407.28147 L 302.80200 399.37434 L 303.96400 385.69471 L 303.87793 377.17125 " fill="none" stroke="rgb(0, 0, 0)" stroke-width="0.63625" stroke-opacity="0.424" id = "318" /><path d="M 306.63231 375.57780 L 306.71839 381.89147 L 305.38423 399.05866 L 304.26526 408.28865 L 304.35134 405.97364 " fill="none" stroke="rgb(0, 0, 0)" stroke-width="0.99575" stroke-opacity="0.664" id = "319" /><path d="M 306.63231 375.57780 L 306.71839 381.89147 L 305.38423 399.05866 L 304.26526 408.28865 L 304.35134 405.97364 " fill="none" stroke="rgb(0, 0, 0)" stroke-width="0.99575" stroke-opacity="0.664" id = "320" /><path d="M 306.63231 375.57780 L 306.71839 381.89147 L 305.38423 399.05866 L 304.26526 408.28865 L 304.35134 405.97364 " fill="none" stroke="rgb(0, 0, 0)" stroke-width="0.99575" stroke-opacity="0.664" id = "321" /><path d="M 308.87025 375.66799 L 306.58928 390.55023 " fill="none" stroke="rgb(0, 0, 0)" stroke-width="0.83950" stroke-opacity="0.560" id = "322" /><path d="M 318.81186 285.60791 L 320.44728 282.21055 " fill="none" stroke="rgb(0, 0, 0)" stroke-width="1.07192" stroke-opacity="0.715" id = "329" /><path d="M 318.81186 285.60791 L 320.44728 282.21055 " fill="none" stroke="rgb(0, 0, 0)" stroke-width="1.07192" stroke-opacity="0.715" id = "330" /><path d="M 318.81186 285.60791 L 320.44728 282.21055 " fill="none" stroke="rgb(0, 0, 0)" stroke-width="1.07192" stroke-opacity="0.715" id = "331" /><path d="M 284.98456 197.27658 L 284.46811 197.15632 L 273.53664 172.69834 L 264.71400 154.56907 " fill="none" stroke="rgb(0, 0, 0)" stroke-width="0.81648" stroke-opacity="0.544" id = "342" /><path d="M 257.52678 143.09922 L 257.13944 143.47503 L 266.47853 156.40304 " fill="none" stroke="rgb(0, 0, 0)" stroke-width="0.90027" stroke-opacity="0.600" id = "346" /><path d="M 257.48374 146.06064 L 264.11148 155.69651 L 265.74690 157.38016 " fill="none" stroke="rgb(0, 0, 0)" stroke-width="0.93558" stroke-opacity="0.624" id = "347" /><path d="M 170.46236 114.94323 L 170.16110 114.20664 L 171.75348 115.69486 L 177.39136 123.07585 " fill="none" stroke="rgb(0, 0, 0)" stroke-width="0.95706" stroke-opacity="0.638" id = "352" /><path d="M 170.67754 114.70271 L 175.88506 122.23402 " fill="none" stroke="rgb(0, 0, 0)" stroke-width="0.92587" stroke-opacity="0.617" id = "353" /><path d="M 195.42398 143.88091 L 196.41384 152.56974 " fill="none" stroke="rgb(0, 0, 0)" stroke-width="0.33678" stroke-opacity="0.225" id = "354" /><path d="M 204.33270 146.13580 L 203.42891 158.23701 " fill="none" stroke="rgb(0, 0, 0)" stroke-width="0.57545" stroke-opacity="0.384" id = "356" /><path d="M 207.81872 148.81159 L 208.33516 147.59396 L 206.82886 161.30365 " fill="none" stroke="rgb(0, 0, 0)" stroke-width="0.56829" stroke-opacity="0.379" id = "357" /><path d="M 210.74525 150.55537 L 211.30474 148.94689 L 211.30474 149.84884 L 209.66932 162.49123 " fill="none" stroke="rgb(0, 0, 0)" stroke-width="0.57798" stroke-opacity="0.385" id = "358" /><path d="M 217.76033 187.02437 L 217.24388 184.75445 L 217.20084 185.71654 L 218.83626 200.50858 " fill="none" stroke="rgb(0, 0, 0)" stroke-width="0.49016" stroke-opacity="0.327" id = "361" /><path d="M 223.26910 186.22764 L 222.32228 189.54984 L 221.63368 203.04908 " fill="none" stroke="rgb(0, 0, 0)" stroke-width="0.52891" stroke-opacity="0.353" id = "362" /><path d="M 225.67919 191.33871 L 226.28171 188.01652 L 225.67919 205.49939 " fill="none" stroke="rgb(0, 0, 0)" stroke-width="0.52389" stroke-opacity="0.349" id = "363" /><path d="M 229.16521 190.55702 L 229.81077 188.33220 L 228.43357 204.47717 L 228.43357 208.77649 L 228.82091 209.07714 " fill="none" stroke="rgb(0, 0, 0)" stroke-width="0.57276" stroke-opacity="0.382" id = "364" /><path d="M 228.99306 230.79919 L 228.51965 228.58940 L 230.58544 246.79384 " fill="none" stroke="rgb(0, 0, 0)" stroke-width="0.42020" stroke-opacity="0.280" id = "366" /><path d="M 232.90945 231.77631 L 232.90945 230.18285 L 232.56515 231.70114 L 232.60819 246.13240 L 233.29679 251.55916 " fill="none" stroke="rgb(0, 0, 0)" stroke-width="0.59966" stroke-opacity="0.400" id = "367" /><path d="M 236.13725 236.25601 L 236.52458 230.91945 L 236.52458 252.40098 " fill="none" stroke="rgb(0, 0, 0)" stroke-width="0.55075" stroke-opacity="0.367" id = "368" /><path d="M 234.58791 277.95634 L 234.28664 277.15961 L 234.28664 278.88836 L 234.93220 289.72683 L 235.57776 293.72550 " fill="none" stroke="rgb(0, 0, 0)" stroke-width="0.43831" stroke-opacity="0.292" id = "369" /><path d="M 237.25622 279.94064 L 237.21318 278.19686 L 236.91192 278.04653 L 236.73977 278.58771 L 237.04103 293.65033 " fill="none" stroke="rgb(0, 0, 0)" stroke-width="0.53800" stroke-opacity="0.359" id = "370" /><path d="M 238.76252 285.03667 L 239.27897 279.85044 L 239.53719 295.81502 " fill="none" stroke="rgb(0, 0, 0)" stroke-width="0.59780" stroke-opacity="0.399" id = "371" /><path d="M 242.20550 318.31877 L 242.63588 316.12401 L 242.63588 327.96967 " fill="none" stroke="rgb(0, 0, 0)" stroke-width="0.53359" stroke-opacity="0.356" id = "373" /><path d="M 185.43933 104.19495 L 184.83681 108.29884 L 184.62162 118.17523 " fill="none" stroke="rgb(0, 0, 0)" stroke-width="0.46151" stroke-opacity="0.308" id = "374" /><path d="M 192.06707 100.76753 L 192.15315 103.36816 L 191.29240 109.14066 L 190.99114 115.01839 " fill="none" stroke="rgb(0, 0, 0)" stroke-width="0.48650" stroke-opacity="0.324" id = "375" /><path d="M 198.09229 98.12179 L 196.84421 105.54788 L 196.37080 111.36548 " fill="none" stroke="rgb(0, 0, 0)" stroke-width="0.48879" stroke-opacity="0.326" id = "376" /><path d="M 221.20331 86.15587 L 218.92234 96.46821 L 218.83626 98.28715 " fill="none" stroke="rgb(0, 0, 0)" stroke-width="0.54722" stroke-opacity="0.365" id = "381" /><path d="M 229.68166 80.86441 L 226.84120 93.31137 " fill="none" stroke="rgb(0, 0, 0)" stroke-width="0.56483" stroke-opacity="0.377" id = "383" /><path d="M 233.21071 78.91018 L 230.80062 89.16239 " fill="none" stroke="rgb(0, 0, 0)" stroke-width="0.50515" stroke-opacity="0.337" id = "384" /><path d="M 240.31186 75.73831 L 238.71948 83.82583 " fill="none" stroke="rgb(0, 0, 0)" stroke-width="0.60965" stroke-opacity="0.406" id = "386" /></svg>